<svg width="35" height="33" viewBox="0 0 35 33" fill="none" xmlns="http://www.w3.org/2000/svg">
<g id="Frame 427320365">
<path id="Vector" d="M7.57993 27H6.42736C6.09924 27 5.83325 27.2659 5.83325 27.5938V28.8586C5.83325 29.1866 6.09924 29.4524 6.42736 29.4524H7.57993C7.90805 29.4524 8.17404 29.1866 8.17404 28.8586V27.5938C8.17404 27.2659 7.90805 27 7.57993 27Z" fill="#FF5C00"/>
<path id="Vector_2" d="M25.0799 29.9166H23.9274C23.5992 29.9166 23.3333 30.1825 23.3333 30.5104V31.7753C23.3333 32.1032 23.5992 32.3691 23.9274 32.3691H25.0799C25.408 32.3691 25.674 32.1032 25.674 31.7753V30.5104C25.674 30.1825 25.408 29.9166 25.0799 29.9166Z" fill="#FF5C00"/>
<path id="Vector_3" d="M4.66343 29.9166H3.51086C3.18274 29.9166 2.91675 30.1825 2.91675 30.5104V31.7753C2.91675 32.1032 3.18274 32.3691 3.51086 32.3691H4.66343C4.99154 32.3691 5.25754 32.1032 5.25754 31.7753V30.5104C5.25754 30.1825 4.99154 29.9166 4.66343 29.9166Z" fill="#FF5C00"/>
<path id="Vector_4" d="M22.1634 27H21.0109C20.6827 27 20.4167 27.2659 20.4167 27.5938V28.8586C20.4167 29.1866 20.6827 29.4524 21.0109 29.4524H22.1634C22.4915 29.4524 22.7575 29.1866 22.7575 28.8586V27.5938C22.7575 27.2659 22.4915 27 22.1634 27Z" fill="#FF5C00"/>
<path id="Vector_5" d="M33.8299 9.47144H32.6774C32.3492 9.47144 32.0833 9.73729 32.0833 10.0652V11.3301C32.0833 11.658 32.3492 11.9239 32.6774 11.9239H33.8299C34.1581 11.9239 34.424 11.658 34.424 11.3301V10.0652C34.424 9.73729 34.1581 9.47144 33.8299 9.47144Z" fill="#FF5C00"/>
<path id="Vector_6" d="M27.9967 12.4166H26.8441C26.516 12.4166 26.25 12.6825 26.25 13.0104V14.2753C26.25 14.6032 26.516 14.8691 26.8441 14.8691H27.9967C28.3248 14.8691 28.5908 14.6032 28.5908 14.2753V13.0104C28.5908 12.6825 28.3248 12.4166 27.9967 12.4166Z" fill="#FF5C00"/>
<path id="Vector_7" d="M1.74668 3.66663H0.594108C0.265991 3.66663 0 3.93248 0 4.26044V5.52526C0 5.85321 0.265991 6.11907 0.594108 6.11907H1.74668C2.0748 6.11907 2.34079 5.85321 2.34079 5.52526V4.26044C2.34079 3.93248 2.0748 3.66663 1.74668 3.66663Z" fill="#FF5C00"/>
<path id="Vector_8" d="M1.74668 6.58337H0.594108C0.265991 6.58337 0 6.84923 0 7.17719V8.44201C0 8.76996 0.265991 9.03582 0.594108 9.03582H1.74668C2.0748 9.03582 2.34079 8.76996 2.34079 8.44201V7.17719C2.34079 6.84923 2.0748 6.58337 1.74668 6.58337Z" fill="#FF5C00"/>
<path id="Vector_9" d="M1.74668 12.4166H0.594108C0.265991 12.4166 0 12.6825 0 13.0104V14.2753C0 14.6032 0.265991 14.8691 0.594108 14.8691H1.74668C2.0748 14.8691 2.34079 14.6032 2.34079 14.2753V13.0104C2.34079 12.6825 2.0748 12.4166 1.74668 12.4166Z" fill="#FF5C00"/>
<path id="Vector_10" d="M33.8299 3.63806H32.6774C32.3492 3.63806 32.0833 3.90392 32.0833 4.23187V5.49669C32.0833 5.82465 32.3492 6.09051 32.6774 6.09051H33.8299C34.1581 6.09051 34.424 5.82465 34.424 5.49669V4.23187C34.424 3.90392 34.1581 3.63806 33.8299 3.63806Z" fill="#FF5C00"/>
<path id="Vector_11" d="M16.3299 21.1666H15.1774C14.8492 21.1666 14.5833 21.4325 14.5833 21.7604V23.0253C14.5833 23.3532 14.8492 23.6191 15.1774 23.6191H16.3299C16.658 23.6191 16.924 23.3532 16.924 23.0253V21.7604C16.924 21.4325 16.658 21.1666 16.3299 21.1666Z" fill="#FF5C00"/>
<path id="Vector_12" d="M7.57993 0.75H6.42736C6.09924 0.75 5.83325 1.01586 5.83325 1.34381V2.60863C5.83325 2.93659 6.09924 3.20245 6.42736 3.20245H7.57993C7.90805 3.20245 8.17404 2.93659 8.17404 2.60863V1.34381C8.17404 1.01586 7.90805 0.75 7.57993 0.75Z" fill="#FF5C00"/>
<path id="Vector_13" d="M22.1634 0.75H21.0109C20.6827 0.75 20.4167 1.01586 20.4167 1.34381V2.60863C20.4167 2.93659 20.6827 3.20245 21.0109 3.20245H22.1634C22.4915 3.20245 22.7575 2.93659 22.7575 2.60863V1.34381C22.7575 1.01586 22.4915 0.75 22.1634 0.75Z" fill="#FF5C00"/>
<path id="Vector_14" d="M7.57993 18.25H6.42736C6.09924 18.25 5.83325 18.5159 5.83325 18.8438V20.1086C5.83325 20.4366 6.09924 20.7024 6.42736 20.7024H7.57993C7.90805 20.7024 8.17404 20.4366 8.17404 20.1086V18.8438C8.17404 18.5159 7.90805 18.25 7.57993 18.25Z" fill="#FF5C00"/>
<path id="Vector_15" d="M1.74668 9.52856H0.594108C0.265991 9.52856 0 9.79442 0 10.1224V11.3872C0 11.7152 0.265991 11.981 0.594108 11.981H1.74668C2.0748 11.981 2.34079 11.7152 2.34079 11.3872V10.1224C2.34079 9.79442 2.0748 9.52856 1.74668 9.52856Z" fill="#FF5C00"/>
<path id="Vector_16" d="M22.1634 18.25H21.0109C20.6827 18.25 20.4167 18.5159 20.4167 18.8438V20.1086C20.4167 20.4366 20.6827 20.7024 21.0109 20.7024H22.1634C22.4915 20.7024 22.7575 20.4366 22.7575 20.1086V18.8438C22.7575 18.5159 22.4915 18.25 22.1634 18.25Z" fill="#FF5C00"/>
<path id="Vector_17" d="M19.2467 0.75H18.0941C17.766 0.75 17.5 1.01586 17.5 1.34381V2.60863C17.5 2.93659 17.766 3.20245 18.0941 3.20245H19.2467C19.5748 3.20245 19.8408 2.93659 19.8408 2.60863V1.34381C19.8408 1.01586 19.5748 0.75 19.2467 0.75Z" fill="#FF5C00"/>
<path id="Vector_18" d="M33.8299 0.75H32.6774C32.3492 0.75 32.0833 1.01586 32.0833 1.34381V2.60863C32.0833 2.93659 32.3492 3.20245 32.6774 3.20245H33.8299C34.1581 3.20245 34.424 2.93659 34.424 2.60863V1.34381C34.424 1.01586 34.1581 0.75 33.8299 0.75Z" fill="#FF5C00"/>
<path id="Vector_19" d="M33.8299 12.4166H32.6774C32.3492 12.4166 32.0833 12.6825 32.0833 13.0104V14.2753C32.0833 14.6032 32.3492 14.8691 32.6774 14.8691H33.8299C34.1581 14.8691 34.424 14.6032 34.424 14.2753V13.0104C34.424 12.6825 34.1581 12.4166 33.8299 12.4166Z" fill="#FF5C00"/>
<path id="Vector_20" d="M19.2467 18.25H18.0941C17.766 18.25 17.5 18.5159 17.5 18.8438V20.1086C17.5 20.4366 17.766 20.7024 18.0941 20.7024H19.2467C19.5748 20.7024 19.8408 20.4366 19.8408 20.1086V18.8438C19.8408 18.5159 19.5748 18.25 19.2467 18.25Z" fill="#FF5C00"/>
<path id="Vector_21" d="M33.8299 15.3047H32.6774C32.3492 15.3047 32.0833 15.5705 32.0833 15.8985V17.1633C32.0833 17.4913 32.3492 17.7571 32.6774 17.7571H33.8299C34.1581 17.7571 34.424 17.4913 34.424 17.1633V15.8985C34.424 15.5705 34.1581 15.3047 33.8299 15.3047Z" fill="#FF5C00"/>
<path id="Vector_22" d="M33.8299 18.25H32.6774C32.3492 18.25 32.0833 18.5159 32.0833 18.8438V20.1086C32.0833 20.4366 32.3492 20.7024 32.6774 20.7024H33.8299C34.1581 20.7024 34.424 20.4366 34.424 20.1086V18.8438C34.424 18.5159 34.1581 18.25 33.8299 18.25Z" fill="#FF5C00"/>
<path id="Vector_23" d="M13.4134 0.75H12.2609C11.9327 0.75 11.6667 1.01586 11.6667 1.34381V2.60863C11.6667 2.93659 11.9327 3.20245 12.2609 3.20245H13.4134C13.7415 3.20245 14.0075 2.93659 14.0075 2.60863V1.34381C14.0075 1.01586 13.7415 0.75 13.4134 0.75Z" fill="#FF5C00"/>
<path id="Vector_24" d="M13.4134 18.25H12.2609C11.9327 18.25 11.6667 18.5159 11.6667 18.8438V20.1086C11.6667 20.4366 11.9327 20.7024 12.2609 20.7024H13.4134C13.7415 20.7024 14.0075 20.4366 14.0075 20.1086V18.8438C14.0075 18.5159 13.7415 18.25 13.4134 18.25Z" fill="#FF5C00"/>
<path id="Vector_25" d="M4.66343 0.75H3.51086C3.18274 0.75 2.91675 1.01586 2.91675 1.34381V2.60863C2.91675 2.93659 3.18274 3.20245 3.51086 3.20245H4.66343C4.99154 3.20245 5.25754 2.93659 5.25754 2.60863V1.34381C5.25754 1.01586 4.99154 0.75 4.66343 0.75Z" fill="#FF5C00"/>
<path id="Vector_26" d="M1.74668 15.3619H0.594108C0.265991 15.3619 0 15.6278 0 15.9558V17.2206C0 17.5485 0.265991 17.8144 0.594108 17.8144H1.74668C2.0748 17.8144 2.34079 17.5485 2.34079 17.2206V15.9558C2.34079 15.6278 2.0748 15.3619 1.74668 15.3619Z" fill="#FF5C00"/>
<path id="Vector_27" d="M33.8299 6.58337H32.6774C32.3492 6.58337 32.0833 6.84923 32.0833 7.17719V8.44201C32.0833 8.76996 32.3492 9.03582 32.6774 9.03582H33.8299C34.1581 9.03582 34.424 8.76996 34.424 8.44201V7.17719C34.424 6.84923 34.1581 6.58337 33.8299 6.58337Z" fill="#FF5C00"/>
<path id="Vector_28" d="M27.9967 6.58337H26.8441C26.516 6.58337 26.25 6.84923 26.25 7.17719V8.44201C26.25 8.76996 26.516 9.03582 26.8441 9.03582H27.9967C28.3248 9.03582 28.5908 8.76996 28.5908 8.44201V7.17719C28.5908 6.84923 28.3248 6.58337 27.9967 6.58337Z" fill="#FF5C00"/>
<path id="Vector_29" d="M25.0982 12.47H23.9457C23.6176 12.47 23.3516 12.7358 23.3516 13.0638V14.3286C23.3516 14.6566 23.6176 14.9224 23.9457 14.9224H25.0982C25.4264 14.9224 25.6924 14.6566 25.6924 14.3286V13.0638C25.6924 12.7358 25.4264 12.47 25.0982 12.47Z" fill="#FF5C00"/>
<path id="Vector_30" d="M25.0982 3.69141H23.9457C23.6176 3.69141 23.3516 3.95727 23.3516 4.28522V5.55004C23.3516 5.87799 23.6176 6.14385 23.9457 6.14385H25.0982C25.4264 6.14385 25.6924 5.87799 25.6924 5.55004V4.28522C25.6924 3.95727 25.4264 3.69141 25.0982 3.69141Z" fill="#FF5C00"/>
<path id="Vector_31" d="M25.0982 6.60803H23.9457C23.6176 6.60803 23.3516 6.87389 23.3516 7.20184V8.46667C23.3516 8.79462 23.6176 9.06048 23.9457 9.06048H25.0982C25.4264 9.06048 25.6924 8.79462 25.6924 8.46667V7.20184C25.6924 6.87389 25.4264 6.60803 25.0982 6.60803Z" fill="#FF5C00"/>
<path id="Vector_32" d="M30.9315 3.69141H29.7789C29.4508 3.69141 29.1848 3.95727 29.1848 4.28522V5.55004C29.1848 5.87799 29.4508 6.14385 29.7789 6.14385H30.9315C31.2596 6.14385 31.5256 5.87799 31.5256 5.55004V4.28522C31.5256 3.95727 31.2596 3.69141 30.9315 3.69141Z" fill="#FF5C00"/>
<path id="Vector_33" d="M10.515 0.803467H9.36242C9.0343 0.803467 8.76831 1.06933 8.76831 1.39728V2.6621C8.76831 2.99005 9.0343 3.25591 9.36242 3.25591H10.515C10.8431 3.25591 11.1091 2.99005 11.1091 2.6621V1.39728C11.1091 1.06933 10.8431 0.803467 10.515 0.803467Z" fill="#FF5C00"/>
<path id="Vector_34" d="M25.0982 15.4154H23.9457C23.6176 15.4154 23.3516 15.6813 23.3516 16.0092V17.274C23.3516 17.602 23.6176 17.8679 23.9457 17.8679H25.0982C25.4264 17.8679 25.6924 17.602 25.6924 17.274V16.0092C25.6924 15.6813 25.4264 15.4154 25.0982 15.4154Z" fill="#FF5C00"/>
<path id="Vector_35" d="M10.515 18.3035H9.36242C9.0343 18.3035 8.76831 18.5693 8.76831 18.8973V20.1621C8.76831 20.4901 9.0343 20.7559 9.36242 20.7559H10.515C10.8431 20.7559 11.1091 20.4901 11.1091 20.1621V18.8973C11.1091 18.5693 10.8431 18.3035 10.515 18.3035Z" fill="#FF5C00"/>
<path id="Vector_36" d="M4.68149 18.332H3.52892C3.20081 18.332 2.93481 18.5979 2.93481 18.9258V20.1907C2.93481 20.5186 3.20081 20.7845 3.52892 20.7845H4.68149C5.00961 20.7845 5.2756 20.5186 5.2756 20.1907V18.9258C5.2756 18.5979 5.00961 18.332 4.68149 18.332Z" fill="#FF5C00"/>
<path id="Vector_37" d="M16.3482 0.803467H15.1957C14.8676 0.803467 14.6016 1.06933 14.6016 1.39728V2.6621C14.6016 2.99005 14.8676 3.25591 15.1957 3.25591H16.3482C16.6764 3.25591 16.9424 2.99005 16.9424 2.6621V1.39728C16.9424 1.06933 16.6764 0.803467 16.3482 0.803467Z" fill="#FF5C00"/>
<path id="Vector_38" d="M30.9134 15.3334H29.7609C29.4327 15.3334 29.1667 15.5992 29.1667 15.9272V17.192C29.1667 17.52 29.4327 17.7858 29.7609 17.7858H30.9134C31.2415 17.7858 31.5075 17.52 31.5075 17.192V15.9272C31.5075 15.5992 31.2415 15.3334 30.9134 15.3334Z" fill="#FF5C00"/>
<path id="Vector_39" d="M16.3482 18.3035H15.1957C14.8676 18.3035 14.6016 18.5693 14.6016 18.8973V20.1621C14.6016 20.4901 14.8676 20.7559 15.1957 20.7559H16.3482C16.6764 20.7559 16.9424 20.4901 16.9424 20.1621V18.8973C16.9424 18.5693 16.6764 18.3035 16.3482 18.3035Z" fill="#FF5C00"/>
<path id="Vector_40" d="M25.0982 9.58203H23.9457C23.6176 9.58203 23.3516 9.84789 23.3516 10.1758V11.4407C23.3516 11.7686 23.6176 12.0345 23.9457 12.0345H25.0982C25.4264 12.0345 25.6924 11.7686 25.6924 11.4407V10.1758C25.6924 9.84789 25.4264 9.58203 25.0982 9.58203Z" fill="#FF5C00"/>
<path id="Vector_41" d="M10.515 24.1367H9.36242C9.0343 24.1367 8.76831 24.4026 8.76831 24.7305V25.9954C8.76831 26.3233 9.0343 26.5892 9.36242 26.5892H10.515C10.8431 26.5892 11.1091 26.3233 11.1091 25.9954V24.7305C11.1091 24.4026 10.8431 24.1367 10.515 24.1367Z" fill="#FF5C00"/>
<path id="Vector_42" d="M13.4134 21.1666H12.2609C11.9327 21.1666 11.6667 21.4325 11.6667 21.7604V23.0253C11.6667 23.3532 11.9327 23.6191 12.2609 23.6191H13.4134C13.7415 23.6191 14.0075 23.3532 14.0075 23.0253V21.7604C14.0075 21.4325 13.7415 21.1666 13.4134 21.1666Z" fill="#FF5C00"/>
<path id="Vector_43" d="M19.265 24.1654H18.1124C17.7843 24.1654 17.5183 24.4313 17.5183 24.7592V26.024C17.5183 26.352 17.7843 26.6179 18.1124 26.6179H19.265C19.5931 26.6179 19.8591 26.352 19.8591 26.024V24.7592C19.8591 24.4313 19.5931 24.1654 19.265 24.1654Z" fill="#FF5C00"/>
</g>
</svg>
