<svg width="45" height="45" viewBox="0 0 45 45" fill="none" xmlns="http://www.w3.org/2000/svg">
<g id="Frame 427320298">
<path id="Vector" d="M28.9957 41.7129H27.5139C27.092 41.7129 26.75 42.0547 26.75 42.4764V44.1026C26.75 44.5242 27.092 44.866 27.5139 44.866H28.9957C29.4176 44.866 29.7596 44.5242 29.7596 44.1026V42.4764C29.7596 42.0547 29.4176 41.7129 28.9957 41.7129Z" fill="#FF5C00"/>
<path id="Vector_2" d="M10.2457 23H8.76385C8.34199 23 8 23.3418 8 23.7635V25.3897C8 25.8113 8.34199 26.1531 8.76385 26.1531H10.2457C10.6676 26.1531 11.0096 25.8113 11.0096 25.3897V23.7635C11.0096 23.3418 10.6676 23 10.2457 23Z" fill="#FF5C00"/>
<path id="Vector_3" d="M25.2457 8H23.7639C23.342 8 23 8.34182 23 8.76347V10.3897C23 10.8113 23.342 11.1531 23.7639 11.1531H25.2457C25.6676 11.1531 26.0096 10.8113 26.0096 10.3897V8.76347C26.0096 8.34182 25.6676 8 25.2457 8Z" fill="#FF5C00"/>
<path id="Vector_4" d="M25.2457 41.7129H23.7639C23.342 41.7129 23 42.0547 23 42.4764V44.1026C23 44.5242 23.342 44.866 23.7639 44.866H25.2457C25.6676 44.866 26.0096 44.5242 26.0096 44.1026V42.4764C26.0096 42.0547 25.6676 41.7129 25.2457 41.7129Z" fill="#FF5C00"/>
<path id="Vector_5" d="M43.9957 41.7129H42.5139C42.092 41.7129 41.75 42.0547 41.75 42.4764V44.1026C41.75 44.5242 42.092 44.866 42.5139 44.866H43.9957C44.4176 44.866 44.7596 44.5242 44.7596 44.1026V42.4764C44.7596 42.0547 44.4176 41.7129 43.9957 41.7129Z" fill="#FF5C00"/>
<path id="Vector_6" d="M43.9957 23H42.5139C42.092 23 41.75 23.3418 41.75 23.7635V25.3897C41.75 25.8113 42.092 26.1531 42.5139 26.1531H43.9957C44.4176 26.1531 44.7596 25.8113 44.7596 25.3897V23.7635C44.7596 23.3418 44.4176 23 43.9957 23Z" fill="#FF5C00"/>
<path id="Vector_7" d="M17.7457 41.7129H16.2639C15.842 41.7129 15.5 42.0547 15.5 42.4764V44.1026C15.5 44.5242 15.842 44.866 16.2639 44.866H17.7457C18.1676 44.866 18.5096 44.5242 18.5096 44.1026V42.4764C18.5096 42.0547 18.1676 41.7129 17.7457 41.7129Z" fill="#FF5C00"/>
<path id="Vector_8" d="M36.4957 8H35.0139C34.592 8 34.25 8.34182 34.25 8.76347V10.3897C34.25 10.8113 34.592 11.1531 35.0139 11.1531H36.4957C36.9176 11.1531 37.2596 10.8113 37.2596 10.3897V8.76347C37.2596 8.34182 36.9176 8 36.4957 8Z" fill="#FF5C00"/>
<path id="Vector_9" d="M40.2457 8H38.7639C38.342 8 38 8.34182 38 8.76347V10.3897C38 10.8113 38.342 11.1531 38.7639 11.1531H40.2457C40.6676 11.1531 41.0096 10.8113 41.0096 10.3897V8.76347C41.0096 8.34182 40.6676 8 40.2457 8Z" fill="#FF5C00"/>
<path id="Vector_10" d="M36.4957 41.7129H35.0139C34.592 41.7129 34.25 42.0547 34.25 42.4764V44.1026C34.25 44.5242 34.592 44.866 35.0139 44.866H36.4957C36.9176 44.866 37.2596 44.5242 37.2596 44.1026V42.4764C37.2596 42.0547 36.9176 41.7129 36.4957 41.7129Z" fill="#FF5C00"/>
<path id="Vector_11" d="M36.4957 23H35.0139C34.592 23 34.25 23.3418 34.25 23.7635V25.3897C34.25 25.8113 34.592 26.1531 35.0139 26.1531H36.4957C36.9176 26.1531 37.2596 25.8113 37.2596 25.3897V23.7635C37.2596 23.3418 36.9176 23 36.4957 23Z" fill="#FF5C00"/>
<path id="Vector_12" d="M2.74573 15.5371H1.26385C0.841989 15.5371 0.5 15.8789 0.5 16.3006V17.9268C0.5 18.3484 0.841989 18.6903 1.26385 18.6903H2.74573C3.16759 18.6903 3.50958 18.3484 3.50958 17.9268V16.3006C3.50958 15.8789 3.16759 15.5371 2.74573 15.5371Z" fill="#FF5C00"/>
<path id="Vector_13" d="M2.74573 11.75H1.26385C0.841989 11.75 0.5 12.0918 0.5 12.5135V14.1397C0.5 14.5613 0.841989 14.9031 1.26385 14.9031H2.74573C3.16759 14.9031 3.50958 14.5613 3.50958 14.1397V12.5135C3.50958 12.0918 3.16759 11.75 2.74573 11.75Z" fill="#FF5C00"/>
<path id="Vector_14" d="M6.49573 8H5.01385C4.59199 8 4.25 8.34182 4.25 8.76347V10.3897C4.25 10.8113 4.59199 11.1531 5.01385 11.1531H6.49573C6.91759 11.1531 7.25958 10.8113 7.25958 10.3897V8.76347C7.25958 8.34182 6.91759 8 6.49573 8Z" fill="#FF5C00"/>
<path id="Vector_15" d="M10.2457 4.25H8.76385C8.34199 4.25 8 4.59182 8 5.01347V6.63967C8 7.06133 8.34199 7.40314 8.76385 7.40314H10.2457C10.6676 7.40314 11.0096 7.06133 11.0096 6.63967V5.01347C11.0096 4.59182 10.6676 4.25 10.2457 4.25Z" fill="#FF5C00"/>
<path id="Vector_16" d="M13.9957 0.5H12.5139C12.092 0.5 11.75 0.841819 11.75 1.26347V2.88967C11.75 3.31133 12.092 3.65314 12.5139 3.65314H13.9957C14.4176 3.65314 14.7596 3.31133 14.7596 2.88967V1.26347C14.7596 0.841819 14.4176 0.5 13.9957 0.5Z" fill="#FF5C00"/>
<path id="Vector_17" d="M10.2457 34.25H8.76385C8.34199 34.25 8 34.5918 8 35.0135V36.6397C8 37.0613 8.34199 37.4031 8.76385 37.4031H10.2457C10.6676 37.4031 11.0096 37.0613 11.0096 36.6397V35.0135C11.0096 34.5918 10.6676 34.25 10.2457 34.25Z" fill="#FF5C00"/>
<path id="Vector_18" d="M2.74573 23H1.26385C0.841989 23 0.5 23.3418 0.5 23.7635V25.3897C0.5 25.8113 0.841989 26.1531 1.26385 26.1531H2.74573C3.16759 26.1531 3.50958 25.8113 3.50958 25.3897V23.7635C3.50958 23.3418 3.16759 23 2.74573 23Z" fill="#FF5C00"/>
<path id="Vector_19" d="M43.9957 15.5H42.5139C42.092 15.5 41.75 15.8418 41.75 16.2635V17.8897C41.75 18.3113 42.092 18.6531 42.5139 18.6531H43.9957C44.4176 18.6531 44.7596 18.3113 44.7596 17.8897V16.2635C44.7596 15.8418 44.4176 15.5 43.9957 15.5Z" fill="#FF5C00"/>
<path id="Vector_20" d="M25.2457 0.5H23.7639C23.342 0.5 23 0.841819 23 1.26347V2.88967C23 3.31133 23.342 3.65314 23.7639 3.65314H25.2457C25.6676 3.65314 26.0096 3.31133 26.0096 2.88967V1.26347C26.0096 0.841819 25.6676 0.5 25.2457 0.5Z" fill="#FF5C00"/>
<path id="Vector_21" d="M25.2457 34.2129H23.7639C23.342 34.2129 23 34.5547 23 34.9764V36.6026C23 37.0242 23.342 37.366 23.7639 37.366H25.2457C25.6676 37.366 26.0096 37.0242 26.0096 36.6026V34.9764C26.0096 34.5547 25.6676 34.2129 25.2457 34.2129Z" fill="#FF5C00"/>
<path id="Vector_22" d="M17.7457 0.5H16.2639C15.842 0.5 15.5 0.841819 15.5 1.26347V2.88967C15.5 3.31133 15.842 3.65314 16.2639 3.65314H17.7457C18.1676 3.65314 18.5096 3.31133 18.5096 2.88967V1.26347C18.5096 0.841819 18.1676 0.5 17.7457 0.5Z" fill="#FF5C00"/>
<path id="Vector_23" d="M36.4957 34.2129H35.0139C34.592 34.2129 34.25 34.5547 34.25 34.9764V36.6026C34.25 37.0242 34.592 37.366 35.0139 37.366H36.4957C36.9176 37.366 37.2596 37.0242 37.2596 36.6026V34.9764C37.2596 34.5547 36.9176 34.2129 36.4957 34.2129Z" fill="#FF5C00"/>
<path id="Vector_24" d="M40.2223 34.1445H38.7404C38.3186 34.1445 37.9766 34.4863 37.9766 34.908V36.5342C37.9766 36.9559 38.3186 37.2977 38.7404 37.2977H40.2223C40.6442 37.2977 40.9861 36.9559 40.9861 36.5342V34.908C40.9861 34.4863 40.6442 34.1445 40.2223 34.1445Z" fill="#FF5C00"/>
<path id="Vector_25" d="M2.74573 19.2871H1.26385C0.841989 19.2871 0.5 19.6289 0.5 20.0506V21.6768C0.5 22.0984 0.841989 22.4403 1.26385 22.4403H2.74573C3.16759 22.4403 3.50958 22.0984 3.50958 21.6768V20.0506C3.50958 19.6289 3.16759 19.2871 2.74573 19.2871Z" fill="#FF5C00"/>
<path id="Vector_26" d="M25.2457 11.7871H23.7639C23.342 11.7871 23 12.1289 23 12.5506V14.1768C23 14.5984 23.342 14.9403 23.7639 14.9403H25.2457C25.6676 14.9403 26.0096 14.5984 26.0096 14.1768V12.5506C26.0096 12.1289 25.6676 11.7871 25.2457 11.7871Z" fill="#FF5C00"/>
<path id="Vector_27" d="M25.2457 30.5H23.7639C23.342 30.5 23 30.8418 23 31.2635V32.8897C23 33.3113 23.342 33.6531 23.7639 33.6531H25.2457C25.6676 33.6531 26.0096 33.3113 26.0096 32.8897V31.2635C26.0096 30.8418 25.6676 30.5 25.2457 30.5Z" fill="#FF5C00"/>
<path id="Vector_28" d="M10.2457 19.2871H8.76385C8.34199 19.2871 8 19.6289 8 20.0506V21.6768C8 22.0984 8.34199 22.4403 8.76385 22.4403H10.2457C10.6676 22.4403 11.0096 22.0984 11.0096 21.6768V20.0506C11.0096 19.6289 10.6676 19.2871 10.2457 19.2871Z" fill="#FF5C00"/>
<path id="Vector_29" d="M6.49573 11.75H5.01385C4.59199 11.75 4.25 12.0918 4.25 12.5135V14.1397C4.25 14.5613 4.59199 14.9031 5.01385 14.9031H6.49573C6.91759 14.9031 7.25958 14.5613 7.25958 14.1397V12.5135C7.25958 12.0918 6.91759 11.75 6.49573 11.75Z" fill="#FF5C00"/>
<path id="Vector_30" d="M10.2457 8H8.76385C8.34199 8 8 8.34182 8 8.76347V10.3897C8 10.8113 8.34199 11.1531 8.76385 11.1531H10.2457C10.6676 11.1531 11.0096 10.8113 11.0096 10.3897V8.76347C11.0096 8.34182 10.6676 8 10.2457 8Z" fill="#FF5C00"/>
<path id="Vector_31" d="M43.9957 19.2871H42.5139C42.092 19.2871 41.75 19.6289 41.75 20.0506V21.6768C41.75 22.0984 42.092 22.4403 42.5139 22.4403H43.9957C44.4176 22.4403 44.7596 22.0984 44.7596 21.6768V20.0506C44.7596 19.6289 44.4176 19.2871 43.9957 19.2871Z" fill="#FF5C00"/>
<path id="Vector_32" d="M36.4957 19.2871H35.0139C34.592 19.2871 34.25 19.6289 34.25 20.0506V21.6768C34.25 22.0984 34.592 22.4403 35.0139 22.4403H36.4957C36.9176 22.4403 37.2596 22.0984 37.2596 21.6768V20.0506C37.2596 19.6289 36.9176 19.2871 36.4957 19.2871Z" fill="#FF5C00"/>
<path id="Vector_33" d="M32.7692 41.7812H31.2873C30.8654 41.7812 30.5234 42.1231 30.5234 42.5447V44.1709C30.5234 44.5926 30.8654 44.9344 31.2873 44.9344H32.7692C33.191 44.9344 33.533 44.5926 33.533 44.1709V42.5447C33.533 42.1231 33.191 41.7812 32.7692 41.7812Z" fill="#FF5C00"/>
<path id="Vector_34" d="M14.0192 23.0684H12.5373C12.1154 23.0684 11.7734 23.4102 11.7734 23.8318V25.458C11.7734 25.8797 12.1154 26.2215 12.5373 26.2215H14.0192C14.441 26.2215 14.783 25.8797 14.783 25.458V23.8318C14.783 23.4102 14.441 23.0684 14.0192 23.0684Z" fill="#FF5C00"/>
<path id="Vector_35" d="M32.7692 23.0684H31.2873C30.8654 23.0684 30.5234 23.4102 30.5234 23.8318V25.458C30.5234 25.8797 30.8654 26.2215 31.2873 26.2215H32.7692C33.191 26.2215 33.533 25.8797 33.533 25.458V23.8318C33.533 23.4102 33.191 23.0684 32.7692 23.0684Z" fill="#FF5C00"/>
<path id="Vector_36" d="M21.5192 8.06836H20.0373C19.6154 8.06836 19.2734 8.41018 19.2734 8.83183V10.458C19.2734 10.8797 19.6154 11.2215 20.0373 11.2215H21.5192C21.941 11.2215 22.283 10.8797 22.283 10.458V8.83183C22.283 8.41018 21.941 8.06836 21.5192 8.06836Z" fill="#FF5C00"/>
<path id="Vector_37" d="M21.5192 41.7812H20.0373C19.6154 41.7812 19.2734 42.1231 19.2734 42.5447V44.1709C19.2734 44.5926 19.6154 44.9344 20.0373 44.9344H21.5192C21.941 44.9344 22.283 44.5926 22.283 44.1709V42.5447C22.283 42.1231 21.941 41.7812 21.5192 41.7812Z" fill="#FF5C00"/>
<path id="Vector_38" d="M40.2692 41.7812H38.7873C38.3654 41.7812 38.0234 42.1231 38.0234 42.5447V44.1709C38.0234 44.5926 38.3654 44.9344 38.7873 44.9344H40.2692C40.691 44.9344 41.033 44.5926 41.033 44.1709V42.5447C41.033 42.1231 40.691 41.7812 40.2692 41.7812Z" fill="#FF5C00"/>
<path id="Vector_39" d="M2.74573 26.75H1.26385C0.841989 26.75 0.5 27.0918 0.5 27.5135V29.1397C0.5 29.5613 0.841989 29.9031 1.26385 29.9031H2.74573C3.16759 29.9031 3.50958 29.5613 3.50958 29.1397V27.5135C3.50958 27.0918 3.16759 26.75 2.74573 26.75Z" fill="#FF5C00"/>
<path id="Vector_40" d="M21.5192 0.568359H20.0373C19.6154 0.568359 19.2734 0.910178 19.2734 1.33183V2.95803C19.2734 3.37969 19.6154 3.7215 20.0373 3.7215H21.5192C21.941 3.7215 22.283 3.37969 22.283 2.95803V1.33183C22.283 0.910178 21.941 0.568359 21.5192 0.568359Z" fill="#FF5C00"/>
<path id="Vector_41" d="M21.5192 34.2812H20.0373C19.6154 34.2812 19.2734 34.6231 19.2734 35.0447V36.6709C19.2734 37.0926 19.6154 37.4344 20.0373 37.4344H21.5192C21.941 37.4344 22.283 37.0926 22.283 36.6709V35.0447C22.283 34.6231 21.941 34.2812 21.5192 34.2812Z" fill="#FF5C00"/>
<path id="Vector_42" d="M6.51917 30.6055H5.03729C4.61543 30.6055 4.27344 30.9473 4.27344 31.3689V32.9951C4.27344 33.4168 4.61543 33.7586 5.03729 33.7586H6.51917C6.94103 33.7586 7.28302 33.4168 7.28302 32.9951V31.3689C7.28302 30.9473 6.94103 30.6055 6.51917 30.6055Z" fill="#FF5C00"/>
<path id="Vector_43" d="M21.5192 11.8555H20.0373C19.6154 11.8555 19.2734 12.1973 19.2734 12.6189V14.2451C19.2734 14.6668 19.6154 15.0086 20.0373 15.0086H21.5192C21.941 15.0086 22.283 14.6668 22.283 14.2451V12.6189C22.283 12.1973 21.941 11.8555 21.5192 11.8555Z" fill="#FF5C00"/>
<path id="Vector_44" d="M40.2457 11.75H38.7639C38.342 11.75 38 12.0918 38 12.5135V14.1397C38 14.5613 38.342 14.9031 38.7639 14.9031H40.2457C40.6676 14.9031 41.0096 14.5613 41.0096 14.1397V12.5135C41.0096 12.0918 40.6676 11.75 40.2457 11.75Z" fill="#FF5C00"/>
<path id="Vector_45" d="M43.9957 11.75H42.5139C42.092 11.75 41.75 12.0918 41.75 12.5135V14.1397C41.75 14.5613 42.092 14.9031 42.5139 14.9031H43.9957C44.4176 14.9031 44.7596 14.5613 44.7596 14.1397V12.5135C44.7596 12.0918 44.4176 11.75 43.9957 11.75Z" fill="#FF5C00"/>
<path id="Vector_46" d="M43.9957 26.75H42.5139C42.092 26.75 41.75 27.0918 41.75 27.5135V29.1397C41.75 29.5613 42.092 29.9031 42.5139 29.9031H43.9957C44.4176 29.9031 44.7596 29.5613 44.7596 29.1397V27.5135C44.7596 27.0918 44.4176 26.75 43.9957 26.75Z" fill="#FF5C00"/>
<path id="Vector_47" d="M21.5192 30.5684H20.0373C19.6154 30.5684 19.2734 30.9102 19.2734 31.3318V32.958C19.2734 33.3797 19.6154 33.7215 20.0373 33.7215H21.5192C21.941 33.7215 22.283 33.3797 22.283 32.958V31.3318C22.283 30.9102 21.941 30.5684 21.5192 30.5684Z" fill="#FF5C00"/>
<path id="Vector_48" d="M40.2692 30.5684H38.7873C38.3654 30.5684 38.0234 30.9102 38.0234 31.3318V32.958C38.0234 33.3797 38.3654 33.7215 38.7873 33.7215H40.2692C40.691 33.7215 41.033 33.3797 41.033 32.958V31.3318C41.033 30.9102 40.691 30.5684 40.2692 30.5684Z" fill="#FF5C00"/>
<path id="Vector_49" d="M43.9957 30.5H42.5139C42.092 30.5 41.75 30.8418 41.75 31.2635V32.8897C41.75 33.3113 42.092 33.6531 42.5139 33.6531H43.9957C44.4176 33.6531 44.7596 33.3113 44.7596 32.8897V31.2635C44.7596 30.8418 44.4176 30.5 43.9957 30.5Z" fill="#FF5C00"/>
<path id="Vector_50" d="M14.0192 19.3555H12.5373C12.1154 19.3555 11.7734 19.6973 11.7734 20.1189V21.7451C11.7734 22.1668 12.1154 22.5086 12.5373 22.5086H14.0192C14.441 22.5086 14.783 22.1668 14.783 21.7451V20.1189C14.783 19.6973 14.441 19.3555 14.0192 19.3555Z" fill="#FF5C00"/>
<path id="Vector_51" d="M23.7457 20.75H22.2639C21.842 20.75 21.5 21.0918 21.5 21.5135V23.1397C21.5 23.5613 21.842 23.9031 22.2639 23.9031H23.7457C24.1676 23.9031 24.5096 23.5613 24.5096 23.1397V21.5135C24.5096 21.0918 24.1676 20.75 23.7457 20.75Z" fill="#FF5C00"/>
<path id="Vector_52" d="M32.7692 19.3555H31.2873C30.8654 19.3555 30.5234 19.6973 30.5234 20.1189V21.7451C30.5234 22.1668 30.8654 22.5086 31.2873 22.5086H32.7692C33.191 22.5086 33.533 22.1668 33.533 21.7451V20.1189C33.533 19.6973 33.191 19.3555 32.7692 19.3555Z" fill="#FF5C00"/>
<path id="Vector_53" d="M14.0192 4.35547H12.5373C12.1154 4.35547 11.7734 4.69729 11.7734 5.11894V6.74514C11.7734 7.16679 12.1154 7.50861 12.5373 7.50861H14.0192C14.441 7.50861 14.783 7.16679 14.783 6.74514V5.11894C14.783 4.69729 14.441 4.35547 14.0192 4.35547Z" fill="#FF5C00"/>
<path id="Vector_54" d="M14.0192 38.0684H12.5373C12.1154 38.0684 11.7734 38.4102 11.7734 38.8318V40.458C11.7734 40.8797 12.1154 41.2215 12.5373 41.2215H14.0192C14.441 41.2215 14.783 40.8797 14.783 40.458V38.8318C14.783 38.4102 14.441 38.0684 14.0192 38.0684Z" fill="#FF5C00"/>
<path id="Vector_55" d="M32.7692 4.35547H31.2873C30.8654 4.35547 30.5234 4.69729 30.5234 5.11894V6.74514C30.5234 7.16679 30.8654 7.50861 31.2873 7.50861H32.7692C33.191 7.50861 33.533 7.16679 33.533 6.74514V5.11894C33.533 4.69729 33.191 4.35547 32.7692 4.35547Z" fill="#FF5C00"/>
<path id="Vector_56" d="M36.5192 4.35547H35.0373C34.6154 4.35547 34.2734 4.69729 34.2734 5.11894V6.74514C34.2734 7.16679 34.6154 7.50861 35.0373 7.50861H36.5192C36.941 7.50861 37.283 7.16679 37.283 6.74514V5.11894C37.283 4.69729 36.941 4.35547 36.5192 4.35547Z" fill="#FF5C00"/>
<path id="Vector_57" d="M28.9957 0.5H27.5139C27.092 0.5 26.75 0.841819 26.75 1.26347V2.88967C26.75 3.31133 27.092 3.65314 27.5139 3.65314H28.9957C29.4176 3.65314 29.7596 3.31133 29.7596 2.88967V1.26347C29.7596 0.841819 29.4176 0.5 28.9957 0.5Z" fill="#FF5C00"/>
<path id="Vector_58" d="M32.7457 0.5H31.2639C30.842 0.5 30.5 0.841819 30.5 1.26347V2.88967C30.5 3.31133 30.842 3.65314 31.2639 3.65314H32.7457C33.1676 3.65314 33.5096 3.31133 33.5096 2.88967V1.26347C33.5096 0.841819 33.1676 0.5 32.7457 0.5Z" fill="#FF5C00"/>
<path id="Vector_59" d="M32.7692 38.0684H31.2873C30.8654 38.0684 30.5234 38.4102 30.5234 38.8318V40.458C30.5234 40.8797 30.8654 41.2215 31.2873 41.2215H32.7692C33.191 41.2215 33.533 40.8797 33.533 40.458V38.8318C33.533 38.4102 33.191 38.0684 32.7692 38.0684Z" fill="#FF5C00"/>
<path id="Vector_60" d="M36.4957 38H35.0139C34.592 38 34.25 38.3418 34.25 38.7635V40.3897C34.25 40.8113 34.592 41.1531 35.0139 41.1531H36.4957C36.9176 41.1531 37.2596 40.8113 37.2596 40.3897V38.7635C37.2596 38.3418 36.9176 38 36.4957 38Z" fill="#FF5C00"/>
</g>
</svg>
