<svg width="60" height="60" viewBox="0 0 60 60" fill="none" xmlns="http://www.w3.org/2000/svg">
<g id="Frame 427320292">
<path id="Vector" d="M12.9943 55.2956H11.0185C10.456 55.2956 10 55.7514 10 56.3136V58.4819C10 59.0441 10.456 59.4998 11.0185 59.4998H12.9943C13.5568 59.4998 14.0128 59.0441 14.0128 58.4819V56.3136C14.0128 55.7514 13.5568 55.2956 12.9943 55.2956Z" fill="#FF5C00"/>
<path id="Vector_2" d="M2.99431 10.3447H1.01847C0.455985 10.3447 0 10.8005 0 11.3627V13.5309C0 14.0931 0.455985 14.5489 1.01847 14.5489H2.99431C3.55679 14.5489 4.01278 14.0931 4.01278 13.5309V11.3627C4.01278 10.8005 3.55679 10.3447 2.99431 10.3447Z" fill="#FF5C00"/>
<path id="Vector_3" d="M57.9943 10.2956H56.0185C55.456 10.2956 55 10.7514 55 11.3136V13.4819C55 14.0441 55.456 14.4998 56.0185 14.4998H57.9943C58.5568 14.4998 59.0128 14.0441 59.0128 13.4819V11.3136C59.0128 10.7514 58.5568 10.2956 57.9943 10.2956Z" fill="#FF5C00"/>
<path id="Vector_4" d="M57.9943 30.2956H56.0185C55.456 30.2956 55 30.7514 55 31.3136V33.4819C55 34.0441 55.456 34.4998 56.0185 34.4998H57.9943C58.5568 34.4998 59.0128 34.0441 59.0128 33.4819V31.3136C59.0128 30.7514 58.5568 30.2956 57.9943 30.2956Z" fill="#FF5C00"/>
<path id="Vector_5" d="M27.9631 10.2956H25.9872C25.4247 10.2956 24.9688 10.7514 24.9688 11.3136V13.4819C24.9688 14.0441 25.4247 14.4998 25.9872 14.4998H27.9631C28.5255 14.4998 28.9815 14.0441 28.9815 13.4819V11.3136C28.9815 10.7514 28.5255 10.2956 27.9631 10.2956Z" fill="#FF5C00"/>
<path id="Vector_6" d="M47.9943 55.2956H46.0185C45.456 55.2956 45 55.7514 45 56.3136V58.4819C45 59.0441 45.456 59.4998 46.0185 59.4998H47.9943C48.5568 59.4998 49.0128 59.0441 49.0128 58.4819V56.3136C49.0128 55.7514 48.5568 55.2956 47.9943 55.2956Z" fill="#FF5C00"/>
<path id="Vector_7" d="M27.9631 30.2956H25.9872C25.4247 30.2956 24.9688 30.7514 24.9688 31.3136V33.4819C24.9688 34.0441 25.4247 34.4998 25.9872 34.4998H27.9631C28.5255 34.4998 28.9815 34.0441 28.9815 33.4819V31.3136C28.9815 30.7514 28.5255 30.2956 27.9631 30.2956Z" fill="#FF5C00"/>
<path id="Vector_8" d="M2.99431 20.3447H1.01847C0.455985 20.3447 0 20.8005 0 21.3627V23.5309C0 24.0931 0.455985 24.5489 1.01847 24.5489H2.99431C3.55679 24.5489 4.01278 24.0931 4.01278 23.5309V21.3627C4.01278 20.8005 3.55679 20.3447 2.99431 20.3447Z" fill="#FF5C00"/>
<path id="Vector_9" d="M12.9943 0.295624H11.0185C10.456 0.295624 10 0.751382 10 1.31359V3.48185C10 4.04406 10.456 4.49982 11.0185 4.49982H12.9943C13.5568 4.49982 14.0128 4.04406 14.0128 3.48185V1.31359C14.0128 0.751382 13.5568 0.295624 12.9943 0.295624Z" fill="#FF5C00"/>
<path id="Vector_10" d="M2.99431 30.2956H1.01847C0.455985 30.2956 0 30.7514 0 31.3136V33.4819C0 34.0441 0.455985 34.4998 1.01847 34.4998H2.99431C3.55679 34.4998 4.01278 34.0441 4.01278 33.4819V31.3136C4.01278 30.7514 3.55679 30.2956 2.99431 30.2956Z" fill="#FF5C00"/>
<path id="Vector_11" d="M37.9943 0.295624H36.0185C35.456 0.295624 35 0.751382 35 1.31359V3.48185C35 4.04406 35.456 4.49982 36.0185 4.49982H37.9943C38.5568 4.49982 39.0128 4.04406 39.0128 3.48185V1.31359C39.0128 0.751382 38.5568 0.295624 37.9943 0.295624Z" fill="#FF5C00"/>
<path id="Vector_12" d="M37.9943 45.2956H36.0185C35.456 45.2956 35 45.7514 35 46.3136V48.4819C35 49.0441 35.456 49.4998 36.0185 49.4998H37.9943C38.5568 49.4998 39.0128 49.0441 39.0128 48.4819V46.3136C39.0128 45.7514 38.5568 45.2956 37.9943 45.2956Z" fill="#FF5C00"/>
<path id="Vector_13" d="M37.9631 20.2956H35.9872C35.4247 20.2956 34.9688 20.7514 34.9688 21.3136V23.4819C34.9688 24.0441 35.4247 24.4998 35.9872 24.4998H37.9631C38.5255 24.4998 38.9815 24.0441 38.9815 23.4819V21.3136C38.9815 20.7514 38.5255 20.2956 37.9631 20.2956Z" fill="#FF5C00"/>
<path id="Vector_14" d="M57.9943 20.2956H56.0185C55.456 20.2956 55 20.7514 55 21.3136V23.4819C55 24.0441 55.456 24.4998 56.0185 24.4998H57.9943C58.5568 24.4998 59.0128 24.0441 59.0128 23.4819V21.3136C59.0128 20.7514 58.5568 20.2956 57.9943 20.2956Z" fill="#FF5C00"/>
<path id="Vector_15" d="M32.9943 0.295624H31.0185C30.456 0.295624 30 0.751382 30 1.31359V3.48185C30 4.04406 30.456 4.49982 31.0185 4.49982H32.9943C33.5568 4.49982 34.0128 4.04406 34.0128 3.48185V1.31359C34.0128 0.751382 33.5568 0.295624 32.9943 0.295624Z" fill="#FF5C00"/>
<path id="Vector_16" d="M27.9631 20.2956H25.9872C25.4247 20.2956 24.9688 20.7514 24.9688 21.3136V23.4819C24.9688 24.0441 25.4247 24.4998 25.9872 24.4998H27.9631C28.5255 24.4998 28.9815 24.0441 28.9815 23.4819V21.3136C28.9815 20.7514 28.5255 20.2956 27.9631 20.2956Z" fill="#FF5C00"/>
<path id="Vector_17" d="M22.9943 0.295624H21.0185C20.456 0.295624 20 0.751382 20 1.31359V3.48185C20 4.04406 20.456 4.49982 21.0185 4.49982H22.9943C23.5568 4.49982 24.0128 4.04406 24.0128 3.48185V1.31359C24.0128 0.751382 23.5568 0.295624 22.9943 0.295624Z" fill="#FF5C00"/>
<path id="Vector_18" d="M22.9943 45.2956H21.0185C20.456 45.2956 20 45.7514 20 46.3136V48.4819C20 49.0441 20.456 49.4998 21.0185 49.4998H22.9943C23.5568 49.4998 24.0128 49.0441 24.0128 48.4819V46.3136C24.0128 45.7514 23.5568 45.2956 22.9943 45.2956Z" fill="#FF5C00"/>
<path id="Vector_19" d="M47.9943 0.295624H46.0185C45.456 0.295624 45 0.751382 45 1.31359V3.48185C45 4.04406 45.456 4.49982 46.0185 4.49982H47.9943C48.5568 4.49982 49.0128 4.04406 49.0128 3.48185V1.31359C49.0128 0.751382 48.5568 0.295624 47.9943 0.295624Z" fill="#FF5C00"/>
<path id="Vector_20" d="M2.99431 15.3938H1.01847C0.455985 15.3938 0 15.8495 0 16.4117V18.58C0 19.1422 0.455985 19.598 1.01847 19.598H2.99431C3.55679 19.598 4.01278 19.1422 4.01278 18.58V16.4117C4.01278 15.8495 3.55679 15.3938 2.99431 15.3938Z" fill="#FF5C00"/>
<path id="Vector_21" d="M12.9943 40.2956H11.0185C10.456 40.2956 10 40.7514 10 41.3136V43.4819C10 44.0441 10.456 44.4998 11.0185 44.4998H12.9943C13.5568 44.4998 14.0128 44.0441 14.0128 43.4819V41.3136C14.0128 40.7514 13.5568 40.2956 12.9943 40.2956Z" fill="#FF5C00"/>
<path id="Vector_22" d="M2.99431 25.3447H1.01847C0.455985 25.3447 0 25.8005 0 26.3627V28.5309C0 29.0931 0.455985 29.5489 1.01847 29.5489H2.99431C3.55679 29.5489 4.01278 29.0931 4.01278 28.5309V26.3627C4.01278 25.8005 3.55679 25.3447 2.99431 25.3447Z" fill="#FF5C00"/>
<path id="Vector_23" d="M37.9943 40.2956H36.0185C35.456 40.2956 35 40.7514 35 41.3136V43.4819C35 44.0441 35.456 44.4998 36.0185 44.4998H37.9943C38.5568 44.4998 39.0128 44.0441 39.0128 43.4819V41.3136C39.0128 40.7514 38.5568 40.2956 37.9943 40.2956Z" fill="#FF5C00"/>
<path id="Vector_24" d="M57.9943 15.3447H56.0185C55.456 15.3447 55 15.8005 55 16.3627V18.5309C55 19.0931 55.456 19.5489 56.0185 19.5489H57.9943C58.5568 19.5489 59.0128 19.0931 59.0128 18.5309V16.3627C59.0128 15.8005 58.5568 15.3447 57.9943 15.3447Z" fill="#FF5C00"/>
<path id="Vector_25" d="M57.9943 35.3447H56.0185C55.456 35.3447 55 35.8005 55 36.3627V38.5309C55 39.0931 55.456 39.5489 56.0185 39.5489H57.9943C58.5568 39.5489 59.0128 39.0931 59.0128 38.5309V36.3627C59.0128 35.8005 58.5568 35.3447 57.9943 35.3447Z" fill="#FF5C00"/>
<path id="Vector_26" d="M32.9943 40.2956H31.0185C30.456 40.2956 30 40.7514 30 41.3136V43.4819C30 44.0441 30.456 44.4998 31.0185 44.4998H32.9943C33.5568 44.4998 34.0128 44.0441 34.0128 43.4819V41.3136C34.0128 40.7514 33.5568 40.2956 32.9943 40.2956Z" fill="#FF5C00"/>
<path id="Vector_27" d="M32.9631 45.2956H30.9872C30.4247 45.2956 29.9688 45.7514 29.9688 46.3136V48.4819C29.9688 49.0441 30.4247 49.4998 30.9872 49.4998H32.9631C33.5255 49.4998 33.9815 49.0441 33.9815 48.4819V46.3136C33.9815 45.7514 33.5255 45.2956 32.9631 45.2956Z" fill="#FF5C00"/>
<path id="Vector_28" d="M27.9631 15.3447H25.9872C25.4247 15.3447 24.9688 15.8005 24.9688 16.3627V18.5309C24.9688 19.0931 25.4247 19.5489 25.9872 19.5489H27.9631C28.5255 19.5489 28.9815 19.0931 28.9815 18.5309V16.3627C28.9815 15.8005 28.5255 15.3447 27.9631 15.3447Z" fill="#FF5C00"/>
<path id="Vector_29" d="M22.9943 40.2956H21.0185C20.456 40.2956 20 40.7514 20 41.3136V43.4819C20 44.0441 20.456 44.4998 21.0185 44.4998H22.9943C23.5568 44.4998 24.0128 44.0441 24.0128 43.4819V41.3136C24.0128 40.7514 23.5568 40.2956 22.9943 40.2956Z" fill="#FF5C00"/>
<path id="Vector_30" d="M47.9943 40.2956H46.0185C45.456 40.2956 45 40.7514 45 41.3136V43.4819C45 44.0441 45.456 44.4998 46.0185 44.4998H47.9943C48.5568 44.4998 49.0128 44.0441 49.0128 43.4819V41.3136C49.0128 40.7514 48.5568 40.2956 47.9943 40.2956Z" fill="#FF5C00"/>
<path id="Vector_31" d="M2.99431 35.3447H1.01847C0.455985 35.3447 0 35.8005 0 36.3627V38.5309C0 39.0931 0.455985 39.5489 1.01847 39.5489H2.99431C3.55679 39.5489 4.01278 39.0931 4.01278 38.5309V36.3627C4.01278 35.8005 3.55679 35.3447 2.99431 35.3447Z" fill="#FF5C00"/>
<path id="Vector_32" d="M2.99431 5.39377H1.01847C0.455985 5.39377 0 5.84953 0 6.41173V8.58C0 9.1422 0.455985 9.59796 1.01847 9.59796H2.99431C3.55679 9.59796 4.01278 9.1422 4.01278 8.58V6.41173C4.01278 5.84953 3.55679 5.39377 2.99431 5.39377Z" fill="#FF5C00"/>
<path id="Vector_33" d="M57.9943 25.3447H56.0185C55.456 25.3447 55 25.8005 55 26.3627V28.5309C55 29.0931 55.456 29.5489 56.0185 29.5489H57.9943C58.5568 29.5489 59.0128 29.0931 59.0128 28.5309V26.3627C59.0128 25.8005 58.5568 25.3447 57.9943 25.3447Z" fill="#FF5C00"/>
<path id="Vector_34" d="M57.9943 5.3447H56.0185C55.456 5.3447 55 5.80045 55 6.36266V8.53092C55 9.09313 55.456 9.54889 56.0185 9.54889H57.9943C58.5568 9.54889 59.0128 9.09313 59.0128 8.53092V6.36266C59.0128 5.80045 58.5568 5.3447 57.9943 5.3447Z" fill="#FF5C00"/>
<path id="Vector_35" d="M27.9631 25.3447H25.9872C25.4247 25.3447 24.9688 25.8005 24.9688 26.3627V28.5309C24.9688 29.0931 25.4247 29.5489 25.9872 29.5489H27.9631C28.5255 29.5489 28.9815 29.0931 28.9815 28.5309V26.3627C28.9815 25.8005 28.5255 25.3447 27.9631 25.3447Z" fill="#FF5C00"/>
<path id="Vector_36" d="M22.9943 10.3871H21.0185C20.456 10.3871 20 10.8428 20 11.405V13.5733C20 14.1355 20.456 14.5912 21.0185 14.5912H22.9943C23.5568 14.5912 24.0128 14.1355 24.0128 13.5733V11.405C24.0128 10.8428 23.5568 10.3871 22.9943 10.3871Z" fill="#FF5C00"/>
<path id="Vector_37" d="M22.9943 30.3871H21.0185C20.456 30.3871 20 30.8428 20 31.405V33.5733C20 34.1355 20.456 34.5912 21.0185 34.5912H22.9943C23.5568 34.5912 24.0128 34.1355 24.0128 33.5733V31.405C24.0128 30.8428 23.5568 30.3871 22.9943 30.3871Z" fill="#FF5C00"/>
<path id="Vector_38" d="M22.9943 20.3871H21.0185C20.456 20.3871 20 20.8428 20 21.405V23.5733C20 24.1355 20.456 24.5912 21.0185 24.5912H22.9943C23.5568 24.5912 24.0128 24.1355 24.0128 23.5733V21.405C24.0128 20.8428 23.5568 20.3871 22.9943 20.3871Z" fill="#FF5C00"/>
<path id="Vector_39" d="M18.0256 0.387054H16.0497C15.4872 0.387054 15.0312 0.842812 15.0312 1.40502V3.57328C15.0312 4.13549 15.4872 4.59125 16.0497 4.59125H18.0256C18.588 4.59125 19.044 4.13549 19.044 3.57328V1.40502C19.044 0.842812 18.588 0.387054 18.0256 0.387054Z" fill="#FF5C00"/>
<path id="Vector_40" d="M43.0256 0.387054H41.0497C40.4872 0.387054 40.0312 0.842812 40.0312 1.40502V3.57328C40.0312 4.13549 40.4872 4.59125 41.0497 4.59125H43.0256C43.588 4.59125 44.044 4.13549 44.044 3.57328V1.40502C44.044 0.842812 43.588 0.387054 43.0256 0.387054Z" fill="#FF5C00"/>
<path id="Vector_41" d="M8.02556 0.436127H6.04972C5.48723 0.436127 5.03125 0.891885 5.03125 1.45409V3.62236C5.03125 4.18456 5.48723 4.64032 6.04972 4.64032H8.02556C8.58804 4.64032 9.04403 4.18456 9.04403 3.62236V1.45409C9.04403 0.891885 8.58804 0.436127 8.02556 0.436127Z" fill="#FF5C00"/>
<path id="Vector_42" d="M32.9943 20.3871H31.0185C30.456 20.3871 30 20.8428 30 21.405V23.5733C30 24.1355 30.456 24.5912 31.0185 24.5912H32.9943C33.5568 24.5912 34.0128 24.1355 34.0128 23.5733V21.405C34.0128 20.8428 33.5568 20.3871 32.9943 20.3871Z" fill="#FF5C00"/>
<path id="Vector_43" d="M28.0256 0.387054H26.0497C25.4872 0.387054 25.0312 0.842812 25.0312 1.40502V3.57328C25.0312 4.13549 25.4872 4.59125 26.0497 4.59125H28.0256C28.588 4.59125 29.044 4.13549 29.044 3.57328V1.40502C29.044 0.842812 28.588 0.387054 28.0256 0.387054Z" fill="#FF5C00"/>
<path id="Vector_44" d="M53.0256 0.387054H51.0497C50.4872 0.387054 50.0312 0.842812 50.0312 1.40502V3.57328C50.0312 4.13549 50.4872 4.59125 51.0497 4.59125H53.0256C53.588 4.59125 54.044 4.13549 54.044 3.57328V1.40502C54.044 0.842812 53.588 0.387054 53.0256 0.387054Z" fill="#FF5C00"/>
<path id="Vector_45" d="M22.9943 15.4362H21.0185C20.456 15.4362 20 15.892 20 16.4542V18.6225C20 19.1847 20.456 19.6404 21.0185 19.6404H22.9943C23.5568 19.6404 24.0128 19.1847 24.0128 18.6225V16.4542C24.0128 15.892 23.5568 15.4362 22.9943 15.4362Z" fill="#FF5C00"/>
<path id="Vector_46" d="M18.0256 40.3872H16.0497C15.4872 40.3872 15.0312 40.8429 15.0312 41.4051V43.5734C15.0312 44.1356 15.4872 44.5914 16.0497 44.5914H18.0256C18.588 44.5914 19.044 44.1356 19.044 43.5734V41.4051C19.044 40.8429 18.588 40.3872 18.0256 40.3872Z" fill="#FF5C00"/>
<path id="Vector_47" d="M43.0256 40.3872H41.0497C40.4872 40.3872 40.0312 40.8429 40.0312 41.4051V43.5734C40.0312 44.1356 40.4872 44.5914 41.0497 44.5914H43.0256C43.588 44.5914 44.044 44.1356 44.044 43.5734V41.4051C44.044 40.8429 43.588 40.3872 43.0256 40.3872Z" fill="#FF5C00"/>
<path id="Vector_48" d="M8.02556 40.4362H6.04972C5.48723 40.4362 5.03125 40.892 5.03125 41.4542V43.6225C5.03125 44.1847 5.48723 44.6404 6.04972 44.6404H8.02556C8.58804 44.6404 9.04403 44.1847 9.04403 43.6225V41.4542C9.04403 40.892 8.58804 40.4362 8.02556 40.4362Z" fill="#FF5C00"/>
<path id="Vector_49" d="M32.9943 15.4362H31.0185C30.456 15.4362 30 15.892 30 16.4542V18.6225C30 19.1847 30.456 19.6404 31.0185 19.6404H32.9943C33.5568 19.6404 34.0128 19.1847 34.0128 18.6225V16.4542C34.0128 15.892 33.5568 15.4362 32.9943 15.4362Z" fill="#FF5C00"/>
<path id="Vector_50" d="M28.0256 40.3872H26.0497C25.4872 40.3872 25.0312 40.8429 25.0312 41.4051V43.5734C25.0312 44.1356 25.4872 44.5914 26.0497 44.5914H28.0256C28.588 44.5914 29.044 44.1356 29.044 43.5734V41.4051C29.044 40.8429 28.588 40.3872 28.0256 40.3872Z" fill="#FF5C00"/>
<path id="Vector_51" d="M27.9943 45.3872H26.0185C25.456 45.3872 25 45.8429 25 46.4051V48.5734C25 49.1356 25.456 49.5914 26.0185 49.5914H27.9943C28.5568 49.5914 29.0128 49.1356 29.0128 48.5734V46.4051C29.0128 45.8429 28.5568 45.3872 27.9943 45.3872Z" fill="#FF5C00"/>
<path id="Vector_52" d="M53.0256 40.3872H51.0497C50.4872 40.3872 50.0312 40.8429 50.0312 41.4051V43.5734C50.0312 44.1356 50.4872 44.5914 51.0497 44.5914H53.0256C53.588 44.5914 54.044 44.1356 54.044 43.5734V41.4051C54.044 40.8429 53.588 40.3872 53.0256 40.3872Z" fill="#FF5C00"/>
<path id="Vector_53" d="M22.9943 25.4362H21.0185C20.456 25.4362 20 25.892 20 26.4542V28.6225C20 29.1847 20.456 29.6404 21.0185 29.6404H22.9943C23.5568 29.6404 24.0128 29.1847 24.0128 28.6225V26.4542C24.0128 25.892 23.5568 25.4362 22.9943 25.4362Z" fill="#FF5C00"/>
<path id="Vector_54" d="M18.0256 50.4362H16.0497C15.4872 50.4362 15.0312 50.892 15.0312 51.4542V53.6225C15.0312 54.1847 15.4872 54.6404 16.0497 54.6404H18.0256C18.588 54.6404 19.044 54.1847 19.044 53.6225V51.4542C19.044 50.892 18.588 50.4362 18.0256 50.4362Z" fill="#FF5C00"/>
<path id="Vector_55" d="M43.0256 50.4362H41.0497C40.4872 50.4362 40.0312 50.892 40.0312 51.4542V53.6225C40.0312 54.1847 40.4872 54.6404 41.0497 54.6404H43.0256C43.588 54.6404 44.044 54.1847 44.044 53.6225V51.4542C44.044 50.892 43.588 50.4362 43.0256 50.4362Z" fill="#FF5C00"/>
<path id="Vector_56" d="M32.9943 25.4362H31.0185C30.456 25.4362 30 25.892 30 26.4542V28.6225C30 29.1847 30.456 29.6404 31.0185 29.6404H32.9943C33.5568 29.6404 34.0128 29.1847 34.0128 28.6225V26.4542C34.0128 25.892 33.5568 25.4362 32.9943 25.4362Z" fill="#FF5C00"/>
</g>
</svg>
