<svg width="30" height="31" viewBox="0 0 30 31" fill="none" xmlns="http://www.w3.org/2000/svg">
<g id="icon bitcoin">
<path id="Vector" d="M8.43309 28.6941H7.5071C7.24349 28.6941 7.02979 28.8922 7.02979 29.1366V30.0792C7.02979 30.3235 7.24349 30.5217 7.5071 30.5217H8.43309C8.6967 30.5217 8.9104 30.3235 8.9104 30.0792V29.1366C8.9104 28.8922 8.6967 28.6941 8.43309 28.6941Z" fill="white"/>
<path id="Vector_2" d="M6.08982 26.5205H5.16384C4.90022 26.5205 4.68652 26.7186 4.68652 26.963V27.9056C4.68652 28.15 4.90022 28.3481 5.16384 28.3481H6.08982C6.35344 28.3481 6.56714 28.15 6.56714 27.9056V26.963C6.56714 26.7186 6.35344 26.5205 6.08982 26.5205Z" fill="white"/>
<path id="Vector_3" d="M3.74656 24.3472H2.82057C2.55696 24.3472 2.34326 24.5453 2.34326 24.7897V25.7322C2.34326 25.9766 2.55696 26.1747 2.82057 26.1747H3.74656C4.01018 26.1747 4.22388 25.9766 4.22388 25.7322V24.7897C4.22388 24.5453 4.01018 24.3472 3.74656 24.3472Z" fill="white"/>
<path id="Vector_4" d="M10.7765 9.13257H9.85048C9.58687 9.13257 9.37317 9.33069 9.37317 9.57508V10.5176C9.37317 10.762 9.58687 10.9601 9.85048 10.9601H10.7765C11.0401 10.9601 11.2538 10.762 11.2538 10.5176V9.57508C11.2538 9.33069 11.0401 9.13257 10.7765 9.13257Z" fill="white"/>
<path id="Vector_5" d="M20.1495 28.6941H19.2235C18.9599 28.6941 18.7462 28.8922 18.7462 29.1366V30.0792C18.7462 30.3235 18.9599 30.5217 19.2235 30.5217H20.1495C20.4131 30.5217 20.6268 30.3235 20.6268 30.0792V29.1366C20.6268 28.8922 20.4131 28.6941 20.1495 28.6941Z" fill="white"/>
<path id="Vector_6" d="M1.4033 6.95898H0.477313C0.2137 6.95898 0 7.1571 0 7.4015V8.34404C0 8.58844 0.2137 8.78656 0.477313 8.78656H1.4033C1.66691 8.78656 1.88061 8.58844 1.88061 8.34404V7.4015C1.88061 7.1571 1.66691 6.95898 1.4033 6.95898Z" fill="white"/>
<path id="Vector_7" d="M29.5227 6.98022H28.5967C28.3331 6.98022 28.1194 7.17834 28.1194 7.42274V8.36528C28.1194 8.60968 28.3331 8.8078 28.5967 8.8078H29.5227C29.7863 8.8078 30 8.60968 30 8.36528V7.42274C30 7.17834 29.7863 6.98022 29.5227 6.98022Z" fill="white"/>
<path id="Vector_8" d="M17.8063 28.6941H16.8803C16.6167 28.6941 16.403 28.8922 16.403 29.1366V30.0792C16.403 30.3235 16.6167 30.5217 16.8803 30.5217H17.8063C18.0699 30.5217 18.2836 30.3235 18.2836 30.0792V29.1366C18.2836 28.8922 18.0699 28.6941 17.8063 28.6941Z" fill="white"/>
<path id="Vector_9" d="M22.4929 28.6941H21.5669C21.3033 28.6941 21.0896 28.8922 21.0896 29.1366V30.0792C21.0896 30.3235 21.3033 30.5217 21.5669 30.5217H22.4929C22.7565 30.5217 22.9702 30.3235 22.9702 30.0792V29.1366C22.9702 28.8922 22.7565 28.6941 22.4929 28.6941Z" fill="white"/>
<path id="Vector_10" d="M24.8362 26.5205H23.9102C23.6466 26.5205 23.4329 26.7186 23.4329 26.963V27.9056C23.4329 28.15 23.6466 28.3481 23.9102 28.3481H24.8362C25.0998 28.3481 25.3135 28.15 25.3135 27.9056V26.963C25.3135 26.7186 25.0998 26.5205 24.8362 26.5205Z" fill="white"/>
<path id="Vector_11" d="M27.1794 24.3472H26.2534C25.9898 24.3472 25.7761 24.5453 25.7761 24.7897V25.7322C25.7761 25.9766 25.9898 26.1747 26.2534 26.1747H27.1794C27.443 26.1747 27.6567 25.9766 27.6567 25.7322V24.7897C27.6567 24.5453 27.443 24.3472 27.1794 24.3472Z" fill="white"/>
<path id="Vector_12" d="M13.1197 28.6941H12.1937C11.9301 28.6941 11.7164 28.8922 11.7164 29.1366V30.0792C11.7164 30.3235 11.9301 30.5217 12.1937 30.5217H13.1197C13.3833 30.5217 13.597 30.3235 13.597 30.0792V29.1366C13.597 28.8922 13.3833 28.6941 13.1197 28.6941Z" fill="white"/>
<path id="Vector_13" d="M15.463 28.6941H14.537C14.2734 28.6941 14.0597 28.8922 14.0597 29.1366V30.0792C14.0597 30.3235 14.2734 30.5217 14.537 30.5217H15.463C15.7266 30.5217 15.9403 30.3235 15.9403 30.0792V29.1366C15.9403 28.8922 15.7266 28.6941 15.463 28.6941Z" fill="white"/>
<path id="Vector_14" d="M10.7765 17.8052H9.85048C9.58687 17.8052 9.37317 18.0033 9.37317 18.2477V19.1902C9.37317 19.4346 9.58687 19.6327 9.85048 19.6327H10.7765C11.0401 19.6327 11.2538 19.4346 11.2538 19.1902V18.2477C11.2538 18.0033 11.0401 17.8052 10.7765 17.8052Z" fill="white"/>
<path id="Vector_15" d="M1.4033 9.13257H0.477313C0.2137 9.13257 0 9.33069 0 9.57508V10.5176C0 10.762 0.2137 10.9601 0.477313 10.9601H1.4033C1.66691 10.9601 1.88061 10.762 1.88061 10.5176V9.57508C1.88061 9.33069 1.66691 9.13257 1.4033 9.13257Z" fill="white"/>
<path id="Vector_16" d="M29.5227 9.15381H28.5967C28.3331 9.15381 28.1194 9.35193 28.1194 9.59632V10.5389C28.1194 10.7833 28.3331 10.9814 28.5967 10.9814H29.5227C29.7863 10.9814 30 10.7833 30 10.5389V9.59632C30 9.35193 29.7863 9.15381 29.5227 9.15381Z" fill="white"/>
<path id="Vector_17" d="M8.43309 0.438477H7.5071C7.24349 0.438477 7.02979 0.636596 7.02979 0.880988V1.82354C7.02979 2.06793 7.24349 2.26605 7.5071 2.26605H8.43309C8.6967 2.26605 8.9104 2.06793 8.9104 1.82354V0.880988C8.9104 0.636596 8.6967 0.438477 8.43309 0.438477Z" fill="white"/>
<path id="Vector_18" d="M6.08982 2.61206H5.16384C4.90022 2.61206 4.68652 2.81018 4.68652 3.05457V3.99712C4.68652 4.24151 4.90022 4.43963 5.16384 4.43963H6.08982C6.35344 4.43963 6.56714 4.24151 6.56714 3.99712V3.05457C6.56714 2.81018 6.35344 2.61206 6.08982 2.61206Z" fill="white"/>
<path id="Vector_19" d="M3.74656 4.7854H2.82057C2.55696 4.7854 2.34326 4.98352 2.34326 5.22791V6.17046C2.34326 6.41485 2.55696 6.61297 2.82057 6.61297H3.74656C4.01018 6.61297 4.22388 6.41485 4.22388 6.17046V5.22791C4.22388 4.98352 4.01018 4.7854 3.74656 4.7854Z" fill="white"/>
<path id="Vector_20" d="M10.7765 6.95898H9.85048C9.58687 6.95898 9.37317 7.1571 9.37317 7.4015V8.34404C9.37317 8.58844 9.58687 8.78656 9.85048 8.78656H10.7765C11.0401 8.78656 11.2538 8.58844 11.2538 8.34404V7.4015C11.2538 7.1571 11.0401 6.95898 10.7765 6.95898Z" fill="white"/>
<path id="Vector_21" d="M1.4033 13.4583H0.477313C0.2137 13.4583 0 13.6564 0 13.9008V14.8433C0 15.0877 0.2137 15.2858 0.477313 15.2858H1.4033C1.66691 15.2858 1.88061 15.0877 1.88061 14.8433V13.9008C1.88061 13.6564 1.66691 13.4583 1.4033 13.4583Z" fill="white"/>
<path id="Vector_22" d="M29.5227 13.4795H28.5967C28.3331 13.4795 28.1194 13.6776 28.1194 13.922V14.8646C28.1194 15.1089 28.3331 15.3071 28.5967 15.3071H29.5227C29.7863 15.3071 30 15.1089 30 14.8646V13.922C30 13.6776 29.7863 13.4795 29.5227 13.4795Z" fill="white"/>
<path id="Vector_23" d="M20.1495 0.438477H19.2235C18.9599 0.438477 18.7462 0.636596 18.7462 0.880988V1.82354C18.7462 2.06793 18.9599 2.26605 19.2235 2.26605H20.1495C20.4131 2.26605 20.6268 2.06793 20.6268 1.82354V0.880988C20.6268 0.636596 20.4131 0.438477 20.1495 0.438477Z" fill="white"/>
<path id="Vector_24" d="M17.8063 6.98022H16.8803C16.6167 6.98022 16.403 7.17834 16.403 7.42274V8.36528C16.403 8.60968 16.6167 8.8078 16.8803 8.8078H17.8063C18.0699 8.8078 18.2836 8.60968 18.2836 8.36528V7.42274C18.2836 7.17834 18.0699 6.98022 17.8063 6.98022Z" fill="white"/>
<path id="Vector_25" d="M20.1495 9.13257H19.2235C18.9599 9.13257 18.7462 9.33069 18.7462 9.57508V10.5176C18.7462 10.762 18.9599 10.9601 19.2235 10.9601H20.1495C20.4131 10.9601 20.6268 10.762 20.6268 10.5176V9.57508C20.6268 9.33069 20.4131 9.13257 20.1495 9.13257Z" fill="white"/>
<path id="Vector_26" d="M20.1495 11.3059H19.2235C18.9599 11.3059 18.7462 11.504 18.7462 11.7484V12.691C18.7462 12.9354 18.9599 13.1335 19.2235 13.1335H20.1495C20.4131 13.1335 20.6268 12.9354 20.6268 12.691V11.7484C20.6268 11.504 20.4131 11.3059 20.1495 11.3059Z" fill="white"/>
<path id="Vector_27" d="M20.1495 15.6531H19.2235C18.9599 15.6531 18.7462 15.8512 18.7462 16.0956V17.0381C18.7462 17.2825 18.9599 17.4806 19.2235 17.4806H20.1495C20.4131 17.4806 20.6268 17.2825 20.6268 17.0381V16.0956C20.6268 15.8512 20.4131 15.6531 20.1495 15.6531Z" fill="white"/>
<path id="Vector_28" d="M20.1495 17.8267H19.2235C18.9599 17.8267 18.7462 18.0248 18.7462 18.2692V19.2117C18.7462 19.4561 18.9599 19.6542 19.2235 19.6542H20.1495C20.4131 19.6542 20.6268 19.4561 20.6268 19.2117V18.2692C20.6268 18.0248 20.4131 17.8267 20.1495 17.8267Z" fill="white"/>
<path id="Vector_29" d="M20.1495 20H19.2235C18.9599 20 18.7462 20.1981 18.7462 20.4425V21.3851C18.7462 21.6295 18.9599 21.8276 19.2235 21.8276H20.1495C20.4131 21.8276 20.6268 21.6295 20.6268 21.3851V20.4425C20.6268 20.1981 20.4131 20 20.1495 20Z" fill="white"/>
<path id="Vector_30" d="M17.8063 13.4795H16.8803C16.6167 13.4795 16.403 13.6776 16.403 13.922V14.8646C16.403 15.1089 16.6167 15.3071 16.8803 15.3071H17.8063C18.0699 15.3071 18.2836 15.1089 18.2836 14.8646V13.922C18.2836 13.6776 18.0699 13.4795 17.8063 13.4795Z" fill="white"/>
<path id="Vector_31" d="M15.463 13.4795H14.537C14.2734 13.4795 14.0597 13.6776 14.0597 13.922V14.8646C14.0597 15.1089 14.2734 15.3071 14.537 15.3071H15.463C15.7266 15.3071 15.9403 15.1089 15.9403 14.8646V13.922C15.9403 13.6776 15.7266 13.4795 15.463 13.4795Z" fill="white"/>
<path id="Vector_32" d="M15.463 24.3472H14.537C14.2734 24.3472 14.0597 24.5453 14.0597 24.7897V25.7322C14.0597 25.9766 14.2734 26.1747 14.537 26.1747H15.463C15.7266 26.1747 15.9403 25.9766 15.9403 25.7322V24.7897C15.9403 24.5453 15.7266 24.3472 15.463 24.3472Z" fill="white"/>
<path id="Vector_33" d="M15.463 4.7854H14.537C14.2734 4.7854 14.0597 4.98352 14.0597 5.22791V6.17046C14.0597 6.41485 14.2734 6.61297 14.537 6.61297H15.463C15.7266 6.61297 15.9403 6.41485 15.9403 6.17046V5.22791C15.9403 4.98352 15.7266 4.7854 15.463 4.7854Z" fill="white"/>
<path id="Vector_34" d="M17.8063 0.438477H16.8803C16.6167 0.438477 16.403 0.636596 16.403 0.880988V1.82354C16.403 2.06793 16.6167 2.26605 16.8803 2.26605H17.8063C18.0699 2.26605 18.2836 2.06793 18.2836 1.82354V0.880988C18.2836 0.636596 18.0699 0.438477 17.8063 0.438477Z" fill="white"/>
<path id="Vector_35" d="M10.7765 24.3472H9.85048C9.58687 24.3472 9.37317 24.5453 9.37317 24.7897V25.7322C9.37317 25.9766 9.58687 26.1747 9.85048 26.1747H10.7765C11.0401 26.1747 11.2538 25.9766 11.2538 25.7322V24.7897C11.2538 24.5453 11.0401 24.3472 10.7765 24.3472Z" fill="white"/>
<path id="Vector_36" d="M10.7765 4.7854H9.85048C9.58687 4.7854 9.37317 4.98352 9.37317 5.22791V6.17046C9.37317 6.41485 9.58687 6.61297 9.85048 6.61297H10.7765C11.0401 6.61297 11.2538 6.41485 11.2538 6.17046V5.22791C11.2538 4.98352 11.0401 4.7854 10.7765 4.7854Z" fill="white"/>
<path id="Vector_37" d="M13.1197 6.95898H12.1937C11.9301 6.95898 11.7164 7.1571 11.7164 7.4015V8.34404C11.7164 8.58844 11.9301 8.78656 12.1937 8.78656H13.1197C13.3833 8.78656 13.597 8.58844 13.597 8.34404V7.4015C13.597 7.1571 13.3833 6.95898 13.1197 6.95898Z" fill="white"/>
<path id="Vector_38" d="M13.1197 22.1736H12.1937C11.9301 22.1736 11.7164 22.3717 11.7164 22.6161V23.5586C11.7164 23.803 11.9301 24.0012 12.1937 24.0012H13.1197C13.3833 24.0012 13.597 23.803 13.597 23.5586V22.6161C13.597 22.3717 13.3833 22.1736 13.1197 22.1736Z" fill="white"/>
<path id="Vector_39" d="M13.1197 0.438477H12.1937C11.9301 0.438477 11.7164 0.636596 11.7164 0.880988V1.82354C11.7164 2.06793 11.9301 2.26605 12.1937 2.26605H13.1197C13.3833 2.26605 13.597 2.06793 13.597 1.82354V0.880988C13.597 0.636596 13.3833 0.438477 13.1197 0.438477Z" fill="white"/>
<path id="Vector_40" d="M10.7765 15.6531H9.85048C9.58687 15.6531 9.37317 15.8512 9.37317 16.0956V17.0381C9.37317 17.2825 9.58687 17.4806 9.85048 17.4806H10.7765C11.0401 17.4806 11.2538 17.2825 11.2538 17.0381V16.0956C11.2538 15.8512 11.0401 15.6531 10.7765 15.6531Z" fill="white"/>
<path id="Vector_41" d="M10.7765 13.4795H9.85048C9.58687 13.4795 9.37317 13.6776 9.37317 13.922V14.8646C9.37317 15.1089 9.58687 15.3071 9.85048 15.3071H10.7765C11.0401 15.3071 11.2538 15.1089 11.2538 14.8646V13.922C11.2538 13.6776 11.0401 13.4795 10.7765 13.4795Z" fill="white"/>
<path id="Vector_42" d="M10.7765 11.3059H9.85048C9.58687 11.3059 9.37317 11.504 9.37317 11.7484V12.691C9.37317 12.9354 9.58687 13.1335 9.85048 13.1335H10.7765C11.0401 13.1335 11.2538 12.9354 11.2538 12.691V11.7484C11.2538 11.504 11.0401 11.3059 10.7765 11.3059Z" fill="white"/>
<path id="Vector_43" d="M1.4033 11.3059H0.477313C0.2137 11.3059 0 11.504 0 11.7484V12.691C0 12.9354 0.2137 13.1335 0.477313 13.1335H1.4033C1.66691 13.1335 1.88061 12.9354 1.88061 12.691V11.7484C1.88061 11.504 1.66691 11.3059 1.4033 11.3059Z" fill="white"/>
<path id="Vector_44" d="M29.5227 11.3274H28.5967C28.3331 11.3274 28.1194 11.5255 28.1194 11.7699V12.7125C28.1194 12.9568 28.3331 13.155 28.5967 13.155H29.5227C29.7863 13.155 30 12.9568 30 12.7125V11.7699C30 11.5255 29.7863 11.3274 29.5227 11.3274Z" fill="white"/>
<path id="Vector_45" d="M1.4033 17.8267H0.477313C0.2137 17.8267 0 18.0248 0 18.2692V19.2117C0 19.4561 0.2137 19.6542 0.477313 19.6542H1.4033C1.66691 19.6542 1.88061 19.4561 1.88061 19.2117V18.2692C1.88061 18.0248 1.66691 17.8267 1.4033 17.8267Z" fill="white"/>
<path id="Vector_46" d="M1.4033 20H0.477313C0.2137 20 0 20.1981 0 20.4425V21.3851C0 21.6295 0.2137 21.8276 0.477313 21.8276H1.4033C1.66691 21.8276 1.88061 21.6295 1.88061 21.3851V20.4425C1.88061 20.1981 1.66691 20 1.4033 20Z" fill="white"/>
<path id="Vector_47" d="M29.5227 17.8479H28.5967C28.3331 17.8479 28.1194 18.046 28.1194 18.2904V19.233C28.1194 19.4774 28.3331 19.6755 28.5967 19.6755H29.5227C29.7863 19.6755 30 19.4774 30 19.233V18.2904C30 18.046 29.7863 17.8479 29.5227 17.8479Z" fill="white"/>
<path id="Vector_48" d="M29.5227 20.0215H28.5967C28.3331 20.0215 28.1194 20.2196 28.1194 20.464V21.4065C28.1194 21.6509 28.3331 21.8491 28.5967 21.8491H29.5227C29.7863 21.8491 30 21.6509 30 21.4065V20.464C30 20.2196 29.7863 20.0215 29.5227 20.0215Z" fill="white"/>
<path id="Vector_49" d="M1.4033 15.6531H0.477313C0.2137 15.6531 0 15.8512 0 16.0956V17.0381C0 17.2825 0.2137 17.4806 0.477313 17.4806H1.4033C1.66691 17.4806 1.88061 17.2825 1.88061 17.0381V16.0956C1.88061 15.8512 1.66691 15.6531 1.4033 15.6531Z" fill="white"/>
<path id="Vector_50" d="M29.5227 15.6743H28.5967C28.3331 15.6743 28.1194 15.8724 28.1194 16.1168V17.0594C28.1194 17.3038 28.3331 17.5019 28.5967 17.5019H29.5227C29.7863 17.5019 30 17.3038 30 17.0594V16.1168C30 15.8724 29.7863 15.6743 29.5227 15.6743Z" fill="white"/>
<path id="Vector_51" d="M1.4033 22.1736H0.477313C0.2137 22.1736 0 22.3717 0 22.6161V23.5586C0 23.803 0.2137 24.0012 0.477313 24.0012H1.4033C1.66691 24.0012 1.88061 23.803 1.88061 23.5586V22.6161C1.88061 22.3717 1.66691 22.1736 1.4033 22.1736Z" fill="white"/>
<path id="Vector_52" d="M29.5227 22.1948H28.5967C28.3331 22.1948 28.1194 22.3929 28.1194 22.6373V23.5799C28.1194 23.8243 28.3331 24.0224 28.5967 24.0224H29.5227C29.7863 24.0224 30 23.8243 30 23.5799V22.6373C30 22.3929 29.7863 22.1948 29.5227 22.1948Z" fill="white"/>
<path id="Vector_53" d="M10.7911 28.7339H9.86513C9.60152 28.7339 9.38782 28.932 9.38782 29.1764V30.1189C9.38782 30.3633 9.60152 30.5615 9.86513 30.5615H10.7911C11.0547 30.5615 11.2684 30.3633 11.2684 30.1189V29.1764C11.2684 28.932 11.0547 28.7339 10.7911 28.7339Z" fill="white"/>
<path id="Vector_54" d="M10.7911 0.478271H9.86513C9.60152 0.478271 9.38782 0.67639 9.38782 0.920783V1.86333C9.38782 2.10772 9.60152 2.30584 9.86513 2.30584H10.7911C11.0547 2.30584 11.2684 2.10772 11.2684 1.86333V0.920783C11.2684 0.67639 11.0547 0.478271 10.7911 0.478271Z" fill="white"/>
<path id="Vector_55" d="M22.5074 0.478271H21.5814C21.3178 0.478271 21.1041 0.67639 21.1041 0.920783V1.86333C21.1041 2.10772 21.3178 2.30584 21.5814 2.30584H22.5074C22.771 2.30584 22.9847 2.10772 22.9847 1.86333V0.920783C22.9847 0.67639 22.771 0.478271 22.5074 0.478271Z" fill="white"/>
<path id="Vector_56" d="M24.8362 2.61206H23.9102C23.6466 2.61206 23.4329 2.81018 23.4329 3.05457V3.99712C23.4329 4.24151 23.6466 4.43963 23.9102 4.43963H24.8362C25.0998 4.43963 25.3135 4.24151 25.3135 3.99712V3.05457C25.3135 2.81018 25.0998 2.61206 24.8362 2.61206Z" fill="white"/>
<path id="Vector_57" d="M27.1794 4.7854H26.2534C25.9898 4.7854 25.7761 4.98352 25.7761 5.22791V6.17046C25.7761 6.41485 25.9898 6.61297 26.2534 6.61297H27.1794C27.443 6.61297 27.6567 6.41485 27.6567 6.17046V5.22791C27.6567 4.98352 27.443 4.7854 27.1794 4.7854Z" fill="white"/>
<path id="Vector_58" d="M10.7911 22.1919H9.86513C9.60152 22.1919 9.38782 22.39 9.38782 22.6344V23.577C9.38782 23.8213 9.60152 24.0195 9.86513 24.0195H10.7911C11.0547 24.0195 11.2684 23.8213 11.2684 23.577V22.6344C11.2684 22.39 11.0547 22.1919 10.7911 22.1919Z" fill="white"/>
<path id="Vector_59" d="M10.7911 20H9.86513C9.60152 20 9.38782 20.1981 9.38782 20.4425V21.3851C9.38782 21.6295 9.60152 21.8276 9.86513 21.8276H10.7911C11.0547 21.8276 11.2684 21.6295 11.2684 21.3851V20.4425C11.2684 20.1981 11.0547 20 10.7911 20Z" fill="white"/>
<path id="Vector_60" d="M17.8063 22.1736H16.8803C16.6167 22.1736 16.403 22.3717 16.403 22.6161V23.5586C16.403 23.803 16.6167 24.0012 16.8803 24.0012H17.8063C18.0699 24.0012 18.2836 23.803 18.2836 23.5586V22.6161C18.2836 22.3717 18.0699 22.1736 17.8063 22.1736Z" fill="white"/>
<path id="Vector_61" d="M15.4776 7.02002H14.5517C14.288 7.02002 14.0743 7.21814 14.0743 7.46253V8.40508C14.0743 8.64947 14.288 8.84759 14.5517 8.84759H15.4776C15.7413 8.84759 15.955 8.64947 15.955 8.40508V7.46253C15.955 7.21814 15.7413 7.02002 15.4776 7.02002Z" fill="white"/>
<path id="Vector_62" d="M15.4776 22.2346H14.5517C14.288 22.2346 14.0743 22.4327 14.0743 22.6771V23.6197C14.0743 23.8641 14.288 24.0622 14.5517 24.0622H15.4776C15.7413 24.0622 15.955 23.8641 15.955 23.6197V22.6771C15.955 22.4327 15.7413 22.2346 15.4776 22.2346Z" fill="white"/>
<path id="Vector_63" d="M15.4776 0.478271H14.5517C14.288 0.478271 14.0743 0.67639 14.0743 0.920783V1.86333C14.0743 2.10772 14.288 2.30584 14.5517 2.30584H15.4776C15.7413 2.30584 15.955 2.10772 15.955 1.86333V0.920783C15.955 0.67639 15.7413 0.478271 15.4776 0.478271Z" fill="white"/>
</g>
</svg>
