<svg width="60" height="60" viewBox="0 0 60 60" fill="none" xmlns="http://www.w3.org/2000/svg">
<g id="ICON BOOK OPEN">
<path id="Vector" d="M6.95092 30.2627H5.23312C4.74409 30.2627 4.34766 30.6573 4.34766 31.1441V33.0215C4.34766 33.5083 4.74409 33.9029 5.23312 33.9029H6.95092C7.43995 33.9029 7.83638 33.5083 7.83638 33.0215V31.1441C7.83638 30.6573 7.43995 30.2627 6.95092 30.2627Z" fill="current"/>
<path id="Vector_2" d="M2.60326 30.3052H0.885463C0.396435 30.3052 0 30.6998 0 31.1866V33.064C0 33.5508 0.396435 33.9454 0.885463 33.9454H2.60326C3.09229 33.9454 3.48873 33.5508 3.48873 33.064V31.1866C3.48873 30.6998 3.09229 30.3052 2.60326 30.3052Z" fill="current"/>
<path id="Vector_3" d="M11.2986 47.6221H9.58078C9.09175 47.6221 8.69531 48.0167 8.69531 48.5035V50.3809C8.69531 50.8677 9.09175 51.2623 9.58078 51.2623H11.2986C11.7876 51.2623 12.184 50.8677 12.184 50.3809V48.5035C12.184 48.0167 11.7876 47.6221 11.2986 47.6221Z" fill="current"/>
<path id="Vector_4" d="M6.95092 56.2808H5.23312C4.74409 56.2808 4.34766 56.6754 4.34766 57.1622V59.0396C4.34766 59.5264 4.74409 59.921 5.23312 59.921H6.95092C7.43995 59.921 7.83638 59.5264 7.83638 59.0396V57.1622C7.83638 56.6754 7.43995 56.2808 6.95092 56.2808Z" fill="current"/>
<path id="Vector_5" d="M2.60326 47.6221H0.885463C0.396435 47.6221 0 48.0167 0 48.5035V50.3809C0 50.8677 0.396435 51.2623 0.885463 51.2623H2.60326C3.09229 51.2623 3.48873 50.8677 3.48873 50.3809V48.5035C3.48873 48.0167 3.09229 47.6221 2.60326 47.6221Z" fill="current"/>
<path id="Vector_6" d="M2.60326 51.9937H0.885463C0.396435 51.9937 0 52.3883 0 52.8751V54.7525C0 55.2393 0.396435 55.6339 0.885463 55.6339H2.60326C3.09229 55.6339 3.48873 55.2393 3.48873 54.7525V52.8751C3.48873 52.3883 3.09229 51.9937 2.60326 51.9937Z" fill="current"/>
<path id="Vector_7" d="M2.60326 56.3232H0.885463C0.396435 56.3232 0 56.7179 0 57.2047V59.0821C0 59.5688 0.396435 59.9635 0.885463 59.9635H2.60326C3.09229 59.9635 3.48873 59.5688 3.48873 59.0821V57.2047C3.48873 56.7179 3.09229 56.3232 2.60326 56.3232Z" fill="current"/>
<path id="Vector_8" d="M6.95092 12.9453H5.23312C4.74409 12.9453 4.34766 13.3399 4.34766 13.8267V15.7041C4.34766 16.1909 4.74409 16.5855 5.23312 16.5855H6.95092C7.43995 16.5855 7.83638 16.1909 7.83638 15.7041V13.8267C7.83638 13.3399 7.43995 12.9453 6.95092 12.9453Z" fill="current"/>
<path id="Vector_9" d="M2.60326 12.9878H0.885463C0.396435 12.9878 0 13.3824 0 13.8692V15.7466C0 16.2334 0.396435 16.628 0.885463 16.628H2.60326C3.09229 16.628 3.48873 16.2334 3.48873 15.7466V13.8692C3.48873 13.3824 3.09229 12.9878 2.60326 12.9878Z" fill="current"/>
<path id="Vector_10" d="M28.6853 12.9453H26.9675C26.4785 12.9453 26.082 13.3399 26.082 13.8267V15.7041C26.082 16.1909 26.4785 16.5855 26.9675 16.5855H28.6853C29.1743 16.5855 29.5708 16.1909 29.5708 15.7041V13.8267C29.5708 13.3399 29.1743 12.9453 28.6853 12.9453Z" fill="current"/>
<path id="Vector_11" d="M50.4197 12.9453H48.7019C48.2128 12.9453 47.8164 13.3399 47.8164 13.8267V15.7041C47.8164 16.1909 48.2128 16.5855 48.7019 16.5855H50.4197C50.9087 16.5855 51.3051 16.1909 51.3051 15.7041V13.8267C51.3051 13.3399 50.9087 12.9453 50.4197 12.9453Z" fill="current"/>
<path id="Vector_12" d="M46.072 12.9453H44.3542C43.8652 12.9453 43.4688 13.3399 43.4688 13.8267V15.7041C43.4688 16.1909 43.8652 16.5855 44.3542 16.5855H46.072C46.561 16.5855 46.9575 16.1909 46.9575 15.7041V13.8267C46.9575 13.3399 46.561 12.9453 46.072 12.9453Z" fill="current"/>
<path id="Vector_13" d="M15.6462 30.2627H13.9284C13.4394 30.2627 13.043 30.6573 13.043 31.1441V33.0215C13.043 33.5083 13.4394 33.9029 13.9284 33.9029H15.6462C16.1353 33.9029 16.5317 33.5083 16.5317 33.0215V31.1441C16.5317 30.6573 16.1353 30.2627 15.6462 30.2627Z" fill="current"/>
<path id="Vector_14" d="M59.115 30.2627H57.3972C56.9082 30.2627 56.5117 30.6573 56.5117 31.1441V33.0215C56.5117 33.5083 56.9082 33.9029 57.3972 33.9029H59.115C59.604 33.9029 60.0004 33.5083 60.0004 33.0215V31.1441C60.0004 30.6573 59.604 30.2627 59.115 30.2627Z" fill="current"/>
<path id="Vector_15" d="M59.115 47.5796H57.3972C56.9082 47.5796 56.5117 47.9742 56.5117 48.461V50.3384C56.5117 50.8252 56.9082 51.2198 57.3972 51.2198H59.115C59.604 51.2198 60.0004 50.8252 60.0004 50.3384V48.461C60.0004 47.9742 59.604 47.5796 59.115 47.5796Z" fill="current"/>
<path id="Vector_16" d="M15.6462 12.9453H13.9284C13.4394 12.9453 13.043 13.3399 13.043 13.8267V15.7041C13.043 16.1909 13.4394 16.5855 13.9284 16.5855H15.6462C16.1353 16.5855 16.5317 16.1909 16.5317 15.7041V13.8267C16.5317 13.3399 16.1353 12.9453 15.6462 12.9453Z" fill="current"/>
<path id="Vector_17" d="M37.3806 12.9453H35.6628C35.1738 12.9453 34.7773 13.3399 34.7773 13.8267V15.7041C34.7773 16.1909 35.1738 16.5855 35.6628 16.5855H37.3806C37.8696 16.5855 38.2661 16.1909 38.2661 15.7041V13.8267C38.2661 13.3399 37.8696 12.9453 37.3806 12.9453Z" fill="current"/>
<path id="Vector_18" d="M59.115 12.9453H57.3972C56.9082 12.9453 56.5117 13.3399 56.5117 13.8267V15.7041C56.5117 16.1909 56.9082 16.5855 57.3972 16.5855H59.115C59.604 16.5855 60.0004 16.1909 60.0004 15.7041V13.8267C60.0004 13.3399 59.604 12.9453 59.115 12.9453Z" fill="current"/>
<path id="Vector_19" d="M6.95092 38.9209H5.23312C4.74409 38.9209 4.34766 39.3155 4.34766 39.8023V41.6797C4.34766 42.1665 4.74409 42.5611 5.23312 42.5611H6.95092C7.43995 42.5611 7.83638 42.1665 7.83638 41.6797V39.8023C7.83638 39.3155 7.43995 38.9209 6.95092 38.9209Z" fill="current"/>
<path id="Vector_20" d="M2.60326 38.9634H0.885463C0.396435 38.9634 0 39.358 0 39.8448V41.7222C0 42.209 0.396435 42.6036 0.885463 42.6036H2.60326C3.09229 42.6036 3.48873 42.209 3.48873 41.7222V39.8448C3.48873 39.358 3.09229 38.9634 2.60326 38.9634Z" fill="current"/>
<path id="Vector_21" d="M50.4197 56.2383H48.7019C48.2128 56.2383 47.8164 56.6329 47.8164 57.1197V58.9971C47.8164 59.4839 48.2128 59.8785 48.7019 59.8785H50.4197C50.9087 59.8785 51.3051 59.4839 51.3051 58.9971V57.1197C51.3051 56.6329 50.9087 56.2383 50.4197 56.2383Z" fill="current"/>
<path id="Vector_22" d="M6.95092 21.604H5.23312C4.74409 21.604 4.34766 21.9986 4.34766 22.4854V24.3628C4.34766 24.8496 4.74409 25.2442 5.23312 25.2442H6.95092C7.43995 25.2442 7.83638 24.8496 7.83638 24.3628V22.4854C7.83638 21.9986 7.43995 21.604 6.95092 21.604Z" fill="current"/>
<path id="Vector_23" d="M2.60326 21.6465H0.885463C0.396435 21.6465 0 22.0411 0 22.5279V24.4053C0 24.8921 0.396435 25.2867 0.885463 25.2867H2.60326C3.09229 25.2867 3.48873 24.8921 3.48873 24.4053V22.5279C3.48873 22.0411 3.09229 21.6465 2.60326 21.6465Z" fill="current"/>
<path id="Vector_24" d="M50.4197 21.604H48.7019C48.2128 21.604 47.8164 21.9986 47.8164 22.4854V24.3628C47.8164 24.8496 48.2128 25.2442 48.7019 25.2442H50.4197C50.9087 25.2442 51.3051 24.8496 51.3051 24.3628V22.4854C51.3051 21.9986 50.9087 21.604 50.4197 21.604Z" fill="current"/>
<path id="Vector_25" d="M46.072 56.2383H44.3542C43.8652 56.2383 43.4688 56.6329 43.4688 57.1197V58.9971C43.4688 59.4839 43.8652 59.8785 44.3542 59.8785H46.072C46.561 59.8785 46.9575 59.4839 46.9575 58.9971V57.1197C46.9575 56.6329 46.561 56.2383 46.072 56.2383Z" fill="current"/>
<path id="Vector_26" d="M46.072 21.604H44.3542C43.8652 21.604 43.4688 21.9986 43.4688 22.4854V24.3628C43.4688 24.8496 43.8652 25.2442 44.3542 25.2442H46.072C46.561 25.2442 46.9575 24.8496 46.9575 24.3628V22.4854C46.9575 21.9986 46.561 21.604 46.072 21.604Z" fill="current"/>
<path id="Vector_27" d="M15.6462 38.9209H13.9284C13.4394 38.9209 13.043 39.3155 13.043 39.8023V41.6797C13.043 42.1665 13.4394 42.5611 13.9284 42.5611H15.6462C16.1353 42.5611 16.5317 42.1665 16.5317 41.6797V39.8023C16.5317 39.3155 16.1353 38.9209 15.6462 38.9209Z" fill="current"/>
<path id="Vector_28" d="M59.115 38.9209H57.3972C56.9082 38.9209 56.5117 39.3155 56.5117 39.8023V41.6797C56.5117 42.1665 56.9082 42.5611 57.3972 42.5611H59.115C59.604 42.5611 60.0004 42.1665 60.0004 41.6797V39.8023C60.0004 39.3155 59.604 38.9209 59.115 38.9209Z" fill="current"/>
<path id="Vector_29" d="M37.3806 56.2383H35.6628C35.1738 56.2383 34.7773 56.6329 34.7773 57.1197V58.9971C34.7773 59.4839 35.1738 59.8785 35.6628 59.8785H37.3806C37.8696 59.8785 38.2661 59.4839 38.2661 58.9971V57.1197C38.2661 56.6329 37.8696 56.2383 37.3806 56.2383Z" fill="current"/>
<path id="Vector_30" d="M59.115 56.2383H57.3972C56.9082 56.2383 56.5117 56.6329 56.5117 57.1197V58.9971C56.5117 59.4839 56.9082 59.8785 57.3972 59.8785H59.115C59.604 59.8785 60.0004 59.4839 60.0004 58.9971V57.1197C60.0004 56.6329 59.604 56.2383 59.115 56.2383Z" fill="current"/>
<path id="Vector_31" d="M15.6462 21.604H13.9284C13.4394 21.604 13.043 21.9986 13.043 22.4854V24.3628C13.043 24.8496 13.4394 25.2442 13.9284 25.2442H15.6462C16.1353 25.2442 16.5317 24.8496 16.5317 24.3628V22.4854C16.5317 21.9986 16.1353 21.604 15.6462 21.604Z" fill="current"/>
<path id="Vector_32" d="M59.115 21.604H57.3972C56.9082 21.604 56.5117 21.9986 56.5117 22.4854V24.3628C56.5117 24.8496 56.9082 25.2442 57.3972 25.2442H59.115C59.604 25.2442 60.0004 24.8496 60.0004 24.3628V22.4854C60.0004 21.9986 59.604 21.604 59.115 21.604Z" fill="current"/>
<path id="Vector_33" d="M15.6462 4.28662H13.9284C13.4394 4.28662 13.043 4.68124 13.043 5.16803V7.04543C13.043 7.53222 13.4394 7.92684 13.9284 7.92684H15.6462C16.1353 7.92684 16.5317 7.53222 16.5317 7.04543V5.16803C16.5317 4.68124 16.1353 4.28662 15.6462 4.28662Z" fill="current"/>
<path id="Vector_34" d="M6.95092 34.6343H5.23312C4.74409 34.6343 4.34766 35.0289 4.34766 35.5157V37.3931C4.34766 37.8799 4.74409 38.2745 5.23312 38.2745H6.95092C7.43995 38.2745 7.83638 37.8799 7.83638 37.3931V35.5157C7.83638 35.0289 7.43995 34.6343 6.95092 34.6343Z" fill="current"/>
<path id="Vector_35" d="M2.60326 34.6768H0.885463C0.396435 34.6768 0 35.0714 0 35.5582V37.4356C0 37.9224 0.396435 38.317 0.885463 38.317H2.60326C3.09229 38.317 3.48873 37.9224 3.48873 37.4356V35.5582C3.48873 35.0714 3.09229 34.6768 2.60326 34.6768Z" fill="current"/>
<path id="Vector_36" d="M28.6853 56.2808H26.9675C26.4785 56.2808 26.082 56.6754 26.082 57.1622V59.0396C26.082 59.5264 26.4785 59.921 26.9675 59.921H28.6853C29.1743 59.921 29.5708 59.5264 29.5708 59.0396V57.1622C29.5708 56.6754 29.1743 56.2808 28.6853 56.2808Z" fill="current"/>
<path id="Vector_37" d="M6.95092 17.3169H5.23312C4.74409 17.3169 4.34766 17.7115 4.34766 18.1983V20.0757C4.34766 20.5625 4.74409 20.9571 5.23312 20.9571H6.95092C7.43995 20.9571 7.83638 20.5625 7.83638 20.0757V18.1983C7.83638 17.7115 7.43995 17.3169 6.95092 17.3169Z" fill="current"/>
<path id="Vector_38" d="M2.60326 17.3594H0.885463C0.396435 17.3594 0 17.754 0 18.2408V20.1182C0 20.605 0.396435 20.9996 0.885463 20.9996H2.60326C3.09229 20.9996 3.48873 20.605 3.48873 20.1182V18.2408C3.48873 17.754 3.09229 17.3594 2.60326 17.3594Z" fill="current"/>
<path id="Vector_39" d="M24.3376 51.9512H22.6198C22.1308 51.9512 21.7344 52.3458 21.7344 52.8326V54.71C21.7344 55.1968 22.1308 55.5914 22.6198 55.5914H24.3376C24.8267 55.5914 25.2231 55.1968 25.2231 54.71V52.8326C25.2231 52.3458 24.8267 51.9512 24.3376 51.9512Z" fill="current"/>
<path id="Vector_40" d="M24.3376 56.2808H22.6198C22.1308 56.2808 21.7344 56.6754 21.7344 57.1622V59.0396C21.7344 59.5264 22.1308 59.921 22.6198 59.921H24.3376C24.8267 59.921 25.2231 59.5264 25.2231 59.0396V57.1622C25.2231 56.6754 24.8267 56.2808 24.3376 56.2808Z" fill="current"/>
<path id="Vector_41" d="M15.6462 34.6343H13.9284C13.4394 34.6343 13.043 35.0289 13.043 35.5157V37.3931C13.043 37.8799 13.4394 38.2745 13.9284 38.2745H15.6462C16.1353 38.2745 16.5317 37.8799 16.5317 37.3931V35.5157C16.5317 35.0289 16.1353 34.6343 15.6462 34.6343Z" fill="current"/>
<path id="Vector_42" d="M59.115 34.6343H57.3972C56.9082 34.6343 56.5117 35.0289 56.5117 35.5157V37.3931C56.5117 37.8799 56.9082 38.2745 57.3972 38.2745H59.115C59.604 38.2745 60.0004 37.8799 60.0004 37.3931V35.5157C60.0004 35.0289 59.604 34.6343 59.115 34.6343Z" fill="current"/>
<path id="Vector_43" d="M59.115 51.9512H57.3972C56.9082 51.9512 56.5117 52.3458 56.5117 52.8326V54.71C56.5117 55.1968 56.9082 55.5914 57.3972 55.5914H59.115C59.604 55.5914 60.0004 55.1968 60.0004 54.71V52.8326C60.0004 52.3458 59.604 51.9512 59.115 51.9512Z" fill="current"/>
<path id="Vector_44" d="M15.6462 17.3169H13.9284C13.4394 17.3169 13.043 17.7115 13.043 18.1983V20.0757C13.043 20.5625 13.4394 20.9571 13.9284 20.9571H15.6462C16.1353 20.9571 16.5317 20.5625 16.5317 20.0757V18.1983C16.5317 17.7115 16.1353 17.3169 15.6462 17.3169Z" fill="current"/>
<path id="Vector_45" d="M59.115 17.3169H57.3972C56.9082 17.3169 56.5117 17.7115 56.5117 18.1983V20.0757C56.5117 20.5625 56.9082 20.9571 57.3972 20.9571H59.115C59.604 20.9571 60.0004 20.5625 60.0004 20.0757V18.1983C60.0004 17.7115 59.604 17.3169 59.115 17.3169Z" fill="current"/>
<path id="Vector_46" d="M15.6462 0H13.9284C13.4394 0 13.043 0.394621 13.043 0.88141V2.75881C13.043 3.2456 13.4394 3.64022 13.9284 3.64022H15.6462C16.1353 3.64022 16.5317 3.2456 16.5317 2.75881V0.88141C16.5317 0.394621 16.1353 0 15.6462 0Z" fill="current"/>
<path id="Vector_47" d="M6.95092 43.293H5.23312C4.74409 43.293 4.34766 43.6876 4.34766 44.1744V46.0518C4.34766 46.5386 4.74409 46.9332 5.23312 46.9332H6.95092C7.43995 46.9332 7.83638 46.5386 7.83638 46.0518V44.1744C7.83638 43.6876 7.43995 43.293 6.95092 43.293Z" fill="current"/>
<path id="Vector_48" d="M2.60326 43.3354H0.885463C0.396435 43.3354 0 43.7301 0 44.2169V46.0943C0 46.5811 0.396435 46.9757 0.885463 46.9757H2.60326C3.09229 46.9757 3.48873 46.5811 3.48873 46.0943V44.2169C3.48873 43.7301 3.09229 43.3354 2.60326 43.3354Z" fill="current"/>
<path id="Vector_49" d="M6.95092 25.9756H5.23312C4.74409 25.9756 4.34766 26.3702 4.34766 26.857V28.7344C4.34766 29.2212 4.74409 29.6158 5.23312 29.6158H6.95092C7.43995 29.6158 7.83638 29.2212 7.83638 28.7344V26.857C7.83638 26.3702 7.43995 25.9756 6.95092 25.9756Z" fill="current"/>
<path id="Vector_50" d="M2.60326 26.0181H0.885463C0.396435 26.0181 0 26.4127 0 26.8995V28.7769C0 29.2637 0.396435 29.6583 0.885463 29.6583H2.60326C3.09229 29.6583 3.48873 29.2637 3.48873 28.7769V26.8995C3.48873 26.4127 3.09229 26.0181 2.60326 26.0181Z" fill="current"/>
<path id="Vector_51" d="M50.4197 25.9756H48.7019C48.2128 25.9756 47.8164 26.3702 47.8164 26.857V28.7344C47.8164 29.2212 48.2128 29.6158 48.7019 29.6158H50.4197C50.9087 29.6158 51.3051 29.2212 51.3051 28.7344V26.857C51.3051 26.3702 50.9087 25.9756 50.4197 25.9756Z" fill="current"/>
<path id="Vector_52" d="M46.072 25.9756H44.3542C43.8652 25.9756 43.4688 26.3702 43.4688 26.857V28.7344C43.4688 29.2212 43.8652 29.6158 44.3542 29.6158H46.072C46.561 29.6158 46.9575 29.2212 46.9575 28.7344V26.857C46.9575 26.3702 46.561 25.9756 46.072 25.9756Z" fill="current"/>
<path id="Vector_53" d="M24.3376 8.65869H22.6198C22.1308 8.65869 21.7344 9.05331 21.7344 9.5401V11.4175C21.7344 11.9043 22.1308 12.2989 22.6198 12.2989H24.3376C24.8267 12.2989 25.2231 11.9043 25.2231 11.4175V9.5401C25.2231 9.05331 24.8267 8.65869 24.3376 8.65869Z" fill="current"/>
<path id="Vector_54" d="M15.6462 43.293H13.9284C13.4394 43.293 13.043 43.6876 13.043 44.1744V46.0518C13.043 46.5386 13.4394 46.9332 13.9284 46.9332H15.6462C16.1353 46.9332 16.5317 46.5386 16.5317 46.0518V44.1744C16.5317 43.6876 16.1353 43.293 15.6462 43.293Z" fill="current"/>
<path id="Vector_55" d="M59.115 43.293H57.3972C56.9082 43.293 56.5117 43.6876 56.5117 44.1744V46.0518C56.5117 46.5386 56.9082 46.9332 57.3972 46.9332H59.115C59.604 46.9332 60.0004 46.5386 60.0004 46.0518V44.1744C60.0004 43.6876 59.604 43.293 59.115 43.293Z" fill="current"/>
<path id="Vector_56" d="M15.6462 25.9756H13.9284C13.4394 25.9756 13.043 26.3702 13.043 26.857V28.7344C13.043 29.2212 13.4394 29.6158 13.9284 29.6158H15.6462C16.1353 29.6158 16.5317 29.2212 16.5317 28.7344V26.857C16.5317 26.3702 16.1353 25.9756 15.6462 25.9756Z" fill="current"/>
<path id="Vector_57" d="M59.115 25.9756H57.3972C56.9082 25.9756 56.5117 26.3702 56.5117 26.857V28.7344C56.5117 29.2212 56.9082 29.6158 57.3972 29.6158H59.115C59.604 29.6158 60.0004 29.2212 60.0004 28.7344V26.857C60.0004 26.3702 59.604 25.9756 59.115 25.9756Z" fill="current"/>
<path id="Vector_58" d="M15.6462 8.65869H13.9284C13.4394 8.65869 13.043 9.05331 13.043 9.5401V11.4175C13.043 11.9043 13.4394 12.2989 13.9284 12.2989H15.6462C16.1353 12.2989 16.5317 11.9043 16.5317 11.4175V9.5401C16.5317 9.05331 16.1353 8.65869 15.6462 8.65869Z" fill="current"/>
<path id="Vector_59" d="M33.0603 30.3418H31.3425C30.8535 30.3418 30.457 30.7364 30.457 31.2232V33.1006C30.457 33.5874 30.8535 33.982 31.3425 33.982H33.0603C33.5493 33.982 33.9458 33.5874 33.9458 33.1006V31.2232C33.9458 30.7364 33.5493 30.3418 33.0603 30.3418Z" fill="current"/>
<path id="Vector_60" d="M15.6462 51.9512H13.9284C13.4394 51.9512 13.043 52.3458 13.043 52.8326V54.71C13.043 55.1968 13.4394 55.5914 13.9284 55.5914H15.6462C16.1353 55.5914 16.5317 55.1968 16.5317 54.71V52.8326C16.5317 52.3458 16.1353 51.9512 15.6462 51.9512Z" fill="current"/>
<path id="Vector_61" d="M11.3259 56.3599H9.60812C9.11909 56.3599 8.72266 56.7545 8.72266 57.2413V59.1187C8.72266 59.6055 9.11909 60.0001 9.60812 60.0001H11.3259C11.8149 60.0001 12.2114 59.6055 12.2114 59.1187V57.2413C12.2114 56.7545 11.8149 56.3599 11.3259 56.3599Z" fill="current"/>
<path id="Vector_62" d="M33.0603 47.6587H31.3425C30.8535 47.6587 30.457 48.0533 30.457 48.5401V50.4175C30.457 50.9043 30.8535 51.2989 31.3425 51.2989H33.0603C33.5493 51.2989 33.9458 50.9043 33.9458 50.4175V48.5401C33.9458 48.0533 33.5493 47.6587 33.0603 47.6587Z" fill="current"/>
<path id="Vector_63" d="M33.0603 13.0244H31.3425C30.8535 13.0244 30.457 13.419 30.457 13.9058V15.7832C30.457 16.27 30.8535 16.6646 31.3425 16.6646H33.0603C33.5493 16.6646 33.9458 16.27 33.9458 15.7832V13.9058C33.9458 13.419 33.5493 13.0244 33.0603 13.0244Z" fill="current"/>
<path id="Vector_64" d="M54.7947 13.0244H53.0769C52.5878 13.0244 52.1914 13.419 52.1914 13.9058V15.7832C52.1914 16.27 52.5878 16.6646 53.0769 16.6646H54.7947C55.2837 16.6646 55.6801 16.27 55.6801 15.7832V13.9058C55.6801 13.419 55.2837 13.0244 54.7947 13.0244Z" fill="current"/>
<path id="Vector_65" d="M20.0173 47.6587H18.2995C17.8105 47.6587 17.4141 48.0533 17.4141 48.5401V50.4175C17.4141 50.9043 17.8105 51.2989 18.2995 51.2989H20.0173C20.5064 51.2989 20.9028 50.9043 20.9028 50.4175V48.5401C20.9028 48.0533 20.5064 47.6587 20.0173 47.6587Z" fill="current"/>
<path id="Vector_66" d="M20.0173 56.3599H18.2995C17.8105 56.3599 17.4141 56.7545 17.4141 57.2413V59.1187C17.4141 59.6055 17.8105 60.0001 18.2995 60.0001H20.0173C20.5064 60.0001 20.9028 59.6055 20.9028 59.1187V57.2413C20.9028 56.7545 20.5064 56.3599 20.0173 56.3599Z" fill="current"/>
<path id="Vector_67" d="M15.6462 56.3232H13.9284C13.4394 56.3232 13.043 56.7179 13.043 57.2047V59.0821C13.043 59.5688 13.4394 59.9635 13.9284 59.9635H15.6462C16.1353 59.9635 16.5317 59.5688 16.5317 59.0821V57.2047C16.5317 56.7179 16.1353 56.3232 15.6462 56.3232Z" fill="current"/>
<path id="Vector_68" d="M41.7517 13.0244H40.0339C39.5449 13.0244 39.1484 13.419 39.1484 13.9058V15.7832C39.1484 16.27 39.5449 16.6646 40.0339 16.6646H41.7517C42.2407 16.6646 42.6372 16.27 42.6372 15.7832V13.9058C42.6372 13.419 42.2407 13.0244 41.7517 13.0244Z" fill="current"/>
<path id="Vector_69" d="M33.0603 39H31.3425C30.8535 39 30.457 39.3946 30.457 39.8814V41.7588C30.457 42.2456 30.8535 42.6402 31.3425 42.6402H33.0603C33.5493 42.6402 33.9458 42.2456 33.9458 41.7588V39.8814C33.9458 39.3946 33.5493 39 33.0603 39Z" fill="current"/>
<path id="Vector_70" d="M33.0603 56.3174H31.3425C30.8535 56.3174 30.457 56.712 30.457 57.1988V59.0762C30.457 59.563 30.8535 59.9576 31.3425 59.9576H33.0603C33.5493 59.9576 33.9458 59.563 33.9458 59.0762V57.1988C33.9458 56.712 33.5493 56.3174 33.0603 56.3174Z" fill="current"/>
<path id="Vector_71" d="M54.7947 56.3174H53.0769C52.5878 56.3174 52.1914 56.712 52.1914 57.1988V59.0762C52.1914 59.563 52.5878 59.9576 53.0769 59.9576H54.7947C55.2837 59.9576 55.6801 59.563 55.6801 59.0762V57.1988C55.6801 56.712 55.2837 56.3174 54.7947 56.3174Z" fill="current"/>
<path id="Vector_72" d="M33.0603 21.6831H31.3425C30.8535 21.6831 30.457 22.0777 30.457 22.5645V24.4419C30.457 24.9287 30.8535 25.3233 31.3425 25.3233H33.0603C33.5493 25.3233 33.9458 24.9287 33.9458 24.4419V22.5645C33.9458 22.0777 33.5493 21.6831 33.0603 21.6831Z" fill="current"/>
<path id="Vector_73" d="M41.7517 56.3174H40.0339C39.5449 56.3174 39.1484 56.712 39.1484 57.1988V59.0762C39.1484 59.563 39.5449 59.9576 40.0339 59.9576H41.7517C42.2407 59.9576 42.6372 59.563 42.6372 59.0762V57.1988C42.6372 56.712 42.2407 56.3174 41.7517 56.3174Z" fill="current"/>
<path id="Vector_74" d="M41.7517 21.6831H40.0339C39.5449 21.6831 39.1484 22.0777 39.1484 22.5645V24.4419C39.1484 24.9287 39.5449 25.3233 40.0339 25.3233H41.7517C42.2407 25.3233 42.6372 24.9287 42.6372 24.4419V22.5645C42.6372 22.0777 42.2407 21.6831 41.7517 21.6831Z" fill="current"/>
<path id="Vector_75" d="M20.0173 4.36572H18.2995C17.8105 4.36572 17.4141 4.76034 17.4141 5.24713V7.12454C17.4141 7.61133 17.8105 8.00595 18.2995 8.00595H20.0173C20.5064 8.00595 20.9028 7.61133 20.9028 7.12454V5.24713C20.9028 4.76034 20.5064 4.36572 20.0173 4.36572Z" fill="current"/>
<path id="Vector_76" d="M33.0603 34.7134H31.3425C30.8535 34.7134 30.457 35.108 30.457 35.5948V37.4722C30.457 37.959 30.8535 38.3536 31.3425 38.3536H33.0603C33.5493 38.3536 33.9458 37.959 33.9458 37.4722V35.5948C33.9458 35.108 33.5493 34.7134 33.0603 34.7134Z" fill="current"/>
<path id="Vector_77" d="M33.0603 52.0308H31.3425C30.8535 52.0308 30.457 52.4254 30.457 52.9122V54.7896C30.457 55.2764 30.8535 55.671 31.3425 55.671H33.0603C33.5493 55.671 33.9458 55.2764 33.9458 54.7896V52.9122C33.9458 52.4254 33.5493 52.0308 33.0603 52.0308Z" fill="current"/>
<path id="Vector_78" d="M33.0603 17.3965H31.3425C30.8535 17.3965 30.457 17.7911 30.457 18.2779V20.1553C30.457 20.6421 30.8535 21.0367 31.3425 21.0367H33.0603C33.5493 21.0367 33.9458 20.6421 33.9458 20.1553V18.2779C33.9458 17.7911 33.5493 17.3965 33.0603 17.3965Z" fill="current"/>
<path id="Vector_79" d="M33.0603 43.3721H31.3425C30.8535 43.3721 30.457 43.7667 30.457 44.2535V46.1309C30.457 46.6177 30.8535 47.0123 31.3425 47.0123H33.0603C33.5493 47.0123 33.9458 46.6177 33.9458 46.1309V44.2535C33.9458 43.7667 33.5493 43.3721 33.0603 43.3721Z" fill="current"/>
<path id="Vector_80" d="M33.0603 26.0552H31.3425C30.8535 26.0552 30.457 26.4498 30.457 26.9366V28.814C30.457 29.3008 30.8535 29.6954 31.3425 29.6954H33.0603C33.5493 29.6954 33.9458 29.3008 33.9458 28.814V26.9366C33.9458 26.4498 33.5493 26.0552 33.0603 26.0552Z" fill="current"/>
<path id="Vector_81" d="M11.3259 8.73779H9.60812C9.11909 8.73779 8.72266 9.13241 8.72266 9.6192V11.4966C8.72266 11.9834 9.11909 12.378 9.60812 12.378H11.3259C11.8149 12.378 12.2114 11.9834 12.2114 11.4966V9.6192C12.2114 9.13241 11.8149 8.73779 11.3259 8.73779Z" fill="current"/>
<path id="Vector_82" d="M6.95092 8.65869H5.23312C4.74409 8.65869 4.34766 9.05331 4.34766 9.5401V11.4175C4.34766 11.9043 4.74409 12.2989 5.23312 12.2989H6.95092C7.43995 12.2989 7.83638 11.9043 7.83638 11.4175V9.5401C7.83638 9.05331 7.43995 8.65869 6.95092 8.65869Z" fill="current"/>
<path id="Vector_83" d="M41.7517 26.0552H40.0339C39.5449 26.0552 39.1484 26.4498 39.1484 26.9366V28.814C39.1484 29.3008 39.5449 29.6954 40.0339 29.6954H41.7517C42.2407 29.6954 42.6372 29.3008 42.6372 28.814V26.9366C42.6372 26.4498 42.2407 26.0552 41.7517 26.0552Z" fill="current"/>
</g>
</svg>
