<svg width="50" height="60" viewBox="0 0 50 60" fill="none" xmlns="http://www.w3.org/2000/svg">
<g id="Frame 427319691">
<path id="Vector" d="M48.4943 20.0977H46.5185C45.956 20.0977 45.5 20.5534 45.5 21.1156V23.2839C45.5 23.8461 45.956 24.3018 46.5185 24.3018H48.4943C49.0568 24.3018 49.5128 23.8461 49.5128 23.2839V21.1156C49.5128 20.5534 49.0568 20.0977 48.4943 20.0977Z" fill="current"/>
<path id="Vector_2" d="M48.4943 40.0977H46.5185C45.956 40.0977 45.5 40.5534 45.5 41.1156V43.2839C45.5 43.8461 45.956 44.3018 46.5185 44.3018H48.4943C49.0568 44.3018 49.5128 43.8461 49.5128 43.2839V41.1156C49.5128 40.5534 49.0568 40.0977 48.4943 40.0977Z" fill="current"/>
<path id="Vector_3" d="M48.4943 0.0976562H46.5185C45.956 0.0976562 45.5 0.553414 45.5 1.11562V3.28388C45.5 3.84609 45.956 4.30185 46.5185 4.30185H48.4943C49.0568 4.30185 49.5128 3.84609 49.5128 3.28388V1.11562C49.5128 0.553414 49.0568 0.0976562 48.4943 0.0976562Z" fill="current"/>
<path id="Vector_4" d="M13.4631 0.0488281H11.4872C10.9247 0.0488281 10.4688 0.504586 10.4688 1.06679V3.23506C10.4688 3.79726 10.9247 4.25302 11.4872 4.25302H13.4631C14.0255 4.25302 14.4815 3.79726 14.4815 3.23506V1.06679C14.4815 0.504586 14.0255 0.0488281 13.4631 0.0488281Z" fill="current"/>
<path id="Vector_5" d="M23.4943 15.0488H21.5185C20.956 15.0488 20.5 15.5046 20.5 16.0668V18.2351C20.5 18.7973 20.956 19.253 21.5185 19.253H23.4943C24.0568 19.253 24.5128 18.7973 24.5128 18.2351V16.0668C24.5128 15.5046 24.0568 15.0488 23.4943 15.0488Z" fill="current"/>
<path id="Vector_6" d="M23.4943 10H21.5185C20.956 10 20.5 10.4558 20.5 11.018V13.1862C20.5 13.7484 20.956 14.2042 21.5185 14.2042H23.4943C24.0568 14.2042 24.5128 13.7484 24.5128 13.1862V11.018C24.5128 10.4558 24.0568 10 23.4943 10Z" fill="current"/>
<path id="Vector_7" d="M48.4943 30.0977H46.5185C45.956 30.0977 45.5 30.5534 45.5 31.1156V33.2839C45.5 33.8461 45.956 34.3018 46.5185 34.3018H48.4943C49.0568 34.3018 49.5128 33.8461 49.5128 33.2839V31.1156C49.5128 30.5534 49.0568 30.0977 48.4943 30.0977Z" fill="current"/>
<path id="Vector_8" d="M43.4943 55.0977H41.5185C40.956 55.0977 40.5 55.5534 40.5 56.1156V58.2839C40.5 58.8461 40.956 59.3018 41.5185 59.3018H43.4943C44.0568 59.3018 44.5128 58.8461 44.5128 58.2839V56.1156C44.5128 55.5534 44.0568 55.0977 43.4943 55.0977Z" fill="current"/>
<path id="Vector_9" d="M48.4943 50.0488H46.5185C45.956 50.0488 45.5 50.5046 45.5 51.0668V53.2351C45.5 53.7973 45.956 54.253 46.5185 54.253H48.4943C49.0568 54.253 49.5128 53.7973 49.5128 53.2351V51.0668C49.5128 50.5046 49.0568 50.0488 48.4943 50.0488Z" fill="current"/>
<path id="Vector_10" d="M48.4943 10.0977H46.5185C45.956 10.0977 45.5 10.5534 45.5 11.1156V13.2839C45.5 13.8461 45.956 14.3018 46.5185 14.3018H48.4943C49.0568 14.3018 49.5128 13.8461 49.5128 13.2839V11.1156C49.5128 10.5534 49.0568 10.0977 48.4943 10.0977Z" fill="current"/>
<path id="Vector_11" d="M8.46306 55.0977H6.48722C5.92473 55.0977 5.46875 55.5534 5.46875 56.1156V58.2839C5.46875 58.8461 5.92473 59.3018 6.48722 59.3018H8.46306C9.02554 59.3018 9.48153 58.8461 9.48153 58.2839V56.1156C9.48153 55.5534 9.02554 55.0977 8.46306 55.0977Z" fill="current"/>
<path id="Vector_12" d="M23.4631 45.0977H21.4872C20.9247 45.0977 20.4688 45.5534 20.4688 46.1156V48.2839C20.4688 48.8461 20.9247 49.3018 21.4872 49.3018H23.4631C24.0255 49.3018 24.4815 48.8461 24.4815 48.2839V46.1156C24.4815 45.5534 24.0255 45.0977 23.4631 45.0977Z" fill="current"/>
<path id="Vector_13" d="M23.4318 45.0488H21.456C20.8935 45.0488 20.4375 45.5046 20.4375 46.0668V48.2351C20.4375 48.7973 20.8935 49.253 21.456 49.253H23.4318C23.9943 49.253 24.4503 48.7973 24.4503 48.2351V46.0668C24.4503 45.5046 23.9943 45.0488 23.4318 45.0488Z" fill="current"/>
<path id="Vector_14" d="M48.4943 25.147H46.5185C45.956 25.147 45.5 25.6027 45.5 26.1649V28.3332C45.5 28.8954 45.956 29.3512 46.5185 29.3512H48.4943C49.0568 29.3512 49.5128 28.8954 49.5128 28.3332V26.1649C49.5128 25.6027 49.0568 25.147 48.4943 25.147Z" fill="current"/>
<path id="Vector_15" d="M18.4631 45.0977H16.4872C15.9247 45.0977 15.4688 45.5534 15.4688 46.1156V48.2839C15.4688 48.8461 15.9247 49.3018 16.4872 49.3018H18.4631C19.0255 49.3018 19.4815 48.8461 19.4815 48.2839V46.1156C19.4815 45.5534 19.0255 45.0977 18.4631 45.0977Z" fill="current"/>
<path id="Vector_16" d="M18.4318 45.0488H16.456C15.8935 45.0488 15.4375 45.5046 15.4375 46.0668V48.2351C15.4375 48.7973 15.8935 49.253 16.456 49.253H18.4318C18.9943 49.253 19.4503 48.7973 19.4503 48.2351V46.0668C19.4503 45.5046 18.9943 45.0488 18.4318 45.0488Z" fill="current"/>
<path id="Vector_17" d="M43.4631 45.0977H41.4872C40.9247 45.0977 40.4688 45.5534 40.4688 46.1156V48.2839C40.4688 48.8461 40.9247 49.3018 41.4872 49.3018H43.4631C44.0255 49.3018 44.4815 48.8461 44.4815 48.2839V46.1156C44.4815 45.5534 44.0255 45.0977 43.4631 45.0977Z" fill="current"/>
<path id="Vector_18" d="M48.4943 45.0977H46.5185C45.956 45.0977 45.5 45.5534 45.5 46.1156V48.2839C45.5 48.8461 45.956 49.3018 46.5185 49.3018H48.4943C49.0568 49.3018 49.5128 48.8461 49.5128 48.2839V46.1156C49.5128 45.5534 49.0568 45.0977 48.4943 45.0977Z" fill="current"/>
<path id="Vector_19" d="M48.4943 5.14697H46.5185C45.956 5.14697 45.5 5.60273 45.5 6.16494V8.3332C45.5 8.89541 45.956 9.35117 46.5185 9.35117H48.4943C49.0568 9.35117 49.5128 8.89541 49.5128 8.3332V6.16494C49.5128 5.60273 49.0568 5.14697 48.4943 5.14697Z" fill="current"/>
<path id="Vector_20" d="M33.4631 45.0977H31.4872C30.9247 45.0977 30.4688 45.5534 30.4688 46.1156V48.2839C30.4688 48.8461 30.9247 49.3018 31.4872 49.3018H33.4631C34.0255 49.3018 34.4815 48.8461 34.4815 48.2839V46.1156C34.4815 45.5534 34.0255 45.0977 33.4631 45.0977Z" fill="current"/>
<path id="Vector_21" d="M33.4318 45.0488H31.456C30.8935 45.0488 30.4375 45.5046 30.4375 46.0668V48.2351C30.4375 48.7973 30.8935 49.253 31.456 49.253H33.4318C33.9943 49.253 34.4503 48.7973 34.4503 48.2351V46.0668C34.4503 45.5046 33.9943 45.0488 33.4318 45.0488Z" fill="current"/>
<path id="Vector_22" d="M33.4943 10.0977H31.5185C30.956 10.0977 30.5 10.5534 30.5 11.1156V13.2839C30.5 13.8461 30.956 14.3018 31.5185 14.3018H33.4943C34.0568 14.3018 34.5128 13.8461 34.5128 13.2839V11.1156C34.5128 10.5534 34.0568 10.0977 33.4943 10.0977Z" fill="current"/>
<path id="Vector_23" d="M38.5256 10H36.5497C35.9872 10 35.5312 10.4558 35.5312 11.018V13.1862C35.5312 13.7484 35.9872 14.2042 36.5497 14.2042H38.5256C39.088 14.2042 39.544 13.7484 39.544 13.1862V11.018C39.544 10.4558 39.088 10 38.5256 10Z" fill="current"/>
<path id="Vector_24" d="M33.4631 15H31.4872C30.9247 15 30.4688 15.4558 30.4688 16.018V18.1862C30.4688 18.7484 30.9247 19.2042 31.4872 19.2042H33.4631C34.0255 19.2042 34.4815 18.7484 34.4815 18.1862V16.018C34.4815 15.4558 34.0255 15 33.4631 15Z" fill="current"/>
<path id="Vector_25" d="M38.4943 14.9014H36.5185C35.956 14.9014 35.5 15.3571 35.5 15.9193V18.0876C35.5 18.6498 35.956 19.1056 36.5185 19.1056H38.4943C39.0568 19.1056 39.5128 18.6498 39.5128 18.0876V15.9193C39.5128 15.3571 39.0568 14.9014 38.4943 14.9014Z" fill="current"/>
<path id="Vector_26" d="M23.4631 55.147H21.4872C20.9247 55.147 20.4688 55.6027 20.4688 56.1649V58.3332C20.4688 58.8954 20.9247 59.3512 21.4872 59.3512H23.4631C24.0255 59.3512 24.4815 58.8954 24.4815 58.3332V56.1649C24.4815 55.6027 24.0255 55.147 23.4631 55.147Z" fill="current"/>
<path id="Vector_27" d="M23.4943 0.0976562H21.5185C20.956 0.0976562 20.5 0.553414 20.5 1.11562V3.28388C20.5 3.84609 20.956 4.30185 21.5185 4.30185H23.4943C24.0568 4.30185 24.5128 3.84609 24.5128 3.28388V1.11562C24.5128 0.553414 24.0568 0.0976562 23.4943 0.0976562Z" fill="current"/>
<path id="Vector_28" d="M48.4943 35.147H46.5185C45.956 35.147 45.5 35.6027 45.5 36.1649V38.3332C45.5 38.8954 45.956 39.3512 46.5185 39.3512H48.4943C49.0568 39.3512 49.5128 38.8954 49.5128 38.3332V36.1649C49.5128 35.6027 49.0568 35.147 48.4943 35.147Z" fill="current"/>
<path id="Vector_29" d="M18.4631 55.147H16.4872C15.9247 55.147 15.4688 55.6027 15.4688 56.1649V58.3332C15.4688 58.8954 15.9247 59.3512 16.4872 59.3512H18.4631C19.0255 59.3512 19.4815 58.8954 19.4815 58.3332V56.1649C19.4815 55.6027 19.0255 55.147 18.4631 55.147Z" fill="current"/>
<path id="Vector_30" d="M48.4943 15.147H46.5185C45.956 15.147 45.5 15.6027 45.5 16.1649V18.3332C45.5 18.8954 45.956 19.3512 46.5185 19.3512H48.4943C49.0568 19.3512 49.5128 18.8954 49.5128 18.3332V16.1649C49.5128 15.6027 49.0568 15.147 48.4943 15.147Z" fill="current"/>
<path id="Vector_31" d="M18.4943 0.0976562H16.5185C15.956 0.0976562 15.5 0.553414 15.5 1.11562V3.28388C15.5 3.84609 15.956 4.30185 16.5185 4.30185H18.4943C19.0568 4.30185 19.5128 3.84609 19.5128 3.28388V1.11562C19.5128 0.553414 19.0568 0.0976562 18.4943 0.0976562Z" fill="current"/>
<path id="Vector_32" d="M43.4943 0.0976562H41.5185C40.956 0.0976562 40.5 0.553414 40.5 1.11562V3.28388C40.5 3.84609 40.956 4.30185 41.5185 4.30185H43.4943C44.0568 4.30185 44.5128 3.84609 44.5128 3.28388V1.11562C44.5128 0.553414 44.0568 0.0976562 43.4943 0.0976562Z" fill="current"/>
<path id="Vector_33" d="M33.4631 55.147H31.4872C30.9247 55.147 30.4688 55.6027 30.4688 56.1649V58.3332C30.4688 58.8954 30.9247 59.3512 31.4872 59.3512H33.4631C34.0255 59.3512 34.4815 58.8954 34.4815 58.3332V56.1649C34.4815 55.6027 34.0255 55.147 33.4631 55.147Z" fill="current"/>
<path id="Vector_34" d="M33.4943 0.0976562H31.5185C30.956 0.0976562 30.5 0.553414 30.5 1.11562V3.28388C30.5 3.84609 30.956 4.30185 31.5185 4.30185H33.4943C34.0568 4.30185 34.5128 3.84609 34.5128 3.28388V1.11562C34.5128 0.553414 34.0568 0.0976562 33.4943 0.0976562Z" fill="current"/>
<path id="Vector_35" d="M3.49431 20.1401H1.51847C0.955985 20.1401 0.5 20.5959 0.5 21.1581V23.3264C0.5 23.8886 0.955985 24.3443 1.51847 24.3443H3.49431C4.05679 24.3443 4.51278 23.8886 4.51278 23.3264V21.1581C4.51278 20.5959 4.05679 20.1401 3.49431 20.1401Z" fill="current"/>
<path id="Vector_36" d="M3.49431 40.1401H1.51847C0.955985 40.1401 0.5 40.5959 0.5 41.1581V43.3264C0.5 43.8886 0.955985 44.3443 1.51847 44.3443H3.49431C4.05679 44.3443 4.51278 43.8886 4.51278 43.3264V41.1581C4.51278 40.5959 4.05679 40.1401 3.49431 40.1401Z" fill="current"/>
<path id="Vector_37" d="M8.49431 5.09766H6.51847C5.95598 5.09766 5.5 5.55341 5.5 6.11562V8.28388C5.5 8.84609 5.95598 9.30185 6.51847 9.30185H8.49431C9.05679 9.30185 9.51278 8.84609 9.51278 8.28388V6.11562C9.51278 5.55341 9.05679 5.09766 8.49431 5.09766Z" fill="current"/>
<path id="Vector_38" d="M13.4943 20.1401H11.5185C10.956 20.1401 10.5 20.5959 10.5 21.1581V23.3264C10.5 23.8886 10.956 24.3443 11.5185 24.3443H13.4943C14.0568 24.3443 14.5128 23.8886 14.5128 23.3264V21.1581C14.5128 20.5959 14.0568 20.1401 13.4943 20.1401Z" fill="current"/>
<path id="Vector_39" d="M13.4943 40.1401H11.5185C10.956 40.1401 10.5 40.5959 10.5 41.1581V43.3264C10.5 43.8886 10.956 44.3443 11.5185 44.3443H13.4943C14.0568 44.3443 14.5128 43.8886 14.5128 43.3264V41.1581C14.5128 40.5959 14.0568 40.1401 13.4943 40.1401Z" fill="current"/>
<path id="Vector_40" d="M3.49431 30.1401H1.51847C0.955985 30.1401 0.5 30.5959 0.5 31.1581V33.3264C0.5 33.8886 0.955985 34.3443 1.51847 34.3443H3.49431C4.05679 34.3443 4.51278 33.8886 4.51278 33.3264V31.1581C4.51278 30.5959 4.05679 30.1401 3.49431 30.1401Z" fill="current"/>
<path id="Vector_41" d="M3.49431 50.1401H1.51847C0.955985 50.1401 0.5 50.5959 0.5 51.1581V53.3264C0.5 53.8886 0.955985 54.3443 1.51847 54.3443H3.49431C4.05679 54.3443 4.51278 53.8886 4.51278 53.3264V51.1581C4.51278 50.5959 4.05679 50.1401 3.49431 50.1401Z" fill="current"/>
<path id="Vector_42" d="M3.49431 10.1401H1.51847C0.955985 10.1401 0.5 10.5959 0.5 11.1581V13.3264C0.5 13.8886 0.955985 14.3443 1.51847 14.3443H3.49431C4.05679 14.3443 4.51278 13.8886 4.51278 13.3264V11.1581C4.51278 10.5959 4.05679 10.1401 3.49431 10.1401Z" fill="current"/>
<path id="Vector_43" d="M13.4943 30.1401H11.5185C10.956 30.1401 10.5 30.5959 10.5 31.1581V33.3264C10.5 33.8886 10.956 34.3443 11.5185 34.3443H13.4943C14.0568 34.3443 14.5128 33.8886 14.5128 33.3264V31.1581C14.5128 30.5959 14.0568 30.1401 13.4943 30.1401Z" fill="current"/>
<path id="Vector_44" d="M13.4943 10.1401H11.5185C10.956 10.1401 10.5 10.5959 10.5 11.1581V13.3264C10.5 13.8886 10.956 14.3443 11.5185 14.3443H13.4943C14.0568 14.3443 14.5128 13.8886 14.5128 13.3264V11.1581C14.5128 10.5959 14.0568 10.1401 13.4943 10.1401Z" fill="current"/>
<path id="Vector_45" d="M3.49431 25.1895H1.51847C0.955985 25.1895 0.5 25.6452 0.5 26.2074V28.3757C0.5 28.9379 0.955985 29.3936 1.51847 29.3936H3.49431C4.05679 29.3936 4.51278 28.9379 4.51278 28.3757V26.2074C4.51278 25.6452 4.05679 25.1895 3.49431 25.1895Z" fill="current"/>
<path id="Vector_46" d="M3.49431 45.1895H1.51847C0.955985 45.1895 0.5 45.6452 0.5 46.2074V48.3757C0.5 48.9379 0.955985 49.3936 1.51847 49.3936H3.49431C4.05679 49.3936 4.51278 48.9379 4.51278 48.3757V46.2074C4.51278 45.6452 4.05679 45.1895 3.49431 45.1895Z" fill="current"/>
<path id="Vector_47" d="M28.4943 45.1895H26.5185C25.956 45.1895 25.5 45.6452 25.5 46.2074V48.3757C25.5 48.9379 25.956 49.3936 26.5185 49.3936H28.4943C29.0568 49.3936 29.5128 48.9379 29.5128 48.3757V46.2074C29.5128 45.6452 29.0568 45.1895 28.4943 45.1895Z" fill="current"/>
<path id="Vector_48" d="M28.4631 45.1406H26.4872C25.9247 45.1406 25.4688 45.5964 25.4688 46.1586V48.3269C25.4688 48.8891 25.9247 49.3448 26.4872 49.3448H28.4631C29.0255 49.3448 29.4815 48.8891 29.4815 48.3269V46.1586C29.4815 45.5964 29.0255 45.1406 28.4631 45.1406Z" fill="current"/>
<path id="Vector_49" d="M28.5256 10.1895H26.5497C25.9872 10.1895 25.5312 10.6452 25.5312 11.2074V13.3757C25.5312 13.9379 25.9872 14.3936 26.5497 14.3936H28.5256C29.088 14.3936 29.544 13.9379 29.544 13.3757V11.2074C29.544 10.6452 29.088 10.1895 28.5256 10.1895Z" fill="current"/>
<path id="Vector_50" d="M28.4943 15.0913H26.5185C25.956 15.0913 25.5 15.5471 25.5 16.1093V18.2775C25.5 18.8397 25.956 19.2955 26.5185 19.2955H28.4943C29.0568 19.2955 29.5128 18.8397 29.5128 18.2775V16.1093C29.5128 15.5471 29.0568 15.0913 28.4943 15.0913Z" fill="current"/>
<path id="Vector_51" d="M13.4943 25.1895H11.5185C10.956 25.1895 10.5 25.6452 10.5 26.2074V28.3757C10.5 28.9379 10.956 29.3936 11.5185 29.3936H13.4943C14.0568 29.3936 14.5128 28.9379 14.5128 28.3757V26.2074C14.5128 25.6452 14.0568 25.1895 13.4943 25.1895Z" fill="current"/>
<path id="Vector_52" d="M13.4943 45.1895H11.5185C10.956 45.1895 10.5 45.6452 10.5 46.2074V48.3757C10.5 48.9379 10.956 49.3936 11.5185 49.3936H13.4943C14.0568 49.3936 14.5128 48.9379 14.5128 48.3757V46.2074C14.5128 45.6452 14.0568 45.1895 13.4943 45.1895Z" fill="current"/>
<path id="Vector_53" d="M13.4631 45.1406H11.4872C10.9247 45.1406 10.4688 45.5964 10.4688 46.1586V48.3269C10.4688 48.8891 10.9247 49.3448 11.4872 49.3448H13.4631C14.0255 49.3448 14.4815 48.8891 14.4815 48.3269V46.1586C14.4815 45.5964 14.0255 45.1406 13.4631 45.1406Z" fill="current"/>
<path id="Vector_54" d="M38.4943 45.1895H36.5185C35.956 45.1895 35.5 45.6452 35.5 46.2074V48.3757C35.5 48.9379 35.956 49.3936 36.5185 49.3936H38.4943C39.0568 49.3936 39.5128 48.9379 39.5128 48.3757V46.2074C39.5128 45.6452 39.0568 45.1895 38.4943 45.1895Z" fill="current"/>
<path id="Vector_55" d="M38.4631 45.1406H36.4872C35.9247 45.1406 35.4688 45.5964 35.4688 46.1586V48.3269C35.4688 48.8891 35.9247 49.3448 36.4872 49.3448H38.4631C39.0255 49.3448 39.4815 48.8891 39.4815 48.3269V46.1586C39.4815 45.5964 39.0255 45.1406 38.4631 45.1406Z" fill="current"/>
<path id="Vector_56" d="M13.4943 5.18945H11.5185C10.956 5.18945 10.5 5.64521 10.5 6.20742V8.37568C10.5 8.93789 10.956 9.39365 11.5185 9.39365H13.4943C14.0568 9.39365 14.5128 8.93789 14.5128 8.37568V6.20742C14.5128 5.64521 14.0568 5.18945 13.4943 5.18945Z" fill="current"/>
<path id="Vector_57" d="M3.49431 35.1895H1.51847C0.955985 35.1895 0.5 35.6452 0.5 36.2074V38.3757C0.5 38.9379 0.955985 39.3936 1.51847 39.3936H3.49431C4.05679 39.3936 4.51278 38.9379 4.51278 38.3757V36.2074C4.51278 35.6452 4.05679 35.1895 3.49431 35.1895Z" fill="current"/>
<path id="Vector_58" d="M28.4943 55.2383H26.5185C25.956 55.2383 25.5 55.694 25.5 56.2562V58.4245C25.5 58.9867 25.956 59.4425 26.5185 59.4425H28.4943C29.0568 59.4425 29.5128 58.9867 29.5128 58.4245V56.2562C29.5128 55.694 29.0568 55.2383 28.4943 55.2383Z" fill="current"/>
<path id="Vector_59" d="M3.49431 15.1895H1.51847C0.955985 15.1895 0.5 15.6452 0.5 16.2074V18.3757C0.5 18.9379 0.955985 19.3936 1.51847 19.3936H3.49431C4.05679 19.3936 4.51278 18.9379 4.51278 18.3757V16.2074C4.51278 15.6452 4.05679 15.1895 3.49431 15.1895Z" fill="current"/>
<path id="Vector_60" d="M28.5256 0.189453H26.5497C25.9872 0.189453 25.5312 0.645211 25.5312 1.20742V3.37568C25.5312 3.93789 25.9872 4.39365 26.5497 4.39365H28.5256C29.088 4.39365 29.544 3.93789 29.544 3.37568V1.20742C29.544 0.645211 29.088 0.189453 28.5256 0.189453Z" fill="current"/>
<path id="Vector_61" d="M13.4943 35.1895H11.5185C10.956 35.1895 10.5 35.6452 10.5 36.2074V38.3757C10.5 38.9379 10.956 39.3936 11.5185 39.3936H13.4943C14.0568 39.3936 14.5128 38.9379 14.5128 38.3757V36.2074C14.5128 35.6452 14.0568 35.1895 13.4943 35.1895Z" fill="current"/>
<path id="Vector_62" d="M13.4943 55.2383H11.5185C10.956 55.2383 10.5 55.694 10.5 56.2562V58.4245C10.5 58.9867 10.956 59.4425 11.5185 59.4425H13.4943C14.0568 59.4425 14.5128 58.9867 14.5128 58.4245V56.2562C14.5128 55.694 14.0568 55.2383 13.4943 55.2383Z" fill="current"/>
<path id="Vector_63" d="M38.4943 55.2383H36.5185C35.956 55.2383 35.5 55.694 35.5 56.2562V58.4245C35.5 58.9867 35.956 59.4425 36.5185 59.4425H38.4943C39.0568 59.4425 39.5128 58.9867 39.5128 58.4245V56.2562C39.5128 55.694 39.0568 55.2383 38.4943 55.2383Z" fill="current"/>
<path id="Vector_64" d="M13.4943 15.1895H11.5185C10.956 15.1895 10.5 15.6452 10.5 16.2074V18.3757C10.5 18.9379 10.956 19.3936 11.5185 19.3936H13.4943C14.0568 19.3936 14.5128 18.9379 14.5128 18.3757V16.2074C14.5128 15.6452 14.0568 15.1895 13.4943 15.1895Z" fill="current"/>
<path id="Vector_65" d="M38.5256 0.189453H36.5497C35.9872 0.189453 35.5312 0.645211 35.5312 1.20742V3.37568C35.5312 3.93789 35.9872 4.39365 36.5497 4.39365H38.5256C39.088 4.39365 39.544 3.93789 39.544 3.37568V1.20742C39.544 0.645211 39.088 0.189453 38.5256 0.189453Z" fill="current"/>
</g>
</svg>
