<svg width="31" height="31" viewBox="0 0 31 31" fill="none" xmlns="http://www.w3.org/2000/svg">
<g id="icon bitcoin">
<path id="Vector" d="M8.93455 28.2559H8.00856C7.74495 28.2559 7.53125 28.454 7.53125 28.6984V29.6409C7.53125 29.8853 7.74495 30.0834 8.00856 30.0834H8.93455C9.19816 30.0834 9.41186 29.8853 9.41186 29.6409V28.6984C9.41186 28.454 9.19816 28.2559 8.93455 28.2559Z" fill="black"/>
<path id="Vector_2" d="M6.5908 26.082H5.66481C5.4012 26.082 5.1875 26.2802 5.1875 26.5245V27.4671C5.1875 27.7115 5.4012 27.9096 5.66481 27.9096H6.5908C6.85441 27.9096 7.06811 27.7115 7.06811 27.4671V26.5245C7.06811 26.2802 6.85441 26.082 6.5908 26.082Z" fill="black"/>
<path id="Vector_3" d="M4.24705 23.9082H3.32106C3.05745 23.9082 2.84375 24.1063 2.84375 24.3507V25.2933C2.84375 25.5377 3.05745 25.7358 3.32106 25.7358H4.24705C4.51066 25.7358 4.72436 25.5377 4.72436 25.2933V24.3507C4.72436 24.1063 4.51066 23.9082 4.24705 23.9082Z" fill="black"/>
<path id="Vector_4" d="M11.2783 8.69434H10.3523C10.0887 8.69434 9.875 8.89245 9.875 9.13685V10.0794C9.875 10.3238 10.0887 10.5219 10.3523 10.5219H11.2783C11.5419 10.5219 11.7556 10.3238 11.7556 10.0794V9.13685C11.7556 8.89245 11.5419 8.69434 11.2783 8.69434Z" fill="black"/>
<path id="Vector_5" d="M20.6494 28.2559H19.7234C19.4598 28.2559 19.2461 28.454 19.2461 28.6984V29.6409C19.2461 29.8853 19.4598 30.0834 19.7234 30.0834H20.6494C20.913 30.0834 21.1267 29.8853 21.1267 29.6409V28.6984C21.1267 28.454 20.913 28.2559 20.6494 28.2559Z" fill="black"/>
<path id="Vector_6" d="M1.9033 6.52051H0.977313C0.7137 6.52051 0.5 6.71863 0.5 6.96302V7.90557C0.5 8.14996 0.7137 8.34808 0.977313 8.34808H1.9033C2.16691 8.34808 2.38061 8.14996 2.38061 7.90557V6.96302C2.38061 6.71863 2.16691 6.52051 1.9033 6.52051Z" fill="black"/>
<path id="Vector_7" d="M30.0244 6.54199H29.0984C28.8348 6.54199 28.6211 6.74011 28.6211 6.9845V7.92705C28.6211 8.17144 28.8348 8.36956 29.0984 8.36956H30.0244C30.288 8.36956 30.5017 8.17144 30.5017 7.92705V6.9845C30.5017 6.74011 30.288 6.54199 30.0244 6.54199Z" fill="black"/>
<path id="Vector_8" d="M18.3056 28.2559H17.3797C17.116 28.2559 16.9023 28.454 16.9023 28.6984V29.6409C16.9023 29.8853 17.116 30.0834 17.3797 30.0834H18.3056C18.5693 30.0834 18.783 29.8853 18.783 29.6409V28.6984C18.783 28.454 18.5693 28.2559 18.3056 28.2559Z" fill="black"/>
<path id="Vector_9" d="M22.9931 28.2559H22.0672C21.8035 28.2559 21.5898 28.454 21.5898 28.6984V29.6409C21.5898 29.8853 21.8035 30.0834 22.0672 30.0834H22.9931C23.2568 30.0834 23.4705 29.8853 23.4705 29.6409V28.6984C23.4705 28.454 23.2568 28.2559 22.9931 28.2559Z" fill="black"/>
<path id="Vector_10" d="M25.3369 26.082H24.4109C24.1473 26.082 23.9336 26.2802 23.9336 26.5245V27.4671C23.9336 27.7115 24.1473 27.9096 24.4109 27.9096H25.3369C25.6005 27.9096 25.8142 27.7115 25.8142 27.4671V26.5245C25.8142 26.2802 25.6005 26.082 25.3369 26.082Z" fill="black"/>
<path id="Vector_11" d="M27.6806 23.9082H26.7547C26.491 23.9082 26.2773 24.1063 26.2773 24.3507V25.2933C26.2773 25.5377 26.491 25.7358 26.7547 25.7358H27.6806C27.9443 25.7358 28.158 25.5377 28.158 25.2933V24.3507C28.158 24.1063 27.9443 23.9082 27.6806 23.9082Z" fill="black"/>
<path id="Vector_12" d="M13.6181 28.2559H12.6922C12.4285 28.2559 12.2148 28.454 12.2148 28.6984V29.6409C12.2148 29.8853 12.4285 30.0834 12.6922 30.0834H13.6181C13.8818 30.0834 14.0955 29.8853 14.0955 29.6409V28.6984C14.0955 28.454 13.8818 28.2559 13.6181 28.2559Z" fill="black"/>
<path id="Vector_13" d="M15.9619 28.2559H15.0359C14.7723 28.2559 14.5586 28.454 14.5586 28.6984V29.6409C14.5586 29.8853 14.7723 30.0834 15.0359 30.0834H15.9619C16.2255 30.0834 16.4392 29.8853 16.4392 29.6409V28.6984C16.4392 28.454 16.2255 28.2559 15.9619 28.2559Z" fill="black"/>
<path id="Vector_14" d="M11.2783 17.3672H10.3523C10.0887 17.3672 9.875 17.5653 9.875 17.8097V18.7522C9.875 18.9966 10.0887 19.1948 10.3523 19.1948H11.2783C11.5419 19.1948 11.7556 18.9966 11.7556 18.7522V17.8097C11.7556 17.5653 11.5419 17.3672 11.2783 17.3672Z" fill="black"/>
<path id="Vector_15" d="M1.9033 8.69434H0.977313C0.7137 8.69434 0.5 8.89245 0.5 9.13685V10.0794C0.5 10.3238 0.7137 10.5219 0.977313 10.5219H1.9033C2.16691 10.5219 2.38061 10.3238 2.38061 10.0794V9.13685C2.38061 8.89245 2.16691 8.69434 1.9033 8.69434Z" fill="black"/>
<path id="Vector_16" d="M30.0244 8.71582H29.0984C28.8348 8.71582 28.6211 8.91394 28.6211 9.15833V10.1009C28.6211 10.3453 28.8348 10.5434 29.0984 10.5434H30.0244C30.288 10.5434 30.5017 10.3453 30.5017 10.1009V9.15833C30.5017 8.91394 30.288 8.71582 30.0244 8.71582Z" fill="black"/>
<path id="Vector_17" d="M8.93455 0H8.00856C7.74495 0 7.53125 0.198119 7.53125 0.442511V1.38506C7.53125 1.62945 7.74495 1.82757 8.00856 1.82757H8.93455C9.19816 1.82757 9.41186 1.62945 9.41186 1.38506V0.442511C9.41186 0.198119 9.19816 0 8.93455 0Z" fill="black"/>
<path id="Vector_18" d="M6.5908 2.17383H5.66481C5.4012 2.17383 5.1875 2.37195 5.1875 2.61634V3.55889C5.1875 3.80328 5.4012 4.0014 5.66481 4.0014H6.5908C6.85441 4.0014 7.06811 3.80328 7.06811 3.55889V2.61634C7.06811 2.37195 6.85441 2.17383 6.5908 2.17383Z" fill="black"/>
<path id="Vector_19" d="M4.24705 4.34668H3.32106C3.05745 4.34668 2.84375 4.5448 2.84375 4.78919V5.73174C2.84375 5.97613 3.05745 6.17425 3.32106 6.17425H4.24705C4.51066 6.17425 4.72436 5.97613 4.72436 5.73174V4.78919C4.72436 4.5448 4.51066 4.34668 4.24705 4.34668Z" fill="black"/>
<path id="Vector_20" d="M11.2783 6.52051H10.3523C10.0887 6.52051 9.875 6.71863 9.875 6.96302V7.90557C9.875 8.14996 10.0887 8.34808 10.3523 8.34808H11.2783C11.5419 8.34808 11.7556 8.14996 11.7556 7.90557V6.96302C11.7556 6.71863 11.5419 6.52051 11.2783 6.52051Z" fill="black"/>
<path id="Vector_21" d="M1.9033 13.0195H0.977313C0.7137 13.0195 0.5 13.2177 0.5 13.462V14.4046C0.5 14.649 0.7137 14.8471 0.977313 14.8471H1.9033C2.16691 14.8471 2.38061 14.649 2.38061 14.4046V13.462C2.38061 13.2177 2.16691 13.0195 1.9033 13.0195Z" fill="black"/>
<path id="Vector_22" d="M30.0244 13.041H29.0984C28.8348 13.041 28.6211 13.2391 28.6211 13.4835V14.4261C28.6211 14.6705 28.8348 14.8686 29.0984 14.8686H30.0244C30.288 14.8686 30.5017 14.6705 30.5017 14.4261V13.4835C30.5017 13.2391 30.288 13.041 30.0244 13.041Z" fill="black"/>
<path id="Vector_23" d="M20.6494 0H19.7234C19.4598 0 19.2461 0.198119 19.2461 0.442511V1.38506C19.2461 1.62945 19.4598 1.82757 19.7234 1.82757H20.6494C20.913 1.82757 21.1267 1.62945 21.1267 1.38506V0.442511C21.1267 0.198119 20.913 0 20.6494 0Z" fill="black"/>
<path id="Vector_24" d="M18.3056 6.54199H17.3797C17.116 6.54199 16.9023 6.74011 16.9023 6.9845V7.92705C16.9023 8.17144 17.116 8.36956 17.3797 8.36956H18.3056C18.5693 8.36956 18.783 8.17144 18.783 7.92705V6.9845C18.783 6.74011 18.5693 6.54199 18.3056 6.54199Z" fill="black"/>
<path id="Vector_25" d="M20.6494 8.69434H19.7234C19.4598 8.69434 19.2461 8.89245 19.2461 9.13685V10.0794C19.2461 10.3238 19.4598 10.5219 19.7234 10.5219H20.6494C20.913 10.5219 21.1267 10.3238 21.1267 10.0794V9.13685C21.1267 8.89245 20.913 8.69434 20.6494 8.69434Z" fill="black"/>
<path id="Vector_26" d="M20.6494 10.8672H19.7234C19.4598 10.8672 19.2461 11.0653 19.2461 11.3097V12.2522C19.2461 12.4966 19.4598 12.6948 19.7234 12.6948H20.6494C20.913 12.6948 21.1267 12.4966 21.1267 12.2522V11.3097C21.1267 11.0653 20.913 10.8672 20.6494 10.8672Z" fill="black"/>
<path id="Vector_27" d="M20.6494 15.2148H19.7234C19.4598 15.2148 19.2461 15.413 19.2461 15.6574V16.5999C19.2461 16.8443 19.4598 17.0424 19.7234 17.0424H20.6494C20.913 17.0424 21.1267 16.8443 21.1267 16.5999V15.6574C21.1267 15.413 20.913 15.2148 20.6494 15.2148Z" fill="black"/>
<path id="Vector_28" d="M20.6494 17.3877H19.7234C19.4598 17.3877 19.2461 17.5858 19.2461 17.8302V18.7728C19.2461 19.0171 19.4598 19.2153 19.7234 19.2153H20.6494C20.913 19.2153 21.1267 19.0171 21.1267 18.7728V17.8302C21.1267 17.5858 20.913 17.3877 20.6494 17.3877Z" fill="black"/>
<path id="Vector_29" d="M20.6494 19.5615H19.7234C19.4598 19.5615 19.2461 19.7596 19.2461 20.004V20.9466C19.2461 21.191 19.4598 21.3891 19.7234 21.3891H20.6494C20.913 21.3891 21.1267 21.191 21.1267 20.9466V20.004C21.1267 19.7596 20.913 19.5615 20.6494 19.5615Z" fill="black"/>
<path id="Vector_30" d="M18.3056 13.041H17.3797C17.116 13.041 16.9023 13.2391 16.9023 13.4835V14.4261C16.9023 14.6705 17.116 14.8686 17.3797 14.8686H18.3056C18.5693 14.8686 18.783 14.6705 18.783 14.4261V13.4835C18.783 13.2391 18.5693 13.041 18.3056 13.041Z" fill="black"/>
<path id="Vector_31" d="M15.9619 13.041H15.0359C14.7723 13.041 14.5586 13.2391 14.5586 13.4835V14.4261C14.5586 14.6705 14.7723 14.8686 15.0359 14.8686H15.9619C16.2255 14.8686 16.4392 14.6705 16.4392 14.4261V13.4835C16.4392 13.2391 16.2255 13.041 15.9619 13.041Z" fill="black"/>
<path id="Vector_32" d="M15.9619 23.9082H15.0359C14.7723 23.9082 14.5586 24.1063 14.5586 24.3507V25.2933C14.5586 25.5377 14.7723 25.7358 15.0359 25.7358H15.9619C16.2255 25.7358 16.4392 25.5377 16.4392 25.2933V24.3507C16.4392 24.1063 16.2255 23.9082 15.9619 23.9082Z" fill="black"/>
<path id="Vector_33" d="M15.9619 4.34668H15.0359C14.7723 4.34668 14.5586 4.5448 14.5586 4.78919V5.73174C14.5586 5.97613 14.7723 6.17425 15.0359 6.17425H15.9619C16.2255 6.17425 16.4392 5.97613 16.4392 5.73174V4.78919C16.4392 4.5448 16.2255 4.34668 15.9619 4.34668Z" fill="black"/>
<path id="Vector_34" d="M18.3056 0H17.3797C17.116 0 16.9023 0.198119 16.9023 0.442511V1.38506C16.9023 1.62945 17.116 1.82757 17.3797 1.82757H18.3056C18.5693 1.82757 18.783 1.62945 18.783 1.38506V0.442511C18.783 0.198119 18.5693 0 18.3056 0Z" fill="black"/>
<path id="Vector_35" d="M11.2783 23.9082H10.3523C10.0887 23.9082 9.875 24.1063 9.875 24.3507V25.2933C9.875 25.5377 10.0887 25.7358 10.3523 25.7358H11.2783C11.5419 25.7358 11.7556 25.5377 11.7556 25.2933V24.3507C11.7556 24.1063 11.5419 23.9082 11.2783 23.9082Z" fill="black"/>
<path id="Vector_36" d="M11.2783 4.34668H10.3523C10.0887 4.34668 9.875 4.5448 9.875 4.78919V5.73174C9.875 5.97613 10.0887 6.17425 10.3523 6.17425H11.2783C11.5419 6.17425 11.7556 5.97613 11.7556 5.73174V4.78919C11.7556 4.5448 11.5419 4.34668 11.2783 4.34668Z" fill="black"/>
<path id="Vector_37" d="M13.6181 6.52051H12.6922C12.4285 6.52051 12.2148 6.71863 12.2148 6.96302V7.90557C12.2148 8.14996 12.4285 8.34808 12.6922 8.34808H13.6181C13.8818 8.34808 14.0955 8.14996 14.0955 7.90557V6.96302C14.0955 6.71863 13.8818 6.52051 13.6181 6.52051Z" fill="black"/>
<path id="Vector_38" d="M13.6181 21.7354H12.6922C12.4285 21.7354 12.2148 21.9335 12.2148 22.1779V23.1204C12.2148 23.3648 12.4285 23.5629 12.6922 23.5629H13.6181C13.8818 23.5629 14.0955 23.3648 14.0955 23.1204V22.1779C14.0955 21.9335 13.8818 21.7354 13.6181 21.7354Z" fill="black"/>
<path id="Vector_39" d="M13.6181 0H12.6922C12.4285 0 12.2148 0.198119 12.2148 0.442511V1.38506C12.2148 1.62945 12.4285 1.82757 12.6922 1.82757H13.6181C13.8818 1.82757 14.0955 1.62945 14.0955 1.38506V0.442511C14.0955 0.198119 13.8818 0 13.6181 0Z" fill="black"/>
<path id="Vector_40" d="M11.2783 15.2148H10.3523C10.0887 15.2148 9.875 15.413 9.875 15.6574V16.5999C9.875 16.8443 10.0887 17.0424 10.3523 17.0424H11.2783C11.5419 17.0424 11.7556 16.8443 11.7556 16.5999V15.6574C11.7556 15.413 11.5419 15.2148 11.2783 15.2148Z" fill="black"/>
<path id="Vector_41" d="M11.2783 13.041H10.3523C10.0887 13.041 9.875 13.2391 9.875 13.4835V14.4261C9.875 14.6705 10.0887 14.8686 10.3523 14.8686H11.2783C11.5419 14.8686 11.7556 14.6705 11.7556 14.4261V13.4835C11.7556 13.2391 11.5419 13.041 11.2783 13.041Z" fill="black"/>
<path id="Vector_42" d="M11.2783 10.8672H10.3523C10.0887 10.8672 9.875 11.0653 9.875 11.3097V12.2522C9.875 12.4966 10.0887 12.6948 10.3523 12.6948H11.2783C11.5419 12.6948 11.7556 12.4966 11.7556 12.2522V11.3097C11.7556 11.0653 11.5419 10.8672 11.2783 10.8672Z" fill="black"/>
<path id="Vector_43" d="M1.9033 10.8672H0.977313C0.7137 10.8672 0.5 11.0653 0.5 11.3097V12.2522C0.5 12.4966 0.7137 12.6948 0.977313 12.6948H1.9033C2.16691 12.6948 2.38061 12.4966 2.38061 12.2522V11.3097C2.38061 11.0653 2.16691 10.8672 1.9033 10.8672Z" fill="black"/>
<path id="Vector_44" d="M30.0244 10.8887H29.0984C28.8348 10.8887 28.6211 11.0868 28.6211 11.3312V12.2737C28.6211 12.5181 28.8348 12.7162 29.0984 12.7162H30.0244C30.288 12.7162 30.5017 12.5181 30.5017 12.2737V11.3312C30.5017 11.0868 30.288 10.8887 30.0244 10.8887Z" fill="black"/>
<path id="Vector_45" d="M1.9033 17.3877H0.977313C0.7137 17.3877 0.5 17.5858 0.5 17.8302V18.7728C0.5 19.0171 0.7137 19.2153 0.977313 19.2153H1.9033C2.16691 19.2153 2.38061 19.0171 2.38061 18.7728V17.8302C2.38061 17.5858 2.16691 17.3877 1.9033 17.3877Z" fill="black"/>
<path id="Vector_46" d="M1.9033 19.5615H0.977313C0.7137 19.5615 0.5 19.7596 0.5 20.004V20.9466C0.5 21.191 0.7137 21.3891 0.977313 21.3891H1.9033C2.16691 21.3891 2.38061 21.191 2.38061 20.9466V20.004C2.38061 19.7596 2.16691 19.5615 1.9033 19.5615Z" fill="black"/>
<path id="Vector_47" d="M30.0244 17.4092H29.0984C28.8348 17.4092 28.6211 17.6073 28.6211 17.8517V18.7942C28.6211 19.0386 28.8348 19.2368 29.0984 19.2368H30.0244C30.288 19.2368 30.5017 19.0386 30.5017 18.7942V17.8517C30.5017 17.6073 30.288 17.4092 30.0244 17.4092Z" fill="black"/>
<path id="Vector_48" d="M30.0244 19.583H29.0984C28.8348 19.583 28.6211 19.7811 28.6211 20.0255V20.9681C28.6211 21.2125 28.8348 21.4106 29.0984 21.4106H30.0244C30.288 21.4106 30.5017 21.2125 30.5017 20.9681V20.0255C30.5017 19.7811 30.288 19.583 30.0244 19.583Z" fill="black"/>
<path id="Vector_49" d="M1.9033 15.2148H0.977313C0.7137 15.2148 0.5 15.413 0.5 15.6574V16.5999C0.5 16.8443 0.7137 17.0424 0.977313 17.0424H1.9033C2.16691 17.0424 2.38061 16.8443 2.38061 16.5999V15.6574C2.38061 15.413 2.16691 15.2148 1.9033 15.2148Z" fill="black"/>
<path id="Vector_50" d="M30.0244 15.2363H29.0984C28.8348 15.2363 28.6211 15.4344 28.6211 15.6788V16.6214C28.6211 16.8658 28.8348 17.0639 29.0984 17.0639H30.0244C30.288 17.0639 30.5017 16.8658 30.5017 16.6214V15.6788C30.5017 15.4344 30.288 15.2363 30.0244 15.2363Z" fill="black"/>
<path id="Vector_51" d="M1.9033 21.7354H0.977313C0.7137 21.7354 0.5 21.9335 0.5 22.1779V23.1204C0.5 23.3648 0.7137 23.5629 0.977313 23.5629H1.9033C2.16691 23.5629 2.38061 23.3648 2.38061 23.1204V22.1779C2.38061 21.9335 2.16691 21.7354 1.9033 21.7354Z" fill="black"/>
<path id="Vector_52" d="M30.0244 21.7568H29.0984C28.8348 21.7568 28.6211 21.955 28.6211 22.1993V23.1419C28.6211 23.3863 28.8348 23.5844 29.0984 23.5844H30.0244C30.288 23.5844 30.5017 23.3863 30.5017 23.1419V22.1993C30.5017 21.955 30.288 21.7568 30.0244 21.7568Z" fill="black"/>
<path id="Vector_53" d="M11.29 28.2949H10.364C10.1004 28.2949 9.88672 28.493 9.88672 28.7374V29.68C9.88672 29.9244 10.1004 30.1225 10.364 30.1225H11.29C11.5536 30.1225 11.7673 29.9244 11.7673 29.68V28.7374C11.7673 28.493 11.5536 28.2949 11.29 28.2949Z" fill="black"/>
<path id="Vector_54" d="M11.29 0.0400391H10.364C10.1004 0.0400391 9.88672 0.238158 9.88672 0.48255V1.4251C9.88672 1.66949 10.1004 1.86761 10.364 1.86761H11.29C11.5536 1.86761 11.7673 1.66949 11.7673 1.4251V0.48255C11.7673 0.238158 11.5536 0.0400391 11.29 0.0400391Z" fill="black"/>
<path id="Vector_55" d="M23.0088 0.0400391H22.0828C21.8192 0.0400391 21.6055 0.238158 21.6055 0.48255V1.4251C21.6055 1.66949 21.8192 1.86761 22.0828 1.86761H23.0088C23.2724 1.86761 23.4861 1.66949 23.4861 1.4251V0.48255C23.4861 0.238158 23.2724 0.0400391 23.0088 0.0400391Z" fill="black"/>
<path id="Vector_56" d="M25.3369 2.17383H24.4109C24.1473 2.17383 23.9336 2.37195 23.9336 2.61634V3.55889C23.9336 3.80328 24.1473 4.0014 24.4109 4.0014H25.3369C25.6005 4.0014 25.8142 3.80328 25.8142 3.55889V2.61634C25.8142 2.37195 25.6005 2.17383 25.3369 2.17383Z" fill="black"/>
<path id="Vector_57" d="M27.6806 4.34668H26.7547C26.491 4.34668 26.2773 4.5448 26.2773 4.78919V5.73174C26.2773 5.97613 26.491 6.17425 26.7547 6.17425H27.6806C27.9443 6.17425 28.158 5.97613 28.158 5.73174V4.78919C28.158 4.5448 27.9443 4.34668 27.6806 4.34668Z" fill="black"/>
<path id="Vector_58" d="M11.29 21.7539H10.364C10.1004 21.7539 9.88672 21.952 9.88672 22.1964V23.139C9.88672 23.3834 10.1004 23.5815 10.364 23.5815H11.29C11.5536 23.5815 11.7673 23.3834 11.7673 23.139V22.1964C11.7673 21.952 11.5536 21.7539 11.29 21.7539Z" fill="black"/>
<path id="Vector_59" d="M11.29 19.5615H10.364C10.1004 19.5615 9.88672 19.7596 9.88672 20.004V20.9466C9.88672 21.191 10.1004 21.3891 10.364 21.3891H11.29C11.5536 21.3891 11.7673 21.191 11.7673 20.9466V20.004C11.7673 19.7596 11.5536 19.5615 11.29 19.5615Z" fill="black"/>
<path id="Vector_60" d="M18.3056 21.7354H17.3797C17.116 21.7354 16.9023 21.9335 16.9023 22.1779V23.1204C16.9023 23.3648 17.116 23.5629 17.3797 23.5629H18.3056C18.5693 23.5629 18.783 23.3648 18.783 23.1204V22.1779C18.783 21.9335 18.5693 21.7354 18.3056 21.7354Z" fill="black"/>
<path id="Vector_61" d="M15.9775 6.58203H15.0515C14.7879 6.58203 14.5742 6.78015 14.5742 7.02454V7.96709C14.5742 8.21148 14.7879 8.4096 15.0515 8.4096H15.9775C16.2411 8.4096 16.4548 8.21148 16.4548 7.96709V7.02454C16.4548 6.78015 16.2411 6.58203 15.9775 6.58203Z" fill="black"/>
<path id="Vector_62" d="M15.9775 21.7959H15.0515C14.7879 21.7959 14.5742 21.994 14.5742 22.2384V23.181C14.5742 23.4253 14.7879 23.6235 15.0515 23.6235H15.9775C16.2411 23.6235 16.4548 23.4253 16.4548 23.181V22.2384C16.4548 21.994 16.2411 21.7959 15.9775 21.7959Z" fill="black"/>
<path id="Vector_63" d="M15.9775 0.0400391H15.0515C14.7879 0.0400391 14.5742 0.238158 14.5742 0.48255V1.4251C14.5742 1.66949 14.7879 1.86761 15.0515 1.86761H15.9775C16.2411 1.86761 16.4548 1.66949 16.4548 1.4251V0.48255C16.4548 0.238158 16.2411 0.0400391 15.9775 0.0400391Z" fill="black"/>
</g>
</svg>
