<svg width="30" height="31" viewBox="0 0 30 31" fill="none" xmlns="http://www.w3.org/2000/svg">
<g id="icon luggage">
<path id="Vector" d="M16.4972 14.4958H15.5092C15.228 14.4958 15 14.7247 15 15.0069V16.0955C15 16.3777 15.228 16.6066 15.5092 16.6066H16.4972C16.7784 16.6066 17.0064 16.3777 17.0064 16.0955V15.0069C17.0064 14.7247 16.7784 14.4958 16.4972 14.4958Z" fill="white"/>
<path id="Vector_2" d="M1.49715 14.4958H0.509236C0.227992 14.4958 0 14.7247 0 15.0069V16.0955C0 16.3777 0.227992 16.6066 0.509236 16.6066H1.49715C1.7784 16.6066 2.00639 16.3777 2.00639 16.0955V15.0069C2.00639 14.7247 1.7784 14.4958 1.49715 14.4958Z" fill="white"/>
<path id="Vector_3" d="M28.9972 14.4958H28.0092C27.728 14.4958 27.5 14.7247 27.5 15.0069V16.0955C27.5 16.3777 27.728 16.6066 28.0092 16.6066H28.9972C29.2784 16.6066 29.5064 16.3777 29.5064 16.0955V15.0069C29.5064 14.7247 29.2784 14.4958 28.9972 14.4958Z" fill="white"/>
<path id="Vector_4" d="M13.9972 14.4958H13.0092C12.728 14.4958 12.5 14.7247 12.5 15.0069V16.0955C12.5 16.3777 12.728 16.6066 13.0092 16.6066H13.9972C14.2784 16.6066 14.5064 16.3777 14.5064 16.0955V15.0069C14.5064 14.7247 14.2784 14.4958 13.9972 14.4958Z" fill="white"/>
<path id="Vector_5" d="M11.4972 1.94458H10.5092C10.228 1.94458 10 2.17339 10 2.45565V3.54422C10 3.82648 10.228 4.05529 10.5092 4.05529H11.4972C11.7784 4.05529 12.0064 3.82648 12.0064 3.54422V2.45565C12.0064 2.17339 11.7784 1.94458 11.4972 1.94458Z" fill="white"/>
<path id="Vector_6" d="M13.9972 1.96924H13.0092C12.728 1.96924 12.5 2.19805 12.5 2.48031V3.56888C12.5 3.85114 12.728 4.07995 13.0092 4.07995H13.9972C14.2784 4.07995 14.5064 3.85114 14.5064 3.56888V2.48031C14.5064 2.19805 14.2784 1.96924 13.9972 1.96924Z" fill="white"/>
<path id="Vector_7" d="M16.4972 1.96924H15.5092C15.228 1.96924 15 2.19805 15 2.48031V3.56888C15 3.85114 15.228 4.07995 15.5092 4.07995H16.4972C16.7784 4.07995 17.0064 3.85114 17.0064 3.56888V2.48031C17.0064 2.19805 16.7784 1.96924 16.4972 1.96924Z" fill="white"/>
<path id="Vector_8" d="M21.4972 27.0225H20.5092C20.228 27.0225 20 27.2513 20 27.5335V28.6221C20 28.9044 20.228 29.1332 20.5092 29.1332H21.4972C21.7784 29.1332 22.0064 28.9044 22.0064 28.6221V27.5335C22.0064 27.2513 21.7784 27.0225 21.4972 27.0225Z" fill="white"/>
<path id="Vector_9" d="M6.49715 27.0225H5.50924C5.22799 27.0225 5 27.2513 5 27.5335V28.6221C5 28.9044 5.22799 29.1332 5.50924 29.1332H6.49715C6.7784 29.1332 7.00639 28.9044 7.00639 28.6221V27.5335C7.00639 27.2513 6.7784 27.0225 6.49715 27.0225Z" fill="white"/>
<path id="Vector_10" d="M16.4972 27.0471H15.5092C15.228 27.0471 15 27.2759 15 27.5582V28.6468C15 28.929 15.228 29.1578 15.5092 29.1578H16.4972C16.7784 29.1578 17.0064 28.929 17.0064 28.6468V27.5582C17.0064 27.2759 16.7784 27.0471 16.4972 27.0471Z" fill="white"/>
<path id="Vector_11" d="M1.49715 22.0022H0.509236C0.227992 22.0022 0 22.231 0 22.5133V23.6018C0 23.8841 0.227992 24.1129 0.509236 24.1129H1.49715C1.7784 24.1129 2.00639 23.8841 2.00639 23.6018V22.5133C2.00639 22.231 1.7784 22.0022 1.49715 22.0022Z" fill="white"/>
<path id="Vector_12" d="M28.9972 22.0022H28.0092C27.728 22.0022 27.5 22.231 27.5 22.5133V23.6018C27.5 23.8841 27.728 24.1129 28.0092 24.1129H28.9972C29.2784 24.1129 29.5064 23.8841 29.5064 23.6018V22.5133C29.5064 22.231 29.2784 22.0022 28.9972 22.0022Z" fill="white"/>
<path id="Vector_13" d="M13.9972 27.0471H13.0092C12.728 27.0471 12.5 27.2759 12.5 27.5582V28.6468C12.5 28.929 12.728 29.1578 13.0092 29.1578H13.9972C14.2784 29.1578 14.5064 28.929 14.5064 28.6468V27.5582C14.5064 27.2759 14.2784 27.0471 13.9972 27.0471Z" fill="white"/>
<path id="Vector_14" d="M8.99715 1.96924H8.00924C7.72799 1.96924 7.5 2.19805 7.5 2.48031V3.56888C7.5 3.85114 7.72799 4.07995 8.00924 4.07995H8.99715C9.2784 4.07995 9.50639 3.85114 9.50639 3.56888V2.48031C9.50639 2.19805 9.2784 1.96924 8.99715 1.96924Z" fill="white"/>
<path id="Vector_15" d="M8.99715 4.47949H8.00924C7.72799 4.47949 7.5 4.70831 7.5 4.99056V6.07914C7.5 6.36139 7.72799 6.5902 8.00924 6.5902H8.99715C9.2784 6.5902 9.50639 6.36139 9.50639 6.07914V4.99056C9.50639 4.70831 9.2784 4.47949 8.99715 4.47949Z" fill="white"/>
<path id="Vector_16" d="M1.49715 17.0305H0.509236C0.227992 17.0305 0 17.2593 0 17.5416V18.6302C0 18.9124 0.227992 19.1412 0.509236 19.1412H1.49715C1.7784 19.1412 2.00639 18.9124 2.00639 18.6302V17.5416C2.00639 17.2593 1.7784 17.0305 1.49715 17.0305Z" fill="white"/>
<path id="Vector_17" d="M28.9972 17.0305H28.0092C27.728 17.0305 27.5 17.2593 27.5 17.5416V18.6302C27.5 18.9124 27.728 19.1412 28.0092 19.1412H28.9972C29.2784 19.1412 29.5064 18.9124 29.5064 18.6302V17.5416C29.5064 17.2593 29.2784 17.0305 28.9972 17.0305Z" fill="white"/>
<path id="Vector_18" d="M16.4972 19.5164H15.5092C15.228 19.5164 15 19.7452 15 20.0274V21.116C15 21.3983 15.228 21.6271 15.5092 21.6271H16.4972C16.7784 21.6271 17.0064 21.3983 17.0064 21.116V20.0274C17.0064 19.7452 16.7784 19.5164 16.4972 19.5164Z" fill="white"/>
<path id="Vector_19" d="M1.49715 19.5164H0.509236C0.227992 19.5164 0 19.7452 0 20.0274V21.116C0 21.3983 0.227992 21.6271 0.509236 21.6271H1.49715C1.7784 21.6271 2.00639 21.3983 2.00639 21.116V20.0274C2.00639 19.7452 1.7784 19.5164 1.49715 19.5164Z" fill="white"/>
<path id="Vector_20" d="M28.9972 19.5164H28.0092C27.728 19.5164 27.5 19.7452 27.5 20.0274V21.116C27.5 21.3983 27.728 21.6271 28.0092 21.6271H28.9972C29.2784 21.6271 29.5064 21.3983 29.5064 21.116V20.0274C29.5064 19.7452 29.2784 19.5164 28.9972 19.5164Z" fill="white"/>
<path id="Vector_21" d="M13.9972 19.5164H13.0092C12.728 19.5164 12.5 19.7452 12.5 20.0274V21.116C12.5 21.3983 12.728 21.6271 13.0092 21.6271H13.9972C14.2784 21.6271 14.5064 21.3983 14.5064 21.116V20.0274C14.5064 19.7452 14.2784 19.5164 13.9972 19.5164Z" fill="white"/>
<path id="Vector_22" d="M1.49715 12.01H0.509236C0.227992 12.01 0 12.2388 0 12.5211V13.6097C0 13.8919 0.227992 14.1207 0.509236 14.1207H1.49715C1.7784 14.1207 2.00639 13.8919 2.00639 13.6097V12.5211C2.00639 12.2388 1.7784 12.01 1.49715 12.01Z" fill="white"/>
<path id="Vector_23" d="M18.9972 17.0061H18.0092C17.728 17.0061 17.5 17.2349 17.5 17.5172V18.6057C17.5 18.888 17.728 19.1168 18.0092 19.1168H18.9972C19.2784 19.1168 19.5064 18.888 19.5064 18.6057V17.5172C19.5064 17.2349 19.2784 17.0061 18.9972 17.0061Z" fill="white"/>
<path id="Vector_24" d="M18.9972 14.4958H18.0092C17.728 14.4958 17.5 14.7247 17.5 15.0069V16.0955C17.5 16.3777 17.728 16.6066 18.0092 16.6066H18.9972C19.2784 16.6066 19.5064 16.3777 19.5064 16.0955V15.0069C19.5064 14.7247 19.2784 14.4958 18.9972 14.4958Z" fill="white"/>
<path id="Vector_25" d="M3.99715 17.0061H3.00924C2.72799 17.0061 2.5 17.2349 2.5 17.5172V18.6057C2.5 18.888 2.72799 19.1168 3.00924 19.1168H3.99715C4.2784 19.1168 4.50639 18.888 4.50639 18.6057V17.5172C4.50639 17.2349 4.2784 17.0061 3.99715 17.0061Z" fill="white"/>
<path id="Vector_26" d="M3.99715 6.98975H3.00924C2.72799 6.98975 2.5 7.21856 2.5 7.50081V8.58939C2.5 8.87164 2.72799 9.10046 3.00924 9.10046H3.99715C4.2784 9.10046 4.50639 8.87164 4.50639 8.58939V7.50081C4.50639 7.21856 4.2784 6.98975 3.99715 6.98975Z" fill="white"/>
<path id="Vector_27" d="M11.4972 6.98975H10.5092C10.228 6.98975 10 7.21856 10 7.50081V8.58939C10 8.87164 10.228 9.10046 10.5092 9.10046H11.4972C11.7784 9.10046 12.0064 8.87164 12.0064 8.58939V7.50081C12.0064 7.21856 11.7784 6.98975 11.4972 6.98975Z" fill="white"/>
<path id="Vector_28" d="M18.9972 6.98975H18.0092C17.728 6.98975 17.5 7.21856 17.5 7.50081V8.58939C17.5 8.87164 17.728 9.10046 18.0092 9.10046H18.9972C19.2784 9.10046 19.5064 8.87164 19.5064 8.58939V7.50081C19.5064 7.21856 19.2784 6.98975 18.9972 6.98975Z" fill="white"/>
<path id="Vector_29" d="M21.4972 17.0061H20.5092C20.228 17.0061 20 17.2349 20 17.5172V18.6057C20 18.888 20.228 19.1168 20.5092 19.1168H21.4972C21.7784 19.1168 22.0064 18.888 22.0064 18.6057V17.5172C22.0064 17.2349 21.7784 17.0061 21.4972 17.0061Z" fill="white"/>
<path id="Vector_30" d="M6.49715 17.0061H5.50924C5.22799 17.0061 5 17.2349 5 17.5172V18.6057C5 18.888 5.22799 19.1168 5.50924 19.1168H6.49715C6.7784 19.1168 7.00639 18.888 7.00639 18.6057V17.5172C7.00639 17.2349 6.7784 17.0061 6.49715 17.0061Z" fill="white"/>
<path id="Vector_31" d="M6.49715 6.98975H5.50924C5.22799 6.98975 5 7.21856 5 7.50081V8.58939C5 8.87164 5.22799 9.10046 5.50924 9.10046H6.49715C6.7784 9.10046 7.00639 8.87164 7.00639 8.58939V7.50081C7.00639 7.21856 6.7784 6.98975 6.49715 6.98975Z" fill="white"/>
<path id="Vector_32" d="M13.9972 6.98975H13.0092C12.728 6.98975 12.5 7.21856 12.5 7.50081V8.58939C12.5 8.87164 12.728 9.10046 13.0092 9.10046H13.9972C14.2784 9.10046 14.5064 8.87164 14.5064 8.58939V7.50081C14.5064 7.21856 14.2784 6.98975 13.9972 6.98975Z" fill="white"/>
<path id="Vector_33" d="M21.4972 6.98975H20.5092C20.228 6.98975 20 7.21856 20 7.50081V8.58939C20 8.87164 20.228 9.10046 20.5092 9.10046H21.4972C21.7784 9.10046 22.0064 8.87164 22.0064 8.58939V7.50081C22.0064 7.21856 21.7784 6.98975 21.4972 6.98975Z" fill="white"/>
<path id="Vector_34" d="M23.9972 17.0061H23.0092C22.728 17.0061 22.5 17.2349 22.5 17.5172V18.6057C22.5 18.888 22.728 19.1168 23.0092 19.1168H23.9972C24.2784 19.1168 24.5064 18.888 24.5064 18.6057V17.5172C24.5064 17.2349 24.2784 17.0061 23.9972 17.0061Z" fill="white"/>
<path id="Vector_35" d="M8.99715 17.0061H8.00924C7.72799 17.0061 7.5 17.2349 7.5 17.5172V18.6057C7.5 18.888 7.72799 19.1168 8.00924 19.1168H8.99715C9.2784 19.1168 9.50639 18.888 9.50639 18.6057V17.5172C9.50639 17.2349 9.2784 17.0061 8.99715 17.0061Z" fill="white"/>
<path id="Vector_36" d="M8.99715 6.98975H8.00924C7.72799 6.98975 7.5 7.21856 7.5 7.50081V8.58939C7.5 8.87164 7.72799 9.10046 8.00924 9.10046H8.99715C9.2784 9.10046 9.50639 8.87164 9.50639 8.58939V7.50081C9.50639 7.21856 9.2784 6.98975 8.99715 6.98975Z" fill="white"/>
<path id="Vector_37" d="M16.4972 6.98975H15.5092C15.228 6.98975 15 7.21856 15 7.50081V8.58939C15 8.87164 15.228 9.10046 15.5092 9.10046H16.4972C16.7784 9.10046 17.0064 8.87164 17.0064 8.58939V7.50081C17.0064 7.21856 16.7784 6.98975 16.4972 6.98975Z" fill="white"/>
<path id="Vector_38" d="M23.9972 6.98975H23.0092C22.728 6.98975 22.5 7.21856 22.5 7.50081V8.58939C22.5 8.87164 22.728 9.10046 23.0092 9.10046H23.9972C24.2784 9.10046 24.5064 8.87164 24.5064 8.58939V7.50081C24.5064 7.21856 24.2784 6.98975 23.9972 6.98975Z" fill="white"/>
<path id="Vector_39" d="M26.4972 6.98975H25.5092C25.228 6.98975 25 7.21856 25 7.50081V8.58939C25 8.87164 25.228 9.10046 25.5092 9.10046H26.4972C26.7784 9.10046 27.0064 8.87164 27.0064 8.58939V7.50081C27.0064 7.21856 26.7784 6.98975 26.4972 6.98975Z" fill="white"/>
<path id="Vector_40" d="M11.4972 17.0061H10.5092C10.228 17.0061 10 17.2349 10 17.5172V18.6057C10 18.888 10.228 19.1168 10.5092 19.1168H11.4972C11.7784 19.1168 12.0064 18.888 12.0064 18.6057V17.5172C12.0064 17.2349 11.7784 17.0061 11.4972 17.0061Z" fill="white"/>
<path id="Vector_41" d="M11.4972 17.0061H10.5092C10.228 17.0061 10 17.2349 10 17.5172V18.6057C10 18.888 10.228 19.1168 10.5092 19.1168H11.4972C11.7784 19.1168 12.0064 18.888 12.0064 18.6057V17.5172C12.0064 17.2349 11.7784 17.0061 11.4972 17.0061Z" fill="white"/>
<path id="Vector_42" d="M26.4972 17.0061H25.5092C25.228 17.0061 25 17.2349 25 17.5172V18.6057C25 18.888 25.228 19.1168 25.5092 19.1168H26.4972C26.7784 19.1168 27.0064 18.888 27.0064 18.6057V17.5172C27.0064 17.2349 26.7784 17.0061 26.4972 17.0061Z" fill="white"/>
<path id="Vector_43" d="M11.4972 14.4958H10.5092C10.228 14.4958 10 14.7247 10 15.0069V16.0955C10 16.3777 10.228 16.6066 10.5092 16.6066H11.4972C11.7784 16.6066 12.0064 16.3777 12.0064 16.0955V15.0069C12.0064 14.7247 11.7784 14.4958 11.4972 14.4958Z" fill="white"/>
<path id="Vector_44" d="M1.49715 9.47534H0.509236C0.227992 9.47534 0 9.70415 0 9.98641V11.075C0 11.3572 0.227992 11.5861 0.509236 11.5861H1.49715C1.7784 11.5861 2.00639 11.3572 2.00639 11.075V9.98641C2.00639 9.70415 1.7784 9.47534 1.49715 9.47534Z" fill="white"/>
<path id="Vector_45" d="M28.9972 12.01H28.0092C27.728 12.01 27.5 12.2388 27.5 12.5211V13.6097C27.5 13.8919 27.728 14.1207 28.0092 14.1207H28.9972C29.2784 14.1207 29.5064 13.8919 29.5064 13.6097V12.5211C29.5064 12.2388 29.2784 12.01 28.9972 12.01Z" fill="white"/>
<path id="Vector_46" d="M28.9972 9.47534H28.0092C27.728 9.47534 27.5 9.70415 27.5 9.98641V11.075C27.5 11.3572 27.728 11.5861 28.0092 11.5861H28.9972C29.2784 11.5861 29.5064 11.3572 29.5064 11.075V9.98641C29.5064 9.70415 29.2784 9.47534 28.9972 9.47534Z" fill="white"/>
<path id="Vector_47" d="M28.9972 24.5369H28.0092C27.728 24.5369 27.5 24.7657 27.5 25.0479V26.1365C27.5 26.4188 27.728 26.6476 28.0092 26.6476H28.9972C29.2784 26.6476 29.5064 26.4188 29.5064 26.1365V25.0479C29.5064 24.7657 29.2784 24.5369 28.9972 24.5369Z" fill="white"/>
<path id="Vector_48" d="M26.4972 27.0471H25.5092C25.228 27.0471 25 27.2759 25 27.5582V28.6468C25 28.929 25.228 29.1578 25.5092 29.1578H26.4972C26.7784 29.1578 27.0064 28.929 27.0064 28.6468V27.5582C27.0064 27.2759 26.7784 27.0471 26.4972 27.0471Z" fill="white"/>
<path id="Vector_49" d="M11.4972 27.0471H10.5092C10.228 27.0471 10 27.2759 10 27.5582V28.6468C10 28.929 10.228 29.1578 10.5092 29.1578H11.4972C11.7784 29.1578 12.0064 28.929 12.0064 28.6468V27.5582C12.0064 27.2759 11.7784 27.0471 11.4972 27.0471Z" fill="white"/>
<path id="Vector_50" d="M19.0128 1.99048H18.0249C17.7436 1.99048 17.5156 2.21929 17.5156 2.50155V3.59012C17.5156 3.87238 17.7436 4.10119 18.0249 4.10119H19.0128C19.294 4.10119 19.522 3.87238 19.522 3.59012V2.50155C19.522 2.21929 19.294 1.99048 19.0128 1.99048Z" fill="white"/>
<path id="Vector_51" d="M21.4972 1.96924H20.5092C20.228 1.96924 20 2.19805 20 2.48031V3.56888C20 3.85114 20.228 4.07995 20.5092 4.07995H21.4972C21.7784 4.07995 22.0064 3.85114 22.0064 3.56888V2.48031C22.0064 2.19805 21.7784 1.96924 21.4972 1.96924Z" fill="white"/>
<path id="Vector_52" d="M21.4972 4.47949H20.5092C20.228 4.47949 20 4.70831 20 4.99056V6.07914C20 6.36139 20.228 6.5902 20.5092 6.5902H21.4972C21.7784 6.5902 22.0064 6.36139 22.0064 6.07914V4.99056C22.0064 4.70831 21.7784 4.47949 21.4972 4.47949Z" fill="white"/>
<path id="Vector_53" d="M24.0128 27.0684H23.0249C22.7436 27.0684 22.5156 27.2972 22.5156 27.5794V28.668C22.5156 28.9503 22.7436 29.1791 23.0249 29.1791H24.0128C24.294 29.1791 24.522 28.9503 24.522 28.668V27.5794C24.522 27.2972 24.294 27.0684 24.0128 27.0684Z" fill="white"/>
<path id="Vector_54" d="M9.01278 27.0684H8.02486C7.74362 27.0684 7.51562 27.2972 7.51562 27.5794V28.668C7.51562 28.9503 7.74362 29.1791 8.02486 29.1791H9.01278C9.29402 29.1791 9.52201 28.9503 9.52201 28.668V27.5794C9.52201 27.2972 9.29402 27.0684 9.01278 27.0684Z" fill="white"/>
<path id="Vector_55" d="M18.9972 27.0471H18.0092C17.728 27.0471 17.5 27.2759 17.5 27.5582V28.6468C17.5 28.929 17.728 29.1578 18.0092 29.1578H18.9972C19.2784 29.1578 19.5064 28.929 19.5064 28.6468V27.5582C19.5064 27.2759 19.2784 27.0471 18.9972 27.0471Z" fill="white"/>
<path id="Vector_56" d="M3.99715 27.0471H3.00924C2.72799 27.0471 2.5 27.2759 2.5 27.5582V28.6468C2.5 28.929 2.72799 29.1578 3.00924 29.1578H3.99715C4.2784 29.1578 4.50639 28.929 4.50639 28.6468V27.5582C4.50639 27.2759 4.2784 27.0471 3.99715 27.0471Z" fill="white"/>
<path id="Vector_57" d="M1.49715 24.5369H0.509236C0.227992 24.5369 0 24.7657 0 25.0479V26.1365C0 26.4188 0.227992 26.6476 0.509236 26.6476H1.49715C1.7784 26.6476 2.00639 26.4188 2.00639 26.1365V25.0479C2.00639 24.7657 1.7784 24.5369 1.49715 24.5369Z" fill="white"/>
</g>
</svg>
