<svg width="80" height="73" viewBox="0 0 80 73" fill="none" xmlns="http://www.w3.org/2000/svg">
<g id="Frame 427320307">
<path id="Vector" d="M68.8396 33.3334L71.4741 33.3334C72.2241 33.3334 72.832 33.9411 72.832 34.6907L72.832 37.5817C72.832 38.3313 72.2241 38.939 71.4741 38.939L68.8396 38.939C68.0896 38.939 67.4817 38.3313 67.4817 37.5817L67.4817 34.6907C67.4817 33.9411 68.0896 33.3334 68.8396 33.3334Z" fill="#FF0000"/>
<path id="Vector_2" d="M75.5076 20.0654L78.142 20.0654C78.892 20.0654 79.5 20.6731 79.5 21.4227L79.5 24.3137C79.5 25.0633 78.892 25.671 78.142 25.671L75.5076 25.671C74.7576 25.671 74.1496 25.0633 74.1496 24.3137L74.1496 21.4227C74.1496 20.6731 74.7576 20.0654 75.5076 20.0654Z" fill="#FF0000"/>
<path id="Vector_3" d="M35.5076 20L38.142 20C38.892 20 39.5 20.6077 39.5 21.3573L39.5 24.2483C39.5 24.9979 38.892 25.6056 38.142 25.6056L35.5076 25.6056C34.7576 25.6056 34.1496 24.9979 34.1496 24.2483L34.1496 21.3573C34.1496 20.6077 34.7576 20 35.5076 20Z" fill="#FF0000"/>
<path id="Vector_4" d="M35.5076 -3.49028e-07L38.142 -1.18717e-07C38.892 -5.31513e-08 39.5 0.607677 39.5 1.35729L39.5 4.2483C39.5 4.99791 38.892 5.60559 38.142 5.60559L35.5076 5.60559C34.7576 5.60559 34.1496 4.99791 34.1496 4.2483L34.1496 1.35728C34.1496 0.607677 34.7576 -4.14593e-07 35.5076 -3.49028e-07Z" fill="#FF0000"/>
<path id="Vector_5" d="M2.17556 39.9346L4.81001 39.9346C5.55999 39.9346 6.16797 40.5422 6.16797 41.2919L6.16797 44.1829C6.16797 44.9325 5.55999 45.5402 4.81001 45.5402L2.17556 45.5402C1.42558 45.5402 0.817596 44.9325 0.817596 44.1829L0.817596 41.2919C0.817596 40.5422 1.42558 39.9346 2.17556 39.9346Z" fill="#FF0000"/>
<path id="Vector_6" d="M48.8396 -3.49028e-07L51.4741 -1.18717e-07C52.2241 -5.31513e-08 52.832 0.607677 52.832 1.35729L52.832 4.2483C52.832 4.99791 52.2241 5.60559 51.4741 5.60559L48.8396 5.60559C48.0896 5.60559 47.4817 4.99791 47.4817 4.2483L47.4817 1.35728C47.4817 0.607677 48.0896 -4.14593e-07 48.8396 -3.49028e-07Z" fill="#FF0000"/>
<path id="Vector_7" d="M55.5076 -3.49028e-07L58.142 -1.18717e-07C58.892 -5.31513e-08 59.5 0.607677 59.5 1.35729L59.5 4.2483C59.5 4.99791 58.892 5.60559 58.142 5.60559L55.5076 5.60559C54.7576 5.60559 54.1496 4.99791 54.1496 4.2483L54.1496 1.35728C54.1496 0.607677 54.7576 -4.14593e-07 55.5076 -3.49028e-07Z" fill="#FF0000"/>
<path id="Vector_8" d="M28.8396 -3.49028e-07L31.4741 -1.18717e-07C32.2241 -5.31513e-08 32.832 0.607677 32.832 1.35729L32.832 4.2483C32.832 4.99791 32.2241 5.60559 31.4741 5.60559L28.8396 5.60559C28.0896 5.60559 27.4817 4.99791 27.4817 4.2483L27.4817 1.35728C27.4817 0.607677 28.0896 -4.14593e-07 28.8396 -3.49028e-07Z" fill="#FF0000"/>
<path id="Vector_9" d="M22.1756 -3.49027e-07L24.81 -1.18717e-07C25.56 -5.31513e-08 26.168 0.607677 26.168 1.35729L26.168 4.2483C26.168 4.99791 25.56 5.60559 24.81 5.60559L22.1756 5.60559C21.4256 5.60559 20.8176 4.99791 20.8176 4.2483L20.8176 1.35728C20.8176 0.607677 21.4256 -4.14593e-07 22.1756 -3.49027e-07Z" fill="#FF0000"/>
<path id="Vector_10" d="M75.5076 33.3988L78.142 33.3988C78.892 33.3988 79.5 34.0065 79.5 34.7561L79.5 37.6471C79.5 38.3967 78.892 39.0044 78.142 39.0044L75.5076 39.0044C74.7576 39.0044 74.1496 38.3967 74.1496 37.6471L74.1496 34.7561C74.1496 34.0065 74.7576 33.3988 75.5076 33.3988Z" fill="#FF0000"/>
<path id="Vector_11" d="M68.8396 20L71.4741 20C72.2241 20 72.832 20.6077 72.832 21.3573L72.832 24.2483C72.832 24.9979 72.2241 25.6056 71.4741 25.6056L68.8396 25.6056C68.0896 25.6056 67.4817 24.9979 67.4817 24.2483L67.4817 21.3573C67.4817 20.6077 68.0896 20 68.8396 20Z" fill="#FF0000"/>
<path id="Vector_12" d="M28.8396 6.66663L31.4741 6.66663C32.2241 6.66663 32.832 7.2743 32.832 8.02391L32.832 10.9149C32.832 11.6645 32.2241 12.2722 31.4741 12.2722L28.8396 12.2722C28.0896 12.2722 27.4817 11.6645 27.4817 10.9149L27.4817 8.02391C27.4817 7.2743 28.0896 6.66663 28.8396 6.66663Z" fill="#FF0000"/>
<path id="Vector_13" d="M28.8396 59.8691L31.4741 59.8691C32.2241 59.8691 32.832 60.4768 32.832 61.2264L32.832 64.1174C32.832 64.8671 32.2241 65.4747 31.4741 65.4747L28.8396 65.4747C28.0896 65.4747 27.4817 64.8671 27.4817 64.1174L27.4817 61.2264C27.4817 60.4768 28.0896 59.8691 28.8396 59.8691Z" fill="#FF0000"/>
<path id="Vector_14" d="M35.5076 33.3334L38.142 33.3334C38.892 33.3334 39.5 33.9411 39.5 34.6907L39.5 37.5817C39.5 38.3313 38.892 38.939 38.142 38.939L35.5076 38.939C34.7576 38.939 34.1496 38.3313 34.1496 37.5817L34.1496 34.6907C34.1496 33.9411 34.7576 33.3334 35.5076 33.3334Z" fill="#FF0000"/>
<path id="Vector_15" d="M35.5076 6.66663L38.142 6.66663C38.892 6.66663 39.5 7.2743 39.5 8.02391L39.5 10.9149C39.5 11.6645 38.892 12.2722 38.142 12.2722L35.5076 12.2722C34.7576 12.2722 34.1496 11.6645 34.1496 10.9149L34.1496 8.02391C34.1496 7.2743 34.7576 6.66663 35.5076 6.66663Z" fill="#FF0000"/>
<path id="Vector_16" d="M35.5076 59.8691L38.142 59.8691C38.892 59.8691 39.5 60.4768 39.5 61.2264L39.5 64.1174C39.5 64.8671 38.892 65.4747 38.142 65.4747L35.5076 65.4747C34.7576 65.4747 34.1496 64.8671 34.1496 64.1174L34.1496 61.2264C34.1496 60.4768 34.7576 59.8691 35.5076 59.8691Z" fill="#FF0000"/>
<path id="Vector_17" d="M2.17556 26.5358L4.81001 26.5358C5.55999 26.5358 6.16797 27.1434 6.16797 27.8931L6.16797 30.7841C6.16797 31.5337 5.55999 32.1414 4.81001 32.1414L2.17556 32.1414C1.42558 32.1414 0.817596 31.5337 0.817596 30.7841L0.817596 27.8931C0.817596 27.1434 1.42558 26.5358 2.17556 26.5358Z" fill="#FF0000"/>
<path id="Vector_18" d="M48.8396 6.66663L51.4741 6.66663C52.2241 6.66663 52.832 7.2743 52.832 8.02391L52.832 10.9149C52.832 11.6645 52.2241 12.2722 51.4741 12.2722L48.8396 12.2722C48.0896 12.2722 47.4817 11.6645 47.4817 10.9149L47.4817 8.02391C47.4817 7.2743 48.0896 6.66663 48.8396 6.66663Z" fill="#FF0000"/>
<path id="Vector_19" d="M48.8396 59.8691L51.4741 59.8691C52.2241 59.8691 52.832 60.4768 52.832 61.2264L52.832 64.1174C52.832 64.8671 52.2241 65.4747 51.4741 65.4747L48.8396 65.4747C48.0896 65.4747 47.4817 64.8671 47.4817 64.1174L47.4817 61.2264C47.4817 60.4768 48.0896 59.8691 48.8396 59.8691Z" fill="#FF0000"/>
<path id="Vector_20" d="M62.1756 26.7321L64.81 26.7321C65.56 26.7321 66.168 27.3397 66.168 28.0893L66.168 30.9804C66.168 31.73 65.56 32.3376 64.81 32.3376L62.1756 32.3376C61.4256 32.3376 60.8176 31.73 60.8176 30.9804L60.8176 28.0893C60.8176 27.3397 61.4256 26.7321 62.1756 26.7321Z" fill="#FF0000"/>
<path id="Vector_21" d="M68.8396 40.0654L71.4741 40.0654C72.2241 40.0654 72.832 40.6731 72.832 41.4227L72.832 44.3137C72.832 45.0633 72.2241 45.671 71.4741 45.671L68.8396 45.671C68.0896 45.671 67.4817 45.0633 67.4817 44.3137L67.4817 41.4227C67.4817 40.6731 68.0896 40.0654 68.8396 40.0654Z" fill="#FF0000"/>
<path id="Vector_22" d="M28.8396 26.7321L31.4741 26.7321C32.2241 26.7321 32.832 27.3397 32.832 28.0893L32.832 30.9804C32.832 31.73 32.2241 32.3376 31.4741 32.3376L28.8396 32.3376C28.0896 32.3376 27.4817 31.73 27.4817 30.9804L27.4817 28.0893C27.4817 27.3397 28.0896 26.7321 28.8396 26.7321Z" fill="#FF0000"/>
<path id="Vector_23" d="M75.5076 26.7975L78.142 26.7975C78.892 26.7975 79.5 27.4052 79.5 28.1548L79.5 31.0458C79.5 31.7954 78.892 32.4031 78.142 32.4031L75.5076 32.4031C74.7576 32.4031 74.1496 31.7954 74.1496 31.0458L74.1496 28.1548C74.1496 27.4052 74.7576 26.7975 75.5076 26.7975Z" fill="#FF0000"/>
<path id="Vector_24" d="M62.1756 46.6666L64.81 46.6666C65.56 46.6666 66.168 47.2743 66.168 48.0239L66.168 50.9149C66.168 51.6645 65.56 52.2722 64.81 52.2722L62.1756 52.2722C61.4256 52.2722 60.8176 51.6645 60.8176 50.9149L60.8176 48.0239C60.8176 47.2743 61.4256 46.6666 62.1756 46.6666Z" fill="#FF0000"/>
<path id="Vector_25" d="M62.1756 53.2679L64.81 53.2679C65.56 53.2679 66.168 53.8756 66.168 54.6252L66.168 57.5162C66.168 58.2659 65.56 58.8735 64.81 58.8735L62.1756 58.8735C61.4256 58.8735 60.8176 58.2659 60.8176 57.5162L60.8176 54.6252C60.8176 53.8756 61.4256 53.2679 62.1756 53.2679Z" fill="#FF0000"/>
<path id="Vector_26" d="M75.5076 40.0654L78.142 40.0654C78.892 40.0654 79.5 40.6731 79.5 41.4227L79.5 44.3137C79.5 45.0633 78.892 45.671 78.142 45.671L75.5076 45.671C74.7576 45.671 74.1496 45.0633 74.1496 44.3137L74.1496 41.4227C74.1496 40.6731 74.7576 40.0654 75.5076 40.0654Z" fill="#FF0000"/>
<path id="Vector_27" d="M35.5076 26.7321L38.142 26.7321C38.892 26.7321 39.5 27.3397 39.5 28.0893L39.5 30.9804C39.5 31.73 38.892 32.3376 38.142 32.3376L35.5076 32.3376C34.7576 32.3376 34.1496 31.73 34.1496 30.9804L34.1496 28.0893C34.1496 27.3397 34.7576 26.7321 35.5076 26.7321Z" fill="#FF0000"/>
<path id="Vector_28" d="M2.17556 46.6666L4.81001 46.6666C5.55999 46.6666 6.16797 47.2743 6.16797 48.0239L6.16797 50.9149C6.16797 51.6645 5.55999 52.2722 4.81001 52.2722L2.17556 52.2722C1.42558 52.2722 0.817596 51.6645 0.817596 50.9149L0.817596 48.0239C0.817596 47.2743 1.42558 46.6666 2.17556 46.6666Z" fill="#FF0000"/>
<path id="Vector_29" d="M2.17556 19.9346L4.81001 19.9346C5.55999 19.9346 6.16797 20.5422 6.16797 21.2919L6.16797 24.1829C6.16797 24.9325 5.55999 25.5402 4.81001 25.5402L2.17556 25.5402C1.42558 25.5402 0.817596 24.9325 0.817596 24.1829L0.817596 21.2919C0.817596 20.5422 1.42558 19.9346 2.17556 19.9346Z" fill="#FF0000"/>
<path id="Vector_30" d="M48.8396 26.7321L51.4741 26.7321C52.2241 26.7321 52.832 27.3397 52.832 28.0893L52.832 30.9804C52.832 31.73 52.2241 32.3376 51.4741 32.3376L48.8396 32.3376C48.0896 32.3376 47.4817 31.73 47.4817 30.9804L47.4817 28.0893C47.4817 27.3397 48.0896 26.7321 48.8396 26.7321Z" fill="#FF0000"/>
<path id="Vector_31" d="M15.5076 26.7321L18.142 26.7321C18.892 26.7321 19.5 27.3397 19.5 28.0893L19.5 30.9804C19.5 31.73 18.892 32.3376 18.142 32.3376L15.5076 32.3376C14.7576 32.3376 14.1496 31.73 14.1496 30.9804L14.1496 28.0893C14.1496 27.3397 14.7576 26.7321 15.5076 26.7321Z" fill="#FF0000"/>
<path id="Vector_32" d="M15.5076 46.6666L18.142 46.6666C18.892 46.6666 19.5 47.2743 19.5 48.0239L19.5 50.9149C19.5 51.6645 18.892 52.2722 18.142 52.2722L15.5076 52.2722C14.7576 52.2722 14.1496 51.6645 14.1496 50.9149L14.1496 48.0239C14.1496 47.2743 14.7576 46.6666 15.5076 46.6666Z" fill="#FF0000"/>
<path id="Vector_33" d="M15.5076 53.2679L18.142 53.2679C18.892 53.2679 19.5 53.8756 19.5 54.6252L19.5 57.5162C19.5 58.2659 18.892 58.8735 18.142 58.8735L15.5076 58.8735C14.7576 58.8735 14.1496 58.2659 14.1496 57.5162L14.1496 54.6252C14.1496 53.8756 14.7576 53.2679 15.5076 53.2679Z" fill="#FF0000"/>
<path id="Vector_34" d="M62.1756 40.0654L64.81 40.0654C65.56 40.0654 66.168 40.6731 66.168 41.4227L66.168 44.3137C66.168 45.0633 65.56 45.671 64.81 45.671L62.1756 45.671C61.4256 45.671 60.8176 45.0633 60.8176 44.3137L60.8176 41.4227C60.8176 40.6731 61.4256 40.0654 62.1756 40.0654Z" fill="#FF0000"/>
<path id="Vector_35" d="M28.8396 40.0654L31.4741 40.0654C32.2241 40.0654 32.832 40.6731 32.832 41.4227L32.832 44.3137C32.832 45.0633 32.2241 45.671 31.4741 45.671L28.8396 45.671C28.0896 45.671 27.4817 45.0633 27.4817 44.3137L27.4817 41.4227C27.4817 40.6731 28.0896 40.0654 28.8396 40.0654Z" fill="#FF0000"/>
<path id="Vector_36" d="M28.8826 46.6666L31.517 46.6666C32.267 46.6666 32.875 47.2743 32.875 48.0239L32.875 50.9149C32.875 51.6645 32.267 52.2722 31.517 52.2722L28.8826 52.2722C28.1326 52.2722 27.5246 51.6645 27.5246 50.9149L27.5246 48.0239C27.5246 47.2743 28.1326 46.6666 28.8826 46.6666Z" fill="#FF0000"/>
<path id="Vector_37" d="M68.8396 26.7321L71.4741 26.7321C72.2241 26.7321 72.832 27.3397 72.832 28.0893L72.832 30.9804C72.832 31.73 72.2241 32.3376 71.4741 32.3376L68.8396 32.3376C68.0896 32.3376 67.4817 31.73 67.4817 30.9804L67.4817 28.0893C67.4817 27.3397 68.0896 26.7321 68.8396 26.7321Z" fill="#FF0000"/>
<path id="Vector_38" d="M75.5076 46.6666L78.142 46.6666C78.892 46.6666 79.5 47.2743 79.5 48.0239L79.5 50.9149C79.5 51.6645 78.892 52.2722 78.142 52.2722L75.5076 52.2722C74.7576 52.2722 74.1496 51.6645 74.1496 50.9149L74.1496 48.0239C74.1496 47.2743 74.7576 46.6666 75.5076 46.6666Z" fill="#FF0000"/>
<path id="Vector_39" d="M28.8396 13.3988L31.4741 13.3988C32.2241 13.3988 32.832 14.0065 32.832 14.7561L32.832 17.6471C32.832 18.3967 32.2241 19.0044 31.4741 19.0044L28.8396 19.0044C28.0896 19.0044 27.4817 18.3967 27.4817 17.6471L27.4817 14.7561C27.4817 14.0065 28.0896 13.3988 28.8396 13.3988Z" fill="#FF0000"/>
<path id="Vector_40" d="M28.8396 66.6012L31.4741 66.6012C32.2241 66.6012 32.832 67.2089 32.832 67.9585L32.832 70.8495C32.832 71.5991 32.2241 72.2068 31.4741 72.2068L28.8396 72.2068C28.0896 72.2068 27.4817 71.5991 27.4817 70.8495L27.4817 67.9585C27.4817 67.2089 28.0896 66.6012 28.8396 66.6012Z" fill="#FF0000"/>
<path id="Vector_41" d="M35.5076 40.0654L38.142 40.0654C38.892 40.0654 39.5 40.6731 39.5 41.4227L39.5 44.3137C39.5 45.0633 38.892 45.671 38.142 45.671L35.5076 45.671C34.7576 45.671 34.1496 45.0633 34.1496 44.3137L34.1496 41.4227C34.1496 40.6731 34.7576 40.0654 35.5076 40.0654Z" fill="#FF0000"/>
<path id="Vector_42" d="M35.5506 46.6666L38.185 46.6666C38.935 46.6666 39.543 47.2743 39.543 48.0239L39.543 50.9149C39.543 51.6645 38.935 52.2722 38.185 52.2722L35.5506 52.2722C34.8006 52.2722 34.1926 51.6645 34.1926 50.9149L34.1926 48.0239C34.1926 47.2743 34.8006 46.6666 35.5506 46.6666Z" fill="#FF0000"/>
<path id="Vector_43" d="M35.5076 13.3988L38.142 13.3988C38.892 13.3988 39.5 14.0065 39.5 14.7561L39.5 17.6471C39.5 18.3967 38.892 19.0044 38.142 19.0044L35.5076 19.0044C34.7576 19.0044 34.1496 18.3967 34.1496 17.6471L34.1496 14.7561C34.1496 14.0065 34.7576 13.3988 35.5076 13.3988Z" fill="#FF0000"/>
<path id="Vector_44" d="M35.5076 66.6012L38.142 66.6012C38.892 66.6012 39.5 67.2089 39.5 67.9585L39.5 70.8495C39.5 71.5991 38.892 72.2068 38.142 72.2068L35.5076 72.2068C34.7576 72.2068 34.1496 71.5991 34.1496 70.8495L34.1496 67.9585C34.1496 67.2089 34.7576 66.6012 35.5076 66.6012Z" fill="#FF0000"/>
<path id="Vector_45" d="M2.17556 33.2679L4.81001 33.2679C5.55999 33.2679 6.16797 33.8756 6.16797 34.6252L6.16797 37.5162C6.16797 38.2659 5.55999 38.8735 4.81001 38.8735L2.17556 38.8735C1.42558 38.8735 0.817596 38.2659 0.817596 37.5162L0.817596 34.6252C0.817596 33.8756 1.42558 33.2679 2.17556 33.2679Z" fill="#FF0000"/>
<path id="Vector_46" d="M48.8396 40.0654L51.4741 40.0654C52.2241 40.0654 52.832 40.6731 52.832 41.4227L52.832 44.3137C52.832 45.0633 52.2241 45.671 51.4741 45.671L48.8396 45.671C48.0896 45.671 47.4817 45.0633 47.4817 44.3137L47.4817 41.4227C47.4817 40.6731 48.0896 40.0654 48.8396 40.0654Z" fill="#FF0000"/>
<path id="Vector_47" d="M48.8826 46.6666L51.517 46.6666C52.267 46.6666 52.875 47.2743 52.875 48.0239L52.875 50.9149C52.875 51.6645 52.267 52.2722 51.517 52.2722L48.8826 52.2722C48.1326 52.2722 47.5246 51.6645 47.5246 50.9149L47.5246 48.0239C47.5246 47.2743 48.1326 46.6666 48.8826 46.6666Z" fill="#FF0000"/>
<path id="Vector_48" d="M15.5076 40.0654L18.142 40.0654C18.892 40.0654 19.5 40.6731 19.5 41.4227L19.5 44.3137C19.5 45.0633 18.892 45.671 18.142 45.671L15.5076 45.671C14.7576 45.671 14.1496 45.0633 14.1496 44.3137L14.1496 41.4227C14.1496 40.6731 14.7576 40.0654 15.5076 40.0654Z" fill="#FF0000"/>
<path id="Vector_49" d="M48.8396 13.3988L51.4741 13.3988C52.2241 13.3988 52.832 14.0065 52.832 14.7561L52.832 17.6471C52.832 18.3967 52.2241 19.0044 51.4741 19.0044L48.8396 19.0044C48.0896 19.0044 47.4817 18.3967 47.4817 17.6471L47.4817 14.7561C47.4817 14.0065 48.0896 13.3988 48.8396 13.3988Z" fill="#FF0000"/>
<path id="Vector_50" d="M48.8396 66.6012L51.4741 66.6012C52.2241 66.6012 52.832 67.2089 52.832 67.9585L52.832 70.8495C52.832 71.5991 52.2241 72.2068 51.4741 72.2068L48.8396 72.2068C48.0896 72.2068 47.4817 71.5991 47.4817 70.8495L47.4817 67.9585C47.4817 67.2089 48.0896 66.6012 48.8396 66.6012Z" fill="#FF0000"/>
<path id="Vector_51" d="M55.4646 20.1217L58.0991 20.1217C58.8491 20.1217 59.457 20.7294 59.457 21.479L59.457 24.37C59.457 25.1196 58.8491 25.7273 58.0991 25.7273L55.4646 25.7273C54.7146 25.7273 54.1067 25.1196 54.1067 24.37L54.1067 21.479C54.1067 20.7294 54.7146 20.1217 55.4646 20.1217Z" fill="#FF0000"/>
<path id="Vector_52" d="M22.1326 20.1217L24.767 20.1217C25.517 20.1217 26.125 20.7294 26.125 21.479L26.125 24.37C26.125 25.1196 25.517 25.7273 24.767 25.7273L22.1326 25.7273C21.3826 25.7273 20.7746 25.1196 20.7746 24.37L20.7746 21.479C20.7746 20.7294 21.3826 20.1217 22.1326 20.1217Z" fill="#FF0000"/>
<path id="Vector_53" d="M42.1326 20.1217L44.767 20.1217C45.517 20.1217 46.125 20.7294 46.125 21.479L46.125 24.37C46.125 25.1196 45.517 25.7273 44.767 25.7273L42.1326 25.7273C41.3826 25.7273 40.7746 25.1196 40.7746 24.37L40.7746 21.479C40.7746 20.7294 41.3826 20.1217 42.1326 20.1217Z" fill="#FF0000"/>
<path id="Vector_54" d="M42.1326 0.12207L44.767 0.12207C45.517 0.12207 46.125 0.729748 46.125 1.47936L46.125 4.37038C46.125 5.11998 45.517 5.72766 44.767 5.72766L42.1326 5.72766C41.3826 5.72766 40.7746 5.11998 40.7746 4.37037L40.7746 1.47936C40.7746 0.729747 41.3826 0.12207 42.1326 0.12207Z" fill="#FF0000"/>
<path id="Vector_55" d="M8.80056 20.1217L11.435 20.1217C12.185 20.1217 12.793 20.7294 12.793 21.479L12.793 24.37C12.793 25.1196 12.185 25.7273 11.435 25.7273L8.80056 25.7273C8.05058 25.7273 7.4426 25.1196 7.4426 24.37L7.4426 21.479C7.4426 20.7294 8.05058 20.1217 8.80056 20.1217Z" fill="#FF0000"/>
<path id="Vector_56" d="M55.4646 33.4551L58.0991 33.4551C58.8491 33.4551 59.457 34.0628 59.457 34.8124L59.457 37.7034C59.457 38.453 58.8491 39.0607 58.0991 39.0607L55.4646 39.0607C54.7146 39.0607 54.1067 38.453 54.1067 37.7034L54.1067 34.8124C54.1067 34.0628 54.7146 33.4551 55.4646 33.4551Z" fill="#FF0000"/>
<path id="Vector_57" d="M22.1326 33.4551L24.767 33.4551C25.517 33.4551 26.125 34.0628 26.125 34.8124L26.125 37.7034C26.125 38.453 25.517 39.0607 24.767 39.0607L22.1326 39.0607C21.3826 39.0607 20.7746 38.453 20.7746 37.7034L20.7746 34.8124C20.7746 34.0628 21.3826 33.4551 22.1326 33.4551Z" fill="#FF0000"/>
<path id="Vector_58" d="M55.4646 59.9912L58.0991 59.9912C58.8491 59.9912 59.457 60.5989 59.457 61.3485L59.457 64.2395C59.457 64.9891 58.8491 65.5968 58.0991 65.5968L55.4646 65.5968C54.7146 65.5968 54.1067 64.9891 54.1067 64.2395L54.1067 61.3485C54.1067 60.5989 54.7146 59.9912 55.4646 59.9912Z" fill="#FF0000"/>
<path id="Vector_59" d="M62.1756 59.9346L64.81 59.9346C65.56 59.9346 66.168 60.5422 66.168 61.2919L66.168 64.1829C66.168 64.9325 65.56 65.5402 64.81 65.5402L62.1756 65.5402C61.4256 65.5402 60.8176 64.9325 60.8176 64.1829L60.8176 61.2919C60.8176 60.5422 61.4256 59.9346 62.1756 59.9346Z" fill="#FF0000"/>
<path id="Vector_60" d="M22.1326 59.9912L24.767 59.9912C25.517 59.9912 26.125 60.5989 26.125 61.3485L26.125 64.2395C26.125 64.9891 25.517 65.5968 24.767 65.5968L22.1326 65.5968C21.3826 65.5968 20.7746 64.9891 20.7746 64.2395L20.7746 61.3485C20.7746 60.5989 21.3826 59.9912 22.1326 59.9912Z" fill="#FF0000"/>
<path id="Vector_61" d="M15.5076 59.9346L18.142 59.9346C18.892 59.9346 19.5 60.5422 19.5 61.2919L19.5 64.1829C19.5 64.9325 18.892 65.5402 18.142 65.5402L15.5076 65.5402C14.7576 65.5402 14.1496 64.9325 14.1496 64.1829L14.1496 61.2919C14.1496 60.5422 14.7576 59.9346 15.5076 59.9346Z" fill="#FF0000"/>
<path id="Vector_62" d="M68.8006 46.6666L71.435 46.6666C72.185 46.6666 72.793 47.2743 72.793 48.0239L72.793 50.9149C72.793 51.6645 72.185 52.2722 71.435 52.2722L68.8006 52.2722C68.0506 52.2722 67.4426 51.6645 67.4426 50.9149L67.4426 48.0239C67.4426 47.2743 68.0506 46.6666 68.8006 46.6666Z" fill="#FF0000"/>
<path id="Vector_63" d="M42.1326 33.4551L44.767 33.4551C45.517 33.4551 46.125 34.0628 46.125 34.8124L46.125 37.7034C46.125 38.453 45.517 39.0607 44.767 39.0607L42.1326 39.0607C41.3826 39.0607 40.7746 38.453 40.7746 37.7034L40.7746 34.8124C40.7746 34.0628 41.3826 33.4551 42.1326 33.4551Z" fill="#FF0000"/>
<path id="Vector_64" d="M8.80056 33.4551L11.435 33.4551C12.185 33.4551 12.793 34.0628 12.793 34.8124L12.793 37.7034C12.793 38.453 12.185 39.0607 11.435 39.0607L8.80056 39.0607C8.05058 39.0607 7.4426 38.453 7.4426 37.7034L7.4426 34.8124C7.4426 34.0628 8.05058 33.4551 8.80056 33.4551Z" fill="#FF0000"/>
<path id="Vector_65" d="M42.1326 6.78845L44.767 6.78845C45.517 6.78845 46.125 7.39613 46.125 8.14574L46.125 11.0368C46.125 11.7864 45.517 12.394 44.767 12.394L42.1326 12.394C41.3826 12.394 40.7746 11.7864 40.7746 11.0368L40.7746 8.14574C40.7746 7.39613 41.3826 6.78845 42.1326 6.78845Z" fill="#FF0000"/>
<path id="Vector_66" d="M42.1326 59.9912L44.767 59.9912C45.517 59.9912 46.125 60.5989 46.125 61.3485L46.125 64.2395C46.125 64.9891 45.517 65.5968 44.767 65.5968L42.1326 65.5968C41.3826 65.5968 40.7746 64.9891 40.7746 64.2395L40.7746 61.3485C40.7746 60.5989 41.3826 59.9912 42.1326 59.9912Z" fill="#FF0000"/>
<path id="Vector_67" d="M68.8006 53.4554L71.435 53.4554C72.185 53.4554 72.793 54.0631 72.793 54.8127L72.793 57.7037C72.793 58.4534 72.185 59.061 71.435 59.061L68.8006 59.061C68.0506 59.061 67.4426 58.4534 67.4426 57.7037L67.4426 54.8127C67.4426 54.0631 68.0506 53.4554 68.8006 53.4554Z" fill="#FF0000"/>
<path id="Vector_68" d="M42.1326 26.8541L44.767 26.8541C45.517 26.8541 46.125 27.4618 46.125 28.2114L46.125 31.1024C46.125 31.852 45.517 32.4597 44.767 32.4597L42.1326 32.4597C41.3826 32.4597 40.7746 31.852 40.7746 31.1024L40.7746 28.2114C40.7746 27.4618 41.3826 26.8541 42.1326 26.8541Z" fill="#FF0000"/>
<path id="Vector_69" d="M8.80056 26.8541L11.435 26.8541C12.185 26.8541 12.793 27.4618 12.793 28.2114L12.793 31.1024C12.793 31.852 12.185 32.4597 11.435 32.4597L8.80056 32.4597C8.05058 32.4597 7.4426 31.852 7.4426 31.1024L7.4426 28.2114C7.4426 27.4618 8.05058 26.8541 8.80056 26.8541Z" fill="#FF0000"/>
<path id="Vector_70" d="M8.80056 46.7887L11.435 46.7887C12.185 46.7887 12.793 47.3964 12.793 48.146L12.793 51.037C12.793 51.7866 12.185 52.3943 11.435 52.3943L8.80056 52.3943C8.05058 52.3943 7.4426 51.7866 7.4426 51.037L7.4426 48.146C7.4426 47.3964 8.05058 46.7887 8.80056 46.7887Z" fill="#FF0000"/>
<path id="Vector_71" d="M8.80056 53.39L11.435 53.39C12.185 53.39 12.793 53.9977 12.793 54.7473L12.793 57.6383C12.793 58.3879 12.185 58.9956 11.435 58.9956L8.80056 58.9956C8.05058 58.9956 7.4426 58.3879 7.4426 57.6383L7.4426 54.7473C7.4426 53.9977 8.05058 53.39 8.80056 53.39Z" fill="#FF0000"/>
<path id="Vector_72" d="M55.4646 40.1875L58.0991 40.1875C58.8491 40.1875 59.457 40.7952 59.457 41.5448L59.457 44.4358C59.457 45.1854 58.8491 45.7931 58.0991 45.7931L55.4646 45.7931C54.7146 45.7931 54.1067 45.1854 54.1067 44.4358L54.1067 41.5448C54.1067 40.7952 54.7146 40.1875 55.4646 40.1875Z" fill="#FF0000"/>
<path id="Vector_73" d="M55.5076 46.7887L58.142 46.7887C58.892 46.7887 59.5 47.3964 59.5 48.146L59.5 51.037C59.5 51.7866 58.892 52.3943 58.142 52.3943L55.5076 52.3943C54.7576 52.3943 54.1496 51.7866 54.1496 51.037L54.1496 48.146C54.1496 47.3964 54.7576 46.7887 55.5076 46.7887Z" fill="#FF0000"/>
<path id="Vector_74" d="M22.1326 40.1875L24.767 40.1875C25.517 40.1875 26.125 40.7952 26.125 41.5448L26.125 44.4358C26.125 45.1854 25.517 45.7931 24.767 45.7931L22.1326 45.7931C21.3826 45.7931 20.7746 45.1854 20.7746 44.4358L20.7746 41.5448C20.7746 40.7952 21.3826 40.1875 22.1326 40.1875Z" fill="#FF0000"/>
<path id="Vector_75" d="M22.1756 46.7887L24.81 46.7887C25.56 46.7887 26.168 47.3964 26.168 48.146L26.168 51.037C26.168 51.7866 25.56 52.3943 24.81 52.3943L22.1756 52.3943C21.4256 52.3943 20.8176 51.7866 20.8176 51.037L20.8176 48.146C20.8176 47.3964 21.4256 46.7887 22.1756 46.7887Z" fill="#FF0000"/>
<path id="Vector_76" d="M55.4646 13.5209L58.0991 13.5209C58.8491 13.5209 59.457 14.1286 59.457 14.8782L59.457 17.7692C59.457 18.5188 58.8491 19.1265 58.0991 19.1265L55.4646 19.1265C54.7146 19.1265 54.1067 18.5188 54.1067 17.7692L54.1067 14.8782C54.1067 14.1286 54.7146 13.5209 55.4646 13.5209Z" fill="#FF0000"/>
<path id="Vector_77" d="M62.1756 13.3334L64.81 13.3334C65.56 13.3334 66.168 13.9411 66.168 14.6907L66.168 17.5817C66.168 18.3313 65.56 18.939 64.81 18.939L62.1756 18.939C61.4256 18.939 60.8176 18.3313 60.8176 17.5817L60.8176 14.6907C60.8176 13.9411 61.4256 13.3334 62.1756 13.3334Z" fill="#FF0000"/>
<path id="Vector_78" d="M68.8396 13.3334L71.4741 13.3334C72.2241 13.3334 72.832 13.9411 72.832 14.6907L72.832 17.5817C72.832 18.3313 72.2241 18.939 71.4741 18.939L68.8396 18.939C68.0896 18.939 67.4817 18.3313 67.4817 17.5817L67.4817 14.6907C67.4817 13.9411 68.0896 13.3334 68.8396 13.3334Z" fill="#FF0000"/>
<path id="Vector_79" d="M55.5076 6.66663L58.142 6.66663C58.892 6.66663 59.5 7.2743 59.5 8.02391L59.5 10.9149C59.5 11.6645 58.892 12.2722 58.142 12.2722L55.5076 12.2722C54.7576 12.2722 54.1496 11.6645 54.1496 10.9149L54.1496 8.02391C54.1496 7.2743 54.7576 6.66663 55.5076 6.66663Z" fill="#FF0000"/>
<path id="Vector_80" d="M62.1756 6.66663L64.81 6.66663C65.56 6.66663 66.168 7.2743 66.168 8.02391L66.168 10.9149C66.168 11.6645 65.56 12.2722 64.81 12.2722L62.1756 12.2722C61.4256 12.2722 60.8176 11.6645 60.8176 10.9149L60.8176 8.02391C60.8176 7.2743 61.4256 6.66663 62.1756 6.66663Z" fill="#FF0000"/>
<path id="Vector_81" d="M55.4646 66.7233L58.0991 66.7233C58.8491 66.7233 59.457 67.3309 59.457 68.0806L59.457 70.9716C59.457 71.7212 58.8491 72.3289 58.0991 72.3289L55.4646 72.3289C54.7146 72.3289 54.1067 71.7212 54.1067 70.9716L54.1067 68.0806C54.1067 67.3309 54.7146 66.7233 55.4646 66.7233Z" fill="#FF0000"/>
<path id="Vector_82" d="M22.1326 13.5209L24.767 13.5209C25.517 13.5209 26.125 14.1286 26.125 14.8782L26.125 17.7692C26.125 18.5188 25.517 19.1265 24.767 19.1265L22.1326 19.1265C21.3826 19.1265 20.7746 18.5188 20.7746 17.7692L20.7746 14.8782C20.7746 14.1286 21.3826 13.5209 22.1326 13.5209Z" fill="#FF0000"/>
<path id="Vector_83" d="M22.1756 6.66663L24.81 6.66663C25.56 6.66663 26.168 7.2743 26.168 8.02391L26.168 10.9149C26.168 11.6645 25.56 12.2722 24.81 12.2722L22.1756 12.2722C21.4256 12.2722 20.8176 11.6645 20.8176 10.9149L20.8176 8.02391C20.8176 7.2743 21.4256 6.66663 22.1756 6.66663Z" fill="#FF0000"/>
<path id="Vector_84" d="M15.5076 6.66663L18.142 6.66663C18.892 6.66663 19.5 7.2743 19.5 8.02391L19.5 10.9149C19.5 11.6645 18.892 12.2722 18.142 12.2722L15.5076 12.2722C14.7576 12.2722 14.1496 11.6645 14.1496 10.9149L14.1496 8.02391C14.1496 7.2743 14.7576 6.66663 15.5076 6.66663Z" fill="#FF0000"/>
<path id="Vector_85" d="M15.5076 13.3334L18.142 13.3334C18.892 13.3334 19.5 13.9411 19.5 14.6907L19.5 17.5817C19.5 18.3313 18.892 18.939 18.142 18.939L15.5076 18.939C14.7576 18.939 14.1496 18.3313 14.1496 17.5817L14.1496 14.6907C14.1496 13.9411 14.7576 13.3334 15.5076 13.3334Z" fill="#FF0000"/>
<path id="Vector_86" d="M8.83963 13.3334L11.4741 13.3334C12.2241 13.3334 12.832 13.9411 12.832 14.6907L12.832 17.5817C12.832 18.3313 12.2241 18.939 11.4741 18.939L8.83963 18.939C8.08965 18.939 7.48167 18.3313 7.48167 17.5817L7.48167 14.6907C7.48167 13.9411 8.08965 13.3334 8.83963 13.3334Z" fill="#FF0000"/>
<path id="Vector_87" d="M22.1326 66.7233L24.767 66.7233C25.517 66.7233 26.125 67.3309 26.125 68.0806L26.125 70.9716C26.125 71.7212 25.517 72.3289 24.767 72.3289L22.1326 72.3289C21.3826 72.3289 20.7746 71.7212 20.7746 70.9716L20.7746 68.0806C20.7746 67.3309 21.3826 66.7233 22.1326 66.7233Z" fill="#FF0000"/>
<path id="Vector_88" d="M42.1326 40.1875L44.767 40.1875C45.517 40.1875 46.125 40.7952 46.125 41.5448L46.125 44.4358C46.125 45.1854 45.517 45.7931 44.767 45.7931L42.1326 45.7931C41.3826 45.7931 40.7746 45.1854 40.7746 44.4358L40.7746 41.5448C40.7746 40.7952 41.3826 40.1875 42.1326 40.1875Z" fill="#FF0000"/>
<path id="Vector_89" d="M42.1756 46.7887L44.81 46.7887C45.56 46.7887 46.168 47.3964 46.168 48.146L46.168 51.037C46.168 51.7866 45.56 52.3943 44.81 52.3943L42.1756 52.3943C41.4256 52.3943 40.8176 51.7866 40.8176 51.037L40.8176 48.146C40.8176 47.3964 41.4256 46.7887 42.1756 46.7887Z" fill="#FF0000"/>
<path id="Vector_90" d="M8.80056 40.1875L11.435 40.1875C12.185 40.1875 12.793 40.7952 12.793 41.5448L12.793 44.4358C12.793 45.1854 12.185 45.7931 11.435 45.7931L8.80056 45.7931C8.05058 45.7931 7.4426 45.1854 7.4426 44.4358L7.4426 41.5448C7.4426 40.7952 8.05058 40.1875 8.80056 40.1875Z" fill="#FF0000"/>
<path id="Vector_91" d="M42.1326 13.5209L44.767 13.5209C45.517 13.5209 46.125 14.1286 46.125 14.8782L46.125 17.7692C46.125 18.5188 45.517 19.1265 44.767 19.1265L42.1326 19.1265C41.3826 19.1265 40.7746 18.5188 40.7746 17.7692L40.7746 14.8782C40.7746 14.1286 41.3826 13.5209 42.1326 13.5209Z" fill="#FF0000"/>
<path id="Vector_92" d="M42.1326 66.7233L44.767 66.7233C45.517 66.7233 46.125 67.3309 46.125 68.0806L46.125 70.9716C46.125 71.7212 45.517 72.3289 44.767 72.3289L42.1326 72.3289C41.3826 72.3289 40.7746 71.7212 40.7746 70.9716L40.7746 68.0806C40.7746 67.3309 41.3826 66.7233 42.1326 66.7233Z" fill="#FF0000"/>
</g>
</svg>
