<svg width="45" height="42" viewBox="0 0 45 42" fill="none" xmlns="http://www.w3.org/2000/svg">
<g id="Frame 427320307">
<path id="Vector" d="M5.99573 19.5H4.51385C4.09199 19.5 3.75 19.8418 3.75 20.2635V21.8897C3.75 22.3113 4.09199 22.6531 4.51385 22.6531H5.99573C6.41759 22.6531 6.75958 22.3113 6.75958 21.8897V20.2635C6.75958 19.8418 6.41759 19.5 5.99573 19.5Z" fill="current"/>
<path id="Vector_2" d="M2.24573 12.0366H0.763853C0.341989 12.0366 0 12.3784 0 12.8001V14.4263C0 14.8479 0.341989 15.1898 0.763853 15.1898H2.24573C2.66759 15.1898 3.00958 14.8479 3.00958 14.4263V12.8001C3.00958 12.3784 2.66759 12.0366 2.24573 12.0366Z" fill="current"/>
<path id="Vector_3" d="M24.7457 12H23.2639C22.842 12 22.5 12.3418 22.5 12.7635V14.3897C22.5 14.8113 22.842 15.1531 23.2639 15.1531H24.7457C25.1676 15.1531 25.5096 14.8113 25.5096 14.3897V12.7635C25.5096 12.3418 25.1676 12 24.7457 12Z" fill="current"/>
<path id="Vector_4" d="M24.7457 0.75H23.2639C22.842 0.75 22.5 1.09182 22.5 1.51347V3.13967C22.5 3.56133 22.842 3.90314 23.2639 3.90314H24.7457C25.1676 3.90314 25.5096 3.56133 25.5096 3.13967V1.51347C25.5096 1.09182 25.1676 0.75 24.7457 0.75Z" fill="current"/>
<path id="Vector_5" d="M43.4957 23.2134H42.0139C41.592 23.2134 41.25 23.5552 41.25 23.9769V25.6031C41.25 26.0247 41.592 26.3665 42.0139 26.3665H43.4957C43.9176 26.3665 44.2596 26.0247 44.2596 25.6031V23.9769C44.2596 23.5552 43.9176 23.2134 43.4957 23.2134Z" fill="current"/>
<path id="Vector_6" d="M17.2457 0.75H15.7639C15.342 0.75 15 1.09182 15 1.51347V3.13967C15 3.56133 15.342 3.90314 15.7639 3.90314H17.2457C17.6676 3.90314 18.0096 3.56133 18.0096 3.13967V1.51347C18.0096 1.09182 17.6676 0.75 17.2457 0.75Z" fill="current"/>
<path id="Vector_7" d="M13.4957 0.75H12.0139C11.592 0.75 11.25 1.09182 11.25 1.51347V3.13967C11.25 3.56133 11.592 3.90314 12.0139 3.90314H13.4957C13.9176 3.90314 14.2596 3.56133 14.2596 3.13967V1.51347C14.2596 1.09182 13.9176 0.75 13.4957 0.75Z" fill="current"/>
<path id="Vector_8" d="M28.4957 0.75H27.0139C26.592 0.75 26.25 1.09182 26.25 1.51347V3.13967C26.25 3.56133 26.592 3.90314 27.0139 3.90314H28.4957C28.9176 3.90314 29.2596 3.56133 29.2596 3.13967V1.51347C29.2596 1.09182 28.9176 0.75 28.4957 0.75Z" fill="current"/>
<path id="Vector_9" d="M32.2457 0.75H30.7639C30.342 0.75 30 1.09182 30 1.51347V3.13967C30 3.56133 30.342 3.90314 30.7639 3.90314H32.2457C32.6676 3.90314 33.0096 3.56133 33.0096 3.13967V1.51347C33.0096 1.09182 32.6676 0.75 32.2457 0.75Z" fill="current"/>
<path id="Vector_10" d="M2.24573 19.5366H0.763853C0.341989 19.5366 0 19.8784 0 20.3001V21.9263C0 22.3479 0.341989 22.6898 0.763853 22.6898H2.24573C2.66759 22.6898 3.00958 22.3479 3.00958 21.9263V20.3001C3.00958 19.8784 2.66759 19.5366 2.24573 19.5366Z" fill="current"/>
<path id="Vector_11" d="M5.99573 12H4.51385C4.09199 12 3.75 12.3418 3.75 12.7635V14.3897C3.75 14.8113 4.09199 15.1531 4.51385 15.1531H5.99573C6.41759 15.1531 6.75958 14.8113 6.75958 14.3897V12.7635C6.75958 12.3418 6.41759 12 5.99573 12Z" fill="current"/>
<path id="Vector_12" d="M28.4957 4.5H27.0139C26.592 4.5 26.25 4.84182 26.25 5.26347V6.88967C26.25 7.31133 26.592 7.65314 27.0139 7.65314H28.4957C28.9176 7.65314 29.2596 7.31133 29.2596 6.88967V5.26347C29.2596 4.84182 28.9176 4.5 28.4957 4.5Z" fill="current"/>
<path id="Vector_13" d="M28.4957 34.4263H27.0139C26.592 34.4263 26.25 34.7681 26.25 35.1897V36.8159C26.25 37.2376 26.592 37.5794 27.0139 37.5794H28.4957C28.9176 37.5794 29.2596 37.2376 29.2596 36.8159V35.1897C29.2596 34.7681 28.9176 34.4263 28.4957 34.4263Z" fill="current"/>
<path id="Vector_14" d="M24.7457 19.5H23.2639C22.842 19.5 22.5 19.8418 22.5 20.2635V21.8897C22.5 22.3113 22.842 22.6531 23.2639 22.6531H24.7457C25.1676 22.6531 25.5096 22.3113 25.5096 21.8897V20.2635C25.5096 19.8418 25.1676 19.5 24.7457 19.5Z" fill="current"/>
<path id="Vector_15" d="M24.7457 4.5H23.2639C22.842 4.5 22.5 4.84182 22.5 5.26347V6.88967C22.5 7.31133 22.842 7.65314 23.2639 7.65314H24.7457C25.1676 7.65314 25.5096 7.31133 25.5096 6.88967V5.26347C25.5096 4.84182 25.1676 4.5 24.7457 4.5Z" fill="current"/>
<path id="Vector_16" d="M24.7457 34.4263H23.2639C22.842 34.4263 22.5 34.7681 22.5 35.1897V36.8159C22.5 37.2376 22.842 37.5794 23.2639 37.5794H24.7457C25.1676 37.5794 25.5096 37.2376 25.5096 36.8159V35.1897C25.5096 34.7681 25.1676 34.4263 24.7457 34.4263Z" fill="current"/>
<path id="Vector_17" d="M43.4957 15.6763H42.0139C41.592 15.6763 41.25 16.0181 41.25 16.4397V18.0659C41.25 18.4876 41.592 18.8294 42.0139 18.8294H43.4957C43.9176 18.8294 44.2596 18.4876 44.2596 18.0659V16.4397C44.2596 16.0181 43.9176 15.6763 43.4957 15.6763Z" fill="current"/>
<path id="Vector_18" d="M17.2457 4.5H15.7639C15.342 4.5 15 4.84182 15 5.26347V6.88967C15 7.31133 15.342 7.65314 15.7639 7.65314H17.2457C17.6676 7.65314 18.0096 7.31133 18.0096 6.88967V5.26347C18.0096 4.84182 17.6676 4.5 17.2457 4.5Z" fill="current"/>
<path id="Vector_19" d="M17.2457 34.4263H15.7639C15.342 34.4263 15 34.7681 15 35.1897V36.8159C15 37.2376 15.342 37.5794 15.7639 37.5794H17.2457C17.6676 37.5794 18.0096 37.2376 18.0096 36.8159V35.1897C18.0096 34.7681 17.6676 34.4263 17.2457 34.4263Z" fill="current"/>
<path id="Vector_20" d="M9.74573 15.7866H8.26385C7.84199 15.7866 7.5 16.1284 7.5 16.5501V18.1763C7.5 18.5979 7.84199 18.9398 8.26385 18.9398H9.74573C10.1676 18.9398 10.5096 18.5979 10.5096 18.1763V16.5501C10.5096 16.1284 10.1676 15.7866 9.74573 15.7866Z" fill="current"/>
<path id="Vector_21" d="M5.99573 23.2866H4.51385C4.09199 23.2866 3.75 23.6284 3.75 24.0501V25.6763C3.75 26.0979 4.09199 26.4398 4.51385 26.4398H5.99573C6.41759 26.4398 6.75958 26.0979 6.75958 25.6763V24.0501C6.75958 23.6284 6.41759 23.2866 5.99573 23.2866Z" fill="current"/>
<path id="Vector_22" d="M28.4957 15.7866H27.0139C26.592 15.7866 26.25 16.1284 26.25 16.5501V18.1763C26.25 18.5979 26.592 18.9398 27.0139 18.9398H28.4957C28.9176 18.9398 29.2596 18.5979 29.2596 18.1763V16.5501C29.2596 16.1284 28.9176 15.7866 28.4957 15.7866Z" fill="current"/>
<path id="Vector_23" d="M2.24573 15.8237H0.763853C0.341989 15.8237 0 16.1655 0 16.5872V18.2134C0 18.6351 0.341989 18.9769 0.763853 18.9769H2.24573C2.66759 18.9769 3.00958 18.6351 3.00958 18.2134V16.5872C3.00958 16.1655 2.66759 15.8237 2.24573 15.8237Z" fill="current"/>
<path id="Vector_24" d="M9.74573 27H8.26385C7.84199 27 7.5 27.3418 7.5 27.7635V29.3897C7.5 29.8113 7.84199 30.1531 8.26385 30.1531H9.74573C10.1676 30.1531 10.5096 29.8113 10.5096 29.3897V27.7635C10.5096 27.3418 10.1676 27 9.74573 27Z" fill="current"/>
<path id="Vector_25" d="M9.74573 30.7134H8.26385C7.84199 30.7134 7.5 31.0552 7.5 31.4769V33.1031C7.5 33.5247 7.84199 33.8665 8.26385 33.8665H9.74573C10.1676 33.8665 10.5096 33.5247 10.5096 33.1031V31.4769C10.5096 31.0552 10.1676 30.7134 9.74573 30.7134Z" fill="current"/>
<path id="Vector_26" d="M2.24573 23.2866H0.763853C0.341989 23.2866 0 23.6284 0 24.0501V25.6763C0 26.0979 0.341989 26.4398 0.763853 26.4398H2.24573C2.66759 26.4398 3.00958 26.0979 3.00958 25.6763V24.0501C3.00958 23.6284 2.66759 23.2866 2.24573 23.2866Z" fill="current"/>
<path id="Vector_27" d="M24.7457 15.7866H23.2639C22.842 15.7866 22.5 16.1284 22.5 16.5501V18.1763C22.5 18.5979 22.842 18.9398 23.2639 18.9398H24.7457C25.1676 18.9398 25.5096 18.5979 25.5096 18.1763V16.5501C25.5096 16.1284 25.1676 15.7866 24.7457 15.7866Z" fill="current"/>
<path id="Vector_28" d="M43.4957 27H42.0139C41.592 27 41.25 27.3418 41.25 27.7635V29.3897C41.25 29.8113 41.592 30.1531 42.0139 30.1531H43.4957C43.9176 30.1531 44.2596 29.8113 44.2596 29.3897V27.7635C44.2596 27.3418 43.9176 27 43.4957 27Z" fill="current"/>
<path id="Vector_29" d="M43.4957 11.9634H42.0139C41.592 11.9634 41.25 12.3052 41.25 12.7269V14.3531C41.25 14.7747 41.592 15.1165 42.0139 15.1165H43.4957C43.9176 15.1165 44.2596 14.7747 44.2596 14.3531V12.7269C44.2596 12.3052 43.9176 11.9634 43.4957 11.9634Z" fill="current"/>
<path id="Vector_30" d="M17.2457 15.7866H15.7639C15.342 15.7866 15 16.1284 15 16.5501V18.1763C15 18.5979 15.342 18.9398 15.7639 18.9398H17.2457C17.6676 18.9398 18.0096 18.5979 18.0096 18.1763V16.5501C18.0096 16.1284 17.6676 15.7866 17.2457 15.7866Z" fill="current"/>
<path id="Vector_31" d="M35.9957 15.7866H34.5139C34.092 15.7866 33.75 16.1284 33.75 16.5501V18.1763C33.75 18.5979 34.092 18.9398 34.5139 18.9398H35.9957C36.4176 18.9398 36.7596 18.5979 36.7596 18.1763V16.5501C36.7596 16.1284 36.4176 15.7866 35.9957 15.7866Z" fill="current"/>
<path id="Vector_32" d="M35.9957 27H34.5139C34.092 27 33.75 27.3418 33.75 27.7635V29.3897C33.75 29.8113 34.092 30.1531 34.5139 30.1531H35.9957C36.4176 30.1531 36.7596 29.8113 36.7596 29.3897V27.7635C36.7596 27.3418 36.4176 27 35.9957 27Z" fill="current"/>
<path id="Vector_33" d="M35.9957 30.7134H34.5139C34.092 30.7134 33.75 31.0552 33.75 31.4769V33.1031C33.75 33.5247 34.092 33.8665 34.5139 33.8665H35.9957C36.4176 33.8665 36.7596 33.5247 36.7596 33.1031V31.4769C36.7596 31.0552 36.4176 30.7134 35.9957 30.7134Z" fill="current"/>
<path id="Vector_34" d="M9.74573 23.2866H8.26385C7.84199 23.2866 7.5 23.6284 7.5 24.0501V25.6763C7.5 26.0979 7.84199 26.4398 8.26385 26.4398H9.74573C10.1676 26.4398 10.5096 26.0979 10.5096 25.6763V24.0501C10.5096 23.6284 10.1676 23.2866 9.74573 23.2866Z" fill="current"/>
<path id="Vector_35" d="M28.4957 23.2866H27.0139C26.592 23.2866 26.25 23.6284 26.25 24.0501V25.6763C26.25 26.0979 26.592 26.4398 27.0139 26.4398H28.4957C28.9176 26.4398 29.2596 26.0979 29.2596 25.6763V24.0501C29.2596 23.6284 28.9176 23.2866 28.4957 23.2866Z" fill="current"/>
<path id="Vector_36" d="M28.4723 27H26.9904C26.5686 27 26.2266 27.3418 26.2266 27.7635V29.3897C26.2266 29.8113 26.5686 30.1531 26.9904 30.1531H28.4723C28.8942 30.1531 29.2361 29.8113 29.2361 29.3897V27.7635C29.2361 27.3418 28.8942 27 28.4723 27Z" fill="current"/>
<path id="Vector_37" d="M5.99573 15.7866H4.51385C4.09199 15.7866 3.75 16.1284 3.75 16.5501V18.1763C3.75 18.5979 4.09199 18.9398 4.51385 18.9398H5.99573C6.41759 18.9398 6.75958 18.5979 6.75958 18.1763V16.5501C6.75958 16.1284 6.41759 15.7866 5.99573 15.7866Z" fill="current"/>
<path id="Vector_38" d="M2.24573 27H0.763853C0.341989 27 0 27.3418 0 27.7635V29.3897C0 29.8113 0.341989 30.1531 0.763853 30.1531H2.24573C2.66759 30.1531 3.00958 29.8113 3.00958 29.3897V27.7635C3.00958 27.3418 2.66759 27 2.24573 27Z" fill="current"/>
<path id="Vector_39" d="M28.4957 8.28662H27.0139C26.592 8.28662 26.25 8.62844 26.25 9.05009V10.6763C26.25 11.0979 26.592 11.4398 27.0139 11.4398H28.4957C28.9176 11.4398 29.2596 11.0979 29.2596 10.6763V9.05009C29.2596 8.62844 28.9176 8.28662 28.4957 8.28662Z" fill="current"/>
<path id="Vector_40" d="M28.4957 38.2134H27.0139C26.592 38.2134 26.25 38.5552 26.25 38.9769V40.6031C26.25 41.0247 26.592 41.3665 27.0139 41.3665H28.4957C28.9176 41.3665 29.2596 41.0247 29.2596 40.6031V38.9769C29.2596 38.5552 28.9176 38.2134 28.4957 38.2134Z" fill="current"/>
<path id="Vector_41" d="M24.7457 23.2866H23.2639C22.842 23.2866 22.5 23.6284 22.5 24.0501V25.6763C22.5 26.0979 22.842 26.4398 23.2639 26.4398H24.7457C25.1676 26.4398 25.5096 26.0979 25.5096 25.6763V24.0501C25.5096 23.6284 25.1676 23.2866 24.7457 23.2866Z" fill="current"/>
<path id="Vector_42" d="M24.7223 27H23.2404C22.8186 27 22.4766 27.3418 22.4766 27.7635V29.3897C22.4766 29.8113 22.8186 30.1531 23.2404 30.1531H24.7223C25.1442 30.1531 25.4861 29.8113 25.4861 29.3897V27.7635C25.4861 27.3418 25.1442 27 24.7223 27Z" fill="current"/>
<path id="Vector_43" d="M24.7457 8.28662H23.2639C22.842 8.28662 22.5 8.62844 22.5 9.05009V10.6763C22.5 11.0979 22.842 11.4398 23.2639 11.4398H24.7457C25.1676 11.4398 25.5096 11.0979 25.5096 10.6763V9.05009C25.5096 8.62844 25.1676 8.28662 24.7457 8.28662Z" fill="current"/>
<path id="Vector_44" d="M24.7457 38.2134H23.2639C22.842 38.2134 22.5 38.5552 22.5 38.9769V40.6031C22.5 41.0247 22.842 41.3665 23.2639 41.3665H24.7457C25.1676 41.3665 25.5096 41.0247 25.5096 40.6031V38.9769C25.5096 38.5552 25.1676 38.2134 24.7457 38.2134Z" fill="current"/>
<path id="Vector_45" d="M43.4957 19.4634H42.0139C41.592 19.4634 41.25 19.8052 41.25 20.2269V21.8531C41.25 22.2747 41.592 22.6165 42.0139 22.6165H43.4957C43.9176 22.6165 44.2596 22.2747 44.2596 21.8531V20.2269C44.2596 19.8052 43.9176 19.4634 43.4957 19.4634Z" fill="current"/>
<path id="Vector_46" d="M17.2457 23.2866H15.7639C15.342 23.2866 15 23.6284 15 24.0501V25.6763C15 26.0979 15.342 26.4398 15.7639 26.4398H17.2457C17.6676 26.4398 18.0096 26.0979 18.0096 25.6763V24.0501C18.0096 23.6284 17.6676 23.2866 17.2457 23.2866Z" fill="current"/>
<path id="Vector_47" d="M17.2223 27H15.7404C15.3186 27 14.9766 27.3418 14.9766 27.7635V29.3897C14.9766 29.8113 15.3186 30.1531 15.7404 30.1531H17.2223C17.6442 30.1531 17.9861 29.8113 17.9861 29.3897V27.7635C17.9861 27.3418 17.6442 27 17.2223 27Z" fill="current"/>
<path id="Vector_48" d="M35.9957 23.2866H34.5139C34.092 23.2866 33.75 23.6284 33.75 24.0501V25.6763C33.75 26.0979 34.092 26.4398 34.5139 26.4398H35.9957C36.4176 26.4398 36.7596 26.0979 36.7596 25.6763V24.0501C36.7596 23.6284 36.4176 23.2866 35.9957 23.2866Z" fill="current"/>
<path id="Vector_49" d="M17.2457 8.28662H15.7639C15.342 8.28662 15 8.62844 15 9.05009V10.6763C15 11.0979 15.342 11.4398 15.7639 11.4398H17.2457C17.6676 11.4398 18.0096 11.0979 18.0096 10.6763V9.05009C18.0096 8.62844 17.6676 8.28662 17.2457 8.28662Z" fill="current"/>
<path id="Vector_50" d="M17.2457 38.2134H15.7639C15.342 38.2134 15 38.5552 15 38.9769V40.6031C15 41.0247 15.342 41.3665 15.7639 41.3665H17.2457C17.6676 41.3665 18.0096 41.0247 18.0096 40.6031V38.9769C18.0096 38.5552 17.6676 38.2134 17.2457 38.2134Z" fill="current"/>
<path id="Vector_51" d="M13.5192 12.0684H12.0373C11.6154 12.0684 11.2734 12.4102 11.2734 12.8318V14.458C11.2734 14.8797 11.6154 15.2215 12.0373 15.2215H13.5192C13.941 15.2215 14.283 14.8797 14.283 14.458V12.8318C14.283 12.4102 13.941 12.0684 13.5192 12.0684Z" fill="current"/>
<path id="Vector_52" d="M32.2692 12.0684H30.7873C30.3654 12.0684 30.0234 12.4102 30.0234 12.8318V14.458C30.0234 14.8797 30.3654 15.2215 30.7873 15.2215H32.2692C32.691 15.2215 33.033 14.8797 33.033 14.458V12.8318C33.033 12.4102 32.691 12.0684 32.2692 12.0684Z" fill="current"/>
<path id="Vector_53" d="M21.0192 12.0684H19.5373C19.1154 12.0684 18.7734 12.4102 18.7734 12.8318V14.458C18.7734 14.8797 19.1154 15.2215 19.5373 15.2215H21.0192C21.441 15.2215 21.783 14.8797 21.783 14.458V12.8318C21.783 12.4102 21.441 12.0684 21.0192 12.0684Z" fill="current"/>
<path id="Vector_54" d="M21.0192 0.818848H19.5373C19.1154 0.818848 18.7734 1.16067 18.7734 1.58232V3.20852C18.7734 3.63017 19.1154 3.97199 19.5373 3.97199H21.0192C21.441 3.97199 21.783 3.63017 21.783 3.20852V1.58232C21.783 1.16067 21.441 0.818848 21.0192 0.818848Z" fill="current"/>
<path id="Vector_55" d="M39.7692 12.0684H38.2873C37.8654 12.0684 37.5234 12.4102 37.5234 12.8318V14.458C37.5234 14.8797 37.8654 15.2215 38.2873 15.2215H39.7692C40.191 15.2215 40.533 14.8797 40.533 14.458V12.8318C40.533 12.4102 40.191 12.0684 39.7692 12.0684Z" fill="current"/>
<path id="Vector_56" d="M13.5192 19.5684H12.0373C11.6154 19.5684 11.2734 19.9102 11.2734 20.3318V21.958C11.2734 22.3797 11.6154 22.7215 12.0373 22.7215H13.5192C13.941 22.7215 14.283 22.3797 14.283 21.958V20.3318C14.283 19.9102 13.941 19.5684 13.5192 19.5684Z" fill="current"/>
<path id="Vector_57" d="M32.2692 19.5684H30.7873C30.3654 19.5684 30.0234 19.9102 30.0234 20.3318V21.958C30.0234 22.3797 30.3654 22.7215 30.7873 22.7215H32.2692C32.691 22.7215 33.033 22.3797 33.033 21.958V20.3318C33.033 19.9102 32.691 19.5684 32.2692 19.5684Z" fill="current"/>
<path id="Vector_58" d="M13.5192 34.4951H12.0373C11.6154 34.4951 11.2734 34.8369 11.2734 35.2586V36.8848C11.2734 37.3064 11.6154 37.6483 12.0373 37.6483H13.5192C13.941 37.6483 14.283 37.3064 14.283 36.8848V35.2586C14.283 34.8369 13.941 34.4951 13.5192 34.4951Z" fill="current"/>
<path id="Vector_59" d="M9.74573 34.4634H8.26385C7.84199 34.4634 7.5 34.8052 7.5 35.2269V36.8531C7.5 37.2747 7.84199 37.6165 8.26385 37.6165H9.74573C10.1676 37.6165 10.5096 37.2747 10.5096 36.8531V35.2269C10.5096 34.8052 10.1676 34.4634 9.74573 34.4634Z" fill="current"/>
<path id="Vector_60" d="M32.2692 34.4951H30.7873C30.3654 34.4951 30.0234 34.8369 30.0234 35.2586V36.8848C30.0234 37.3064 30.3654 37.6483 30.7873 37.6483H32.2692C32.691 37.6483 33.033 37.3064 33.033 36.8848V35.2586C33.033 34.8369 32.691 34.4951 32.2692 34.4951Z" fill="current"/>
<path id="Vector_61" d="M35.9957 34.4634H34.5139C34.092 34.4634 33.75 34.8052 33.75 35.2269V36.8531C33.75 37.2747 34.092 37.6165 34.5139 37.6165H35.9957C36.4176 37.6165 36.7596 37.2747 36.7596 36.8531V35.2269C36.7596 34.8052 36.4176 34.4634 35.9957 34.4634Z" fill="current"/>
<path id="Vector_62" d="M6.01917 27H4.53729C4.11543 27 3.77344 27.3418 3.77344 27.7635V29.3897C3.77344 29.8113 4.11543 30.1531 4.53729 30.1531H6.01917C6.44103 30.1531 6.78302 29.8113 6.78302 29.3897V27.7635C6.78302 27.3418 6.44103 27 6.01917 27Z" fill="current"/>
<path id="Vector_63" d="M21.0192 19.5684H19.5373C19.1154 19.5684 18.7734 19.9102 18.7734 20.3318V21.958C18.7734 22.3797 19.1154 22.7215 19.5373 22.7215H21.0192C21.441 22.7215 21.783 22.3797 21.783 21.958V20.3318C21.783 19.9102 21.441 19.5684 21.0192 19.5684Z" fill="current"/>
<path id="Vector_64" d="M39.7692 19.5684H38.2873C37.8654 19.5684 37.5234 19.9102 37.5234 20.3318V21.958C37.5234 22.3797 37.8654 22.7215 38.2873 22.7215H39.7692C40.191 22.7215 40.533 22.3797 40.533 21.958V20.3318C40.533 19.9102 40.191 19.5684 39.7692 19.5684Z" fill="current"/>
<path id="Vector_65" d="M21.0192 4.56836H19.5373C19.1154 4.56836 18.7734 4.91018 18.7734 5.33183V6.95803C18.7734 7.37969 19.1154 7.7215 19.5373 7.7215H21.0192C21.441 7.7215 21.783 7.37969 21.783 6.95803V5.33183C21.783 4.91018 21.441 4.56836 21.0192 4.56836Z" fill="current"/>
<path id="Vector_66" d="M21.0192 34.4951H19.5373C19.1154 34.4951 18.7734 34.8369 18.7734 35.2586V36.8848C18.7734 37.3064 19.1154 37.6483 19.5373 37.6483H21.0192C21.441 37.6483 21.783 37.3064 21.783 36.8848V35.2586C21.783 34.8369 21.441 34.4951 21.0192 34.4951Z" fill="current"/>
<path id="Vector_67" d="M6.01917 30.8188H4.53729C4.11543 30.8188 3.77344 31.1607 3.77344 31.5823V33.2085C3.77344 33.6302 4.11543 33.972 4.53729 33.972H6.01917C6.44103 33.972 6.78302 33.6302 6.78302 33.2085V31.5823C6.78302 31.1607 6.44103 30.8188 6.01917 30.8188Z" fill="current"/>
<path id="Vector_68" d="M21.0192 15.8555H19.5373C19.1154 15.8555 18.7734 16.1973 18.7734 16.6189V18.2451C18.7734 18.6668 19.1154 19.0086 19.5373 19.0086H21.0192C21.441 19.0086 21.783 18.6668 21.783 18.2451V16.6189C21.783 16.1973 21.441 15.8555 21.0192 15.8555Z" fill="current"/>
<path id="Vector_69" d="M39.7692 15.8555H38.2873C37.8654 15.8555 37.5234 16.1973 37.5234 16.6189V18.2451C37.5234 18.6668 37.8654 19.0086 38.2873 19.0086H39.7692C40.191 19.0086 40.533 18.6668 40.533 18.2451V16.6189C40.533 16.1973 40.191 15.8555 39.7692 15.8555Z" fill="current"/>
<path id="Vector_70" d="M39.7692 27.0688H38.2873C37.8654 27.0688 37.5234 27.4107 37.5234 27.8323V29.4585C37.5234 29.8802 37.8654 30.222 38.2873 30.222H39.7692C40.191 30.222 40.533 29.8802 40.533 29.4585V27.8323C40.533 27.4107 40.191 27.0688 39.7692 27.0688Z" fill="current"/>
<path id="Vector_71" d="M39.7692 30.7817H38.2873C37.8654 30.7817 37.5234 31.1236 37.5234 31.5452V33.1714C37.5234 33.5931 37.8654 33.9349 38.2873 33.9349H39.7692C40.191 33.9349 40.533 33.5931 40.533 33.1714V31.5452C40.533 31.1236 40.191 30.7817 39.7692 30.7817Z" fill="current"/>
<path id="Vector_72" d="M13.5192 23.3555H12.0373C11.6154 23.3555 11.2734 23.6973 11.2734 24.1189V25.7451C11.2734 26.1668 11.6154 26.5086 12.0373 26.5086H13.5192C13.941 26.5086 14.283 26.1668 14.283 25.7451V24.1189C14.283 23.6973 13.941 23.3555 13.5192 23.3555Z" fill="current"/>
<path id="Vector_73" d="M13.4957 27.0688H12.0139C11.592 27.0688 11.25 27.4107 11.25 27.8323V29.4585C11.25 29.8802 11.592 30.222 12.0139 30.222H13.4957C13.9176 30.222 14.2596 29.8802 14.2596 29.4585V27.8323C14.2596 27.4107 13.9176 27.0688 13.4957 27.0688Z" fill="current"/>
<path id="Vector_74" d="M32.2692 23.3555H30.7873C30.3654 23.3555 30.0234 23.6973 30.0234 24.1189V25.7451C30.0234 26.1668 30.3654 26.5086 30.7873 26.5086H32.2692C32.691 26.5086 33.033 26.1668 33.033 25.7451V24.1189C33.033 23.6973 32.691 23.3555 32.2692 23.3555Z" fill="current"/>
<path id="Vector_75" d="M32.2457 27.0688H30.7639C30.342 27.0688 30 27.4107 30 27.8323V29.4585C30 29.8802 30.342 30.222 30.7639 30.222H32.2457C32.6676 30.222 33.0096 29.8802 33.0096 29.4585V27.8323C33.0096 27.4107 32.6676 27.0688 32.2457 27.0688Z" fill="current"/>
<path id="Vector_76" d="M13.5192 8.35547H12.0373C11.6154 8.35547 11.2734 8.69729 11.2734 9.11894V10.7451C11.2734 11.1668 11.6154 11.5086 12.0373 11.5086H13.5192C13.941 11.5086 14.283 11.1668 14.283 10.7451V9.11894C14.283 8.69729 13.941 8.35547 13.5192 8.35547Z" fill="current"/>
<path id="Vector_77" d="M9.74573 8.25H8.26385C7.84199 8.25 7.5 8.59182 7.5 9.01347V10.6397C7.5 11.0613 7.84199 11.4031 8.26385 11.4031H9.74573C10.1676 11.4031 10.5096 11.0613 10.5096 10.6397V9.01347C10.5096 8.59182 10.1676 8.25 9.74573 8.25Z" fill="current"/>
<path id="Vector_78" d="M5.99573 8.25H4.51385C4.09199 8.25 3.75 8.59182 3.75 9.01347V10.6397C3.75 11.0613 4.09199 11.4031 4.51385 11.4031H5.99573C6.41759 11.4031 6.75958 11.0613 6.75958 10.6397V9.01347C6.75958 8.59182 6.41759 8.25 5.99573 8.25Z" fill="current"/>
<path id="Vector_79" d="M13.4957 4.5H12.0139C11.592 4.5 11.25 4.84182 11.25 5.26347V6.88967C11.25 7.31133 11.592 7.65314 12.0139 7.65314H13.4957C13.9176 7.65314 14.2596 7.31133 14.2596 6.88967V5.26347C14.2596 4.84182 13.9176 4.5 13.4957 4.5Z" fill="current"/>
<path id="Vector_80" d="M9.74573 4.5H8.26385C7.84199 4.5 7.5 4.84182 7.5 5.26347V6.88967C7.5 7.31133 7.84199 7.65314 8.26385 7.65314H9.74573C10.1676 7.65314 10.5096 7.31133 10.5096 6.88967V5.26347C10.5096 4.84182 10.1676 4.5 9.74573 4.5Z" fill="current"/>
<path id="Vector_81" d="M13.5192 38.2817H12.0373C11.6154 38.2817 11.2734 38.6236 11.2734 39.0452V40.6714C11.2734 41.0931 11.6154 41.4349 12.0373 41.4349H13.5192C13.941 41.4349 14.283 41.0931 14.283 40.6714V39.0452C14.283 38.6236 13.941 38.2817 13.5192 38.2817Z" fill="current"/>
<path id="Vector_82" d="M32.2692 8.35547H30.7873C30.3654 8.35547 30.0234 8.69729 30.0234 9.11894V10.7451C30.0234 11.1668 30.3654 11.5086 30.7873 11.5086H32.2692C32.691 11.5086 33.033 11.1668 33.033 10.7451V9.11894C33.033 8.69729 32.691 8.35547 32.2692 8.35547Z" fill="current"/>
<path id="Vector_83" d="M32.2457 4.5H30.7639C30.342 4.5 30 4.84182 30 5.26347V6.88967C30 7.31133 30.342 7.65314 30.7639 7.65314H32.2457C32.6676 7.65314 33.0096 7.31133 33.0096 6.88967V5.26347C33.0096 4.84182 32.6676 4.5 32.2457 4.5Z" fill="current"/>
<path id="Vector_84" d="M35.9957 4.5H34.5139C34.092 4.5 33.75 4.84182 33.75 5.26347V6.88967C33.75 7.31133 34.092 7.65314 34.5139 7.65314H35.9957C36.4176 7.65314 36.7596 7.31133 36.7596 6.88967V5.26347C36.7596 4.84182 36.4176 4.5 35.9957 4.5Z" fill="current"/>
<path id="Vector_85" d="M35.9957 8.25H34.5139C34.092 8.25 33.75 8.59182 33.75 9.01347V10.6397C33.75 11.0613 34.092 11.4031 34.5139 11.4031H35.9957C36.4176 11.4031 36.7596 11.0613 36.7596 10.6397V9.01347C36.7596 8.59182 36.4176 8.25 35.9957 8.25Z" fill="current"/>
<path id="Vector_86" d="M39.7457 8.25H38.2639C37.842 8.25 37.5 8.59182 37.5 9.01347V10.6397C37.5 11.0613 37.842 11.4031 38.2639 11.4031H39.7457C40.1676 11.4031 40.5096 11.0613 40.5096 10.6397V9.01347C40.5096 8.59182 40.1676 8.25 39.7457 8.25Z" fill="current"/>
<path id="Vector_87" d="M32.2692 38.2817H30.7873C30.3654 38.2817 30.0234 38.6236 30.0234 39.0452V40.6714C30.0234 41.0931 30.3654 41.4349 30.7873 41.4349H32.2692C32.691 41.4349 33.033 41.0931 33.033 40.6714V39.0452C33.033 38.6236 32.691 38.2817 32.2692 38.2817Z" fill="current"/>
<path id="Vector_88" d="M21.0192 23.3555H19.5373C19.1154 23.3555 18.7734 23.6973 18.7734 24.1189V25.7451C18.7734 26.1668 19.1154 26.5086 19.5373 26.5086H21.0192C21.441 26.5086 21.783 26.1668 21.783 25.7451V24.1189C21.783 23.6973 21.441 23.3555 21.0192 23.3555Z" fill="current"/>
<path id="Vector_89" d="M20.9957 27.0688H19.5139C19.092 27.0688 18.75 27.4107 18.75 27.8323V29.4585C18.75 29.8802 19.092 30.222 19.5139 30.222H20.9957C21.4176 30.222 21.7596 29.8802 21.7596 29.4585V27.8323C21.7596 27.4107 21.4176 27.0688 20.9957 27.0688Z" fill="current"/>
<path id="Vector_90" d="M39.7692 23.3555H38.2873C37.8654 23.3555 37.5234 23.6973 37.5234 24.1189V25.7451C37.5234 26.1668 37.8654 26.5086 38.2873 26.5086H39.7692C40.191 26.5086 40.533 26.1668 40.533 25.7451V24.1189C40.533 23.6973 40.191 23.3555 39.7692 23.3555Z" fill="current"/>
<path id="Vector_91" d="M21.0192 8.35547H19.5373C19.1154 8.35547 18.7734 8.69729 18.7734 9.11894V10.7451C18.7734 11.1668 19.1154 11.5086 19.5373 11.5086H21.0192C21.441 11.5086 21.783 11.1668 21.783 10.7451V9.11894C21.783 8.69729 21.441 8.35547 21.0192 8.35547Z" fill="current"/>
<path id="Vector_92" d="M21.0192 38.2817H19.5373C19.1154 38.2817 18.7734 38.6236 18.7734 39.0452V40.6714C18.7734 41.0931 19.1154 41.4349 19.5373 41.4349H21.0192C21.441 41.4349 21.783 41.0931 21.783 40.6714V39.0452C21.783 38.6236 21.441 38.2817 21.0192 38.2817Z" fill="current"/>
</g>
</svg>
