<svg width="60" height="60" viewBox="0 0 60 60" fill="none" xmlns="http://www.w3.org/2000/svg">
<g id="Frame 427320354">
<path id="Vector" d="M18.0064 10.2956H16.0309C15.4686 10.2956 15.0127 10.7498 15.0127 11.3101V13.4709C15.0127 14.0311 15.4686 14.4853 16.0309 14.4853H18.0064C18.5687 14.4853 19.0246 14.0311 19.0246 13.4709V11.3101C19.0246 10.7498 18.5687 10.2956 18.0064 10.2956Z" fill="current"/>
<path id="Vector_2" d="M3.00635 10.3098H1.03095C0.468581 10.3098 0.0126953 10.764 0.0126953 11.3242V13.485C0.0126953 14.0453 0.468581 14.4995 1.03095 14.4995H3.00635C3.56872 14.4995 4.0246 14.0453 4.0246 13.485V11.3242C4.0246 10.764 3.56872 10.3098 3.00635 10.3098Z" fill="current"/>
<path id="Vector_3" d="M3.00635 55.1059H1.03095C0.468581 55.1059 0.0126953 55.5601 0.0126953 56.1204V58.2812C0.0126953 58.8414 0.468581 59.2956 1.03095 59.2956H3.00635C3.56872 59.2956 4.0246 58.8414 4.0246 58.2812V56.1204C4.0246 55.5601 3.56872 55.1059 3.00635 55.1059Z" fill="current"/>
<path id="Vector_4" d="M58.0064 55.1953H56.0309C55.4686 55.1953 55.0127 55.6495 55.0127 56.2097V58.3705C55.0127 58.9308 55.4686 59.385 56.0309 59.385H58.0064C58.5687 59.385 59.0246 58.9308 59.0246 58.3705V56.2097C59.0246 55.6495 58.5687 55.1953 58.0064 55.1953Z" fill="current"/>
<path id="Vector_5" d="M18.0064 30.2956H16.0309C15.4686 30.2956 15.0127 30.7498 15.0127 31.3101V33.4709C15.0127 34.0311 15.4686 34.4853 16.0309 34.4853H18.0064C18.5687 34.4853 19.0246 34.0311 19.0246 33.4709V31.3101C19.0246 30.7498 18.5687 30.2956 18.0064 30.2956Z" fill="current"/>
<path id="Vector_6" d="M13.0037 40.2956H11.0283C10.4659 40.2956 10.01 40.7498 10.01 41.3101V43.4709C10.01 44.0311 10.4659 44.4853 11.0283 44.4853H13.0037C13.566 44.4853 14.0219 44.0311 14.0219 43.4709V41.3101C14.0219 40.7498 13.566 40.2956 13.0037 40.2956Z" fill="current"/>
<path id="Vector_7" d="M37.9981 35.1262H36.0226C35.4603 35.1262 35.0044 35.5804 35.0044 36.1406V38.3014C35.0044 38.8617 35.4603 39.3159 36.0226 39.3159H37.9981C38.5604 39.3159 39.0163 38.8617 39.0163 38.3014V36.1406C39.0163 35.5804 38.5604 35.1262 37.9981 35.1262Z" fill="current"/>
<path id="Vector_8" d="M33.0064 5.29562H31.0309C30.4686 5.29562 30.0127 5.74981 30.0127 6.31008V8.47086C30.0127 9.03113 30.4686 9.48532 31.0309 9.48532H33.0064C33.5687 9.48532 34.0246 9.03113 34.0246 8.47086V6.31008C34.0246 5.74981 33.5687 5.29562 33.0064 5.29562Z" fill="current"/>
<path id="Vector_9" d="M57.9949 10.2611H56.0195C55.4571 10.2611 55.0012 10.7153 55.0012 11.2755V13.4363C55.0012 13.9966 55.4571 14.4508 56.0195 14.4508H57.9949C58.5572 14.4508 59.0131 13.9966 59.0131 13.4363V11.2755C59.0131 10.7153 58.5572 10.2611 57.9949 10.2611Z" fill="current"/>
<path id="Vector_10" d="M23.001 10.2611H21.0256C20.4632 10.2611 20.0073 10.7153 20.0073 11.2755V13.4363C20.0073 13.9966 20.4632 14.4508 21.0256 14.4508H23.001C23.5633 14.4508 24.0192 13.9966 24.0192 13.4363V11.2755C24.0192 10.7153 23.5633 10.2611 23.001 10.2611Z" fill="current"/>
<path id="Vector_11" d="M23.0064 5.29562H21.0309C20.4686 5.29562 20.0127 5.74981 20.0127 6.31008V8.47086C20.0127 9.03113 20.4686 9.48532 21.0309 9.48532H23.0064C23.5687 9.48532 24.0246 9.03113 24.0246 8.47086V6.31008C24.0246 5.74981 23.5687 5.29562 23.0064 5.29562Z" fill="current"/>
<path id="Vector_12" d="M23.0064 15.2956H21.0309C20.4686 15.2956 20.0127 15.7498 20.0127 16.3101V18.4709C20.0127 19.0311 20.4686 19.4853 21.0309 19.4853H23.0064C23.5687 19.4853 24.0246 19.0311 24.0246 18.4709V16.3101C24.0246 15.7498 23.5687 15.2956 23.0064 15.2956Z" fill="current"/>
<path id="Vector_13" d="M47.9976 40.2956H46.0222C45.4598 40.2956 45.0039 40.7498 45.0039 41.3101V43.4709C45.0039 44.0311 45.4598 44.4853 46.0222 44.4853H47.9976C48.5599 44.4853 49.0158 44.0311 49.0158 43.4709V41.3101C49.0158 40.7498 48.5599 40.2956 47.9976 40.2956Z" fill="current"/>
<path id="Vector_14" d="M57.9751 35.2956H55.9997C55.4373 35.2956 54.9814 35.7498 54.9814 36.3101V38.4709C54.9814 39.0311 55.4373 39.4853 55.9997 39.4853H57.9751C58.5375 39.4853 58.9934 39.0311 58.9934 38.4709V36.3101C58.9934 35.7498 58.5375 35.2956 57.9751 35.2956Z" fill="current"/>
<path id="Vector_15" d="M13.0037 20.2268H11.0283C10.4659 20.2268 10.01 20.681 10.01 21.2412V23.402C10.01 23.9623 10.4659 24.4165 11.0283 24.4165H13.0037C13.566 24.4165 14.0219 23.9623 14.0219 23.402V21.2412C14.0219 20.681 13.566 20.2268 13.0037 20.2268Z" fill="current"/>
<path id="Vector_16" d="M3.00635 20.2754H1.03095C0.468581 20.2754 0.0126953 20.7295 0.0126953 21.2898V23.4506C0.0126953 24.0109 0.468581 24.4651 1.03095 24.4651H3.00635C3.56872 24.4651 4.0246 24.0109 4.0246 23.4506V21.2898C4.0246 20.7295 3.56872 20.2754 3.00635 20.2754Z" fill="current"/>
<path id="Vector_17" d="M3.00635 30.1921H1.03095C0.468581 30.1921 0.0126953 30.6463 0.0126953 31.2066V33.3673C0.0126953 33.9276 0.468581 34.3818 1.03095 34.3818H3.00635C3.56872 34.3818 4.0246 33.9276 4.0246 33.3673V31.2066C4.0246 30.6463 3.56872 30.1921 3.00635 30.1921Z" fill="current"/>
<path id="Vector_18" d="M3.00635 0.34433H1.03095C0.468581 0.34433 0.0126953 0.798516 0.0126953 1.35878V3.51957C0.0126953 4.07984 0.468581 4.53402 1.03095 4.53402H3.00635C3.56872 4.53402 4.0246 4.07984 4.0246 3.51957V1.35878C4.0246 0.798516 3.56872 0.34433 3.00635 0.34433Z" fill="current"/>
<path id="Vector_19" d="M3.00635 45.1405H1.03095C0.468581 45.1405 0.0126953 45.5947 0.0126953 46.1549V48.3157C0.0126953 48.876 0.468581 49.3302 1.03095 49.3302H3.00635C3.56872 49.3302 4.0246 48.876 4.0246 48.3157V46.1549C4.0246 45.5947 3.56872 45.1405 3.00635 45.1405Z" fill="current"/>
<path id="Vector_20" d="M58.0064 45.2298H56.0309C55.4686 45.2298 55.0127 45.684 55.0127 46.2443V48.4051C55.0127 48.9653 55.4686 49.4195 56.0309 49.4195H58.0064C58.5687 49.4195 59.0246 48.9653 59.0246 48.4051V46.2443C59.0246 45.684 58.5687 45.2298 58.0064 45.2298Z" fill="current"/>
<path id="Vector_21" d="M33.0005 20.2268H31.0251C30.4627 20.2268 30.0068 20.681 30.0068 21.2412V23.402C30.0068 23.9623 30.4627 24.4165 31.0251 24.4165H33.0005C33.5629 24.4165 34.0187 23.9623 34.0187 23.402V21.2412C34.0187 20.681 33.5629 20.2268 33.0005 20.2268Z" fill="current"/>
<path id="Vector_22" d="M57.9949 20.2268H56.0195C55.4571 20.2268 55.0012 20.681 55.0012 21.2412V23.402C55.0012 23.9623 55.4571 24.4165 56.0195 24.4165H57.9949C58.5572 24.4165 59.0131 23.9623 59.0131 23.402V21.2412C59.0131 20.681 58.5572 20.2268 57.9949 20.2268Z" fill="current"/>
<path id="Vector_23" d="M57.9949 0.295624H56.0195C55.4571 0.295624 55.0012 0.74981 55.0012 1.31008V3.47086C55.0012 4.03113 55.4571 4.48532 56.0195 4.48532H57.9949C58.5572 4.48532 59.0131 4.03113 59.0131 3.47086V1.31008C59.0131 0.74981 58.5572 0.295624 57.9949 0.295624Z" fill="current"/>
<path id="Vector_24" d="M28.0064 20.2956H26.0309C25.4686 20.2956 25.0127 20.7498 25.0127 21.3101V23.4709C25.0127 24.0311 25.4686 24.4853 26.0309 24.4853H28.0064C28.5687 24.4853 29.0246 24.0311 29.0246 23.4709V21.3101C29.0246 20.7498 28.5687 20.2956 28.0064 20.2956Z" fill="current"/>
<path id="Vector_25" d="M8.00611 25.2581H6.0307C5.46834 25.2581 5.01245 25.7123 5.01245 26.2726V28.4334C5.01245 28.9937 5.46834 29.4478 6.0307 29.4478H8.00611C8.56847 29.4478 9.02436 28.9937 9.02436 28.4334V26.2726C9.02436 25.7123 8.56847 25.2581 8.00611 25.2581Z" fill="current"/>
<path id="Vector_26" d="M37.9981 15.2924H36.0226C35.4603 15.2924 35.0044 15.7466 35.0044 16.3069V18.4677C35.0044 19.028 35.4603 19.4821 36.0226 19.4821H37.9981C38.5604 19.4821 39.0163 19.028 39.0163 18.4677V16.3069C39.0163 15.7466 38.5604 15.2924 37.9981 15.2924Z" fill="current"/>
<path id="Vector_27" d="M3.00635 15.3412H1.03095C0.468581 15.3412 0.0126953 15.7953 0.0126953 16.3556V18.5164C0.0126953 19.0767 0.468581 19.5308 1.03095 19.5308H3.00635C3.56872 19.5308 4.0246 19.0767 4.0246 18.5164V16.3556C4.0246 15.7953 3.56872 15.3412 3.00635 15.3412Z" fill="current"/>
<path id="Vector_28" d="M8.00611 5.327H6.0307C5.46834 5.327 5.01245 5.78118 5.01245 6.34145V8.50224C5.01245 9.0625 5.46834 9.51669 6.0307 9.51669H8.00611C8.56847 9.51669 9.02436 9.0625 9.02436 8.50224V6.34145C9.02436 5.78118 8.56847 5.327 8.00611 5.327Z" fill="current"/>
<path id="Vector_29" d="M3.00635 25.258H1.03095C0.468581 25.258 0.0126953 25.7122 0.0126953 26.2725V28.4333C0.0126953 28.9935 0.468581 29.4477 1.03095 29.4477H3.00635C3.56872 29.4477 4.0246 28.9935 4.0246 28.4333V26.2725C4.0246 25.7122 3.56872 25.258 3.00635 25.258Z" fill="current"/>
<path id="Vector_30" d="M3.00635 40.2063H1.03095C0.468581 40.2063 0.0126953 40.6605 0.0126953 41.2207V43.3815C0.0126953 43.9418 0.468581 44.396 1.03095 44.396H3.00635C3.56872 44.396 4.0246 43.9418 4.0246 43.3815V41.2207C4.0246 40.6605 3.56872 40.2063 3.00635 40.2063Z" fill="current"/>
<path id="Vector_31" d="M53.0064 40.2063H51.0309C50.4686 40.2063 50.0127 40.6605 50.0127 41.2207V43.3815C50.0127 43.9418 50.4686 44.396 51.0309 44.396H53.0064C53.5687 44.396 54.0246 43.9418 54.0246 43.3815V41.2207C54.0246 40.6605 53.5687 40.2063 53.0064 40.2063Z" fill="current"/>
<path id="Vector_32" d="M8.00635 40.2956H6.03095C5.46858 40.2956 5.0127 40.7498 5.0127 41.3101V43.4709C5.0127 44.0311 5.46858 44.4853 6.03095 44.4853H8.00635C8.56872 44.4853 9.0246 44.0311 9.0246 43.4709V41.3101C9.0246 40.7498 8.56872 40.2956 8.00635 40.2956Z" fill="current"/>
<path id="Vector_33" d="M58.0064 40.2956H56.0309C55.4686 40.2956 55.0127 40.7498 55.0127 41.3101V43.4709C55.0127 44.0311 55.4686 44.4853 56.0309 44.4853H58.0064C58.5687 44.4853 59.0246 44.0311 59.0246 43.4709V41.3101C59.0246 40.7498 58.5687 40.2956 58.0064 40.2956Z" fill="current"/>
<path id="Vector_34" d="M57.9949 15.2924H56.0195C55.4571 15.2924 55.0012 15.7466 55.0012 16.3069V18.4677C55.0012 19.028 55.4571 19.4821 56.0195 19.4821H57.9949C58.5572 19.4821 59.0131 19.028 59.0131 18.4677V16.3069C59.0131 15.7466 58.5572 15.2924 57.9949 15.2924Z" fill="current"/>
<path id="Vector_35" d="M48.0064 20.2956H46.0309C45.4686 20.2956 45.0127 20.7498 45.0127 21.3101V23.4709C45.0127 24.0311 45.4686 24.4853 46.0309 24.4853H48.0064C48.5687 24.4853 49.0246 24.0311 49.0246 23.4709V21.3101C49.0246 20.7498 48.5687 20.2956 48.0064 20.2956Z" fill="current"/>
<path id="Vector_36" d="M38.0064 30.2956H36.0309C35.4686 30.2956 35.0127 30.7498 35.0127 31.3101V33.4709C35.0127 34.0311 35.4686 34.4853 36.0309 34.4853H38.0064C38.5687 34.4853 39.0246 34.0311 39.0246 33.4709V31.3101C39.0246 30.7498 38.5687 30.2956 38.0064 30.2956Z" fill="current"/>
<path id="Vector_37" d="M13.0037 5.327H11.0283C10.4659 5.327 10.01 5.78118 10.01 6.34145V8.50224C10.01 9.0625 10.4659 9.51669 11.0283 9.51669H13.0037C13.566 9.51669 14.0219 9.0625 14.0219 8.50224V6.34145C14.0219 5.78118 13.566 5.327 13.0037 5.327Z" fill="current"/>
<path id="Vector_38" d="M8.00635 20.2956H6.03095C5.46858 20.2956 5.0127 20.7498 5.0127 21.3101V23.4709C5.0127 24.0311 5.46858 24.4853 6.03095 24.4853H8.00635C8.56872 24.4853 9.0246 24.0311 9.0246 23.4709V21.3101C9.0246 20.7498 8.56872 20.2956 8.00635 20.2956Z" fill="current"/>
<path id="Vector_39" d="M3.00635 35.2236H1.03095C0.468581 35.2236 0.0126953 35.6778 0.0126953 36.2381V38.3988C0.0126953 38.9591 0.468581 39.4133 1.03095 39.4133H3.00635C3.56872 39.4133 4.0246 38.9591 4.0246 38.3988V36.2381C4.0246 35.6778 3.56872 35.2236 3.00635 35.2236Z" fill="current"/>
<path id="Vector_40" d="M37.9981 5.327H36.0226C35.4603 5.327 35.0044 5.78118 35.0044 6.34145V8.50224C35.0044 9.0625 35.4603 9.51669 36.0226 9.51669H37.9981C38.5604 9.51669 39.0163 9.0625 39.0163 8.50224V6.34145C39.0163 5.78118 38.5604 5.327 37.9981 5.327Z" fill="current"/>
<path id="Vector_41" d="M38.0064 10.2956H36.0309C35.4686 10.2956 35.0127 10.7498 35.0127 11.3101V13.4709C35.0127 14.0311 35.4686 14.4853 36.0309 14.4853H38.0064C38.5687 14.4853 39.0246 14.0311 39.0246 13.4709V11.3101C39.0246 10.7498 38.5687 10.2956 38.0064 10.2956Z" fill="current"/>
<path id="Vector_42" d="M3.00635 5.3757H1.03095C0.468581 5.3757 0.0126953 5.82989 0.0126953 6.39016V8.55094C0.0126953 9.11121 0.468581 9.56539 1.03095 9.56539H3.00635C3.56872 9.56539 4.0246 9.11121 4.0246 8.55094V6.39016C4.0246 5.82989 3.56872 5.3757 3.00635 5.3757Z" fill="current"/>
<path id="Vector_43" d="M3.00635 50.1718H1.03095C0.468581 50.1718 0.0126953 50.626 0.0126953 51.1863V53.3471C0.0126953 53.9074 0.468581 54.3615 1.03095 54.3615H3.00635C3.56872 54.3615 4.0246 53.9074 4.0246 53.3471V51.1863C4.0246 50.626 3.56872 50.1718 3.00635 50.1718Z" fill="current"/>
<path id="Vector_44" d="M58.0064 50.2612H56.0309C55.4686 50.2612 55.0127 50.7154 55.0127 51.2757V53.4364C55.0127 53.9967 55.4686 54.4509 56.0309 54.4509H58.0064C58.5687 54.4509 59.0246 53.9967 59.0246 53.4364V51.2757C59.0246 50.7154 58.5687 50.2612 58.0064 50.2612Z" fill="current"/>
<path id="Vector_45" d="M33.0059 40.4651H31.0305C30.4681 40.4651 30.0122 40.9192 30.0122 41.4795V43.6403C30.0122 44.2006 30.4681 44.6547 31.0305 44.6547H33.0059C33.5682 44.6547 34.0241 44.2006 34.0241 43.6403V41.4795C34.0241 40.9192 33.5682 40.4651 33.0059 40.4651Z" fill="current"/>
<path id="Vector_46" d="M23.0059 40.4651H21.0305C20.4681 40.4651 20.0122 40.9192 20.0122 41.4795V43.6403C20.0122 44.2006 20.4681 44.6547 21.0305 44.6547H23.0059C23.5682 44.6547 24.0241 44.2006 24.0241 43.6403V41.4795C24.0241 40.9192 23.5682 40.4651 23.0059 40.4651Z" fill="current"/>
<path id="Vector_47" d="M43.0059 40.2956H41.0305C40.4681 40.2956 40.0122 40.7498 40.0122 41.3101V43.4709C40.0122 44.0311 40.4681 44.4853 41.0305 44.4853H43.0059C43.5682 44.4853 44.0241 44.0311 44.0241 43.4709V41.3101C44.0241 40.7498 43.5682 40.2956 43.0059 40.2956Z" fill="current"/>
<path id="Vector_48" d="M57.9949 25.2581H56.0195C55.4571 25.2581 55.0012 25.7123 55.0012 26.2726V28.4334C55.0012 28.9937 55.4571 29.4478 56.0195 29.4478H57.9949C58.5572 29.4478 59.0131 28.9937 59.0131 28.4334V26.2726C59.0131 25.7123 58.5572 25.2581 57.9949 25.2581Z" fill="current"/>
<path id="Vector_49" d="M57.9949 30.1922H56.0195C55.4571 30.1922 55.0012 30.6464 55.0012 31.2067V33.3675C55.0012 33.9277 55.4571 34.3819 56.0195 34.3819H57.9949C58.5572 34.3819 59.0131 33.9277 59.0131 33.3675V31.2067C59.0131 30.6464 58.5572 30.1922 57.9949 30.1922Z" fill="current"/>
<path id="Vector_50" d="M57.9949 5.327H56.0195C55.4571 5.327 55.0012 5.78118 55.0012 6.34145V8.50224C55.0012 9.0625 55.4571 9.51669 56.0195 9.51669H57.9949C58.5572 9.51669 59.0131 9.0625 59.0131 8.50224V6.34145C59.0131 5.78118 58.5572 5.327 57.9949 5.327Z" fill="current"/>
<path id="Vector_51" d="M23.001 30.1922H21.0256C20.4632 30.1922 20.0073 30.6464 20.0073 31.2067V33.3675C20.0073 33.9277 20.4632 34.3819 21.0256 34.3819H23.001C23.5633 34.3819 24.0192 33.9277 24.0192 33.3675V31.2067C24.0192 30.6464 23.5633 30.1922 23.001 30.1922Z" fill="current"/>
<path id="Vector_52" d="M23.0064 35.2956H21.0309C20.4686 35.2956 20.0127 35.7498 20.0127 36.3101V38.4709C20.0127 39.0311 20.4686 39.4853 21.0309 39.4853H23.0064C23.5687 39.4853 24.0246 39.0311 24.0246 38.4709V36.3101C24.0246 35.7498 23.5687 35.2956 23.0064 35.2956Z" fill="current"/>
<path id="Vector_53" d="M47.9976 25.2581H46.0222C45.4598 25.2581 45.0039 25.7123 45.0039 26.2726V28.4334C45.0039 28.9937 45.4598 29.4478 46.0222 29.4478H47.9976C48.5599 29.4478 49.0158 28.9937 49.0158 28.4334V26.2726C49.0158 25.7123 48.5599 25.2581 47.9976 25.2581Z" fill="current"/>
<path id="Vector_54" d="M47.9976 5.327H46.0222C45.4598 5.327 45.0039 5.78118 45.0039 6.34145V8.50224C45.0039 9.0625 45.4598 9.51669 46.0222 9.51669H47.9976C48.5599 9.51669 49.0158 9.0625 49.0158 8.50224V6.34145C49.0158 5.78118 48.5599 5.327 47.9976 5.327Z" fill="current"/>
<path id="Vector_55" d="M43.0288 10.3521H41.0534C40.491 10.3521 40.0352 10.8063 40.0352 11.3666V13.5274C40.0352 14.0876 40.491 14.5418 41.0534 14.5418H43.0288C43.5912 14.5418 44.0471 14.0876 44.0471 13.5274V11.3666C44.0471 10.8063 43.5912 10.3521 43.0288 10.3521Z" fill="current"/>
<path id="Vector_56" d="M18.0347 35.2174H16.0593C15.4969 35.2174 15.041 35.6716 15.041 36.2318V38.3926C15.041 38.9529 15.4969 39.4071 16.0593 39.4071H18.0347C18.597 39.4071 19.0529 38.9529 19.0529 38.3926V36.2318C19.0529 35.6716 18.597 35.2174 18.0347 35.2174Z" fill="current"/>
<path id="Vector_57" d="M43.0288 30.2832H41.0534C40.491 30.2832 40.0352 30.7374 40.0352 31.2976V33.4584C40.0352 34.0187 40.491 34.4729 41.0534 34.4729H43.0288C43.5912 34.4729 44.0471 34.0187 44.0471 33.4584V31.2976C44.0471 30.7374 43.5912 30.2832 43.0288 30.2832Z" fill="current"/>
<path id="Vector_58" d="M43.0288 35.2173H41.0534C40.491 35.2173 40.0352 35.6714 40.0352 36.2317V38.3925C40.0352 38.9528 40.491 39.4069 41.0534 39.4069H43.0288C43.5912 39.4069 44.0471 38.9528 44.0471 38.3925V36.2317C44.0471 35.6714 43.5912 35.2173 43.0288 35.2173Z" fill="current"/>
<path id="Vector_59" d="M53.0064 5.29562H51.0309C50.4686 5.29562 50.0127 5.74981 50.0127 6.31008V8.47086C50.0127 9.03113 50.4686 9.48532 51.0309 9.48532H53.0064C53.5687 9.48532 54.0246 9.03113 54.0246 8.47086V6.31008C54.0246 5.74981 53.5687 5.29562 53.0064 5.29562Z" fill="current"/>
<path id="Vector_60" d="M43.0064 15.2956H41.0309C40.4686 15.2956 40.0127 15.7498 40.0127 16.3101V18.4709C40.0127 19.0311 40.4686 19.4853 41.0309 19.4853H43.0064C43.5687 19.4853 44.0246 19.0311 44.0246 18.4709V16.3101C44.0246 15.7498 43.5687 15.2956 43.0064 15.2956Z" fill="current"/>
<path id="Vector_61" d="M53.0264 20.3176H51.051C50.4886 20.3176 50.0327 20.7718 50.0327 21.332V23.4928C50.0327 24.0531 50.4886 24.5073 51.051 24.5073H53.0264C53.5887 24.5073 54.0446 24.0531 54.0446 23.4928V21.332C54.0446 20.7718 53.5887 20.3176 53.0264 20.3176Z" fill="current"/>
<path id="Vector_62" d="M18.0347 15.384H16.0593C15.4969 15.384 15.041 15.8382 15.041 16.3985V18.5592C15.041 19.1195 15.4969 19.5737 16.0593 19.5737H18.0347C18.597 19.5737 19.0529 19.1195 19.0529 18.5592V16.3985C19.0529 15.8382 18.597 15.384 18.0347 15.384Z" fill="current"/>
<path id="Vector_63" d="M33.0064 25.2956H31.0309C30.4686 25.2956 30.0127 25.7498 30.0127 26.3101V28.4709C30.0127 29.0311 30.4686 29.4853 31.0309 29.4853H33.0064C33.5687 29.4853 34.0246 29.0311 34.0246 28.4709V26.3101C34.0246 25.7498 33.5687 25.2956 33.0064 25.2956Z" fill="current"/>
<path id="Vector_64" d="M13.0064 25.2956H11.0309C10.4686 25.2956 10.0127 25.7498 10.0127 26.3101V28.4709C10.0127 29.0311 10.4686 29.4853 11.0309 29.4853H13.0064C13.5687 29.4853 14.0246 29.0311 14.0246 28.4709V26.3101C14.0246 25.7498 13.5687 25.2956 13.0064 25.2956Z" fill="current"/>
<path id="Vector_65" d="M18.0347 5.41867H16.0593C15.4969 5.41867 15.041 5.87286 15.041 6.43312V8.59391C15.041 9.15418 15.4969 9.60836 16.0593 9.60836H18.0347C18.597 9.60836 19.0529 9.15418 19.0529 8.59391V6.43312C19.0529 5.87286 18.597 5.41867 18.0347 5.41867Z" fill="current"/>
<path id="Vector_66" d="M43.0288 5.41855H41.0534C40.491 5.41855 40.0352 5.87273 40.0352 6.433V8.59379C40.0352 9.15406 40.491 9.60824 41.0534 9.60824H43.0288C43.5912 9.60824 44.0471 9.15406 44.0471 8.59379V6.433C44.0471 5.87273 43.5912 5.41855 43.0288 5.41855Z" fill="current"/>
<path id="Vector_67" d="M28.032 25.3495H26.0566C25.4942 25.3495 25.0383 25.8036 25.0383 26.3639V28.5247C25.0383 29.085 25.4942 29.5391 26.0566 29.5391H28.032C28.5944 29.5391 29.0502 29.085 29.0502 28.5247V26.3639C29.0502 25.8036 28.5944 25.3495 28.032 25.3495Z" fill="current"/>
<path id="Vector_68" d="M28.0064 40.4651H26.0309C25.4686 40.4651 25.0127 40.9192 25.0127 41.4795V43.6403C25.0127 44.2006 25.4686 44.6547 26.0309 44.6547H28.0064C28.5687 44.6547 29.0246 44.2006 29.0246 43.6403V41.4795C29.0246 40.9192 28.5687 40.4651 28.0064 40.4651Z" fill="current"/>
<path id="Vector_69" d="M18.0064 40.4651H16.0309C15.4686 40.4651 15.0127 40.9192 15.0127 41.4795V43.6403C15.0127 44.2006 15.4686 44.6547 16.0309 44.6547H18.0064C18.5687 44.6547 19.0246 44.2006 19.0246 43.6403V41.4795C19.0246 40.9192 18.5687 40.4651 18.0064 40.4651Z" fill="current"/>
<path id="Vector_70" d="M38.0064 40.2956H36.0309C35.4686 40.2956 35.0127 40.7498 35.0127 41.3101V43.4709C35.0127 44.0311 35.4686 44.4853 36.0309 44.4853H38.0064C38.5687 44.4853 39.0246 44.0311 39.0246 43.4709V41.3101C39.0246 40.7498 38.5687 40.2956 38.0064 40.2956Z" fill="current"/>
<path id="Vector_71" d="M53.0064 25.2956H51.0309C50.4686 25.2956 50.0127 25.7498 50.0127 26.3101V28.4709C50.0127 29.0311 50.4686 29.4853 51.0309 29.4853H53.0064C53.5687 29.4853 54.0246 29.0311 54.0246 28.4709V26.3101C54.0246 25.7498 53.5687 25.2956 53.0064 25.2956Z" fill="current"/>
<path id="Vector_72" d="M28.032 5.41867H26.0566C25.4942 5.41867 25.0383 5.87286 25.0383 6.43312V8.59391C25.0383 9.15418 25.4942 9.60836 26.0566 9.60836H28.032C28.5944 9.60836 29.0502 9.15418 29.0502 8.59391V6.43312C29.0502 5.87286 28.5944 5.41867 28.032 5.41867Z" fill="current"/>
</g>
</svg>
