<svg width="35" height="35" viewBox="0 0 35 35" fill="none" xmlns="http://www.w3.org/2000/svg">
<path d="M3.77867 0H2.8447C2.57882 0 2.36328 0.247907 2.36328 0.553716V1.73313C2.36328 2.03894 2.57882 2.28685 2.8447 2.28685H3.77867C4.04455 2.28685 4.26009 2.03894 4.26009 1.73313V0.553716C4.26009 0.247907 4.04455 0 3.77867 0Z" fill="black"/>
<path d="M15.596 0H14.6621C14.3962 0 14.1807 0.247907 14.1807 0.553716V1.73313C14.1807 2.03894 14.3962 2.28685 14.6621 2.28685H15.596C15.8619 2.28685 16.0775 2.03894 16.0775 1.73313V0.553716C16.0775 0.247907 15.8619 0 15.596 0Z" fill="black"/>
<path d="M27.4134 0H26.4795C26.2136 0 25.998 0.247907 25.998 0.553716V1.73313C25.998 2.03894 26.2136 2.28685 26.4795 2.28685H27.4134C27.6793 2.28685 27.8949 2.03894 27.8949 1.73313V0.553716C27.8949 0.247907 27.6793 0 27.4134 0Z" fill="black"/>
<path d="M1.41538 0H0.481423C0.21554 0 0 0.247907 0 0.553716V1.73313C0 2.03894 0.21554 2.28685 0.481423 2.28685H1.41538C1.68127 2.28685 1.89681 2.03894 1.89681 1.73313V0.553716C1.89681 0.247907 1.68127 0 1.41538 0Z" fill="black"/>
<path d="M1.41538 24.4775H0.481423C0.21554 24.4775 0 24.7254 0 25.0312V26.2106C0 26.5164 0.21554 26.7643 0.481423 26.7643H1.41538C1.68127 26.7643 1.89681 26.5164 1.89681 26.2106V25.0312C1.89681 24.7254 1.68127 24.4775 1.41538 24.4775Z" fill="black"/>
<path d="M13.2328 0H12.2988C12.0329 0 11.8174 0.247907 11.8174 0.553716V1.73313C11.8174 2.03894 12.0329 2.28685 12.2988 2.28685H13.2328C13.4986 2.28685 13.7142 2.03894 13.7142 1.73313V0.553716C13.7142 0.247907 13.4986 0 13.2328 0Z" fill="black"/>
<path d="M25.0501 0H24.1162C23.8503 0 23.6348 0.247907 23.6348 0.553716V1.73313C23.6348 2.03894 23.8503 2.28685 24.1162 2.28685H25.0501C25.316 2.28685 25.5316 2.03894 25.5316 1.73313V0.553716C25.5316 0.247907 25.316 0 25.0501 0Z" fill="black"/>
<path d="M1.41538 10.8789H0.481423C0.21554 10.8789 0 11.1268 0 11.4326V12.612C0 12.9178 0.21554 13.1658 0.481423 13.1658H1.41538C1.68127 13.1658 1.89681 12.9178 1.89681 12.612V11.4326C1.89681 11.1268 1.68127 10.8789 1.41538 10.8789Z" fill="black"/>
<path d="M8.50572 0H7.57175C7.30587 0 7.09033 0.247907 7.09033 0.553716V1.73313C7.09033 2.03894 7.30587 2.28685 7.57175 2.28685H8.50572C8.7716 2.28685 8.98714 2.03894 8.98714 1.73313V0.553716C8.98714 0.247907 8.7716 0 8.50572 0Z" fill="black"/>
<path d="M20.3231 0H19.3891C19.1233 0 18.9077 0.247907 18.9077 0.553716V1.73313C18.9077 2.03894 19.1233 2.28685 19.3891 2.28685H20.3231C20.589 2.28685 20.8045 2.03894 20.8045 1.73313V0.553716C20.8045 0.247907 20.589 0 20.3231 0Z" fill="black"/>
<path d="M32.1405 0H31.2065C30.9406 0 30.7251 0.247907 30.7251 0.553716V1.73313C30.7251 2.03894 30.9406 2.28685 31.2065 2.28685H32.1405C32.4064 2.28685 32.6219 2.03894 32.6219 1.73313V0.553716C32.6219 0.247907 32.4064 0 32.1405 0Z" fill="black"/>
<path d="M15.596 29.9169H14.6621C14.3962 29.9169 14.1807 30.1648 14.1807 30.4706V31.6501C14.1807 31.9559 14.3962 32.2038 14.6621 32.2038H15.596C15.8619 32.2038 16.0775 31.9559 16.0775 31.6501V30.4706C16.0775 30.1648 15.8619 29.9169 15.596 29.9169Z" fill="black"/>
<path d="M1.41538 5.43945H0.481423C0.21554 5.43945 0 5.68736 0 5.99317V7.17258C0 7.47839 0.21554 7.7263 0.481423 7.7263H1.41538C1.68127 7.7263 1.89681 7.47839 1.89681 7.17258V5.99317C1.89681 5.68736 1.68127 5.43945 1.41538 5.43945Z" fill="black"/>
<path d="M1.41538 16.3184H0.481423C0.21554 16.3184 0 16.5663 0 16.8721V18.0515C0 18.3573 0.21554 18.6052 0.481423 18.6052H1.41538C1.68127 18.6052 1.89681 18.3573 1.89681 18.0515V16.8721C1.89681 16.5663 1.68127 16.3184 1.41538 16.3184Z" fill="black"/>
<path d="M20.3231 29.9169H19.3891C19.1233 29.9169 18.9077 30.1648 18.9077 30.4706V31.6501C18.9077 31.9559 19.1233 32.2038 19.3891 32.2038H20.3231C20.589 32.2038 20.8045 31.9559 20.8045 31.6501V30.4706C20.8045 30.1648 20.589 29.9169 20.3231 29.9169Z" fill="black"/>
<path d="M3.77867 27.2239H2.8447C2.57882 27.2239 2.36328 27.4718 2.36328 27.7777V28.9571C2.36328 29.2629 2.57882 29.5108 2.8447 29.5108H3.77867C4.04455 29.5108 4.26009 29.2629 4.26009 28.9571V27.7777C4.26009 27.4718 4.04455 27.2239 3.77867 27.2239Z" fill="black"/>
<path d="M27.4134 27.2239H26.4795C26.2136 27.2239 25.998 27.4718 25.998 27.7777V28.9571C25.998 29.2629 26.2136 29.5108 26.4795 29.5108H27.4134C27.6793 29.5108 27.8949 29.2629 27.8949 28.9571V27.7777C27.8949 27.4718 27.6793 27.2239 27.4134 27.2239Z" fill="black"/>
<path d="M1.41538 2.7464H0.481423C0.21554 2.7464 0 2.99431 0 3.30011V4.47953C0 4.78534 0.21554 5.03325 0.481423 5.03325H1.41538C1.68127 5.03325 1.89681 4.78534 1.89681 4.47953V3.30011C1.89681 2.99431 1.68127 2.7464 1.41538 2.7464Z" fill="black"/>
<path d="M1.41538 27.2239H0.481423C0.21554 27.2239 0 27.4718 0 27.7777V28.9571C0 29.2629 0.21554 29.5108 0.481423 29.5108H1.41538C1.68127 29.5108 1.89681 29.2629 1.89681 28.9571V27.7777C1.89681 27.4718 1.68127 27.2239 1.41538 27.2239Z" fill="black"/>
<path d="M13.2328 27.2239H12.2988C12.0329 27.2239 11.8174 27.4718 11.8174 27.7777V28.9571C11.8174 29.2629 12.0329 29.5108 12.2988 29.5108H13.2328C13.4986 29.5108 13.7142 29.2629 13.7142 28.9571V27.7777C13.7142 27.4718 13.4986 27.2239 13.2328 27.2239Z" fill="black"/>
<path d="M25.0501 27.2239H24.1162C23.8503 27.2239 23.6348 27.4718 23.6348 27.7777V28.9571C23.6348 29.2629 23.8503 29.5108 24.1162 29.5108H25.0501C25.316 29.5108 25.5316 29.2629 25.5316 28.9571V27.7777C25.5316 27.4718 25.316 27.2239 25.0501 27.2239Z" fill="black"/>
<path d="M1.41538 13.6253H0.481423C0.21554 13.6253 0 13.8732 0 14.179V15.3584C0 15.6642 0.21554 15.9122 0.481423 15.9122H1.41538C1.68127 15.9122 1.89681 15.6642 1.89681 15.3584V14.179C1.89681 13.8732 1.68127 13.6253 1.41538 13.6253Z" fill="black"/>
<path d="M8.50572 27.2239H7.57175C7.30587 27.2239 7.09033 27.4718 7.09033 27.7777V28.9571C7.09033 29.2629 7.30587 29.5108 7.57175 29.5108H8.50572C8.7716 29.5108 8.98714 29.2629 8.98714 28.9571V27.7777C8.98714 27.4718 8.7716 27.2239 8.50572 27.2239Z" fill="black"/>
<path d="M32.1405 27.2239H31.2065C30.9406 27.2239 30.7251 27.4718 30.7251 27.7777V28.9571C30.7251 29.2629 30.9406 29.5108 31.2065 29.5108H32.1405C32.4064 29.5108 32.6219 29.2629 32.6219 28.9571V27.7777C32.6219 27.4718 32.4064 27.2239 32.1405 27.2239Z" fill="black"/>
<path d="M1.41538 8.18585H0.481423C0.21554 8.18585 0 8.43376 0 8.73957V9.91898C0 10.2248 0.21554 10.4727 0.481423 10.4727H1.41538C1.68127 10.4727 1.89681 10.2248 1.89681 9.91898V8.73957C1.89681 8.43376 1.68127 8.18585 1.41538 8.18585Z" fill="black"/>
<path d="M1.41538 19.0648H0.481423C0.21554 19.0648 0 19.3127 0 19.6185V20.7979C0 21.1037 0.21554 21.3516 0.481423 21.3516H1.41538C1.68127 21.3516 1.89681 21.1037 1.89681 20.7979V19.6185C1.89681 19.3127 1.68127 19.0648 1.41538 19.0648Z" fill="black"/>
<path d="M1.41538 21.7578H0.481423C0.21554 21.7578 0 22.0057 0 22.3115V23.4909C0 23.7967 0.21554 24.0446 0.481423 24.0446H1.41538C1.68127 24.0446 1.89681 23.7967 1.89681 23.4909V22.3115C1.89681 22.0057 1.68127 21.7578 1.41538 21.7578Z" fill="black"/>
<path d="M6.15708 0.0497437H5.22312C4.95724 0.0497437 4.7417 0.297651 4.7417 0.603459V1.78287C4.7417 2.08868 4.95724 2.33659 5.22312 2.33659H6.15708C6.42297 2.33659 6.63851 2.08868 6.63851 1.78287V0.603459C6.63851 0.297651 6.42297 0.0497437 6.15708 0.0497437Z" fill="black"/>
<path d="M17.9745 0.0497437H17.0405C16.7746 0.0497437 16.5591 0.297651 16.5591 0.603459V1.78287C16.5591 2.08868 16.7746 2.33659 17.0405 2.33659H17.9745C18.2403 2.33659 18.4559 2.08868 18.4559 1.78287V0.603459C18.4559 0.297651 18.2403 0.0497437 17.9745 0.0497437Z" fill="black"/>
<path d="M29.7918 0.0497437H28.8579C28.592 0.0497437 28.3765 0.297651 28.3765 0.603459V1.78287C28.3765 2.08868 28.592 2.33659 28.8579 2.33659H29.7918C30.0577 2.33659 30.2733 2.08868 30.2733 1.78287V0.603459C30.2733 0.297651 30.0577 0.0497437 29.7918 0.0497437Z" fill="black"/>
<path d="M10.8841 0.0497437H9.95017C9.68429 0.0497437 9.46875 0.297651 9.46875 0.603459V1.78287C9.46875 2.08868 9.68429 2.33659 9.95017 2.33659H10.8841C11.15 2.33659 11.3656 2.08868 11.3656 1.78287V0.603459C11.3656 0.297651 11.15 0.0497437 10.8841 0.0497437Z" fill="black"/>
<path d="M22.7015 0.0497437H21.7676C21.5017 0.0497437 21.2861 0.297651 21.2861 0.603459V1.78287C21.2861 2.08868 21.5017 2.33659 21.7676 2.33659H22.7015C22.9674 2.33659 23.1829 2.08868 23.1829 1.78287V0.603459C23.1829 0.297651 22.9674 0.0497437 22.7015 0.0497437Z" fill="black"/>
<path d="M34.5184 0.0497437H33.5845C33.3186 0.0497437 33.103 0.297651 33.103 0.603459V1.78287C33.103 2.08868 33.3186 2.33659 33.5845 2.33659H34.5184C34.7843 2.33659 34.9998 2.08868 34.9998 1.78287V0.603459C34.9998 0.297651 34.7843 0.0497437 34.5184 0.0497437Z" fill="black"/>
<path d="M34.5184 24.5272H33.5845C33.3186 24.5272 33.103 24.7751 33.103 25.0809V26.2604C33.103 26.5662 33.3186 26.8141 33.5845 26.8141H34.5184C34.7843 26.8141 34.9998 26.5662 34.9998 26.2604V25.0809C34.9998 24.7751 34.7843 24.5272 34.5184 24.5272Z" fill="black"/>
<path d="M34.5184 10.9286H33.5845C33.3186 10.9286 33.103 11.1766 33.103 11.4824V12.6618C33.103 12.9676 33.3186 13.2155 33.5845 13.2155H34.5184C34.7843 13.2155 34.9998 12.9676 34.9998 12.6618V11.4824C34.9998 11.1766 34.7843 10.9286 34.5184 10.9286Z" fill="black"/>
<path d="M34.5184 5.4892H33.5845C33.3186 5.4892 33.103 5.7371 33.103 6.04291V7.22233C33.103 7.52814 33.3186 7.77604 33.5845 7.77604H34.5184C34.7843 7.77604 34.9998 7.52814 34.9998 7.22233V6.04291C34.9998 5.7371 34.7843 5.4892 34.5184 5.4892Z" fill="black"/>
<path d="M34.5184 16.368H33.5845C33.3186 16.368 33.103 16.6159 33.103 16.9218V18.1012C33.103 18.407 33.3186 18.6549 33.5845 18.6549H34.5184C34.7843 18.6549 34.9998 18.407 34.9998 18.1012V16.9218C34.9998 16.6159 34.7843 16.368 34.5184 16.368Z" fill="black"/>
<path d="M6.15708 27.2737H5.22312C4.95724 27.2737 4.7417 27.5216 4.7417 27.8274V29.0068C4.7417 29.3126 4.95724 29.5605 5.22312 29.5605H6.15708C6.42297 29.5605 6.63851 29.3126 6.63851 29.0068V27.8274C6.63851 27.5216 6.42297 27.2737 6.15708 27.2737Z" fill="black"/>
<path d="M29.7918 27.2737H28.8579C28.592 27.2737 28.3765 27.5216 28.3765 27.8274V29.0068C28.3765 29.3126 28.592 29.5605 28.8579 29.5605H29.7918C30.0577 29.5605 30.2733 29.3126 30.2733 29.0068V27.8274C30.2733 27.5216 30.0577 27.2737 29.7918 27.2737Z" fill="black"/>
<path d="M10.8841 27.2737H9.95017C9.68429 27.2737 9.46875 27.5216 9.46875 27.8274V29.0068C9.46875 29.3126 9.68429 29.5605 9.95017 29.5605H10.8841C11.15 29.5605 11.3656 29.3126 11.3656 29.0068V27.8274C11.3656 27.5216 11.15 27.2737 10.8841 27.2737Z" fill="black"/>
<path d="M22.7015 27.2737H21.7676C21.5017 27.2737 21.2861 27.5216 21.2861 27.8274V29.0068C21.2861 29.3126 21.5017 29.5605 21.7676 29.5605H22.7015C22.9674 29.5605 23.1829 29.3126 23.1829 29.0068V27.8274C23.1829 27.5216 22.9674 27.2737 22.7015 27.2737Z" fill="black"/>
<path d="M34.5184 2.7962H33.5845C33.3186 2.7962 33.103 3.04411 33.103 3.34992V4.52933C33.103 4.83514 33.3186 5.08305 33.5845 5.08305H34.5184C34.7843 5.08305 34.9998 4.83514 34.9998 4.52933V3.34992C34.9998 3.04411 34.7843 2.7962 34.5184 2.7962Z" fill="black"/>
<path d="M34.5184 27.2737H33.5845C33.3186 27.2737 33.103 27.5216 33.103 27.8274V29.0068C33.103 29.3126 33.3186 29.5605 33.5845 29.5605H34.5184C34.7843 29.5605 34.9998 29.3126 34.9998 29.0068V27.8274C34.9998 27.5216 34.7843 27.2737 34.5184 27.2737Z" fill="black"/>
<path d="M34.5184 13.6751H33.5845C33.3186 13.6751 33.103 13.923 33.103 14.2288V15.4082C33.103 15.714 33.3186 15.962 33.5845 15.962H34.5184C34.7843 15.962 34.9998 15.714 34.9998 15.4082V14.2288C34.9998 13.923 34.7843 13.6751 34.5184 13.6751Z" fill="black"/>
<path d="M17.9745 32.7131H17.0405C16.7746 32.7131 16.5591 32.961 16.5591 33.2669V34.4463C16.5591 34.7521 16.7746 35 17.0405 35H17.9745C18.2403 35 18.4559 34.7521 18.4559 34.4463V33.2669C18.4559 32.961 18.2403 32.7131 17.9745 32.7131Z" fill="black"/>
<path d="M34.5184 8.23566H33.5845C33.3186 8.23566 33.103 8.48356 33.103 8.78937V9.96879C33.103 10.2746 33.3186 10.5225 33.5845 10.5225H34.5184C34.7843 10.5225 34.9998 10.2746 34.9998 9.96879V8.78937C34.9998 8.48356 34.7843 8.23566 34.5184 8.23566Z" fill="black"/>
<path d="M34.5184 19.1146H33.5845C33.3186 19.1146 33.103 19.3625 33.103 19.6683V20.8477C33.103 21.1535 33.3186 21.4014 33.5845 21.4014H34.5184C34.7843 21.4014 34.9998 21.1535 34.9998 20.8477V19.6683C34.9998 19.3625 34.7843 19.1146 34.5184 19.1146Z" fill="black"/>
<path d="M34.5184 21.8076H33.5845C33.3186 21.8076 33.103 22.0555 33.103 22.3613V23.5407C33.103 23.8465 33.3186 24.0944 33.5845 24.0944H34.5184C34.7843 24.0944 34.9998 23.8465 34.9998 23.5407V22.3613C34.9998 22.0555 34.7843 21.8076 34.5184 21.8076Z" fill="black"/>
<path d="M10.6424 7.58331H9.6408C9.35566 7.58331 9.12451 7.84917 9.12451 8.17713V9.44195C9.12451 9.7699 9.35566 10.0358 9.6408 10.0358H10.6424C10.9275 10.0358 11.1587 9.7699 11.1587 9.44195V8.17713C11.1587 7.84917 10.9275 7.58331 10.6424 7.58331Z" fill="black"/>
<path d="M8.10772 7.58331H7.10613C6.82099 7.58331 6.58984 7.84917 6.58984 8.17713V9.44195C6.58984 9.7699 6.82099 10.0358 7.10613 10.0358H8.10772C8.39286 10.0358 8.62401 9.7699 8.62401 9.44195V8.17713C8.62401 7.84917 8.39286 7.58331 8.10772 7.58331Z" fill="black"/>
<path d="M10.6424 13.4167H9.6408C9.35566 13.4167 9.12451 13.6825 9.12451 14.0105V15.2753C9.12451 15.6033 9.35566 15.8691 9.6408 15.8691H10.6424C10.9275 15.8691 11.1587 15.6033 11.1587 15.2753V14.0105C11.1587 13.6825 10.9275 13.4167 10.6424 13.4167Z" fill="black"/>
<path d="M8.10772 13.4167H7.10613C6.82099 13.4167 6.58984 13.6825 6.58984 14.0105V15.2753C6.58984 15.6033 6.82099 15.8691 7.10613 15.8691H8.10772C8.39286 15.8691 8.62401 15.6033 8.62401 15.2753V14.0105C8.62401 13.6825 8.39286 13.4167 8.10772 13.4167Z" fill="black"/>
<path d="M10.6424 19.25H9.6408C9.35566 19.25 9.12451 19.5159 9.12451 19.8438V21.1086C9.12451 21.4366 9.35566 21.7024 9.6408 21.7024H10.6424C10.9275 21.7024 11.1587 21.4366 11.1587 21.1086V19.8438C11.1587 19.5159 10.9275 19.25 10.6424 19.25Z" fill="black"/>
<path d="M8.10772 19.25H7.10613C6.82099 19.25 6.58984 19.5159 6.58984 19.8438V21.1086C6.58984 21.4366 6.82099 21.7024 7.10613 21.7024H8.10772C8.39286 21.7024 8.62401 21.4366 8.62401 21.1086V19.8438C8.62401 19.5159 8.39286 19.25 8.10772 19.25Z" fill="black"/>
<path d="M23.3152 7.58331H22.3136C22.0285 7.58331 21.7974 7.84917 21.7974 8.17713V9.44195C21.7974 9.7699 22.0285 10.0358 22.3136 10.0358H23.3152C23.6004 10.0358 23.8315 9.7699 23.8315 9.44195V8.17713C23.8315 7.84917 23.6004 7.58331 23.3152 7.58331Z" fill="black"/>
<path d="M23.3152 13.4167H22.3136C22.0285 13.4167 21.7974 13.6825 21.7974 14.0105V15.2753C21.7974 15.6033 22.0285 15.8691 22.3136 15.8691H23.3152C23.6004 15.8691 23.8315 15.6033 23.8315 15.2753V14.0105C23.8315 13.6825 23.6004 13.4167 23.3152 13.4167Z" fill="black"/>
<path d="M20.7811 7.58331H19.7795C19.4943 7.58331 19.2632 7.84917 19.2632 8.17713V9.44195C19.2632 9.7699 19.4943 10.0358 19.7795 10.0358H20.7811C21.0662 10.0358 21.2973 9.7699 21.2973 9.44195V8.17713C21.2973 7.84917 21.0662 7.58331 20.7811 7.58331Z" fill="black"/>
<path d="M20.7811 13.4167H19.7795C19.4943 13.4167 19.2632 13.6825 19.2632 14.0105V15.2753C19.2632 15.6033 19.4943 15.8691 19.7795 15.8691H20.7811C21.0662 15.8691 21.2973 15.6033 21.2973 15.2753V14.0105C21.2973 13.6825 21.0662 13.4167 20.7811 13.4167Z" fill="black"/>
<path d="M20.7811 19.25H19.7795C19.4943 19.25 19.2632 19.5159 19.2632 19.8438V21.1086C19.2632 21.4366 19.4943 21.7024 19.7795 21.7024H20.7811C21.0662 21.7024 21.2973 21.4366 21.2973 21.1086V19.8438C21.2973 19.5159 21.0662 19.25 20.7811 19.25Z" fill="black"/>
<path d="M15.7117 7.58331H14.7101C14.425 7.58331 14.1938 7.84917 14.1938 8.17713V9.44195C14.1938 9.7699 14.425 10.0358 14.7101 10.0358H15.7117C15.9969 10.0358 16.228 9.7699 16.228 9.44195V8.17713C16.228 7.84917 15.9969 7.58331 15.7117 7.58331Z" fill="black"/>
<path d="M15.7117 13.4167H14.7101C14.425 13.4167 14.1938 13.6825 14.1938 14.0105V15.2753C14.1938 15.6033 14.425 15.8691 14.7101 15.8691H15.7117C15.9969 15.8691 16.228 15.6033 16.228 15.2753V14.0105C16.228 13.6825 15.9969 13.4167 15.7117 13.4167Z" fill="black"/>
<path d="M15.7117 19.25H14.7101C14.425 19.25 14.1938 19.5159 14.1938 19.8438V21.1086C14.1938 21.4366 14.425 21.7024 14.7101 21.7024H15.7117C15.9969 21.7024 16.228 21.4366 16.228 21.1086V19.8438C16.228 19.5159 15.9969 19.25 15.7117 19.25Z" fill="black"/>
<path d="M28.3846 7.58331H27.383C27.0978 7.58331 26.8667 7.84917 26.8667 8.17713V9.44195C26.8667 9.7699 27.0978 10.0358 27.383 10.0358H28.3846C28.6697 10.0358 28.9009 9.7699 28.9009 9.44195V8.17713C28.9009 7.84917 28.6697 7.58331 28.3846 7.58331Z" fill="black"/>
<path d="M28.3846 13.4167H27.383C27.0978 13.4167 26.8667 13.6825 26.8667 14.0105V15.2753C26.8667 15.6033 27.0978 15.8691 27.383 15.8691H28.3846C28.6697 15.8691 28.9009 15.6033 28.9009 15.2753V14.0105C28.9009 13.6825 28.6697 13.4167 28.3846 13.4167Z" fill="black"/>
<path d="M13.1927 7.6369H12.1911C11.906 7.6369 11.6748 7.90276 11.6748 8.23071V9.49554C11.6748 9.82349 11.906 10.0893 12.1911 10.0893H13.1927C13.4778 10.0893 13.709 9.82349 13.709 9.49554V8.23071C13.709 7.90276 13.4778 7.6369 13.1927 7.6369Z" fill="black"/>
<path d="M13.1927 13.4702H12.1911C11.906 13.4702 11.6748 13.7361 11.6748 14.064V15.3288C11.6748 15.6568 11.906 15.9227 12.1911 15.9227H13.1927C13.4778 15.9227 13.709 15.6568 13.709 15.3288V14.064C13.709 13.7361 13.4778 13.4702 13.1927 13.4702Z" fill="black"/>
<path d="M13.1927 19.3035H12.1911C11.906 19.3035 11.6748 19.5694 11.6748 19.8973V21.1622C11.6748 21.4901 11.906 21.756 12.1911 21.756H13.1927C13.4778 21.756 13.709 21.4901 13.709 21.1622V19.8973C13.709 19.5694 13.4778 19.3035 13.1927 19.3035Z" fill="black"/>
<path d="M25.866 7.6369H24.8644C24.5793 7.6369 24.3481 7.90276 24.3481 8.23071V9.49554C24.3481 9.82349 24.5793 10.0893 24.8644 10.0893H25.866C26.1512 10.0893 26.3823 9.82349 26.3823 9.49554V8.23071C26.3823 7.90276 26.1512 7.6369 25.866 7.6369Z" fill="black"/>
<path d="M25.866 13.4702H24.8644C24.5793 13.4702 24.3481 13.7361 24.3481 14.064V15.3288C24.3481 15.6568 24.5793 15.9227 24.8644 15.9227H25.866C26.1512 15.9227 26.3823 15.6568 26.3823 15.3288V14.064C26.3823 13.7361 26.1512 13.4702 25.866 13.4702Z" fill="black"/>
<path d="M18.262 7.6369H17.2604C16.9753 7.6369 16.7441 7.90276 16.7441 8.23071V9.49554C16.7441 9.82349 16.9753 10.0893 17.2604 10.0893H18.262C18.5472 10.0893 18.7783 9.82349 18.7783 9.49554V8.23071C18.7783 7.90276 18.5472 7.6369 18.262 7.6369Z" fill="black"/>
<path d="M18.262 13.4702H17.2604C16.9753 13.4702 16.7441 13.7361 16.7441 14.064V15.3288C16.7441 15.6568 16.9753 15.9227 17.2604 15.9227H18.262C18.5472 15.9227 18.7783 15.6568 18.7783 15.3288V14.064C18.7783 13.7361 18.5472 13.4702 18.262 13.4702Z" fill="black"/>
<path d="M18.262 19.3035H17.2604C16.9753 19.3035 16.7441 19.5694 16.7441 19.8973V21.1622C16.7441 21.4901 16.9753 21.756 17.2604 21.756H18.262C18.5472 21.756 18.7783 21.4901 18.7783 21.1622V19.8973C18.7783 19.5694 18.5472 19.3035 18.262 19.3035Z" fill="black"/>
</svg>
