<svg width="30" height="30" viewBox="0 0 30 30" fill="none" xmlns="http://www.w3.org/2000/svg">
<g id="Group 40123">
<path id="Vector" d="M1.99715 15.0615H1.00924C0.727992 15.0615 0.5 15.2903 0.5 15.5726V16.6612C0.5 16.9434 0.727992 17.1722 1.00924 17.1722H1.99715C2.2784 17.1722 2.50639 16.9434 2.50639 16.6612V15.5726C2.50639 15.2903 2.2784 15.0615 1.99715 15.0615Z" fill="black"/>
<path id="Vector_2" d="M29.4972 15.0615H28.5092C28.228 15.0615 28 15.2903 28 15.5726V16.6612C28 16.9434 28.228 17.1722 28.5092 17.1722H29.4972C29.7784 17.1722 30.0064 16.9434 30.0064 16.6612V15.5726C30.0064 15.2903 29.7784 15.0615 29.4972 15.0615Z" fill="black"/>
<path id="Vector_3" d="M21.9972 27.5879H21.0092C20.728 27.5879 20.5 27.8167 20.5 28.099V29.1875C20.5 29.4698 20.728 29.6986 21.0092 29.6986H21.9972C22.2784 29.6986 22.5064 29.4698 22.5064 29.1875V28.099C22.5064 27.8167 22.2784 27.5879 21.9972 27.5879Z" fill="black"/>
<path id="Vector_4" d="M6.99715 27.5879H6.00924C5.72799 27.5879 5.5 27.8167 5.5 28.099V29.1875C5.5 29.4698 5.72799 29.6986 6.00924 29.6986H6.99715C7.2784 29.6986 7.50639 29.4698 7.50639 29.1875V28.099C7.50639 27.8167 7.2784 27.5879 6.99715 27.5879Z" fill="black"/>
<path id="Vector_5" d="M16.9972 27.6123H16.0092C15.728 27.6123 15.5 27.8411 15.5 28.1234V29.2119C15.5 29.4942 15.728 29.723 16.0092 29.723H16.9972C17.2784 29.723 17.5064 29.4942 17.5064 29.2119V28.1234C17.5064 27.8411 17.2784 27.6123 16.9972 27.6123Z" fill="black"/>
<path id="Vector_6" d="M1.99715 22.5674H1.00924C0.727992 22.5674 0.5 22.7962 0.5 23.0785V24.167C0.5 24.4493 0.727992 24.6781 1.00924 24.6781H1.99715C2.2784 24.6781 2.50639 24.4493 2.50639 24.167V23.0785C2.50639 22.7962 2.2784 22.5674 1.99715 22.5674Z" fill="black"/>
<path id="Vector_7" d="M29.4972 22.5674H28.5092C28.228 22.5674 28 22.7962 28 23.0785V24.167C28 24.4493 28.228 24.6781 28.5092 24.6781H29.4972C29.7784 24.6781 30.0064 24.4493 30.0064 24.167V23.0785C30.0064 22.7962 29.7784 22.5674 29.4972 22.5674Z" fill="black"/>
<path id="Vector_8" d="M14.4972 27.6123H13.5092C13.228 27.6123 13 27.8411 13 28.1234V29.2119C13 29.4942 13.228 29.723 13.5092 29.723H14.4972C14.7784 29.723 15.0064 29.4942 15.0064 29.2119V28.1234C15.0064 27.8411 14.7784 27.6123 14.4972 27.6123Z" fill="black"/>
<path id="Vector_9" d="M1.99715 17.5967H1.00924C0.727992 17.5967 0.5 17.8255 0.5 18.1077V19.1963C0.5 19.4786 0.727992 19.7074 1.00924 19.7074H1.99715C2.2784 19.7074 2.50639 19.4786 2.50639 19.1963V18.1077C2.50639 17.8255 2.2784 17.5967 1.99715 17.5967Z" fill="black"/>
<path id="Vector_10" d="M29.4972 17.5967H28.5092C28.228 17.5967 28 17.8255 28 18.1077V19.1963C28 19.4786 28.228 19.7074 28.5092 19.7074H29.4972C29.7784 19.7074 30.0064 19.4786 30.0064 19.1963V18.1077C30.0064 17.8255 29.7784 17.5967 29.4972 17.5967Z" fill="black"/>
<path id="Vector_11" d="M1.99715 20.082H1.00924C0.727992 20.082 0.5 20.3108 0.5 20.5931V21.6817C0.5 21.9639 0.727992 22.1927 1.00924 22.1927H1.99715C2.2784 22.1927 2.50639 21.9639 2.50639 21.6817V20.5931C2.50639 20.3108 2.2784 20.082 1.99715 20.082Z" fill="black"/>
<path id="Vector_12" d="M29.4972 20.082H28.5092C28.228 20.082 28 20.3108 28 20.5931V21.6817C28 21.9639 28.228 22.1927 28.5092 22.1927H29.4972C29.7784 22.1927 30.0064 21.9639 30.0064 21.6817V20.5931C30.0064 20.3108 29.7784 20.082 29.4972 20.082Z" fill="black"/>
<path id="Vector_13" d="M1.99715 12.5762H1.00924C0.727992 12.5762 0.5 12.805 0.5 13.0872V14.1758C0.5 14.4581 0.727992 14.6869 1.00924 14.6869H1.99715C2.2784 14.6869 2.50639 14.4581 2.50639 14.1758V13.0872C2.50639 12.805 2.2784 12.5762 1.99715 12.5762Z" fill="black"/>
<path id="Vector_14" d="M1.99715 7.55566H1.00924C0.727992 7.55566 0.5 7.78448 0.5 8.06673V9.15531C0.5 9.43756 0.727992 9.66638 1.00924 9.66638H1.99715C2.2784 9.66638 2.50639 9.43756 2.50639 9.15531V8.06673C2.50639 7.78448 2.2784 7.55566 1.99715 7.55566Z" fill="black"/>
<path id="Vector_15" d="M1.99715 5.02051H1.00924C0.727992 5.02051 0.5 5.24932 0.5 5.53158V6.62015C0.5 6.90241 0.727992 7.13122 1.00924 7.13122H1.99715C2.2784 7.13122 2.50639 6.90241 2.50639 6.62015V5.53158C2.50639 5.24932 2.2784 5.02051 1.99715 5.02051Z" fill="black"/>
<path id="Vector_16" d="M1.99715 2.50977H1.00924C0.727992 2.50977 0.5 2.73858 0.5 3.02083V4.10941C0.5 4.39166 0.727992 4.62048 1.00924 4.62048H1.99715C2.2784 4.62048 2.50639 4.39166 2.50639 4.10941V3.02083C2.50639 2.73858 2.2784 2.50977 1.99715 2.50977Z" fill="black"/>
<path id="Vector_17" d="M4.49715 2.50977H3.50924C3.22799 2.50977 3 2.73858 3 3.02083V4.10941C3 4.39166 3.22799 4.62048 3.50924 4.62048H4.49715C4.7784 4.62048 5.00639 4.39166 5.00639 4.10941V3.02083C5.00639 2.73858 4.7784 2.50977 4.49715 2.50977Z" fill="black"/>
<path id="Vector_18" d="M6.99715 5.02051H6.00924C5.72799 5.02051 5.5 5.24932 5.5 5.53158V6.62015C5.5 6.90241 5.72799 7.13122 6.00924 7.13122H6.99715C7.2784 7.13122 7.50639 6.90241 7.50639 6.62015V5.53158C7.50639 5.24932 7.2784 5.02051 6.99715 5.02051Z" fill="black"/>
<path id="Vector_19" d="M4.49715 25.1025H3.50924C3.22799 25.1025 3 25.3314 3 25.6136V26.7022C3 26.9844 3.22799 27.2133 3.50924 27.2133H4.49715C4.7784 27.2133 5.00639 26.9844 5.00639 26.7022V25.6136C5.00639 25.3314 4.7784 25.1025 4.49715 25.1025Z" fill="black"/>
<path id="Vector_20" d="M6.99715 22.5918H6.00924C5.72799 22.5918 5.5 22.8206 5.5 23.1029V24.1914C5.5 24.4737 5.72799 24.7025 6.00924 24.7025H6.99715C7.2784 24.7025 7.50639 24.4737 7.50639 24.1914V23.1029C7.50639 22.8206 7.2784 22.5918 6.99715 22.5918Z" fill="black"/>
<path id="Vector_21" d="M26.9972 2.50977H26.0092C25.728 2.50977 25.5 2.73858 25.5 3.02083V4.10941C25.5 4.39166 25.728 4.62048 26.0092 4.62048H26.9972C27.2784 4.62048 27.5064 4.39166 27.5064 4.10941V3.02083C27.5064 2.73858 27.2784 2.50977 26.9972 2.50977Z" fill="black"/>
<path id="Vector_22" d="M24.4972 5.02051H23.5092C23.228 5.02051 23 5.24932 23 5.53158V6.62015C23 6.90241 23.228 7.13122 23.5092 7.13122H24.4972C24.7784 7.13122 25.0064 6.90241 25.0064 6.62015V5.53158C25.0064 5.24932 24.7784 5.02051 24.4972 5.02051Z" fill="black"/>
<path id="Vector_23" d="M24.4972 22.5918H23.5092C23.228 22.5918 23 22.8206 23 23.1029V24.1914C23 24.4737 23.228 24.7025 23.5092 24.7025H24.4972C24.7784 24.7025 25.0064 24.4737 25.0064 24.1914V23.1029C25.0064 22.8206 24.7784 22.5918 24.4972 22.5918Z" fill="black"/>
<path id="Vector_24" d="M26.9972 25.1025H26.0092C25.728 25.1025 25.5 25.3314 25.5 25.6136V26.7022C25.5 26.9844 25.728 27.2133 26.0092 27.2133H26.9972C27.2784 27.2133 27.5064 26.9844 27.5064 26.7022V25.6136C27.5064 25.3314 27.2784 25.1025 26.9972 25.1025Z" fill="black"/>
<path id="Vector_25" d="M6.99715 10.041H6.00924C5.72799 10.041 5.5 10.2698 5.5 10.5521V11.6407C5.5 11.9229 5.72799 12.1517 6.00924 12.1517H6.99715C7.2784 12.1517 7.50639 11.9229 7.50639 11.6407V10.5521C7.50639 10.2698 7.2784 10.041 6.99715 10.041Z" fill="black"/>
<path id="Vector_26" d="M11.9972 15.0859H11.0092C10.728 15.0859 10.5 15.3148 10.5 15.597V16.6856C10.5 16.9678 10.728 17.1966 11.0092 17.1966H11.9972C12.2784 17.1966 12.5064 16.9678 12.5064 16.6856V15.597C12.5064 15.3148 12.2784 15.0859 11.9972 15.0859Z" fill="black"/>
<path id="Vector_27" d="M11.9972 22.6172H11.0092C10.728 22.6172 10.5 22.846 10.5 23.1283V24.2168C10.5 24.4991 10.728 24.7279 11.0092 24.7279H11.9972C12.2784 24.7279 12.5064 24.4991 12.5064 24.2168V23.1283C12.5064 22.846 12.2784 22.6172 11.9972 22.6172Z" fill="black"/>
<path id="Vector_28" d="M11.9972 0H11.0092C10.728 0 10.5 0.228813 10.5 0.511068V1.59964C10.5 1.8819 10.728 2.11071 11.0092 2.11071H11.9972C12.2784 2.11071 12.5064 1.8819 12.5064 1.59964V0.511068C12.5064 0.228813 12.2784 0 11.9972 0Z" fill="black"/>
<path id="Vector_29" d="M24.4972 10.041H23.5092C23.228 10.041 23 10.2698 23 10.5521V11.6407C23 11.9229 23.228 12.1517 23.5092 12.1517H24.4972C24.7784 12.1517 25.0064 11.9229 25.0064 11.6407V10.5521C25.0064 10.2698 24.7784 10.041 24.4972 10.041Z" fill="black"/>
<path id="Vector_30" d="M21.9972 7.53027H21.0092C20.728 7.53027 20.5 7.75909 20.5 8.04134V9.12992C20.5 9.41217 20.728 9.64099 21.0092 9.64099H21.9972C22.2784 9.64099 22.5064 9.41217 22.5064 9.12992V8.04134C22.5064 7.75909 22.2784 7.53027 21.9972 7.53027Z" fill="black"/>
<path id="Vector_31" d="M21.9972 20.082H21.0092C20.728 20.082 20.5 20.3108 20.5 20.5931V21.6817C20.5 21.9639 20.728 22.1927 21.0092 22.1927H21.9972C22.2784 22.1927 22.5064 21.9639 22.5064 21.6817V20.5931C22.5064 20.3108 22.2784 20.082 21.9972 20.082Z" fill="black"/>
<path id="Vector_32" d="M19.4972 0H18.5092C18.228 0 18 0.228813 18 0.511068V1.59964C18 1.8819 18.228 2.11071 18.5092 2.11071H19.4972C19.7784 2.11071 20.0064 1.8819 20.0064 1.59964V0.511068C20.0064 0.228813 19.7784 0 19.4972 0Z" fill="black"/>
<path id="Vector_33" d="M6.99715 15.0859H6.00924C5.72799 15.0859 5.5 15.3148 5.5 15.597V16.6856C5.5 16.9678 5.72799 17.1966 6.00924 17.1966H6.99715C7.2784 17.1966 7.50639 16.9678 7.50639 16.6856V15.597C7.50639 15.3148 7.2784 15.0859 6.99715 15.0859Z" fill="black"/>
<path id="Vector_34" d="M6.99715 12.5508H6.00924C5.72799 12.5508 5.5 12.7796 5.5 13.0618V14.1504C5.5 14.4327 5.72799 14.6615 6.00924 14.6615H6.99715C7.2784 14.6615 7.50639 14.4327 7.50639 14.1504V13.0618C7.50639 12.7796 7.2784 12.5508 6.99715 12.5508Z" fill="black"/>
<path id="Vector_35" d="M4.49715 0H3.50924C3.22799 0 3 0.228813 3 0.511068V1.59964C3 1.8819 3.22799 2.11071 3.50924 2.11071H4.49715C4.7784 2.11071 5.00639 1.8819 5.00639 1.59964V0.511068C5.00639 0.228813 4.7784 0 4.49715 0Z" fill="black"/>
<path id="Vector_36" d="M6.99715 0H6.00924C5.72799 0 5.5 0.228813 5.5 0.511068V1.59964C5.5 1.8819 5.72799 2.11071 6.00924 2.11071H6.99715C7.2784 2.11071 7.50639 1.8819 7.50639 1.59964V0.511068C7.50639 0.228813 7.2784 0 6.99715 0Z" fill="black"/>
<path id="Vector_37" d="M9.49715 7.53027H8.50924C8.22799 7.53027 8 7.75909 8 8.04134V9.12992C8 9.41217 8.22799 9.64099 8.50924 9.64099H9.49715C9.7784 9.64099 10.0064 9.41217 10.0064 9.12992V8.04134C10.0064 7.75909 9.7784 7.53027 9.49715 7.53027Z" fill="black"/>
<path id="Vector_38" d="M11.9972 5.02051H11.0092C10.728 5.02051 10.5 5.24932 10.5 5.53158V6.62015C10.5 6.90241 10.728 7.13122 11.0092 7.13122H11.9972C12.2784 7.13122 12.5064 6.90241 12.5064 6.62015V5.53158C12.5064 5.24932 12.2784 5.02051 11.9972 5.02051Z" fill="black"/>
<path id="Vector_39" d="M14.4972 5.02051H13.5092C13.228 5.02051 13 5.24932 13 5.53158V6.62015C13 6.90241 13.228 7.13122 13.5092 7.13122H14.4972C14.7784 7.13122 15.0064 6.90241 15.0064 6.62015V5.53158C15.0064 5.24932 14.7784 5.02051 14.4972 5.02051Z" fill="black"/>
<path id="Vector_40" d="M14.4972 22.6172H13.5092C13.228 22.6172 13 22.846 13 23.1283V24.2168C13 24.4991 13.228 24.7279 13.5092 24.7279H14.4972C14.7784 24.7279 15.0064 24.4991 15.0064 24.2168V23.1283C15.0064 22.846 14.7784 22.6172 14.4972 22.6172Z" fill="black"/>
<path id="Vector_41" d="M11.9972 12.5508H11.0092C10.728 12.5508 10.5 12.7796 10.5 13.0618V14.1504C10.5 14.4327 10.728 14.6615 11.0092 14.6615H11.9972C12.2784 14.6615 12.5064 14.4327 12.5064 14.1504V13.0618C12.5064 12.7796 12.2784 12.5508 11.9972 12.5508Z" fill="black"/>
<path id="Vector_42" d="M16.9972 5.02051H16.0092C15.728 5.02051 15.5 5.24932 15.5 5.53158V6.62015C15.5 6.90241 15.728 7.13122 16.0092 7.13122H16.9972C17.2784 7.13122 17.5064 6.90241 17.5064 6.62015V5.53158C17.5064 5.24932 17.2784 5.02051 16.9972 5.02051Z" fill="black"/>
<path id="Vector_43" d="M19.4972 5.02051H18.5092C18.228 5.02051 18 5.24932 18 5.53158V6.62015C18 6.90241 18.228 7.13122 18.5092 7.13122H19.4972C19.7784 7.13122 20.0064 6.90241 20.0064 6.62015V5.53158C20.0064 5.24932 19.7784 5.02051 19.4972 5.02051Z" fill="black"/>
<path id="Vector_44" d="M19.4972 22.5918H18.5092C18.228 22.5918 18 22.8206 18 23.1029V24.1914C18 24.4737 18.228 24.7025 18.5092 24.7025H19.4972C19.7784 24.7025 20.0064 24.4737 20.0064 24.1914V23.1029C20.0064 22.8206 19.7784 22.5918 19.4972 22.5918Z" fill="black"/>
<path id="Vector_45" d="M14.4972 17.5713H13.5092C13.228 17.5713 13 17.8001 13 18.0824V19.1709C13 19.4532 13.228 19.682 13.5092 19.682H14.4972C14.7784 19.682 15.0064 19.4532 15.0064 19.1709V18.0824C15.0064 17.8001 14.7784 17.5713 14.4972 17.5713Z" fill="black"/>
<path id="Vector_46" d="M16.9972 17.5713H16.0092C15.728 17.5713 15.5 17.8001 15.5 18.0824V19.1709C15.5 19.4532 15.728 19.682 16.0092 19.682H16.9972C17.2784 19.682 17.5064 19.4532 17.5064 19.1709V18.0824C17.5064 17.8001 17.2784 17.5713 16.9972 17.5713Z" fill="black"/>
<path id="Vector_47" d="M14.4972 0H13.5092C13.228 0 13 0.228813 13 0.511068V1.59964C13 1.8819 13.228 2.11071 13.5092 2.11071H14.4972C14.7784 2.11071 15.0064 1.8819 15.0064 1.59964V0.511068C15.0064 0.228813 14.7784 0 14.4972 0Z" fill="black"/>
<path id="Vector_48" d="M24.4972 15.0615H23.5092C23.228 15.0615 23 15.2903 23 15.5726V16.6612C23 16.9434 23.228 17.1722 23.5092 17.1722H24.4972C24.7784 17.1722 25.0064 16.9434 25.0064 16.6612V15.5726C25.0064 15.2903 24.7784 15.0615 24.4972 15.0615Z" fill="black"/>
<path id="Vector_49" d="M24.4972 12.5508H23.5092C23.228 12.5508 23 12.7796 23 13.0618V14.1504C23 14.4327 23.228 14.6615 23.5092 14.6615H24.4972C24.7784 14.6615 25.0064 14.4327 25.0064 14.1504V13.0618C25.0064 12.7796 24.7784 12.5508 24.4972 12.5508Z" fill="black"/>
<path id="Vector_50" d="M24.4972 17.5713H23.5092C23.228 17.5713 23 17.8001 23 18.0824V19.1709C23 19.4532 23.228 19.682 23.5092 19.682H24.4972C24.7784 19.682 25.0064 19.4532 25.0064 19.1709V18.0824C25.0064 17.8001 24.7784 17.5713 24.4972 17.5713Z" fill="black"/>
<path id="Vector_51" d="M21.9972 0H21.0092C20.728 0 20.5 0.228813 20.5 0.511068V1.59964C20.5 1.8819 20.728 2.11071 21.0092 2.11071H21.9972C22.2784 2.11071 22.5064 1.8819 22.5064 1.59964V0.511068C22.5064 0.228813 22.2784 0 21.9972 0Z" fill="black"/>
<path id="Vector_52" d="M9.49715 20.082H8.50924C8.22799 20.082 8 20.3108 8 20.5931V21.6817C8 21.9639 8.22799 22.1927 8.50924 22.1927H9.49715C9.7784 22.1927 10.0064 21.9639 10.0064 21.6817V20.5931C10.0064 20.3108 9.7784 20.082 9.49715 20.082Z" fill="black"/>
<path id="Vector_53" d="M6.99715 17.5713H6.00924C5.72799 17.5713 5.5 17.8001 5.5 18.0824V19.1709C5.5 19.4532 5.72799 19.682 6.00924 19.682H6.99715C7.2784 19.682 7.50639 19.4532 7.50639 19.1709V18.0824C7.50639 17.8001 7.2784 17.5713 6.99715 17.5713Z" fill="black"/>
<path id="Vector_54" d="M9.49715 0H8.50924C8.22799 0 8 0.228813 8 0.511068V1.59964C8 1.8819 8.22799 2.11071 8.50924 2.11071H9.49715C9.7784 2.11071 10.0064 1.8819 10.0064 1.59964V0.511068C10.0064 0.228813 9.7784 0 9.49715 0Z" fill="black"/>
<path id="Vector_55" d="M19.4972 15.0859H18.5092C18.228 15.0859 18 15.3148 18 15.597V16.6856C18 16.9678 18.228 17.1966 18.5092 17.1966H19.4972C19.7784 17.1966 20.0064 16.9678 20.0064 16.6856V15.597C20.0064 15.3148 19.7784 15.0859 19.4972 15.0859Z" fill="black"/>
<path id="Vector_56" d="M19.4972 12.5508H18.5092C18.228 12.5508 18 12.7796 18 13.0618V14.1504C18 14.4327 18.228 14.6615 18.5092 14.6615H19.4972C19.7784 14.6615 20.0064 14.4327 20.0064 14.1504V13.0618C20.0064 12.7796 19.7784 12.5508 19.4972 12.5508Z" fill="black"/>
<path id="Vector_57" d="M14.4972 10.041H13.5092C13.228 10.041 13 10.2698 13 10.5521V11.6407C13 11.9229 13.228 12.1517 13.5092 12.1517H14.4972C14.7784 12.1517 15.0064 11.9229 15.0064 11.6407V10.5521C15.0064 10.2698 14.7784 10.041 14.4972 10.041Z" fill="black"/>
<path id="Vector_58" d="M16.9972 10.041H16.0092C15.728 10.041 15.5 10.2698 15.5 10.5521V11.6407C15.5 11.9229 15.728 12.1517 16.0092 12.1517H16.9972C17.2784 12.1517 17.5064 11.9229 17.5064 11.6407V10.5521C17.5064 10.2698 17.2784 10.041 16.9972 10.041Z" fill="black"/>
<path id="Vector_59" d="M16.9972 22.5918H16.0092C15.728 22.5918 15.5 22.8206 15.5 23.1029V24.1914C15.5 24.4737 15.728 24.7025 16.0092 24.7025H16.9972C17.2784 24.7025 17.5064 24.4737 17.5064 24.1914V23.1029C17.5064 22.8206 17.2784 22.5918 16.9972 22.5918Z" fill="black"/>
<path id="Vector_60" d="M16.9972 0H16.0092C15.728 0 15.5 0.228813 15.5 0.511068V1.59964C15.5 1.8819 15.728 2.11071 16.0092 2.11071H16.9972C17.2784 2.11071 17.5064 1.8819 17.5064 1.59964V0.511068C17.5064 0.228813 17.2784 0 16.9972 0Z" fill="black"/>
<path id="Vector_61" d="M24.4972 0H23.5092C23.228 0 23 0.228813 23 0.511068V1.59964C23 1.8819 23.228 2.11071 23.5092 2.11071H24.4972C24.7784 2.11071 25.0064 1.8819 25.0064 1.59964V0.511068C25.0064 0.228813 24.7784 0 24.4972 0Z" fill="black"/>
<path id="Vector_62" d="M26.9972 0H26.0092C25.728 0 25.5 0.228813 25.5 0.511068V1.59964C25.5 1.8819 25.728 2.11071 26.0092 2.11071H26.9972C27.2784 2.11071 27.5064 1.8819 27.5064 1.59964V0.511068C27.5064 0.228813 27.2784 0 26.9972 0Z" fill="black"/>
<path id="Vector_63" d="M29.4972 7.55566H28.5092C28.228 7.55566 28 7.78448 28 8.06673V9.15531C28 9.43756 28.228 9.66638 28.5092 9.66638H29.4972C29.7784 9.66638 30.0064 9.43756 30.0064 9.15531V8.06673C30.0064 7.78448 29.7784 7.55566 29.4972 7.55566Z" fill="black"/>
<path id="Vector_64" d="M29.4972 5.02051H28.5092C28.228 5.02051 28 5.24932 28 5.53158V6.62015C28 6.90241 28.228 7.13122 28.5092 7.13122H29.4972C29.7784 7.13122 30.0064 6.90241 30.0064 6.62015V5.53158C30.0064 5.24932 29.7784 5.02051 29.4972 5.02051Z" fill="black"/>
<path id="Vector_65" d="M29.4972 2.50977H28.5092C28.228 2.50977 28 2.73858 28 3.02083V4.10941C28 4.39166 28.228 4.62048 28.5092 4.62048H29.4972C29.7784 4.62048 30.0064 4.39166 30.0064 4.10941V3.02083C30.0064 2.73858 29.7784 2.50977 29.4972 2.50977Z" fill="black"/>
<path id="Vector_66" d="M1.99715 10.041H1.00924C0.727992 10.041 0.5 10.2698 0.5 10.5521V11.6407C0.5 11.9229 0.727992 12.1517 1.00924 12.1517H1.99715C2.2784 12.1517 2.50639 11.9229 2.50639 11.6407V10.5521C2.50639 10.2698 2.2784 10.041 1.99715 10.041Z" fill="black"/>
<path id="Vector_67" d="M29.4972 12.5762H28.5092C28.228 12.5762 28 12.805 28 13.0872V14.1758C28 14.4581 28.228 14.6869 28.5092 14.6869H29.4972C29.7784 14.6869 30.0064 14.4581 30.0064 14.1758V13.0872C30.0064 12.805 29.7784 12.5762 29.4972 12.5762Z" fill="black"/>
<path id="Vector_68" d="M29.4972 10.041H28.5092C28.228 10.041 28 10.2698 28 10.5521V11.6407C28 11.9229 28.228 12.1517 28.5092 12.1517H29.4972C29.7784 12.1517 30.0064 11.9229 30.0064 11.6407V10.5521C30.0064 10.2698 29.7784 10.041 29.4972 10.041Z" fill="black"/>
<path id="Vector_69" d="M29.4972 25.1025H28.5092C28.228 25.1025 28 25.3314 28 25.6136V26.7022C28 26.9844 28.228 27.2133 28.5092 27.2133H29.4972C29.7784 27.2133 30.0064 26.9844 30.0064 26.7022V25.6136C30.0064 25.3314 29.7784 25.1025 29.4972 25.1025Z" fill="black"/>
<path id="Vector_70" d="M26.9972 27.6123H26.0092C25.728 27.6123 25.5 27.8411 25.5 28.1234V29.2119C25.5 29.4942 25.728 29.723 26.0092 29.723H26.9972C27.2784 29.723 27.5064 29.4942 27.5064 29.2119V28.1234C27.5064 27.8411 27.2784 27.6123 26.9972 27.6123Z" fill="black"/>
<path id="Vector_71" d="M11.9972 27.6123H11.0092C10.728 27.6123 10.5 27.8411 10.5 28.1234V29.2119C10.5 29.4942 10.728 29.723 11.0092 29.723H11.9972C12.2784 29.723 12.5064 29.4942 12.5064 29.2119V28.1234C12.5064 27.8411 12.2784 27.6123 11.9972 27.6123Z" fill="black"/>
<path id="Vector_72" d="M24.5128 27.6338H23.5249C23.2436 27.6338 23.0156 27.8626 23.0156 28.1449V29.2334C23.0156 29.5157 23.2436 29.7445 23.5249 29.7445H24.5128C24.794 29.7445 25.022 29.5157 25.022 29.2334V28.1449C25.022 27.8626 24.794 27.6338 24.5128 27.6338Z" fill="black"/>
<path id="Vector_73" d="M9.51278 27.6338H8.52486C8.24362 27.6338 8.01562 27.8626 8.01562 28.1449V29.2334C8.01562 29.5157 8.24362 29.7445 8.52486 29.7445H9.51278C9.79402 29.7445 10.022 29.5157 10.022 29.2334V28.1449C10.022 27.8626 9.79402 27.6338 9.51278 27.6338Z" fill="black"/>
<path id="Vector_74" d="M19.4972 27.6123H18.5092C18.228 27.6123 18 27.8411 18 28.1234V29.2119C18 29.4942 18.228 29.723 18.5092 29.723H19.4972C19.7784 29.723 20.0064 29.4942 20.0064 29.2119V28.1234C20.0064 27.8411 19.7784 27.6123 19.4972 27.6123Z" fill="black"/>
<path id="Vector_75" d="M4.49715 27.6123H3.50924C3.22799 27.6123 3 27.8411 3 28.1234V29.2119C3 29.4942 3.22799 29.723 3.50924 29.723H4.49715C4.7784 29.723 5.00639 29.4942 5.00639 29.2119V28.1234C5.00639 27.8411 4.7784 27.6123 4.49715 27.6123Z" fill="black"/>
<path id="Vector_76" d="M1.99715 25.1025H1.00924C0.727992 25.1025 0.5 25.3314 0.5 25.6136V26.7022C0.5 26.9844 0.727992 27.2133 1.00924 27.2133H1.99715C2.2784 27.2133 2.50639 26.9844 2.50639 26.7022V25.6136C2.50639 25.3314 2.2784 25.1025 1.99715 25.1025Z" fill="black"/>
</g>
</svg>
