<svg width="31" height="31" viewBox="0 0 31 31" fill="none" xmlns="http://www.w3.org/2000/svg">
<g id="icon padlock">
<path id="Vector" d="M5.99715 15.0615H5.00924C4.72799 15.0615 4.5 15.2903 4.5 15.5726V16.6612C4.5 16.9434 4.72799 17.1722 5.00924 17.1722H5.99715C6.2784 17.1722 6.50639 16.9434 6.50639 16.6612V15.5726C6.50639 15.2903 6.2784 15.0615 5.99715 15.0615Z" fill="black"/>
<path id="Vector_2" d="M25.9972 15.0615H25.0092C24.728 15.0615 24.5 15.2903 24.5 15.5726V16.6612C24.5 16.9434 24.728 17.1722 25.0092 17.1722H25.9972C26.2784 17.1722 26.5064 16.9434 26.5064 16.6612V15.5726C26.5064 15.2903 26.2784 15.0615 25.9972 15.0615Z" fill="black"/>
<path id="Vector_3" d="M23.4972 27.5879H22.5092C22.228 27.5879 22 27.8167 22 28.099V29.1875C22 29.4698 22.228 29.6986 22.5092 29.6986H23.4972C23.7784 29.6986 24.0064 29.4698 24.0064 29.1875V28.099C24.0064 27.8167 23.7784 27.5879 23.4972 27.5879Z" fill="black"/>
<path id="Vector_4" d="M8.49715 27.5879H7.50924C7.22799 27.5879 7 27.8167 7 28.099V29.1875C7 29.4698 7.22799 29.6986 7.50924 29.6986H8.49715C8.7784 29.6986 9.00639 29.4698 9.00639 29.1875V28.099C9.00639 27.8167 8.7784 27.5879 8.49715 27.5879Z" fill="black"/>
<path id="Vector_5" d="M5.99715 27.6123H5.00924C4.72799 27.6123 4.5 27.8411 4.5 28.1234V29.2119C4.5 29.4942 4.72799 29.723 5.00924 29.723H5.99715C6.2784 29.723 6.50639 29.4942 6.50639 29.2119V28.1234C6.50639 27.8411 6.2784 27.6123 5.99715 27.6123Z" fill="black"/>
<path id="Vector_6" d="M18.4972 27.6123H17.5092C17.228 27.6123 17 27.8411 17 28.1234V29.2119C17 29.4942 17.228 29.723 17.5092 29.723H18.4972C18.7784 29.723 19.0064 29.4942 19.0064 29.2119V28.1234C19.0064 27.8411 18.7784 27.6123 18.4972 27.6123Z" fill="black"/>
<path id="Vector_7" d="M5.99715 22.5674H5.00924C4.72799 22.5674 4.5 22.7962 4.5 23.0785V24.167C4.5 24.4493 4.72799 24.6781 5.00924 24.6781H5.99715C6.2784 24.6781 6.50639 24.4493 6.50639 24.167V23.0785C6.50639 22.7962 6.2784 22.5674 5.99715 22.5674Z" fill="black"/>
<path id="Vector_8" d="M25.9972 22.5674H25.0092C24.728 22.5674 24.5 22.7962 24.5 23.0785V24.167C24.5 24.4493 24.728 24.6781 25.0092 24.6781H25.9972C26.2784 24.6781 26.5064 24.4493 26.5064 24.167V23.0785C26.5064 22.7962 26.2784 22.5674 25.9972 22.5674Z" fill="black"/>
<path id="Vector_9" d="M15.9972 27.6123H15.0092C14.728 27.6123 14.5 27.8411 14.5 28.1234V29.2119C14.5 29.4942 14.728 29.723 15.0092 29.723H15.9972C16.2784 29.723 16.5064 29.4942 16.5064 29.2119V28.1234C16.5064 27.8411 16.2784 27.6123 15.9972 27.6123Z" fill="black"/>
<path id="Vector_10" d="M5.99715 17.5967H5.00924C4.72799 17.5967 4.5 17.8255 4.5 18.1077V19.1963C4.5 19.4786 4.72799 19.7074 5.00924 19.7074H5.99715C6.2784 19.7074 6.50639 19.4786 6.50639 19.1963V18.1077C6.50639 17.8255 6.2784 17.5967 5.99715 17.5967Z" fill="black"/>
<path id="Vector_11" d="M25.9972 17.5967H25.0092C24.728 17.5967 24.5 17.8255 24.5 18.1077V19.1963C24.5 19.4786 24.728 19.7074 25.0092 19.7074H25.9972C26.2784 19.7074 26.5064 19.4786 26.5064 19.1963V18.1077C26.5064 17.8255 26.2784 17.5967 25.9972 17.5967Z" fill="black"/>
<path id="Vector_12" d="M5.99715 20.082H5.00924C4.72799 20.082 4.5 20.3108 4.5 20.5931V21.6817C4.5 21.9639 4.72799 22.1927 5.00924 22.1927H5.99715C6.2784 22.1927 6.50639 21.9639 6.50639 21.6817V20.5931C6.50639 20.3108 6.2784 20.082 5.99715 20.082Z" fill="black"/>
<path id="Vector_13" d="M25.9972 20.082H25.0092C24.728 20.082 24.5 20.3108 24.5 20.5931V21.6817C24.5 21.9639 24.728 22.1927 25.0092 22.1927H25.9972C26.2784 22.1927 26.5064 21.9639 26.5064 21.6817V20.5931C26.5064 20.3108 26.2784 20.082 25.9972 20.082Z" fill="black"/>
<path id="Vector_14" d="M13.4972 12.5508H12.5092C12.228 12.5508 12 12.7796 12 13.0618V14.1504C12 14.4327 12.228 14.6615 12.5092 14.6615H13.4972C13.7784 14.6615 14.0064 14.4327 14.0064 14.1504V13.0618C14.0064 12.7796 13.7784 12.5508 13.4972 12.5508Z" fill="black"/>
<path id="Vector_15" d="M15.9972 0H15.0092C14.728 0 14.5 0.228813 14.5 0.511068V1.59964C14.5 1.8819 14.728 2.11071 15.0092 2.11071H15.9972C16.2784 2.11071 16.5064 1.8819 16.5064 1.59964V0.511068C16.5064 0.228813 16.2784 0 15.9972 0Z" fill="black"/>
<path id="Vector_16" d="M20.9972 12.5762H20.0092C19.728 12.5762 19.5 12.805 19.5 13.0872V14.1758C19.5 14.4581 19.728 14.6869 20.0092 14.6869H20.9972C21.2784 14.6869 21.5064 14.4581 21.5064 14.1758V13.0872C21.5064 12.805 21.2784 12.5762 20.9972 12.5762Z" fill="black"/>
<path id="Vector_17" d="M23.4972 7.53027H22.5092C22.228 7.53027 22 7.75909 22 8.04134V9.12992C22 9.41217 22.228 9.64099 22.5092 9.64099H23.4972C23.7784 9.64099 24.0064 9.41217 24.0064 9.12992V8.04134C24.0064 7.75909 23.7784 7.53027 23.4972 7.53027Z" fill="black"/>
<path id="Vector_18" d="M23.4972 10.041H22.5092C22.228 10.041 22 10.2698 22 10.5521V11.6407C22 11.9229 22.228 12.1517 22.5092 12.1517H23.4972C23.7784 12.1517 24.0064 11.9229 24.0064 11.6407V10.5521C24.0064 10.2698 23.7784 10.041 23.4972 10.041Z" fill="black"/>
<path id="Vector_19" d="M20.9972 2.50977H20.0092C19.728 2.50977 19.5 2.73858 19.5 3.02083V4.10941C19.5 4.39166 19.728 4.62048 20.0092 4.62048H20.9972C21.2784 4.62048 21.5064 4.39166 21.5064 4.10941V3.02083C21.5064 2.73858 21.2784 2.50977 20.9972 2.50977Z" fill="black"/>
<path id="Vector_20" d="M23.4972 5.02051H22.5092C22.228 5.02051 22 5.24932 22 5.53158V6.62015C22 6.90241 22.228 7.13122 22.5092 7.13122H23.4972C23.7784 7.13122 24.0064 6.90241 24.0064 6.62015V5.53158C24.0064 5.24932 23.7784 5.02051 23.4972 5.02051Z" fill="black"/>
<path id="Vector_21" d="M8.49715 7.55566H7.50924C7.22799 7.55566 7 7.78448 7 8.06673V9.15531C7 9.43756 7.22799 9.66638 7.50924 9.66638H8.49715C8.7784 9.66638 9.00639 9.43756 9.00639 9.15531V8.06673C9.00639 7.78448 8.7784 7.55566 8.49715 7.55566Z" fill="black"/>
<path id="Vector_22" d="M8.49715 10.041H7.50924C7.22799 10.041 7 10.2698 7 10.5521V11.6407C7 11.9229 7.22799 12.1517 7.50924 12.1517H8.49715C8.7784 12.1517 9.00639 11.9229 9.00639 11.6407V10.5521C9.00639 10.2698 8.7784 10.041 8.49715 10.041Z" fill="black"/>
<path id="Vector_23" d="M10.9972 2.50977H10.0092C9.72799 2.50977 9.5 2.73858 9.5 3.02083V4.10941C9.5 4.39166 9.72799 4.62048 10.0092 4.62048H10.9972C11.2784 4.62048 11.5064 4.39166 11.5064 4.10941V3.02083C11.5064 2.73858 11.2784 2.50977 10.9972 2.50977Z" fill="black"/>
<path id="Vector_24" d="M8.49715 5.02051H7.50924C7.22799 5.02051 7 5.24932 7 5.53158V6.62015C7 6.90241 7.22799 7.13122 7.50924 7.13122H8.49715C8.7784 7.13122 9.00639 6.90241 9.00639 6.62015V5.53158C9.00639 5.24932 8.7784 5.02051 8.49715 5.02051Z" fill="black"/>
<path id="Vector_25" d="M15.9972 12.5508H15.0092C14.728 12.5508 14.5 12.7796 14.5 13.0618V14.1504C14.5 14.4327 14.728 14.6615 15.0092 14.6615H15.9972C16.2784 14.6615 16.5064 14.4327 16.5064 14.1504V13.0618C16.5064 12.7796 16.2784 12.5508 15.9972 12.5508Z" fill="black"/>
<path id="Vector_26" d="M18.4972 0H17.5092C17.228 0 17 0.228813 17 0.511068V1.59964C17 1.8819 17.228 2.11071 17.5092 2.11071H18.4972C18.7784 2.11071 19.0064 1.8819 19.0064 1.59964V0.511068C19.0064 0.228813 18.7784 0 18.4972 0Z" fill="black"/>
<path id="Vector_27" d="M23.4972 12.5508H22.5092C22.228 12.5508 22 12.7796 22 13.0618V14.1504C22 14.4327 22.228 14.6615 22.5092 14.6615H23.4972C23.7784 14.6615 24.0064 14.4327 24.0064 14.1504V13.0618C24.0064 12.7796 23.7784 12.5508 23.4972 12.5508Z" fill="black"/>
<path id="Vector_28" d="M10.9972 12.5508H10.0092C9.72799 12.5508 9.5 12.7796 9.5 13.0618V14.1504C9.5 14.4327 9.72799 14.6615 10.0092 14.6615H10.9972C11.2784 14.6615 11.5064 14.4327 11.5064 14.1504V13.0618C11.5064 12.7796 11.2784 12.5508 10.9972 12.5508Z" fill="black"/>
<path id="Vector_29" d="M13.4972 0H12.5092C12.228 0 12 0.228813 12 0.511068V1.59964C12 1.8819 12.228 2.11071 12.5092 2.11071H13.4972C13.7784 2.11071 14.0064 1.8819 14.0064 1.59964V0.511068C14.0064 0.228813 13.7784 0 13.4972 0Z" fill="black"/>
<path id="Vector_30" d="M8.49715 12.5508H7.50924C7.22799 12.5508 7 12.7796 7 13.0618V14.1504C7 14.4327 7.22799 14.6615 7.50924 14.6615H8.49715C8.7784 14.6615 9.00639 14.4327 9.00639 14.1504V13.0618C9.00639 12.7796 8.7784 12.5508 8.49715 12.5508Z" fill="black"/>
<path id="Vector_31" d="M5.99715 12.5508H5.00924C4.72799 12.5508 4.5 12.7796 4.5 13.0618V14.1504C4.5 14.4327 4.72799 14.6615 5.00924 14.6615H5.99715C6.2784 14.6615 6.50639 14.4327 6.50639 14.1504V13.0618C6.50639 12.7796 6.2784 12.5508 5.99715 12.5508Z" fill="black"/>
<path id="Vector_32" d="M18.4972 17.5967H17.5092C17.228 17.5967 17 17.8255 17 18.1077V19.1963C17 19.4786 17.228 19.7074 17.5092 19.7074H18.4972C18.7784 19.7074 19.0064 19.4786 19.0064 19.1963V18.1077C19.0064 17.8255 18.7784 17.5967 18.4972 17.5967Z" fill="black"/>
<path id="Vector_33" d="M15.9972 17.5713H15.0092C14.728 17.5713 14.5 17.8001 14.5 18.0824V19.1709C14.5 19.4532 14.728 19.682 15.0092 19.682H15.9972C16.2784 19.682 16.5064 19.4532 16.5064 19.1709V18.0824C16.5064 17.8001 16.2784 17.5713 15.9972 17.5713Z" fill="black"/>
<path id="Vector_34" d="M18.4972 12.5508H17.5092C17.228 12.5508 17 12.7796 17 13.0618V14.1504C17 14.4327 17.228 14.6615 17.5092 14.6615H18.4972C18.7784 14.6615 19.0064 14.4327 19.0064 14.1504V13.0618C19.0064 12.7796 18.7784 12.5508 18.4972 12.5508Z" fill="black"/>
<path id="Vector_35" d="M15.9972 22.5918H15.0092C14.728 22.5918 14.5 22.8206 14.5 23.1029V24.1914C14.5 24.4737 14.728 24.7025 15.0092 24.7025H15.9972C16.2784 24.7025 16.5064 24.4737 16.5064 24.1914V23.1029C16.5064 22.8206 16.2784 22.5918 15.9972 22.5918Z" fill="black"/>
<path id="Vector_36" d="M13.4972 22.5918H12.5092C12.228 22.5918 12 22.8206 12 23.1029V24.1914C12 24.4737 12.228 24.7025 12.5092 24.7025H13.4972C13.7784 24.7025 14.0064 24.4737 14.0064 24.1914V23.1029C14.0064 22.8206 13.7784 22.5918 13.4972 22.5918Z" fill="black"/>
<path id="Vector_37" d="M15.9972 20.0576H15.0092C14.728 20.0576 14.5 20.2864 14.5 20.5687V21.6573C14.5 21.9395 14.728 22.1683 15.0092 22.1683H15.9972C16.2784 22.1683 16.5064 21.9395 16.5064 21.6573V20.5687C16.5064 20.2864 16.2784 20.0576 15.9972 20.0576Z" fill="black"/>
<path id="Vector_38" d="M25.9972 12.5508H25.0092C24.728 12.5508 24.5 12.7796 24.5 13.0618V14.1504C24.5 14.4327 24.728 14.6615 25.0092 14.6615H25.9972C26.2784 14.6615 26.5064 14.4327 26.5064 14.1504V13.0618C26.5064 12.7796 26.2784 12.5508 25.9972 12.5508Z" fill="black"/>
<path id="Vector_39" d="M25.9972 25.1025H25.0092C24.728 25.1025 24.5 25.3314 24.5 25.6136V26.7022C24.5 26.9844 24.728 27.2133 25.0092 27.2133H25.9972C26.2784 27.2133 26.5064 26.9844 26.5064 26.7022V25.6136C26.5064 25.3314 26.2784 25.1025 25.9972 25.1025Z" fill="black"/>
<path id="Vector_40" d="M13.4972 27.6123H12.5092C12.228 27.6123 12 27.8411 12 28.1234V29.2119C12 29.4942 12.228 29.723 12.5092 29.723H13.4972C13.7784 29.723 14.0064 29.4942 14.0064 29.2119V28.1234C14.0064 27.8411 13.7784 27.6123 13.4972 27.6123Z" fill="black"/>
<path id="Vector_41" d="M26.0128 27.6338H25.0249C24.7436 27.6338 24.5156 27.8626 24.5156 28.1449V29.2334C24.5156 29.5157 24.7436 29.7445 25.0249 29.7445H26.0128C26.294 29.7445 26.522 29.5157 26.522 29.2334V28.1449C26.522 27.8626 26.294 27.6338 26.0128 27.6338Z" fill="black"/>
<path id="Vector_42" d="M11.0128 27.6338H10.0249C9.74362 27.6338 9.51562 27.8626 9.51562 28.1449V29.2334C9.51562 29.5157 9.74362 29.7445 10.0249 29.7445H11.0128C11.294 29.7445 11.522 29.5157 11.522 29.2334V28.1449C11.522 27.8626 11.294 27.6338 11.0128 27.6338Z" fill="black"/>
<path id="Vector_43" d="M20.9972 27.6123H20.0092C19.728 27.6123 19.5 27.8411 19.5 28.1234V29.2119C19.5 29.4942 19.728 29.723 20.0092 29.723H20.9972C21.2784 29.723 21.5064 29.4942 21.5064 29.2119V28.1234C21.5064 27.8411 21.2784 27.6123 20.9972 27.6123Z" fill="black"/>
<path id="Vector_44" d="M5.99715 25.1025H5.00924C4.72799 25.1025 4.5 25.3314 4.5 25.6136V26.7022C4.5 26.9844 4.72799 27.2133 5.00924 27.2133H5.99715C6.2784 27.2133 6.50639 26.9844 6.50639 26.7022V25.6136C6.50639 25.3314 6.2784 25.1025 5.99715 25.1025Z" fill="black"/>
</g>
</svg>
