<svg width="61" height="60" viewBox="0 0 61 60" fill="none" xmlns="http://www.w3.org/2000/svg">
<g id="icon padlock">
<path id="Vector" d="M11.4943 30H9.51847C8.95598 30 8.5 30.4558 8.5 31.018V33.1862C8.5 33.7484 8.95598 34.2042 9.51847 34.2042H11.4943C12.0568 34.2042 12.5128 33.7484 12.5128 33.1862V31.018C12.5128 30.4558 12.0568 30 11.4943 30Z" fill="current"/>
<path id="Vector_2" d="M51.4943 30H49.5185C48.956 30 48.5 30.4558 48.5 31.018V33.1862C48.5 33.7484 48.956 34.2042 49.5185 34.2042H51.4943C52.0568 34.2042 52.5128 33.7484 52.5128 33.1862V31.018C52.5128 30.4558 52.0568 30 51.4943 30Z" fill="current"/>
<path id="Vector_3" d="M46.4943 54.9512H44.5185C43.956 54.9512 43.5 55.4069 43.5 55.9691V58.1374C43.5 58.6996 43.956 59.1554 44.5185 59.1554H46.4943C47.0568 59.1554 47.5128 58.6996 47.5128 58.1374V55.9691C47.5128 55.4069 47.0568 54.9512 46.4943 54.9512Z" fill="current"/>
<path id="Vector_4" d="M16.4943 54.9512H14.5185C13.956 54.9512 13.5 55.4069 13.5 55.9691V58.1374C13.5 58.6996 13.956 59.1554 14.5185 59.1554H16.4943C17.0568 59.1554 17.5128 58.6996 17.5128 58.1374V55.9691C17.5128 55.4069 17.0568 54.9512 16.4943 54.9512Z" fill="current"/>
<path id="Vector_5" d="M11.4943 55H9.51847C8.95598 55 8.5 55.4558 8.5 56.018V58.1862C8.5 58.7484 8.95598 59.2042 9.51847 59.2042H11.4943C12.0568 59.2042 12.5128 58.7484 12.5128 58.1862V56.018C12.5128 55.4558 12.0568 55 11.4943 55Z" fill="current"/>
<path id="Vector_6" d="M36.4943 55H34.5185C33.956 55 33.5 55.4558 33.5 56.018V58.1862C33.5 58.7484 33.956 59.2042 34.5185 59.2042H36.4943C37.0568 59.2042 37.5128 58.7484 37.5128 58.1862V56.018C37.5128 55.4558 37.0568 55 36.4943 55Z" fill="current"/>
<path id="Vector_7" d="M11.4943 44.9512H9.51847C8.95598 44.9512 8.5 45.4069 8.5 45.9691V48.1374C8.5 48.6996 8.95598 49.1554 9.51847 49.1554H11.4943C12.0568 49.1554 12.5128 48.6996 12.5128 48.1374V45.9691C12.5128 45.4069 12.0568 44.9512 11.4943 44.9512Z" fill="current"/>
<path id="Vector_8" d="M51.4943 44.9512H49.5185C48.956 44.9512 48.5 45.4069 48.5 45.9691V48.1374C48.5 48.6996 48.956 49.1554 49.5185 49.1554H51.4943C52.0568 49.1554 52.5128 48.6996 52.5128 48.1374V45.9691C52.5128 45.4069 52.0568 44.9512 51.4943 44.9512Z" fill="current"/>
<path id="Vector_9" d="M31.4943 55H29.5185C28.956 55 28.5 55.4558 28.5 56.018V58.1862C28.5 58.7484 28.956 59.2042 29.5185 59.2042H31.4943C32.0568 59.2042 32.5128 58.7484 32.5128 58.1862V56.018C32.5128 55.4558 32.0568 55 31.4943 55Z" fill="current"/>
<path id="Vector_10" d="M11.4943 35.0488H9.51847C8.95598 35.0488 8.5 35.5046 8.5 36.0668V38.2351C8.5 38.7973 8.95598 39.253 9.51847 39.253H11.4943C12.0568 39.253 12.5128 38.7973 12.5128 38.2351V36.0668C12.5128 35.5046 12.0568 35.0488 11.4943 35.0488Z" fill="current"/>
<path id="Vector_11" d="M51.4943 35.0488H49.5185C48.956 35.0488 48.5 35.5046 48.5 36.0668V38.2351C48.5 38.7973 48.956 39.253 49.5185 39.253H51.4943C52.0568 39.253 52.5128 38.7973 52.5128 38.2351V36.0668C52.5128 35.5046 52.0568 35.0488 51.4943 35.0488Z" fill="current"/>
<path id="Vector_12" d="M11.4943 40H9.51847C8.95598 40 8.5 40.4558 8.5 41.018V43.1862C8.5 43.7484 8.95598 44.2042 9.51847 44.2042H11.4943C12.0568 44.2042 12.5128 43.7484 12.5128 43.1862V41.018C12.5128 40.4558 12.0568 40 11.4943 40Z" fill="current"/>
<path id="Vector_13" d="M51.4943 40H49.5185C48.956 40 48.5 40.4558 48.5 41.018V43.1862C48.5 43.7484 48.956 44.2042 49.5185 44.2042H51.4943C52.0568 44.2042 52.5128 43.7484 52.5128 43.1862V41.018C52.5128 40.4558 52.0568 40 51.4943 40Z" fill="current"/>
<path id="Vector_14" d="M26.4943 25H24.5185C23.956 25 23.5 25.4558 23.5 26.018V28.1862C23.5 28.7484 23.956 29.2042 24.5185 29.2042H26.4943C27.0568 29.2042 27.5128 28.7484 27.5128 28.1862V26.018C27.5128 25.4558 27.0568 25 26.4943 25Z" fill="current"/>
<path id="Vector_15" d="M31.4943 0H29.5185C28.956 0 28.5 0.455758 28.5 1.01796V3.18623C28.5 3.74843 28.956 4.20419 29.5185 4.20419H31.4943C32.0568 4.20419 32.5128 3.74843 32.5128 3.18623V1.01796C32.5128 0.455758 32.0568 0 31.4943 0Z" fill="current"/>
<path id="Vector_16" d="M41.4943 25.0488H39.5185C38.956 25.0488 38.5 25.5046 38.5 26.0668V28.2351C38.5 28.7973 38.956 29.253 39.5185 29.253H41.4943C42.0568 29.253 42.5128 28.7973 42.5128 28.2351V26.0668C42.5128 25.5046 42.0568 25.0488 41.4943 25.0488Z" fill="current"/>
<path id="Vector_17" d="M46.4943 15H44.5185C43.956 15 43.5 15.4558 43.5 16.018V18.1862C43.5 18.7484 43.956 19.2042 44.5185 19.2042H46.4943C47.0568 19.2042 47.5128 18.7484 47.5128 18.1862V16.018C47.5128 15.4558 47.0568 15 46.4943 15Z" fill="current"/>
<path id="Vector_18" d="M46.4943 20H44.5185C43.956 20 43.5 20.4558 43.5 21.018V23.1862C43.5 23.7484 43.956 24.2042 44.5185 24.2042H46.4943C47.0568 24.2042 47.5128 23.7484 47.5128 23.1862V21.018C47.5128 20.4558 47.0568 20 46.4943 20Z" fill="current"/>
<path id="Vector_19" d="M41.4943 5H39.5185C38.956 5 38.5 5.45576 38.5 6.01796V8.18623C38.5 8.74843 38.956 9.20419 39.5185 9.20419H41.4943C42.0568 9.20419 42.5128 8.74843 42.5128 8.18623V6.01796C42.5128 5.45576 42.0568 5 41.4943 5Z" fill="current"/>
<path id="Vector_20" d="M46.4943 10H44.5185C43.956 10 43.5 10.4558 43.5 11.018V13.1862C43.5 13.7484 43.956 14.2042 44.5185 14.2042H46.4943C47.0568 14.2042 47.5128 13.7484 47.5128 13.1862V11.018C47.5128 10.4558 47.0568 10 46.4943 10Z" fill="current"/>
<path id="Vector_21" d="M16.4943 15.0488H14.5185C13.956 15.0488 13.5 15.5046 13.5 16.0668V18.2351C13.5 18.7973 13.956 19.253 14.5185 19.253H16.4943C17.0568 19.253 17.5128 18.7973 17.5128 18.2351V16.0668C17.5128 15.5046 17.0568 15.0488 16.4943 15.0488Z" fill="current"/>
<path id="Vector_22" d="M16.4943 20H14.5185C13.956 20 13.5 20.4558 13.5 21.018V23.1862C13.5 23.7484 13.956 24.2042 14.5185 24.2042H16.4943C17.0568 24.2042 17.5128 23.7484 17.5128 23.1862V21.018C17.5128 20.4558 17.0568 20 16.4943 20Z" fill="current"/>
<path id="Vector_23" d="M21.4943 5H19.5185C18.956 5 18.5 5.45576 18.5 6.01796V8.18623C18.5 8.74843 18.956 9.20419 19.5185 9.20419H21.4943C22.0568 9.20419 22.5128 8.74843 22.5128 8.18623V6.01796C22.5128 5.45576 22.0568 5 21.4943 5Z" fill="current"/>
<path id="Vector_24" d="M16.4943 10H14.5185C13.956 10 13.5 10.4558 13.5 11.018V13.1862C13.5 13.7484 13.956 14.2042 14.5185 14.2042H16.4943C17.0568 14.2042 17.5128 13.7484 17.5128 13.1862V11.018C17.5128 10.4558 17.0568 10 16.4943 10Z" fill="current"/>
<path id="Vector_25" d="M31.4943 25H29.5185C28.956 25 28.5 25.4558 28.5 26.018V28.1862C28.5 28.7484 28.956 29.2042 29.5185 29.2042H31.4943C32.0568 29.2042 32.5128 28.7484 32.5128 28.1862V26.018C32.5128 25.4558 32.0568 25 31.4943 25Z" fill="current"/>
<path id="Vector_26" d="M36.4943 0H34.5185C33.956 0 33.5 0.455758 33.5 1.01796V3.18623C33.5 3.74843 33.956 4.20419 34.5185 4.20419H36.4943C37.0568 4.20419 37.5128 3.74843 37.5128 3.18623V1.01796C37.5128 0.455758 37.0568 0 36.4943 0Z" fill="current"/>
<path id="Vector_27" d="M46.4943 25H44.5185C43.956 25 43.5 25.4558 43.5 26.018V28.1862C43.5 28.7484 43.956 29.2042 44.5185 29.2042H46.4943C47.0568 29.2042 47.5128 28.7484 47.5128 28.1862V26.018C47.5128 25.4558 47.0568 25 46.4943 25Z" fill="current"/>
<path id="Vector_28" d="M21.4943 25H19.5185C18.956 25 18.5 25.4558 18.5 26.018V28.1862C18.5 28.7484 18.956 29.2042 19.5185 29.2042H21.4943C22.0568 29.2042 22.5128 28.7484 22.5128 28.1862V26.018C22.5128 25.4558 22.0568 25 21.4943 25Z" fill="current"/>
<path id="Vector_29" d="M26.4943 0H24.5185C23.956 0 23.5 0.455758 23.5 1.01796V3.18623C23.5 3.74843 23.956 4.20419 24.5185 4.20419H26.4943C27.0568 4.20419 27.5128 3.74843 27.5128 3.18623V1.01796C27.5128 0.455758 27.0568 0 26.4943 0Z" fill="current"/>
<path id="Vector_30" d="M16.4943 25H14.5185C13.956 25 13.5 25.4558 13.5 26.018V28.1862C13.5 28.7484 13.956 29.2042 14.5185 29.2042H16.4943C17.0568 29.2042 17.5128 28.7484 17.5128 28.1862V26.018C17.5128 25.4558 17.0568 25 16.4943 25Z" fill="current"/>
<path id="Vector_31" d="M11.4943 25H9.51847C8.95598 25 8.5 25.4558 8.5 26.018V28.1862C8.5 28.7484 8.95598 29.2042 9.51847 29.2042H11.4943C12.0568 29.2042 12.5128 28.7484 12.5128 28.1862V26.018C12.5128 25.4558 12.0568 25 11.4943 25Z" fill="current"/>
<path id="Vector_32" d="M36.4943 35.0488H34.5185C33.956 35.0488 33.5 35.5046 33.5 36.0668V38.2351C33.5 38.7973 33.956 39.253 34.5185 39.253H36.4943C37.0568 39.253 37.5128 38.7973 37.5128 38.2351V36.0668C37.5128 35.5046 37.0568 35.0488 36.4943 35.0488Z" fill="current"/>
<path id="Vector_33" d="M31.4943 35H29.5185C28.956 35 28.5 35.4558 28.5 36.018V38.1862C28.5 38.7484 28.956 39.2042 29.5185 39.2042H31.4943C32.0568 39.2042 32.5128 38.7484 32.5128 38.1862V36.018C32.5128 35.4558 32.0568 35 31.4943 35Z" fill="current"/>
<path id="Vector_34" d="M36.4943 25H34.5185C33.956 25 33.5 25.4558 33.5 26.018V28.1862C33.5 28.7484 33.956 29.2042 34.5185 29.2042H36.4943C37.0568 29.2042 37.5128 28.7484 37.5128 28.1862V26.018C37.5128 25.4558 37.0568 25 36.4943 25Z" fill="current"/>
<path id="Vector_35" d="M31.4943 45H29.5185C28.956 45 28.5 45.4558 28.5 46.018V48.1862C28.5 48.7484 28.956 49.2042 29.5185 49.2042H31.4943C32.0568 49.2042 32.5128 48.7484 32.5128 48.1862V46.018C32.5128 45.4558 32.0568 45 31.4943 45Z" fill="current"/>
<path id="Vector_36" d="M26.4943 45H24.5185C23.956 45 23.5 45.4558 23.5 46.018V48.1862C23.5 48.7484 23.956 49.2042 24.5185 49.2042H26.4943C27.0568 49.2042 27.5128 48.7484 27.5128 48.1862V46.018C27.5128 45.4558 27.0568 45 26.4943 45Z" fill="current"/>
<path id="Vector_37" d="M31.4943 39.9512H29.5185C28.956 39.9512 28.5 40.4069 28.5 40.9691V43.1374C28.5 43.6996 28.956 44.1554 29.5185 44.1554H31.4943C32.0568 44.1554 32.5128 43.6996 32.5128 43.1374V40.9691C32.5128 40.4069 32.0568 39.9512 31.4943 39.9512Z" fill="current"/>
<path id="Vector_38" d="M51.4943 25H49.5185C48.956 25 48.5 25.4558 48.5 26.018V28.1862C48.5 28.7484 48.956 29.2042 49.5185 29.2042H51.4943C52.0568 29.2042 52.5128 28.7484 52.5128 28.1862V26.018C52.5128 25.4558 52.0568 25 51.4943 25Z" fill="current"/>
<path id="Vector_39" d="M51.4943 50H49.5185C48.956 50 48.5 50.4558 48.5 51.018V53.1862C48.5 53.7484 48.956 54.2042 49.5185 54.2042H51.4943C52.0568 54.2042 52.5128 53.7484 52.5128 53.1862V51.018C52.5128 50.4558 52.0568 50 51.4943 50Z" fill="current"/>
<path id="Vector_40" d="M26.4943 55H24.5185C23.956 55 23.5 55.4558 23.5 56.018V58.1862C23.5 58.7484 23.956 59.2042 24.5185 59.2042H26.4943C27.0568 59.2042 27.5128 58.7484 27.5128 58.1862V56.018C27.5128 55.4558 27.0568 55 26.4943 55Z" fill="current"/>
<path id="Vector_41" d="M51.5256 55.043H49.5497C48.9872 55.043 48.5312 55.4987 48.5312 56.0609V58.2292C48.5312 58.7914 48.9872 59.2472 49.5497 59.2472H51.5256C52.088 59.2472 52.544 58.7914 52.544 58.2292V56.0609C52.544 55.4987 52.088 55.043 51.5256 55.043Z" fill="current"/>
<path id="Vector_42" d="M21.5256 55.043H19.5497C18.9872 55.043 18.5312 55.4987 18.5312 56.0609V58.2292C18.5312 58.7914 18.9872 59.2472 19.5497 59.2472H21.5256C22.088 59.2472 22.544 58.7914 22.544 58.2292V56.0609C22.544 55.4987 22.088 55.043 21.5256 55.043Z" fill="current"/>
<path id="Vector_43" d="M41.4943 55H39.5185C38.956 55 38.5 55.4558 38.5 56.018V58.1862C38.5 58.7484 38.956 59.2042 39.5185 59.2042H41.4943C42.0568 59.2042 42.5128 58.7484 42.5128 58.1862V56.018C42.5128 55.4558 42.0568 55 41.4943 55Z" fill="current"/>
<path id="Vector_44" d="M11.4943 50H9.51847C8.95598 50 8.5 50.4558 8.5 51.018V53.1862C8.5 53.7484 8.95598 54.2042 9.51847 54.2042H11.4943C12.0568 54.2042 12.5128 53.7484 12.5128 53.1862V51.018C12.5128 50.4558 12.0568 50 11.4943 50Z" fill="current"/>
</g>
</svg>
