<svg width="23" height="24" viewBox="0 0 23 24" fill="none" xmlns="http://www.w3.org/2000/svg">
<circle cx="11.5" cy="12" r="11.5" fill="#333333"/>
<mask id="mask0_13113_25627" style="mask-type:alpha" maskUnits="userSpaceOnUse" x="4" y="5" width="15" height="21">
<g clip-path="url(#clip0_13113_25627)">
<path d="M9.9981 20.8333H9.3395C9.152 20.8333 9 20.9852 9 21.1726V21.8954C9 22.0828 9.152 22.2347 9.3395 22.2347H9.9981C10.1856 22.2347 10.3376 22.0828 10.3376 21.8954V21.1726C10.3376 20.9852 10.1856 20.8333 9.9981 20.8333Z" fill="#FF5C00"/>
<path d="M9.9981 22.5164H9.3395C9.152 22.5164 9 22.6683 9 22.8557V23.5784C9 23.7658 9.152 23.9178 9.3395 23.9178H9.9981C10.1856 23.9178 10.3376 23.7658 10.3376 23.5784V22.8557C10.3376 22.6683 10.1856 22.5164 9.9981 22.5164Z" fill="#FF5C00"/>
<path d="M11.6651 20.817H11.0065C10.819 20.817 10.667 20.9689 10.667 21.1563V21.8791C10.667 22.0665 10.819 22.2184 11.0065 22.2184H11.6651C11.8526 22.2184 12.0046 22.0665 12.0046 21.8791V21.1563C12.0046 20.9689 11.8526 20.817 11.6651 20.817Z" fill="#FF5C00"/>
<path d="M11.6651 22.5H11.0065C10.819 22.5 10.667 22.6519 10.667 22.8393V23.5621C10.667 23.7495 10.819 23.9014 11.0065 23.9014H11.6651C11.8526 23.9014 12.0046 23.7495 12.0046 23.5621V22.8393C12.0046 22.6519 11.8526 22.5 11.6651 22.5Z" fill="#FF5C00"/>
<path d="M8.33111 20.8333H7.67251C7.48501 20.8333 7.33301 20.9852 7.33301 21.1726V21.8954C7.33301 22.0828 7.48501 22.2347 7.67251 22.2347H8.33111C8.51861 22.2347 8.67061 22.0828 8.67061 21.8954V21.1726C8.67061 20.9852 8.51861 20.8333 8.33111 20.8333Z" fill="#FF5C00"/>
<path d="M8.33111 22.5164H7.67251C7.48501 22.5164 7.33301 22.6683 7.33301 22.8557V23.5784C7.33301 23.7658 7.48501 23.9178 7.67251 23.9178H8.33111C8.51861 23.9178 8.67061 23.7658 8.67061 23.5784V22.8557C8.67061 22.6683 8.51861 22.5164 8.33111 22.5164Z" fill="#FF5C00"/>
<path d="M18.3311 20.8333H17.6725C17.485 20.8333 17.333 20.9852 17.333 21.1726V21.8954C17.333 22.0828 17.485 22.2347 17.6725 22.2347H18.3311C18.5186 22.2347 18.6706 22.0828 18.6706 21.8954V21.1726C18.6706 20.9852 18.5186 20.8333 18.3311 20.8333Z" fill="#FF5C00"/>
<path d="M18.3311 22.5164H17.6725C17.485 22.5164 17.333 22.6683 17.333 22.8557V23.5784C17.333 23.7658 17.485 23.9178 17.6725 23.9178H18.3311C18.5186 23.9178 18.6706 23.7658 18.6706 23.5784V22.8557C18.6706 22.6683 18.5186 22.5164 18.3311 22.5164Z" fill="#FF5C00"/>
<path d="M4.9981 20.8333H4.33949C4.152 20.8333 4 20.9852 4 21.1726V21.8954C4 22.0828 4.152 22.2347 4.33949 22.2347H4.9981C5.1856 22.2347 5.33759 22.0828 5.33759 21.8954V21.1726C5.33759 20.9852 5.1856 20.8333 4.9981 20.8333Z" fill="#FF5C00"/>
<path d="M4.9981 22.5164H4.33949C4.152 22.5164 4 22.6683 4 22.8557V23.5784C4 23.7658 4.152 23.9178 4.33949 23.9178H4.9981C5.1856 23.9178 5.33759 23.7658 5.33759 23.5784V22.8557C5.33759 22.6683 5.1856 22.5164 4.9981 22.5164Z" fill="#FF5C00"/>
<path d="M14.9981 20.8333H14.3395C14.152 20.8333 14 20.9852 14 21.1726V21.8954C14 22.0828 14.152 22.2347 14.3395 22.2347H14.9981C15.1856 22.2347 15.3376 22.0828 15.3376 21.8954V21.1726C15.3376 20.9852 15.1856 20.8333 14.9981 20.8333Z" fill="#FF5C00"/>
<path d="M14.9981 22.5164H14.3395C14.152 22.5164 14 22.6683 14 22.8557V23.5784C14 23.7658 14.152 23.9178 14.3395 23.9178H14.9981C15.1856 23.9178 15.3376 23.7658 15.3376 23.5784V22.8557C15.3376 22.6683 15.1856 22.5164 14.9981 22.5164Z" fill="#FF5C00"/>
<path d="M9.9981 17.5H9.3395C9.152 17.5 9 17.6519 9 17.8393V18.5621C9 18.7495 9.152 18.9014 9.3395 18.9014H9.9981C10.1856 18.9014 10.3376 18.7495 10.3376 18.5621V17.8393C10.3376 17.6519 10.1856 17.5 9.9981 17.5Z" fill="#FF5C00"/>
<path d="M11.6651 17.4836H11.0065C10.819 17.4836 10.667 17.6356 10.667 17.823V18.5457C10.667 18.7331 10.819 18.885 11.0065 18.885H11.6651C11.8526 18.885 12.0046 18.7331 12.0046 18.5457V17.823C12.0046 17.6356 11.8526 17.4836 11.6651 17.4836Z" fill="#FF5C00"/>
<path d="M11.6651 9.15027H11.0065C10.819 9.15027 10.667 9.30219 10.667 9.48959V10.2124C10.667 10.3998 10.819 10.5517 11.0065 10.5517H11.6651C11.8526 10.5517 12.0046 10.3998 12.0046 10.2124V9.48959C12.0046 9.30219 11.8526 9.15027 11.6651 9.15027Z" fill="#FF5C00"/>
<path d="M8.33111 17.5H7.67251C7.48501 17.5 7.33301 17.6519 7.33301 17.8393V18.5621C7.33301 18.7495 7.48501 18.9014 7.67251 18.9014H8.33111C8.51861 18.9014 8.67061 18.7495 8.67061 18.5621V17.8393C8.67061 17.6519 8.51861 17.5 8.33111 17.5Z" fill="#FF5C00"/>
<path d="M8.33111 9.16663H7.67251C7.48501 9.16663 7.33301 9.31856 7.33301 9.50596V10.2287C7.33301 10.4161 7.48501 10.568 7.67251 10.568H8.33111C8.51861 10.568 8.67061 10.4161 8.67061 10.2287V9.50596C8.67061 9.31856 8.51861 9.16663 8.33111 9.16663Z" fill="#FF5C00"/>
<path d="M8.33111 7.5H7.67251C7.48501 7.5 7.33301 7.65192 7.33301 7.83932V8.56208C7.33301 8.74948 7.48501 8.9014 7.67251 8.9014H8.33111C8.51861 8.9014 8.67061 8.74948 8.67061 8.56208V7.83932C8.67061 7.65192 8.51861 7.5 8.33111 7.5Z" fill="#FF5C00"/>
<path d="M6.6651 9.16663H6.00648C5.81899 9.16663 5.66699 9.31856 5.66699 9.50596V10.2287C5.66699 10.4161 5.81899 10.568 6.00648 10.568H6.6651C6.85259 10.568 7.00459 10.4161 7.00459 10.2287V9.50596C7.00459 9.31856 6.85259 9.16663 6.6651 9.16663Z" fill="#FF5C00"/>
<path d="M8.33111 10.8333H7.67251C7.48501 10.8333 7.33301 10.9852 7.33301 11.1726V11.8954C7.33301 12.0828 7.48501 12.2347 7.67251 12.2347H8.33111C8.51861 12.2347 8.67061 12.0828 8.67061 11.8954V11.1726C8.67061 10.9852 8.51861 10.8333 8.33111 10.8333Z" fill="#FF5C00"/>
<path d="M8.33111 12.5H7.67251C7.48501 12.5 7.33301 12.6519 7.33301 12.8393V13.5621C7.33301 13.7495 7.48501 13.9014 7.67251 13.9014H8.33111C8.51861 13.9014 8.67061 13.7495 8.67061 13.5621V12.8393C8.67061 12.6519 8.51861 12.5 8.33111 12.5Z" fill="#FF5C00"/>
<path d="M6.6651 10.8333H6.00648C5.81899 10.8333 5.66699 10.9852 5.66699 11.1726V11.8954C5.66699 12.0828 5.81899 12.2347 6.00648 12.2347H6.6651C6.85259 12.2347 7.00459 12.0828 7.00459 11.8954V11.1726C7.00459 10.9852 6.85259 10.8333 6.6651 10.8333Z" fill="#FF5C00"/>
<path d="M14.9981 17.5H14.3395C14.152 17.5 14 17.6519 14 17.8393V18.5621C14 18.7495 14.152 18.9014 14.3395 18.9014H14.9981C15.1856 18.9014 15.3376 18.7495 15.3376 18.5621V17.8393C15.3376 17.6519 15.1856 17.5 14.9981 17.5Z" fill="#FF5C00"/>
<path d="M14.9981 9.16663H14.3395C14.152 9.16663 14 9.31856 14 9.50596V10.2287C14 10.4161 14.152 10.568 14.3395 10.568H14.9981C15.1856 10.568 15.3376 10.4161 15.3376 10.2287V9.50596C15.3376 9.31856 15.1856 9.16663 14.9981 9.16663Z" fill="#FF5C00"/>
<path d="M14.9981 7.5H14.3395C14.152 7.5 14 7.65192 14 7.83932V8.56208C14 8.74948 14.152 8.9014 14.3395 8.9014H14.9981C15.1856 8.9014 15.3376 8.74948 15.3376 8.56208V7.83932C15.3376 7.65192 15.1856 7.5 14.9981 7.5Z" fill="#FF5C00"/>
<path d="M16.6651 9.16663H16.0065C15.819 9.16663 15.667 9.31856 15.667 9.50596V10.2287C15.667 10.4161 15.819 10.568 16.0065 10.568H16.6651C16.8526 10.568 17.0046 10.4161 17.0046 10.2287V9.50596C17.0046 9.31856 16.8526 9.16663 16.6651 9.16663Z" fill="#FF5C00"/>
<path d="M14.9981 10.8333H14.3395C14.152 10.8333 14 10.9852 14 11.1726V11.8954C14 12.0828 14.152 12.2347 14.3395 12.2347H14.9981C15.1856 12.2347 15.3376 12.0828 15.3376 11.8954V11.1726C15.3376 10.9852 15.1856 10.8333 14.9981 10.8333Z" fill="#FF5C00"/>
<path d="M14.9981 12.5H14.3395C14.152 12.5 14 12.6519 14 12.8393V13.5621C14 13.7495 14.152 13.9014 14.3395 13.9014H14.9981C15.1856 13.9014 15.3376 13.7495 15.3376 13.5621V12.8393C15.3376 12.6519 15.1856 12.5 14.9981 12.5Z" fill="#FF5C00"/>
<path d="M16.6651 10.8333H16.0065C15.819 10.8333 15.667 10.9852 15.667 11.1726V11.8954C15.667 12.0828 15.819 12.2347 16.0065 12.2347H16.6651C16.8526 12.2347 17.0046 12.0828 17.0046 11.8954V11.1726C17.0046 10.9852 16.8526 10.8333 16.6651 10.8333Z" fill="#FF5C00"/>
<path d="M9.9981 15.8497H9.3395C9.152 15.8497 9 16.0016 9 16.189V16.9117C9 17.0991 9.152 17.2511 9.3395 17.2511H9.9981C10.1856 17.2511 10.3376 17.0991 10.3376 16.9117V16.189C10.3376 16.0016 10.1856 15.8497 9.9981 15.8497Z" fill="#FF5C00"/>
<path d="M9.9981 14.183H9.3395C9.152 14.183 9 14.3349 9 14.5223V15.245C9 15.4324 9.152 15.5844 9.3395 15.5844H9.9981C10.1856 15.5844 10.3376 15.4324 10.3376 15.245V14.5223C10.3376 14.3349 10.1856 14.183 9.9981 14.183Z" fill="#FF5C00"/>
<path d="M11.6651 15.8333H11.0065C10.819 15.8333 10.667 15.9852 10.667 16.1726V16.8954C10.667 17.0828 10.819 17.2347 11.0065 17.2347H11.6651C11.8526 17.2347 12.0046 17.0828 12.0046 16.8954V16.1726C12.0046 15.9852 11.8526 15.8333 11.6651 15.8333Z" fill="#FF5C00"/>
<path d="M11.6651 14.1666H11.0065C10.819 14.1666 10.667 14.3186 10.667 14.506V15.2287C10.667 15.4161 10.819 15.568 11.0065 15.568H11.6651C11.8526 15.568 12.0046 15.4161 12.0046 15.2287V14.506C12.0046 14.3186 11.8526 14.1666 11.6651 14.1666Z" fill="#FF5C00"/>
<path d="M18.3311 19.1666H17.6725C17.485 19.1666 17.333 19.3186 17.333 19.506V20.2287C17.333 20.4161 17.485 20.568 17.6725 20.568H18.3311C18.5186 20.568 18.6706 20.4161 18.6706 20.2287V19.506C18.6706 19.3186 18.5186 19.1666 18.3311 19.1666Z" fill="#FF5C00"/>
<path d="M9.9981 7.51636H9.3395C9.152 7.51636 9 7.66828 9 7.85568V8.57843C9 8.76584 9.152 8.91775 9.3395 8.91775H9.9981C10.1856 8.91775 10.3376 8.76584 10.3376 8.57843V7.85568C10.3376 7.66828 10.1856 7.51636 9.9981 7.51636Z" fill="#FF5C00"/>
<path d="M11.6651 7.5H11.0065C10.819 7.5 10.667 7.65192 10.667 7.83932V8.56208C10.667 8.74948 10.819 8.9014 11.0065 8.9014H11.6651C11.8526 8.9014 12.0046 8.74948 12.0046 8.56208V7.83932C12.0046 7.65192 11.8526 7.5 11.6651 7.5Z" fill="#FF5C00"/>
<path d="M11.6651 5.83331H11.0065C10.819 5.83331 10.667 5.98523 10.667 6.17263V6.89539C10.667 7.08279 10.819 7.23471 11.0065 7.23471H11.6651C11.8526 7.23471 12.0046 7.08279 12.0046 6.89539V6.17263C12.0046 5.98523 11.8526 5.83331 11.6651 5.83331Z" fill="#FF5C00"/>
<path d="M9.9981 5.83331H9.3395C9.152 5.83331 9 5.98523 9 6.17263V6.89539C9 7.08279 9.152 7.23471 9.3395 7.23471H9.9981C10.1856 7.23471 10.3376 7.08279 10.3376 6.89539V6.17263C10.3376 5.98523 10.1856 5.83331 9.9981 5.83331Z" fill="#FF5C00"/>
<path d="M9.9981 19.183H9.3395C9.152 19.183 9 19.3349 9 19.5223V20.2451C9 20.4325 9.152 20.5844 9.3395 20.5844H9.9981C10.1856 20.5844 10.3376 20.4325 10.3376 20.2451V19.5223C10.3376 19.3349 10.1856 19.183 9.9981 19.183Z" fill="#FF5C00"/>
<path d="M11.6651 19.1666H11.0065C10.819 19.1666 10.667 19.3186 10.667 19.506V20.2287C10.667 20.4161 10.819 20.568 11.0065 20.568H11.6651C11.8526 20.568 12.0046 20.4161 12.0046 20.2287V19.506C12.0046 19.3186 11.8526 19.1666 11.6651 19.1666Z" fill="#FF5C00"/>
<path d="M9.9981 10.8497H9.3395C9.152 10.8497 9 11.0016 9 11.189V11.9117C9 12.0991 9.152 12.2511 9.3395 12.2511H9.9981C10.1856 12.2511 10.3376 12.0991 10.3376 11.9117V11.189C10.3376 11.0016 10.1856 10.8497 9.9981 10.8497Z" fill="#FF5C00"/>
<path d="M11.6651 10.8333H11.0065C10.819 10.8333 10.667 10.9852 10.667 11.1726V11.8954C10.667 12.0828 10.819 12.2347 11.0065 12.2347H11.6651C11.8526 12.2347 12.0046 12.0828 12.0046 11.8954V11.1726C12.0046 10.9852 11.8526 10.8333 11.6651 10.8333Z" fill="#FF5C00"/>
<path d="M8.33111 19.183H7.67251C7.48501 19.183 7.33301 19.3349 7.33301 19.5223V20.2451C7.33301 20.4325 7.48501 20.5844 7.67251 20.5844H8.33111C8.51861 20.5844 8.67061 20.4325 8.67061 20.2451V19.5223C8.67061 19.3349 8.51861 19.183 8.33111 19.183Z" fill="#FF5C00"/>
<path d="M4.9981 19.183H4.33949C4.152 19.183 4 19.3349 4 19.5223V20.2451C4 20.4325 4.152 20.5844 4.33949 20.5844H4.9981C5.1856 20.5844 5.33759 20.4325 5.33759 20.2451V19.5223C5.33759 19.3349 5.1856 19.183 4.9981 19.183Z" fill="#FF5C00"/>
<path d="M14.9981 19.183H14.3395C14.152 19.183 14 19.3349 14 19.5223V20.2451C14 20.4325 14.152 20.5844 14.3395 20.5844H14.9981C15.1856 20.5844 15.3376 20.4325 15.3376 20.2451V19.5223C15.3376 19.3349 15.1856 19.183 14.9981 19.183Z" fill="#FF5C00"/>
<path d="M13.3419 20.8638H12.6832C12.4957 20.8638 12.3438 21.0157 12.3438 21.2031V21.9259C12.3438 22.1133 12.4957 22.2652 12.6832 22.2652H13.3419C13.5293 22.2652 13.6813 22.1133 13.6813 21.9259V21.2031C13.6813 21.0157 13.5293 20.8638 13.3419 20.8638Z" fill="#FF5C00"/>
<path d="M13.3419 22.5468H12.6832C12.4957 22.5468 12.3438 22.6987 12.3438 22.8861V23.6089C12.3438 23.7963 12.4957 23.9482 12.6832 23.9482H13.3419C13.5293 23.9482 13.6813 23.7963 13.6813 23.6089V22.8861C13.6813 22.6987 13.5293 22.5468 13.3419 22.5468Z" fill="#FF5C00"/>
<path d="M6.67486 20.8638H6.01625C5.82875 20.8638 5.67676 21.0157 5.67676 21.2031V21.9259C5.67676 22.1133 5.82875 22.2652 6.01625 22.2652H6.67486C6.86235 22.2652 7.01435 22.1133 7.01435 21.9259V21.2031C7.01435 21.0157 6.86235 20.8638 6.67486 20.8638Z" fill="#FF5C00"/>
<path d="M6.67486 22.5468H6.01625C5.82875 22.5468 5.67676 22.6987 5.67676 22.8861V23.6089C5.67676 23.7963 5.82875 23.9482 6.01625 23.9482H6.67486C6.86235 23.9482 7.01435 23.7963 7.01435 23.6089V22.8861C7.01435 22.6987 6.86235 22.5468 6.67486 22.5468Z" fill="#FF5C00"/>
<path d="M16.6749 20.8638H16.0163C15.8288 20.8638 15.6768 21.0157 15.6768 21.2031V21.9259C15.6768 22.1133 15.8288 22.2652 16.0163 22.2652H16.6749C16.8624 22.2652 17.0144 22.1133 17.0144 21.9259V21.2031C17.0144 21.0157 16.8624 20.8638 16.6749 20.8638Z" fill="#FF5C00"/>
<path d="M16.6749 22.5468H16.0163C15.8288 22.5468 15.6768 22.6987 15.6768 22.8861V23.6089C15.6768 23.7963 15.8288 23.9482 16.0163 23.9482H16.6749C16.8624 23.9482 17.0144 23.7963 17.0144 23.6089V22.8861C17.0144 22.6987 16.8624 22.5468 16.6749 22.5468Z" fill="#FF5C00"/>
<path d="M13.3419 17.5305H12.6832C12.4957 17.5305 12.3438 17.6824 12.3438 17.8698V18.5926C12.3438 18.78 12.4957 18.9319 12.6832 18.9319H13.3419C13.5293 18.9319 13.6813 18.78 13.6813 18.5926V17.8698C13.6813 17.6824 13.5293 17.5305 13.3419 17.5305Z" fill="#FF5C00"/>
<path d="M6.67486 17.5305H6.01625C5.82875 17.5305 5.67676 17.6824 5.67676 17.8698V18.5926C5.67676 18.78 5.82875 18.9319 6.01625 18.9319H6.67486C6.86235 18.9319 7.01435 18.78 7.01435 18.5926V17.8698C7.01435 17.6824 6.86235 17.5305 6.67486 17.5305Z" fill="#FF5C00"/>
<path d="M16.6749 17.5305H16.0163C15.8288 17.5305 15.6768 17.6824 15.6768 17.8698V18.5926C15.6768 18.78 15.8288 18.9319 16.0163 18.9319H16.6749C16.8624 18.9319 17.0144 18.78 17.0144 18.5926V17.8698C17.0144 17.6824 16.8624 17.5305 16.6749 17.5305Z" fill="#FF5C00"/>
<path d="M13.3419 15.8802H12.6832C12.4957 15.8802 12.3438 16.0321 12.3438 16.2195V16.9423C12.3438 17.1297 12.4957 17.2816 12.6832 17.2816H13.3419C13.5293 17.2816 13.6813 17.1297 13.6813 16.9423V16.2195C13.6813 16.0321 13.5293 15.8802 13.3419 15.8802Z" fill="#FF5C00"/>
<path d="M13.3419 14.2135H12.6832C12.4957 14.2135 12.3438 14.3654 12.3438 14.5528V15.2756C12.3438 15.463 12.4957 15.6149 12.6832 15.6149H13.3419C13.5293 15.6149 13.6813 15.463 13.6813 15.2756V14.5528C13.6813 14.3654 13.5293 14.2135 13.3419 14.2135Z" fill="#FF5C00"/>
<path d="M13.3419 7.54688H12.6832C12.4957 7.54688 12.3438 7.69879 12.3438 7.8862V8.60895C12.3438 8.79635 12.4957 8.94827 12.6832 8.94827H13.3419C13.5293 8.94827 13.6813 8.79635 13.6813 8.60895V7.8862C13.6813 7.69879 13.5293 7.54688 13.3419 7.54688Z" fill="#FF5C00"/>
<path d="M13.3311 5.83331H12.6725C12.485 5.83331 12.333 5.98523 12.333 6.17263V6.89539C12.333 7.08279 12.485 7.23471 12.6725 7.23471H13.3311C13.5186 7.23471 13.6706 7.08279 13.6706 6.89539V6.17263C13.6706 5.98523 13.5186 5.83331 13.3311 5.83331Z" fill="#FF5C00"/>
<path d="M13.3419 19.2135H12.6832C12.4957 19.2135 12.3438 19.3654 12.3438 19.5528V20.2756C12.3438 20.463 12.4957 20.6149 12.6832 20.6149H13.3419C13.5293 20.6149 13.6813 20.463 13.6813 20.2756V19.5528C13.6813 19.3654 13.5293 19.2135 13.3419 19.2135Z" fill="#FF5C00"/>
<path d="M13.3419 10.8802H12.6832C12.4957 10.8802 12.3438 11.0321 12.3438 11.2195V11.9423C12.3438 12.1297 12.4957 12.2816 12.6832 12.2816H13.3419C13.5293 12.2816 13.6813 12.1297 13.6813 11.9423V11.2195C13.6813 11.0321 13.5293 10.8802 13.3419 10.8802Z" fill="#FF5C00"/>
<path d="M6.67486 19.2135H6.01625C5.82875 19.2135 5.67676 19.3654 5.67676 19.5528V20.2756C5.67676 20.463 5.82875 20.6149 6.01625 20.6149H6.67486C6.86235 20.6149 7.01435 20.463 7.01435 20.2756V19.5528C7.01435 19.3654 6.86235 19.2135 6.67486 19.2135Z" fill="#FF5C00"/>
<path d="M16.6749 19.2135H16.0163C15.8288 19.2135 15.6768 19.3654 15.6768 19.5528V20.2756C15.6768 20.463 15.8288 20.6149 16.0163 20.6149H16.6749C16.8624 20.6149 17.0144 20.463 17.0144 20.2756V19.5528C17.0144 19.3654 16.8624 19.2135 16.6749 19.2135Z" fill="#FF5C00"/>
</g>
</mask>
<g mask="url(#mask0_13113_25627)">
<circle cx="11.5" cy="12" r="11.5" fill="white"/>
</g>
<defs>
<clipPath id="clip0_13113_25627">
<rect width="15" height="20" fill="white" transform="translate(4 5.83331)"/>
</clipPath>
</defs>
</svg>
