<svg width="30" height="31" viewBox="0 0 30 31" fill="none" xmlns="http://www.w3.org/2000/svg">
<g id="icon protocol">
<path id="Vector" d="M21.4972 27.0471H20.5092C20.228 27.0471 20 27.2759 20 27.5582V28.6468C20 28.929 20.228 29.1578 20.5092 29.1578H21.4972C21.7784 29.1578 22.0064 28.929 22.0064 28.6468V27.5582C22.0064 27.2759 21.7784 27.0471 21.4972 27.0471Z" fill="white"/>
<path id="Vector_2" d="M6.49715 14.4958H5.50924C5.22799 14.4958 5 14.7247 5 15.0069V16.0955C5 16.3777 5.22799 16.6066 5.50924 16.6066H6.49715C6.7784 16.6066 7.00639 16.3777 7.00639 16.0955V15.0069C7.00639 14.7247 6.7784 14.4958 6.49715 14.4958Z" fill="white"/>
<path id="Vector_3" d="M3.99715 14.4958H3.00924C2.72799 14.4958 2.5 14.7247 2.5 15.0069V16.0955C2.5 16.3777 2.72799 16.6066 3.00924 16.6066H3.99715C4.2784 16.6066 4.50639 16.3777 4.50639 16.0955V15.0069C4.50639 14.7247 4.2784 14.4958 3.99715 14.4958Z" fill="white"/>
<path id="Vector_4" d="M13.9972 6.98975H13.0092C12.728 6.98975 12.5 7.21856 12.5 7.50081V8.58939C12.5 8.87164 12.728 9.10046 13.0092 9.10046H13.9972C14.2784 9.10046 14.5064 8.87164 14.5064 8.58939V7.50081C14.5064 7.21856 14.2784 6.98975 13.9972 6.98975Z" fill="white"/>
<path id="Vector_5" d="M13.9972 14.5203H13.0092C12.728 14.5203 12.5 14.7491 12.5 15.0313V16.1199C12.5 16.4022 12.728 16.631 13.0092 16.631H13.9972C14.2784 16.631 14.5064 16.4022 14.5064 16.1199V15.0313C14.5064 14.7491 14.2784 14.5203 13.9972 14.5203Z" fill="white"/>
<path id="Vector_6" d="M13.9972 22.0266H13.0092C12.728 22.0266 12.5 22.2554 12.5 22.5377V23.6263C12.5 23.9085 12.728 24.1373 13.0092 24.1373H13.9972C14.2784 24.1373 14.5064 23.9085 14.5064 23.6263V22.5377C14.5064 22.2554 14.2784 22.0266 13.9972 22.0266Z" fill="white"/>
<path id="Vector_7" d="M23.9972 6.98975H23.0092C22.728 6.98975 22.5 7.21856 22.5 7.50081V8.58939C22.5 8.87164 22.728 9.10046 23.0092 9.10046H23.9972C24.2784 9.10046 24.5064 8.87164 24.5064 8.58939V7.50081C24.5064 7.21856 24.2784 6.98975 23.9972 6.98975Z" fill="white"/>
<path id="Vector_8" d="M26.4972 6.98975H25.5092C25.228 6.98975 25 7.21856 25 7.50081V8.58939C25 8.87164 25.228 9.10046 25.5092 9.10046H26.4972C26.7784 9.10046 27.0064 8.87164 27.0064 8.58939V7.50081C27.0064 7.21856 26.7784 6.98975 26.4972 6.98975Z" fill="white"/>
<path id="Vector_9" d="M21.4972 14.5203H20.5092C20.228 14.5203 20 14.7491 20 15.0313V16.1199C20 16.4022 20.228 16.631 20.5092 16.631H21.4972C21.7784 16.631 22.0064 16.4022 22.0064 16.1199V15.0313C22.0064 14.7491 21.7784 14.5203 21.4972 14.5203Z" fill="white"/>
<path id="Vector_10" d="M23.9972 22.051H23.0092C22.728 22.051 22.5 22.2798 22.5 22.5621V23.6507C22.5 23.9329 22.728 24.1617 23.0092 24.1617H23.9972C24.2784 24.1617 24.5064 23.9329 24.5064 23.6507V22.5621C24.5064 22.2798 24.2784 22.051 23.9972 22.051Z" fill="white"/>
<path id="Vector_11" d="M26.4972 22.051H25.5092C25.228 22.051 25 22.2798 25 22.5621V23.6507C25 23.9329 25.228 24.1617 25.5092 24.1617H26.4972C26.7784 24.1617 27.0064 23.9329 27.0064 23.6507V22.5621C27.0064 22.2798 26.7784 22.051 26.4972 22.051Z" fill="white"/>
<path id="Vector_12" d="M21.4972 24.5369H20.5092C20.228 24.5369 20 24.7657 20 25.0479V26.1365C20 26.4188 20.228 26.6476 20.5092 26.6476H21.4972C21.7784 26.6476 22.0064 26.4188 22.0064 26.1365V25.0479C22.0064 24.7657 21.7784 24.5369 21.4972 24.5369Z" fill="white"/>
<path id="Vector_13" d="M21.4972 4.45483H20.5092C20.228 4.45483 20 4.68365 20 4.9659V6.05448C20 6.33673 20.228 6.56555 20.5092 6.56555H21.4972C21.7784 6.56555 22.0064 6.33673 22.0064 6.05448V4.9659C22.0064 4.68365 21.7784 4.45483 21.4972 4.45483Z" fill="white"/>
<path id="Vector_14" d="M23.9972 11.9856H23.0092C22.728 11.9856 22.5 12.2144 22.5 12.4967V13.5852C22.5 13.8675 22.728 14.0963 23.0092 14.0963H23.9972C24.2784 14.0963 24.5064 13.8675 24.5064 13.5852V12.4967C24.5064 12.2144 24.2784 11.9856 23.9972 11.9856Z" fill="white"/>
<path id="Vector_15" d="M26.4972 11.9856H25.5092C25.228 11.9856 25 12.2144 25 12.4967V13.5852C25 13.8675 25.228 14.0963 25.5092 14.0963H26.4972C26.7784 14.0963 27.0064 13.8675 27.0064 13.5852V12.4967C27.0064 12.2144 26.7784 11.9856 26.4972 11.9856Z" fill="white"/>
<path id="Vector_16" d="M23.9972 1.94458H23.0092C22.728 1.94458 22.5 2.17339 22.5 2.45565V3.54422C22.5 3.82648 22.728 4.05529 23.0092 4.05529H23.9972C24.2784 4.05529 24.5064 3.82648 24.5064 3.54422V2.45565C24.5064 2.17339 24.2784 1.94458 23.9972 1.94458Z" fill="white"/>
<path id="Vector_17" d="M26.4972 1.94458H25.5092C25.228 1.94458 25 2.17339 25 2.45565V3.54422C25 3.82648 25.228 4.05529 25.5092 4.05529H26.4972C26.7784 4.05529 27.0064 3.82648 27.0064 3.54422V2.45565C27.0064 2.17339 26.7784 1.94458 26.4972 1.94458Z" fill="white"/>
<path id="Vector_18" d="M23.9972 17.0061H23.0092C22.728 17.0061 22.5 17.2349 22.5 17.5172V18.6057C22.5 18.888 22.728 19.1168 23.0092 19.1168H23.9972C24.2784 19.1168 24.5064 18.888 24.5064 18.6057V17.5172C24.5064 17.2349 24.2784 17.0061 23.9972 17.0061Z" fill="white"/>
<path id="Vector_19" d="M26.4972 17.0061H25.5092C25.228 17.0061 25 17.2349 25 17.5172V18.6057C25 18.888 25.228 19.1168 25.5092 19.1168H26.4972C26.7784 19.1168 27.0064 18.888 27.0064 18.6057V17.5172C27.0064 17.2349 26.7784 17.0061 26.4972 17.0061Z" fill="white"/>
<path id="Vector_20" d="M8.99715 17.0061H8.00924C7.72799 17.0061 7.5 17.2349 7.5 17.5172V18.6057C7.5 18.888 7.72799 19.1168 8.00924 19.1168H8.99715C9.2784 19.1168 9.50639 18.888 9.50639 18.6057V17.5172C9.50639 17.2349 9.2784 17.0061 8.99715 17.0061Z" fill="white"/>
<path id="Vector_21" d="M8.99715 11.9856H8.00924C7.72799 11.9856 7.5 12.2144 7.5 12.4967V13.5852C7.5 13.8675 7.72799 14.0963 8.00924 14.0963H8.99715C9.2784 14.0963 9.50639 13.8675 9.50639 13.5852V12.4967C9.50639 12.2144 9.2784 11.9856 8.99715 11.9856Z" fill="white"/>
<path id="Vector_22" d="M16.4972 14.5203H15.5092C15.228 14.5203 15 14.7491 15 15.0313V16.1199C15 16.4022 15.228 16.631 15.5092 16.631H16.4972C16.7784 16.631 17.0064 16.4022 17.0064 16.1199V15.0313C17.0064 14.7491 16.7784 14.5203 16.4972 14.5203Z" fill="white"/>
<path id="Vector_23" d="M16.4972 24.5369H15.5092C15.228 24.5369 15 24.7657 15 25.0479V26.1365C15 26.4188 15.228 26.6476 15.5092 26.6476H16.4972C16.7784 26.6476 17.0064 26.4188 17.0064 26.1365V25.0479C17.0064 24.7657 16.7784 24.5369 16.4972 24.5369Z" fill="white"/>
<path id="Vector_24" d="M16.4972 4.45483H15.5092C15.228 4.45483 15 4.68365 15 4.9659V6.05448C15 6.33673 15.228 6.56555 15.5092 6.56555H16.4972C16.7784 6.56555 17.0064 6.33673 17.0064 6.05448V4.9659C17.0064 4.68365 16.7784 4.45483 16.4972 4.45483Z" fill="white"/>
<path id="Vector_25" d="M23.9972 14.5203H23.0092C22.728 14.5203 22.5 14.7491 22.5 15.0313V16.1199C22.5 16.4022 22.728 16.631 23.0092 16.631H23.9972C24.2784 16.631 24.5064 16.4022 24.5064 16.1199V15.0313C24.5064 14.7491 24.2784 14.5203 23.9972 14.5203Z" fill="white"/>
<path id="Vector_26" d="M26.4972 14.5203H25.5092C25.228 14.5203 25 14.7491 25 15.0313V16.1199C25 16.4022 25.228 16.631 25.5092 16.631H26.4972C26.7784 16.631 27.0064 16.4022 27.0064 16.1199V15.0313C27.0064 14.7491 26.7784 14.5203 26.4972 14.5203Z" fill="white"/>
<path id="Vector_27" d="M23.9972 24.5369H23.0092C22.728 24.5369 22.5 24.7657 22.5 25.0479V26.1365C22.5 26.4188 22.728 26.6476 23.0092 26.6476H23.9972C24.2784 26.6476 24.5064 26.4188 24.5064 26.1365V25.0479C24.5064 24.7657 24.2784 24.5369 23.9972 24.5369Z" fill="white"/>
<path id="Vector_28" d="M26.4972 24.5369H25.5092C25.228 24.5369 25 24.7657 25 25.0479V26.1365C25 26.4188 25.228 26.6476 25.5092 26.6476H26.4972C26.7784 26.6476 27.0064 26.4188 27.0064 26.1365V25.0479C27.0064 24.7657 26.7784 24.5369 26.4972 24.5369Z" fill="white"/>
<path id="Vector_29" d="M23.9972 4.45483H23.0092C22.728 4.45483 22.5 4.68365 22.5 4.9659V6.05448C22.5 6.33673 22.728 6.56555 23.0092 6.56555H23.9972C24.2784 6.56555 24.5064 6.33673 24.5064 6.05448V4.9659C24.5064 4.68365 24.2784 4.45483 23.9972 4.45483Z" fill="white"/>
<path id="Vector_30" d="M26.4972 4.45483H25.5092C25.228 4.45483 25 4.68365 25 4.9659V6.05448C25 6.33673 25.228 6.56555 25.5092 6.56555H26.4972C26.7784 6.56555 27.0064 6.33673 27.0064 6.05448V4.9659C27.0064 4.68365 26.7784 4.45483 26.4972 4.45483Z" fill="white"/>
<path id="Vector_31" d="M11.4972 14.5203H10.5092C10.228 14.5203 10 14.7491 10 15.0313V16.1199C10 16.4022 10.228 16.631 10.5092 16.631H11.4972C11.7784 16.631 12.0064 16.4022 12.0064 16.1199V15.0313C12.0064 14.7491 11.7784 14.5203 11.4972 14.5203Z" fill="white"/>
<path id="Vector_32" d="M8.99715 14.4958H8.00924C7.72799 14.4958 7.5 14.7247 7.5 15.0069V16.0955C7.5 16.3777 7.72799 16.6066 8.00924 16.6066H8.99715C9.2784 16.6066 9.50639 16.3777 9.50639 16.0955V15.0069C9.50639 14.7247 9.2784 14.4958 8.99715 14.4958Z" fill="white"/>
<path id="Vector_33" d="M11.4972 19.5164H10.5092C10.228 19.5164 10 19.7452 10 20.0274V21.116C10 21.3983 10.228 21.6271 10.5092 21.6271H11.4972C11.7784 21.6271 12.0064 21.3983 12.0064 21.116V20.0274C12.0064 19.7452 11.7784 19.5164 11.4972 19.5164Z" fill="white"/>
<path id="Vector_34" d="M11.4972 9.47534H10.5092C10.228 9.47534 10 9.70415 10 9.98641V11.075C10 11.3572 10.228 11.5861 10.5092 11.5861H11.4972C11.7784 11.5861 12.0064 11.3572 12.0064 11.075V9.98641C12.0064 9.70415 11.7784 9.47534 11.4972 9.47534Z" fill="white"/>
<path id="Vector_35" d="M18.9972 14.5203H18.0092C17.728 14.5203 17.5 14.7491 17.5 15.0313V16.1199C17.5 16.4022 17.728 16.631 18.0092 16.631H18.9972C19.2784 16.631 19.5064 16.4022 19.5064 16.1199V15.0313C19.5064 14.7491 19.2784 14.5203 18.9972 14.5203Z" fill="white"/>
<path id="Vector_36" d="M21.4972 22.051H20.5092C20.228 22.051 20 22.2798 20 22.5621V23.6507C20 23.9329 20.228 24.1617 20.5092 24.1617H21.4972C21.7784 24.1617 22.0064 23.9329 22.0064 23.6507V22.5621C22.0064 22.2798 21.7784 22.051 21.4972 22.051Z" fill="white"/>
<path id="Vector_37" d="M18.9972 24.5369H18.0092C17.728 24.5369 17.5 24.7657 17.5 25.0479V26.1365C17.5 26.4188 17.728 26.6476 18.0092 26.6476H18.9972C19.2784 26.6476 19.5064 26.4188 19.5064 26.1365V25.0479C19.5064 24.7657 19.2784 24.5369 18.9972 24.5369Z" fill="white"/>
<path id="Vector_38" d="M18.9972 4.45483H18.0092C17.728 4.45483 17.5 4.68365 17.5 4.9659V6.05448C17.5 6.33673 17.728 6.56555 18.0092 6.56555H18.9972C19.2784 6.56555 19.5064 6.33673 19.5064 6.05448V4.9659C19.5064 4.68365 19.2784 4.45483 18.9972 4.45483Z" fill="white"/>
<path id="Vector_39" d="M21.4972 6.96509H20.5092C20.228 6.96509 20 7.1939 20 7.47616V8.56473C20 8.84699 20.228 9.0758 20.5092 9.0758H21.4972C21.7784 9.0758 22.0064 8.84699 22.0064 8.56473V7.47616C22.0064 7.1939 21.7784 6.96509 21.4972 6.96509Z" fill="white"/>
<path id="Vector_40" d="M21.4972 11.9856H20.5092C20.228 11.9856 20 12.2144 20 12.4967V13.5852C20 13.8675 20.228 14.0963 20.5092 14.0963H21.4972C21.7784 14.0963 22.0064 13.8675 22.0064 13.5852V12.4967C22.0064 12.2144 21.7784 11.9856 21.4972 11.9856Z" fill="white"/>
<path id="Vector_41" d="M21.4972 1.94458H20.5092C20.228 1.94458 20 2.17339 20 2.45565V3.54422C20 3.82648 20.228 4.05529 20.5092 4.05529H21.4972C21.7784 4.05529 22.0064 3.82648 22.0064 3.54422V2.45565C22.0064 2.17339 21.7784 1.94458 21.4972 1.94458Z" fill="white"/>
<path id="Vector_42" d="M21.4972 17.0061H20.5092C20.228 17.0061 20 17.2349 20 17.5172V18.6057C20 18.888 20.228 19.1168 20.5092 19.1168H21.4972C21.7784 19.1168 22.0064 18.888 22.0064 18.6057V17.5172C22.0064 17.2349 21.7784 17.0061 21.4972 17.0061Z" fill="white"/>
<path id="Vector_43" d="M23.9972 27.0471H23.0092C22.728 27.0471 22.5 27.2759 22.5 27.5582V28.6468C22.5 28.929 22.728 29.1578 23.0092 29.1578H23.9972C24.2784 29.1578 24.5064 28.929 24.5064 28.6468V27.5582C24.5064 27.2759 24.2784 27.0471 23.9972 27.0471Z" fill="white"/>
<path id="Vector_44" d="M26.4972 27.0471H25.5092C25.228 27.0471 25 27.2759 25 27.5582V28.6468C25 28.929 25.228 29.1578 25.5092 29.1578H26.4972C26.7784 29.1578 27.0064 28.929 27.0064 28.6468V27.5582C27.0064 27.2759 26.7784 27.0471 26.4972 27.0471Z" fill="white"/>
</g>
</svg>
