<svg width="31" height="31" viewBox="0 0 31 31" fill="none" xmlns="http://www.w3.org/2000/svg">
<g id="icon protocol">
<path id="Vector" d="M21.9972 26.6084H21.0092C20.728 26.6084 20.5 26.8372 20.5 27.1195V28.208C20.5 28.4903 20.728 28.7191 21.0092 28.7191H21.9972C22.2784 28.7191 22.5064 28.4903 22.5064 28.208V27.1195C22.5064 26.8372 22.2784 26.6084 21.9972 26.6084Z" fill="black"/>
<path id="Vector_2" d="M6.99715 14.0576H6.00924C5.72799 14.0576 5.5 14.2864 5.5 14.5687V15.6573C5.5 15.9395 5.72799 16.1683 6.00924 16.1683H6.99715C7.2784 16.1683 7.50639 15.9395 7.50639 15.6573V14.5687C7.50639 14.2864 7.2784 14.0576 6.99715 14.0576Z" fill="black"/>
<path id="Vector_3" d="M4.49715 14.0576H3.50924C3.22799 14.0576 3 14.2864 3 14.5687V15.6573C3 15.9395 3.22799 16.1683 3.50924 16.1683H4.49715C4.7784 16.1683 5.00639 15.9395 5.00639 15.6573V14.5687C5.00639 14.2864 4.7784 14.0576 4.49715 14.0576Z" fill="black"/>
<path id="Vector_4" d="M14.4972 6.55078H13.5092C13.228 6.55078 13 6.77959 13 7.06185V8.15042C13 8.43268 13.228 8.66149 13.5092 8.66149H14.4972C14.7784 8.66149 15.0064 8.43268 15.0064 8.15042V7.06185C15.0064 6.77959 14.7784 6.55078 14.4972 6.55078Z" fill="black"/>
<path id="Vector_5" d="M14.4972 14.082H13.5092C13.228 14.082 13 14.3108 13 14.5931V15.6817C13 15.9639 13.228 16.1927 13.5092 16.1927H14.4972C14.7784 16.1927 15.0064 15.9639 15.0064 15.6817V14.5931C15.0064 14.3108 14.7784 14.082 14.4972 14.082Z" fill="black"/>
<path id="Vector_6" d="M14.4972 21.5879H13.5092C13.228 21.5879 13 21.8167 13 22.099V23.1875C13 23.4698 13.228 23.6986 13.5092 23.6986H14.4972C14.7784 23.6986 15.0064 23.4698 15.0064 23.1875V22.099C15.0064 21.8167 14.7784 21.5879 14.4972 21.5879Z" fill="black"/>
<path id="Vector_7" d="M24.4972 6.55078H23.5092C23.228 6.55078 23 6.77959 23 7.06185V8.15042C23 8.43268 23.228 8.66149 23.5092 8.66149H24.4972C24.7784 8.66149 25.0064 8.43268 25.0064 8.15042V7.06185C25.0064 6.77959 24.7784 6.55078 24.4972 6.55078Z" fill="black"/>
<path id="Vector_8" d="M26.9972 6.55078H26.0092C25.728 6.55078 25.5 6.77959 25.5 7.06185V8.15042C25.5 8.43268 25.728 8.66149 26.0092 8.66149H26.9972C27.2784 8.66149 27.5064 8.43268 27.5064 8.15042V7.06185C27.5064 6.77959 27.2784 6.55078 26.9972 6.55078Z" fill="black"/>
<path id="Vector_9" d="M21.9972 14.082H21.0092C20.728 14.082 20.5 14.3108 20.5 14.5931V15.6817C20.5 15.9639 20.728 16.1927 21.0092 16.1927H21.9972C22.2784 16.1927 22.5064 15.9639 22.5064 15.6817V14.5931C22.5064 14.3108 22.2784 14.082 21.9972 14.082Z" fill="black"/>
<path id="Vector_10" d="M24.4972 21.6123H23.5092C23.228 21.6123 23 21.8411 23 22.1234V23.2119C23 23.4942 23.228 23.723 23.5092 23.723H24.4972C24.7784 23.723 25.0064 23.4942 25.0064 23.2119V22.1234C25.0064 21.8411 24.7784 21.6123 24.4972 21.6123Z" fill="black"/>
<path id="Vector_11" d="M26.9972 21.6123H26.0092C25.728 21.6123 25.5 21.8411 25.5 22.1234V23.2119C25.5 23.4942 25.728 23.723 26.0092 23.723H26.9972C27.2784 23.723 27.5064 23.4942 27.5064 23.2119V22.1234C27.5064 21.8411 27.2784 21.6123 26.9972 21.6123Z" fill="black"/>
<path id="Vector_12" d="M21.9972 24.0986H21.0092C20.728 24.0986 20.5 24.3274 20.5 24.6097V25.6983C20.5 25.9805 20.728 26.2093 21.0092 26.2093H21.9972C22.2784 26.2093 22.5064 25.9805 22.5064 25.6983V24.6097C22.5064 24.3274 22.2784 24.0986 21.9972 24.0986Z" fill="black"/>
<path id="Vector_13" d="M21.9972 4.0166H21.0092C20.728 4.0166 20.5 4.24541 20.5 4.52767V5.61625C20.5 5.8985 20.728 6.12731 21.0092 6.12731H21.9972C22.2784 6.12731 22.5064 5.8985 22.5064 5.61625V4.52767C22.5064 4.24541 22.2784 4.0166 21.9972 4.0166Z" fill="black"/>
<path id="Vector_14" d="M24.4972 11.5469H23.5092C23.228 11.5469 23 11.7757 23 12.0579V13.1465C23 13.4288 23.228 13.6576 23.5092 13.6576H24.4972C24.7784 13.6576 25.0064 13.4288 25.0064 13.1465V12.0579C25.0064 11.7757 24.7784 11.5469 24.4972 11.5469Z" fill="black"/>
<path id="Vector_15" d="M26.9972 11.5469H26.0092C25.728 11.5469 25.5 11.7757 25.5 12.0579V13.1465C25.5 13.4288 25.728 13.6576 26.0092 13.6576H26.9972C27.2784 13.6576 27.5064 13.4288 27.5064 13.1465V12.0579C27.5064 11.7757 27.2784 11.5469 26.9972 11.5469Z" fill="black"/>
<path id="Vector_16" d="M24.4972 1.50586H23.5092C23.228 1.50586 23 1.73467 23 2.01693V3.1055C23 3.38776 23.228 3.61657 23.5092 3.61657H24.4972C24.7784 3.61657 25.0064 3.38776 25.0064 3.1055V2.01693C25.0064 1.73467 24.7784 1.50586 24.4972 1.50586Z" fill="black"/>
<path id="Vector_17" d="M26.9972 1.50586H26.0092C25.728 1.50586 25.5 1.73467 25.5 2.01693V3.1055C25.5 3.38776 25.728 3.61657 26.0092 3.61657H26.9972C27.2784 3.61657 27.5064 3.38776 27.5064 3.1055V2.01693C27.5064 1.73467 27.2784 1.50586 26.9972 1.50586Z" fill="black"/>
<path id="Vector_18" d="M24.4972 16.5674H23.5092C23.228 16.5674 23 16.7962 23 17.0785V18.167C23 18.4493 23.228 18.6781 23.5092 18.6781H24.4972C24.7784 18.6781 25.0064 18.4493 25.0064 18.167V17.0785C25.0064 16.7962 24.7784 16.5674 24.4972 16.5674Z" fill="black"/>
<path id="Vector_19" d="M26.9972 16.5674H26.0092C25.728 16.5674 25.5 16.7962 25.5 17.0785V18.167C25.5 18.4493 25.728 18.6781 26.0092 18.6781H26.9972C27.2784 18.6781 27.5064 18.4493 27.5064 18.167V17.0785C27.5064 16.7962 27.2784 16.5674 26.9972 16.5674Z" fill="black"/>
<path id="Vector_20" d="M9.49715 16.5674H8.50924C8.22799 16.5674 8 16.7962 8 17.0785V18.167C8 18.4493 8.22799 18.6781 8.50924 18.6781H9.49715C9.7784 18.6781 10.0064 18.4493 10.0064 18.167V17.0785C10.0064 16.7962 9.7784 16.5674 9.49715 16.5674Z" fill="black"/>
<path id="Vector_21" d="M9.49715 11.5469H8.50924C8.22799 11.5469 8 11.7757 8 12.0579V13.1465C8 13.4288 8.22799 13.6576 8.50924 13.6576H9.49715C9.7784 13.6576 10.0064 13.4288 10.0064 13.1465V12.0579C10.0064 11.7757 9.7784 11.5469 9.49715 11.5469Z" fill="black"/>
<path id="Vector_22" d="M16.9972 14.082H16.0092C15.728 14.082 15.5 14.3108 15.5 14.5931V15.6817C15.5 15.9639 15.728 16.1927 16.0092 16.1927H16.9972C17.2784 16.1927 17.5064 15.9639 17.5064 15.6817V14.5931C17.5064 14.3108 17.2784 14.082 16.9972 14.082Z" fill="black"/>
<path id="Vector_23" d="M16.9972 24.0986H16.0092C15.728 24.0986 15.5 24.3274 15.5 24.6097V25.6983C15.5 25.9805 15.728 26.2093 16.0092 26.2093H16.9972C17.2784 26.2093 17.5064 25.9805 17.5064 25.6983V24.6097C17.5064 24.3274 17.2784 24.0986 16.9972 24.0986Z" fill="black"/>
<path id="Vector_24" d="M16.9972 4.0166H16.0092C15.728 4.0166 15.5 4.24541 15.5 4.52767V5.61625C15.5 5.8985 15.728 6.12731 16.0092 6.12731H16.9972C17.2784 6.12731 17.5064 5.8985 17.5064 5.61625V4.52767C17.5064 4.24541 17.2784 4.0166 16.9972 4.0166Z" fill="black"/>
<path id="Vector_25" d="M24.4972 14.082H23.5092C23.228 14.082 23 14.3108 23 14.5931V15.6817C23 15.9639 23.228 16.1927 23.5092 16.1927H24.4972C24.7784 16.1927 25.0064 15.9639 25.0064 15.6817V14.5931C25.0064 14.3108 24.7784 14.082 24.4972 14.082Z" fill="black"/>
<path id="Vector_26" d="M26.9972 14.082H26.0092C25.728 14.082 25.5 14.3108 25.5 14.5931V15.6817C25.5 15.9639 25.728 16.1927 26.0092 16.1927H26.9972C27.2784 16.1927 27.5064 15.9639 27.5064 15.6817V14.5931C27.5064 14.3108 27.2784 14.082 26.9972 14.082Z" fill="black"/>
<path id="Vector_27" d="M24.4972 24.0986H23.5092C23.228 24.0986 23 24.3274 23 24.6097V25.6983C23 25.9805 23.228 26.2093 23.5092 26.2093H24.4972C24.7784 26.2093 25.0064 25.9805 25.0064 25.6983V24.6097C25.0064 24.3274 24.7784 24.0986 24.4972 24.0986Z" fill="black"/>
<path id="Vector_28" d="M26.9972 24.0986H26.0092C25.728 24.0986 25.5 24.3274 25.5 24.6097V25.6983C25.5 25.9805 25.728 26.2093 26.0092 26.2093H26.9972C27.2784 26.2093 27.5064 25.9805 27.5064 25.6983V24.6097C27.5064 24.3274 27.2784 24.0986 26.9972 24.0986Z" fill="black"/>
<path id="Vector_29" d="M24.4972 4.0166H23.5092C23.228 4.0166 23 4.24541 23 4.52767V5.61625C23 5.8985 23.228 6.12731 23.5092 6.12731H24.4972C24.7784 6.12731 25.0064 5.8985 25.0064 5.61625V4.52767C25.0064 4.24541 24.7784 4.0166 24.4972 4.0166Z" fill="black"/>
<path id="Vector_30" d="M26.9972 4.0166H26.0092C25.728 4.0166 25.5 4.24541 25.5 4.52767V5.61625C25.5 5.8985 25.728 6.12731 26.0092 6.12731H26.9972C27.2784 6.12731 27.5064 5.8985 27.5064 5.61625V4.52767C27.5064 4.24541 27.2784 4.0166 26.9972 4.0166Z" fill="black"/>
<path id="Vector_31" d="M11.9972 14.082H11.0092C10.728 14.082 10.5 14.3108 10.5 14.5931V15.6817C10.5 15.9639 10.728 16.1927 11.0092 16.1927H11.9972C12.2784 16.1927 12.5064 15.9639 12.5064 15.6817V14.5931C12.5064 14.3108 12.2784 14.082 11.9972 14.082Z" fill="black"/>
<path id="Vector_32" d="M9.49715 14.0576H8.50924C8.22799 14.0576 8 14.2864 8 14.5687V15.6573C8 15.9395 8.22799 16.1683 8.50924 16.1683H9.49715C9.7784 16.1683 10.0064 15.9395 10.0064 15.6573V14.5687C10.0064 14.2864 9.7784 14.0576 9.49715 14.0576Z" fill="black"/>
<path id="Vector_33" d="M11.9972 19.0781H11.0092C10.728 19.0781 10.5 19.3069 10.5 19.5892V20.6778C10.5 20.96 10.728 21.1888 11.0092 21.1888H11.9972C12.2784 21.1888 12.5064 20.96 12.5064 20.6778V19.5892C12.5064 19.3069 12.2784 19.0781 11.9972 19.0781Z" fill="black"/>
<path id="Vector_34" d="M11.9972 9.03711H11.0092C10.728 9.03711 10.5 9.26592 10.5 9.54818V10.6368C10.5 10.919 10.728 11.1478 11.0092 11.1478H11.9972C12.2784 11.1478 12.5064 10.919 12.5064 10.6368V9.54818C12.5064 9.26592 12.2784 9.03711 11.9972 9.03711Z" fill="black"/>
<path id="Vector_35" d="M19.4972 14.082H18.5092C18.228 14.082 18 14.3108 18 14.5931V15.6817C18 15.9639 18.228 16.1927 18.5092 16.1927H19.4972C19.7784 16.1927 20.0064 15.9639 20.0064 15.6817V14.5931C20.0064 14.3108 19.7784 14.082 19.4972 14.082Z" fill="black"/>
<path id="Vector_36" d="M21.9972 21.6123H21.0092C20.728 21.6123 20.5 21.8411 20.5 22.1234V23.2119C20.5 23.4942 20.728 23.723 21.0092 23.723H21.9972C22.2784 23.723 22.5064 23.4942 22.5064 23.2119V22.1234C22.5064 21.8411 22.2784 21.6123 21.9972 21.6123Z" fill="black"/>
<path id="Vector_37" d="M19.4972 24.0986H18.5092C18.228 24.0986 18 24.3274 18 24.6097V25.6983C18 25.9805 18.228 26.2093 18.5092 26.2093H19.4972C19.7784 26.2093 20.0064 25.9805 20.0064 25.6983V24.6097C20.0064 24.3274 19.7784 24.0986 19.4972 24.0986Z" fill="black"/>
<path id="Vector_38" d="M19.4972 4.0166H18.5092C18.228 4.0166 18 4.24541 18 4.52767V5.61625C18 5.8985 18.228 6.12731 18.5092 6.12731H19.4972C19.7784 6.12731 20.0064 5.8985 20.0064 5.61625V4.52767C20.0064 4.24541 19.7784 4.0166 19.4972 4.0166Z" fill="black"/>
<path id="Vector_39" d="M21.9972 6.52637H21.0092C20.728 6.52637 20.5 6.75518 20.5 7.03744V8.12601C20.5 8.40827 20.728 8.63708 21.0092 8.63708H21.9972C22.2784 8.63708 22.5064 8.40827 22.5064 8.12601V7.03744C22.5064 6.75518 22.2784 6.52637 21.9972 6.52637Z" fill="black"/>
<path id="Vector_40" d="M21.9972 11.5469H21.0092C20.728 11.5469 20.5 11.7757 20.5 12.0579V13.1465C20.5 13.4288 20.728 13.6576 21.0092 13.6576H21.9972C22.2784 13.6576 22.5064 13.4288 22.5064 13.1465V12.0579C22.5064 11.7757 22.2784 11.5469 21.9972 11.5469Z" fill="black"/>
<path id="Vector_41" d="M21.9972 1.50586H21.0092C20.728 1.50586 20.5 1.73467 20.5 2.01693V3.1055C20.5 3.38776 20.728 3.61657 21.0092 3.61657H21.9972C22.2784 3.61657 22.5064 3.38776 22.5064 3.1055V2.01693C22.5064 1.73467 22.2784 1.50586 21.9972 1.50586Z" fill="black"/>
<path id="Vector_42" d="M21.9972 16.5674H21.0092C20.728 16.5674 20.5 16.7962 20.5 17.0785V18.167C20.5 18.4493 20.728 18.6781 21.0092 18.6781H21.9972C22.2784 18.6781 22.5064 18.4493 22.5064 18.167V17.0785C22.5064 16.7962 22.2784 16.5674 21.9972 16.5674Z" fill="black"/>
<path id="Vector_43" d="M24.4972 26.6084H23.5092C23.228 26.6084 23 26.8372 23 27.1195V28.208C23 28.4903 23.228 28.7191 23.5092 28.7191H24.4972C24.7784 28.7191 25.0064 28.4903 25.0064 28.208V27.1195C25.0064 26.8372 24.7784 26.6084 24.4972 26.6084Z" fill="black"/>
<path id="Vector_44" d="M26.9972 26.6084H26.0092C25.728 26.6084 25.5 26.8372 25.5 27.1195V28.208C25.5 28.4903 25.728 28.7191 26.0092 28.7191H26.9972C27.2784 28.7191 27.5064 28.4903 27.5064 28.208V27.1195C27.5064 26.8372 27.2784 26.6084 26.9972 26.6084Z" fill="black"/>
</g>
</svg>
