<svg xmlns="http://www.w3.org/2000/svg" width="60" height="55" viewBox="0 0 60 55" fill="none">
  <path d="M7.99431 25H6.01847C5.45598 25 5 25.4558 5 26.018V28.1862C5 28.7484 5.45598 29.2042 6.01847 29.2042H7.99431C8.55679 29.2042 9.01278 28.7484 9.01278 28.1862V26.018C9.01278 25.4558 8.55679 25 7.99431 25Z" fill="#FF5C00"/>
  <path d="M2.99431 15.0488H1.01847C0.455985 15.0488 0 15.5046 0 16.0668V18.2351C0 18.7973 0.455985 19.253 1.01847 19.253H2.99431C3.55679 19.253 4.01278 18.7973 4.01278 18.2351V16.0668C4.01278 15.5046 3.55679 15.0488 2.99431 15.0488Z" fill="#FF5C00"/>
  <path d="M32.9943 15H31.0185C30.456 15 30 15.4558 30 16.018V18.1862C30 18.7484 30.456 19.2042 31.0185 19.2042H32.9943C33.5568 19.2042 34.0128 18.7484 34.0128 18.1862V16.018C34.0128 15.4558 33.5568 15 32.9943 15Z" fill="#FF5C00"/>
  <path d="M32.9943 0H31.0185C30.456 0 30 0.455758 30 1.01796V3.18623C30 3.74843 30.456 4.20419 31.0185 4.20419H32.9943C33.5568 4.20419 34.0128 3.74843 34.0128 3.18623V1.01796C34.0128 0.455758 33.5568 0 32.9943 0Z" fill="#FF5C00"/>
  <path d="M57.9943 29.9512H56.0185C55.456 29.9512 55 30.4069 55 30.9691V33.1374C55 33.6996 55.456 34.1554 56.0185 34.1554H57.9943C58.5568 34.1554 59.0128 33.6996 59.0128 33.1374V30.9691C59.0128 30.4069 58.5568 29.9512 57.9943 29.9512Z" fill="#FF5C00"/>
  <path d="M22.9943 0H21.0185C20.456 0 20 0.455758 20 1.01796V3.18623C20 3.74843 20.456 4.20419 21.0185 4.20419H22.9943C23.5568 4.20419 24.0128 3.74843 24.0128 3.18623V1.01796C24.0128 0.455758 23.5568 0 22.9943 0Z" fill="#FF5C00"/>
  <path d="M17.9943 0H16.0185C15.456 0 15 0.455758 15 1.01796V3.18623C15 3.74843 15.456 4.20419 16.0185 4.20419H17.9943C18.5568 4.20419 19.0128 3.74843 19.0128 3.18623V1.01796C19.0128 0.455758 18.5568 0 17.9943 0Z" fill="#FF5C00"/>
  <path d="M37.9943 0H36.0185C35.456 0 35 0.455758 35 1.01796V3.18623C35 3.74843 35.456 4.20419 36.0185 4.20419H37.9943C38.5568 4.20419 39.0128 3.74843 39.0128 3.18623V1.01796C39.0128 0.455758 38.5568 0 37.9943 0Z" fill="#FF5C00"/>
  <path d="M42.9943 0H41.0185C40.456 0 40 0.455758 40 1.01796V3.18623C40 3.74843 40.456 4.20419 41.0185 4.20419H42.9943C43.5568 4.20419 44.0128 3.74843 44.0128 3.18623V1.01796C44.0128 0.455758 43.5568 0 42.9943 0Z" fill="#FF5C00"/>
  <path d="M2.99431 25.0488H1.01847C0.455985 25.0488 0 25.5046 0 26.0668V28.2351C0 28.7973 0.455985 29.253 1.01847 29.253H2.99431C3.55679 29.253 4.01278 28.7973 4.01278 28.2351V26.0668C4.01278 25.5046 3.55679 25.0488 2.99431 25.0488Z" fill="#FF5C00"/>
  <path d="M7.99431 15H6.01847C5.45598 15 5 15.4558 5 16.018V18.1862C5 18.7484 5.45598 19.2042 6.01847 19.2042H7.99431C8.55679 19.2042 9.01278 18.7484 9.01278 18.1862V16.018C9.01278 15.4558 8.55679 15 7.99431 15Z" fill="#FF5C00"/>
  <path d="M37.9943 5H36.0185C35.456 5 35 5.45576 35 6.01796V8.18623C35 8.74843 35.456 9.20419 36.0185 9.20419H37.9943C38.5568 9.20419 39.0128 8.74843 39.0128 8.18623V6.01796C39.0128 5.45576 38.5568 5 37.9943 5Z" fill="#FF5C00"/>
  <path d="M37.9943 44.9019H36.0185C35.456 44.9019 35 45.3576 35 45.9198V48.0881C35 48.6503 35.456 49.106 36.0185 49.106H37.9943C38.5568 49.106 39.0128 48.6503 39.0128 48.0881V45.9198C39.0128 45.3576 38.5568 44.9019 37.9943 44.9019Z" fill="#FF5C00"/>
  <path d="M32.9943 25H31.0185C30.456 25 30 25.4558 30 26.018V28.1862C30 28.7484 30.456 29.2042 31.0185 29.2042H32.9943C33.5568 29.2042 34.0128 28.7484 34.0128 28.1862V26.018C34.0128 25.4558 33.5568 25 32.9943 25Z" fill="#FF5C00"/>
  <path d="M32.9943 5H31.0185C30.456 5 30 5.45576 30 6.01796V8.18623C30 8.74843 30.456 9.20419 31.0185 9.20419H32.9943C33.5568 9.20419 34.0128 8.74843 34.0128 8.18623V6.01796C34.0128 5.45576 33.5568 5 32.9943 5Z" fill="#FF5C00"/>
  <path d="M32.9943 44.9019H31.0185C30.456 44.9019 30 45.3576 30 45.9198V48.0881C30 48.6503 30.456 49.106 31.0185 49.106H32.9943C33.5568 49.106 34.0128 48.6503 34.0128 48.0881V45.9198C34.0128 45.3576 33.5568 44.9019 32.9943 44.9019Z" fill="#FF5C00"/>
  <path d="M57.9943 19.9019H56.0185C55.456 19.9019 55 20.3576 55 20.9198V23.0881C55 23.6503 55.456 24.106 56.0185 24.106H57.9943C58.5568 24.106 59.0128 23.6503 59.0128 23.0881V20.9198C59.0128 20.3576 58.5568 19.9019 57.9943 19.9019Z" fill="#FF5C00"/>
  <path d="M22.9943 5H21.0185C20.456 5 20 5.45576 20 6.01796V8.18623C20 8.74843 20.456 9.20419 21.0185 9.20419H22.9943C23.5568 9.20419 24.0128 8.74843 24.0128 8.18623V6.01796C24.0128 5.45576 23.5568 5 22.9943 5Z" fill="#FF5C00"/>
  <path d="M22.9943 44.9019H21.0185C20.456 44.9019 20 45.3576 20 45.9198V48.0881C20 48.6503 20.456 49.106 21.0185 49.106H22.9943C23.5568 49.106 24.0128 48.6503 24.0128 48.0881V45.9198C24.0128 45.3576 23.5568 44.9019 22.9943 44.9019Z" fill="#FF5C00"/>
  <path d="M12.9943 20.0488H11.0185C10.456 20.0488 10 20.5046 10 21.0668V23.2351C10 23.7973 10.456 24.253 11.0185 24.253H12.9943C13.5568 24.253 14.0128 23.7973 14.0128 23.2351V21.0668C14.0128 20.5046 13.5568 20.0488 12.9943 20.0488Z" fill="#FF5C00"/>
  <path d="M7.99431 30.0488H6.01847C5.45598 30.0488 5 30.5046 5 31.0668V33.2351C5 33.7973 5.45598 34.253 6.01847 34.253H7.99431C8.55679 34.253 9.01278 33.7973 9.01278 33.2351V31.0668C9.01278 30.5046 8.55679 30.0488 7.99431 30.0488Z" fill="#FF5C00"/>
  <path d="M37.9943 20.0488H36.0185C35.456 20.0488 35 20.5046 35 21.0668V23.2351C35 23.7973 35.456 24.253 36.0185 24.253H37.9943C38.5568 24.253 39.0128 23.7973 39.0128 23.2351V21.0668C39.0128 20.5046 38.5568 20.0488 37.9943 20.0488Z" fill="#FF5C00"/>
  <path d="M2.99431 20.0981H1.01847C0.455985 20.0981 0 20.5539 0 21.1161V23.2844C0 23.8466 0.455985 24.3023 1.01847 24.3023H2.99431C3.55679 24.3023 4.01278 23.8466 4.01278 23.2844V21.1161C4.01278 20.5539 3.55679 20.0981 2.99431 20.0981Z" fill="#FF5C00"/>
  <path d="M12.9943 35H11.0185C10.456 35 10 35.4558 10 36.018V38.1862C10 38.7484 10.456 39.2042 11.0185 39.2042H12.9943C13.5568 39.2042 14.0128 38.7484 14.0128 38.1862V36.018C14.0128 35.4558 13.5568 35 12.9943 35Z" fill="#FF5C00"/>
  <path d="M12.9943 39.9512H11.0185C10.456 39.9512 10 40.4069 10 40.9691V43.1374C10 43.6996 10.456 44.1554 11.0185 44.1554H12.9943C13.5568 44.1554 14.0128 43.6996 14.0128 43.1374V40.9691C14.0128 40.4069 13.5568 39.9512 12.9943 39.9512Z" fill="#FF5C00"/>
  <path d="M2.99431 30.0488H1.01847C0.455985 30.0488 0 30.5046 0 31.0668V33.2351C0 33.7973 0.455985 34.253 1.01847 34.253H2.99431C3.55679 34.253 4.01278 33.7973 4.01278 33.2351V31.0668C4.01278 30.5046 3.55679 30.0488 2.99431 30.0488Z" fill="#FF5C00"/>
  <path d="M32.9943 20.0488H31.0185C30.456 20.0488 30 20.5046 30 21.0668V23.2351C30 23.7973 30.456 24.253 31.0185 24.253H32.9943C33.5568 24.253 34.0128 23.7973 34.0128 23.2351V21.0668C34.0128 20.5046 33.5568 20.0488 32.9943 20.0488Z" fill="#FF5C00"/>
  <path d="M57.9943 35H56.0185C55.456 35 55 35.4558 55 36.018V38.1862C55 38.7484 55.456 39.2042 56.0185 39.2042H57.9943C58.5568 39.2042 59.0128 38.7484 59.0128 38.1862V36.018C59.0128 35.4558 58.5568 35 57.9943 35Z" fill="#FF5C00"/>
  <path d="M57.9943 14.9512H56.0185C55.456 14.9512 55 15.4069 55 15.9691V18.1374C55 18.6996 55.456 19.1554 56.0185 19.1554H57.9943C58.5568 19.1554 59.0128 18.6996 59.0128 18.1374V15.9691C59.0128 15.4069 58.5568 14.9512 57.9943 14.9512Z" fill="#FF5C00"/>
  <path d="M22.9943 20.0488H21.0185C20.456 20.0488 20 20.5046 20 21.0668V23.2351C20 23.7973 20.456 24.253 21.0185 24.253H22.9943C23.5568 24.253 24.0128 23.7973 24.0128 23.2351V21.0668C24.0128 20.5046 23.5568 20.0488 22.9943 20.0488Z" fill="#FF5C00"/>
  <path d="M47.9943 20.0488H46.0185C45.456 20.0488 45 20.5046 45 21.0668V23.2351C45 23.7973 45.456 24.253 46.0185 24.253H47.9943C48.5568 24.253 49.0128 23.7973 49.0128 23.2351V21.0668C49.0128 20.5046 48.5568 20.0488 47.9943 20.0488Z" fill="#FF5C00"/>
  <path d="M47.9943 35H46.0185C45.456 35 45 35.4558 45 36.018V38.1862C45 38.7484 45.456 39.2042 46.0185 39.2042H47.9943C48.5568 39.2042 49.0128 38.7484 49.0128 38.1862V36.018C49.0128 35.4558 48.5568 35 47.9943 35Z" fill="#FF5C00"/>
  <path d="M47.9943 39.9512H46.0185C45.456 39.9512 45 40.4069 45 40.9691V43.1374C45 43.6996 45.456 44.1554 46.0185 44.1554H47.9943C48.5568 44.1554 49.0128 43.6996 49.0128 43.1374V40.9691C49.0128 40.4069 48.5568 39.9512 47.9943 39.9512Z" fill="#FF5C00"/>
  <path d="M12.9943 30.0488H11.0185C10.456 30.0488 10 30.5046 10 31.0668V33.2351C10 33.7973 10.456 34.253 11.0185 34.253H12.9943C13.5568 34.253 14.0128 33.7973 14.0128 33.2351V31.0668C14.0128 30.5046 13.5568 30.0488 12.9943 30.0488Z" fill="#FF5C00"/>
  <path d="M37.9943 30.0488H36.0185C35.456 30.0488 35 30.5046 35 31.0668V33.2351C35 33.7973 35.456 34.253 36.0185 34.253H37.9943C38.5568 34.253 39.0128 33.7973 39.0128 33.2351V31.0668C39.0128 30.5046 38.5568 30.0488 37.9943 30.0488Z" fill="#FF5C00"/>
  <path d="M37.9631 35H35.9872C35.4247 35 34.9688 35.4558 34.9688 36.018V38.1862C34.9688 38.7484 35.4247 39.2042 35.9872 39.2042H37.9631C38.5255 39.2042 38.9815 38.7484 38.9815 38.1862V36.018C38.9815 35.4558 38.5255 35 37.9631 35Z" fill="#FF5C00"/>
  <path d="M7.99431 20.0488H6.01847C5.45598 20.0488 5 20.5046 5 21.0668V23.2351C5 23.7973 5.45598 24.253 6.01847 24.253H7.99431C8.55679 24.253 9.01278 23.7973 9.01278 23.2351V21.0668C9.01278 20.5046 8.55679 20.0488 7.99431 20.0488Z" fill="#FF5C00"/>
  <path d="M2.99431 35H1.01847C0.455985 35 0 35.4558 0 36.018V38.1862C0 38.7484 0.455985 39.2042 1.01847 39.2042H2.99431C3.55679 39.2042 4.01278 38.7484 4.01278 38.1862V36.018C4.01278 35.4558 3.55679 35 2.99431 35Z" fill="#FF5C00"/>
  <path d="M37.9943 10.0488H36.0185C35.456 10.0488 35 10.5046 35 11.0668V13.2351C35 13.7973 35.456 14.253 36.0185 14.253H37.9943C38.5568 14.253 39.0128 13.7973 39.0128 13.2351V11.0668C39.0128 10.5046 38.5568 10.0488 37.9943 10.0488Z" fill="#FF5C00"/>
  <path d="M37.9943 49.9512H36.0185C35.456 49.9512 35 50.4069 35 50.9691V53.1374C35 53.6996 35.456 54.1554 36.0185 54.1554H37.9943C38.5568 54.1554 39.0128 53.6996 39.0128 53.1374V50.9691C39.0128 50.4069 38.5568 49.9512 37.9943 49.9512Z" fill="#FF5C00"/>
  <path d="M32.9943 30.0488H31.0185C30.456 30.0488 30 30.5046 30 31.0668V33.2351C30 33.7973 30.456 34.253 31.0185 34.253H32.9943C33.5568 34.253 34.0128 33.7973 34.0128 33.2351V31.0668C34.0128 30.5046 33.5568 30.0488 32.9943 30.0488Z" fill="#FF5C00"/>
  <path d="M32.9631 35H30.9872C30.4247 35 29.9688 35.4558 29.9688 36.018V38.1862C29.9688 38.7484 30.4247 39.2042 30.9872 39.2042H32.9631C33.5255 39.2042 33.9815 38.7484 33.9815 38.1862V36.018C33.9815 35.4558 33.5255 35 32.9631 35Z" fill="#FF5C00"/>
  <path d="M32.9943 10.0488H31.0185C30.456 10.0488 30 10.5046 30 11.0668V13.2351C30 13.7973 30.456 14.253 31.0185 14.253H32.9943C33.5568 14.253 34.0128 13.7973 34.0128 13.2351V11.0668C34.0128 10.5046 33.5568 10.0488 32.9943 10.0488Z" fill="#FF5C00"/>
  <path d="M32.9943 49.9512H31.0185C30.456 49.9512 30 50.4069 30 50.9691V53.1374C30 53.6996 30.456 54.1554 31.0185 54.1554H32.9943C33.5568 54.1554 34.0128 53.6996 34.0128 53.1374V50.9691C34.0128 50.4069 33.5568 49.9512 32.9943 49.9512Z" fill="#FF5C00"/>
  <path d="M57.9943 24.9512H56.0185C55.456 24.9512 55 25.4069 55 25.9691V28.1374C55 28.6996 55.456 29.1554 56.0185 29.1554H57.9943C58.5568 29.1554 59.0128 28.6996 59.0128 28.1374V25.9691C59.0128 25.4069 58.5568 24.9512 57.9943 24.9512Z" fill="#FF5C00"/>
  <path d="M22.9943 30.0488H21.0185C20.456 30.0488 20 30.5046 20 31.0668V33.2351C20 33.7973 20.456 34.253 21.0185 34.253H22.9943C23.5568 34.253 24.0128 33.7973 24.0128 33.2351V31.0668C24.0128 30.5046 23.5568 30.0488 22.9943 30.0488Z" fill="#FF5C00"/>
  <path d="M22.9631 35H20.9872C20.4247 35 19.9688 35.4558 19.9688 36.018V38.1862C19.9688 38.7484 20.4247 39.2042 20.9872 39.2042H22.9631C23.5255 39.2042 23.9815 38.7484 23.9815 38.1862V36.018C23.9815 35.4558 23.5255 35 22.9631 35Z" fill="#FF5C00"/>
  <path d="M47.9943 30.0488H46.0185C45.456 30.0488 45 30.5046 45 31.0668V33.2351C45 33.7973 45.456 34.253 46.0185 34.253H47.9943C48.5568 34.253 49.0128 33.7973 49.0128 33.2351V31.0668C49.0128 30.5046 48.5568 30.0488 47.9943 30.0488Z" fill="#FF5C00"/>
  <path d="M22.9943 10.0488H21.0185C20.456 10.0488 20 10.5046 20 11.0668V13.2351C20 13.7973 20.456 14.253 21.0185 14.253H22.9943C23.5568 14.253 24.0128 13.7973 24.0128 13.2351V11.0668C24.0128 10.5046 23.5568 10.0488 22.9943 10.0488Z" fill="#FF5C00"/>
  <path d="M22.9943 49.9512H21.0185C20.456 49.9512 20 50.4069 20 50.9691V53.1374C20 53.6996 20.456 54.1554 21.0185 54.1554H22.9943C23.5568 54.1554 24.0128 53.6996 24.0128 53.1374V50.9691C24.0128 50.4069 23.5568 49.9512 22.9943 49.9512Z" fill="#FF5C00"/>
  <path d="M18.0256 15.0913H16.0497C15.4872 15.0913 15.0312 15.5471 15.0312 16.1093V18.2775C15.0312 18.8397 15.4872 19.2955 16.0497 19.2955H18.0256C18.588 19.2955 19.044 18.8397 19.044 18.2775V16.1093C19.044 15.5471 18.588 15.0913 18.0256 15.0913Z" fill="#FF5C00"/>
  <path d="M43.0256 15.0913H41.0497C40.4872 15.0913 40.0312 15.5471 40.0312 16.1093V18.2775C40.0312 18.8397 40.4872 19.2955 41.0497 19.2955H43.0256C43.588 19.2955 44.044 18.8397 44.044 18.2775V16.1093C44.044 15.5471 43.588 15.0913 43.0256 15.0913Z" fill="#FF5C00"/>
  <path d="M28.0256 15.0913H26.0497C25.4872 15.0913 25.0312 15.5471 25.0312 16.1093V18.2775C25.0312 18.8397 25.4872 19.2955 26.0497 19.2955H28.0256C28.588 19.2955 29.044 18.8397 29.044 18.2775V16.1093C29.044 15.5471 28.588 15.0913 28.0256 15.0913Z" fill="#FF5C00"/>
  <path d="M28.0256 0.0917969H26.0497C25.4872 0.0917969 25.0312 0.547555 25.0312 1.10976V3.27803C25.0312 3.84023 25.4872 4.29599 26.0497 4.29599H28.0256C28.588 4.29599 29.044 3.84023 29.044 3.27803V1.10976C29.044 0.547555 28.588 0.0917969 28.0256 0.0917969Z" fill="#FF5C00"/>
  <path d="M53.0256 15.0913H51.0497C50.4872 15.0913 50.0312 15.5471 50.0312 16.1093V18.2775C50.0312 18.8397 50.4872 19.2955 51.0497 19.2955H53.0256C53.588 19.2955 54.044 18.8397 54.044 18.2775V16.1093C54.044 15.5471 53.588 15.0913 53.0256 15.0913Z" fill="#FF5C00"/>
  <path d="M18.0256 25.0913H16.0497C15.4872 25.0913 15.0312 25.5471 15.0312 26.1093V28.2775C15.0312 28.8397 15.4872 29.2955 16.0497 29.2955H18.0256C18.588 29.2955 19.044 28.8397 19.044 28.2775V26.1093C19.044 25.5471 18.588 25.0913 18.0256 25.0913Z" fill="#FF5C00"/>
  <path d="M43.0256 25.0913H41.0497C40.4872 25.0913 40.0312 25.5471 40.0312 26.1093V28.2775C40.0312 28.8397 40.4872 29.2955 41.0497 29.2955H43.0256C43.588 29.2955 44.044 28.8397 44.044 28.2775V26.1093C44.044 25.5471 43.588 25.0913 43.0256 25.0913Z" fill="#FF5C00"/>
  <path d="M18.0256 44.9932H16.0497C15.4872 44.9932 15.0312 45.4489 15.0312 46.0111V48.1794C15.0312 48.7416 15.4872 49.1974 16.0497 49.1974H18.0256C18.588 49.1974 19.044 48.7416 19.044 48.1794V46.0111C19.044 45.4489 18.588 44.9932 18.0256 44.9932Z" fill="#FF5C00"/>
  <path d="M12.9943 44.9512H11.0185C10.456 44.9512 10 45.4069 10 45.9691V48.1374C10 48.6996 10.456 49.1554 11.0185 49.1554H12.9943C13.5568 49.1554 14.0128 48.6996 14.0128 48.1374V45.9691C14.0128 45.4069 13.5568 44.9512 12.9943 44.9512Z" fill="#FF5C00"/>
  <path d="M43.0256 44.9932H41.0497C40.4872 44.9932 40.0312 45.4489 40.0312 46.0111V48.1794C40.0312 48.7416 40.4872 49.1974 41.0497 49.1974H43.0256C43.588 49.1974 44.044 48.7416 44.044 48.1794V46.0111C44.044 45.4489 43.588 44.9932 43.0256 44.9932Z" fill="#FF5C00"/>
  <path d="M47.9943 44.9512H46.0185C45.456 44.9512 45 45.4069 45 45.9691V48.1374C45 48.6996 45.456 49.1554 46.0185 49.1554H47.9943C48.5568 49.1554 49.0128 48.6996 49.0128 48.1374V45.9691C49.0128 45.4069 48.5568 44.9512 47.9943 44.9512Z" fill="#FF5C00"/>
  <path d="M8.02556 35H6.04972C5.48723 35 5.03125 35.4558 5.03125 36.018V38.1862C5.03125 38.7484 5.48723 39.2042 6.04972 39.2042H8.02556C8.58804 39.2042 9.04403 38.7484 9.04403 38.1862V36.018C9.04403 35.4558 8.58804 35 8.02556 35Z" fill="#FF5C00"/>
  <path d="M28.0256 25.0913H26.0497C25.4872 25.0913 25.0312 25.5471 25.0312 26.1093V28.2775C25.0312 28.8397 25.4872 29.2955 26.0497 29.2955H28.0256C28.588 29.2955 29.044 28.8397 29.044 28.2775V26.1093C29.044 25.5471 28.588 25.0913 28.0256 25.0913Z" fill="#FF5C00"/>
  <path d="M53.0256 25.0913H51.0497C50.4872 25.0913 50.0312 25.5471 50.0312 26.1093V28.2775C50.0312 28.8397 50.4872 29.2955 51.0497 29.2955H53.0256C53.588 29.2955 54.044 28.8397 54.044 28.2775V26.1093C54.044 25.5471 53.588 25.0913 53.0256 25.0913Z" fill="#FF5C00"/>
  <path d="M28.0256 5.09131H26.0497C25.4872 5.09131 25.0312 5.54707 25.0312 6.10927V8.27754C25.0312 8.83974 25.4872 9.2955 26.0497 9.2955H28.0256C28.588 9.2955 29.044 8.83974 29.044 8.27754V6.10927C29.044 5.54707 28.588 5.09131 28.0256 5.09131Z" fill="#FF5C00"/>
  <path d="M28.0256 44.9932H26.0497C25.4872 44.9932 25.0312 45.4489 25.0312 46.0111V48.1794C25.0312 48.7416 25.4872 49.1974 26.0497 49.1974H28.0256C28.588 49.1974 29.044 48.7416 29.044 48.1794V46.0111C29.044 45.4489 28.588 44.9932 28.0256 44.9932Z" fill="#FF5C00"/>
  <path d="M8.02556 40.0918H6.04972C5.48723 40.0918 5.03125 40.5476 5.03125 41.1098V43.278C5.03125 43.8402 5.48723 44.296 6.04972 44.296H8.02556C8.58804 44.296 9.04403 43.8402 9.04403 43.278V41.1098C9.04403 40.5476 8.58804 40.0918 8.02556 40.0918Z" fill="#FF5C00"/>
  <path d="M28.0256 20.1406H26.0497C25.4872 20.1406 25.0312 20.5964 25.0312 21.1586V23.3269C25.0312 23.8891 25.4872 24.3448 26.0497 24.3448H28.0256C28.588 24.3448 29.044 23.8891 29.044 23.3269V21.1586C29.044 20.5964 28.588 20.1406 28.0256 20.1406Z" fill="#FF5C00"/>
  <path d="M53.0256 20.1406H51.0497C50.4872 20.1406 50.0312 20.5964 50.0312 21.1586V23.3269C50.0312 23.8891 50.4872 24.3448 51.0497 24.3448H53.0256C53.588 24.3448 54.044 23.8891 54.044 23.3269V21.1586C54.044 20.5964 53.588 20.1406 53.0256 20.1406Z" fill="#FF5C00"/>
  <path d="M53.0256 35.0918H51.0497C50.4872 35.0918 50.0312 35.5476 50.0312 36.1098V38.278C50.0312 38.8402 50.4872 39.296 51.0497 39.296H53.0256C53.588 39.296 54.044 38.8402 54.044 38.278V36.1098C54.044 35.5476 53.588 35.0918 53.0256 35.0918Z" fill="#FF5C00"/>
  <path d="M53.0256 40.0425H51.0497C50.4872 40.0425 50.0312 40.4982 50.0312 41.0604V43.2287C50.0312 43.7909 50.4872 44.2467 51.0497 44.2467H53.0256C53.588 44.2467 54.044 43.7909 54.044 43.2287V41.0604C54.044 40.4982 53.588 40.0425 53.0256 40.0425Z" fill="#FF5C00"/>
  <path d="M18.0256 30.1406H16.0497C15.4872 30.1406 15.0312 30.5964 15.0312 31.1586V33.3269C15.0312 33.8891 15.4872 34.3448 16.0497 34.3448H18.0256C18.588 34.3448 19.044 33.8891 19.044 33.3269V31.1586C19.044 30.5964 18.588 30.1406 18.0256 30.1406Z" fill="#FF5C00"/>
  <path d="M17.9943 35.0918H16.0185C15.456 35.0918 15 35.5476 15 36.1098V38.278C15 38.8402 15.456 39.296 16.0185 39.296H17.9943C18.5568 39.296 19.0128 38.8402 19.0128 38.278V36.1098C19.0128 35.5476 18.5568 35.0918 17.9943 35.0918Z" fill="#FF5C00"/>
  <path d="M43.0256 30.1406H41.0497C40.4872 30.1406 40.0312 30.5964 40.0312 31.1586V33.3269C40.0312 33.8891 40.4872 34.3448 41.0497 34.3448H43.0256C43.588 34.3448 44.044 33.8891 44.044 33.3269V31.1586C44.044 30.5964 43.588 30.1406 43.0256 30.1406Z" fill="#FF5C00"/>
  <path d="M42.9943 35.0918H41.0185C40.456 35.0918 40 35.5476 40 36.1098V38.278C40 38.8402 40.456 39.296 41.0185 39.296H42.9943C43.5568 39.296 44.0128 38.8402 44.0128 38.278V36.1098C44.0128 35.5476 43.5568 35.0918 42.9943 35.0918Z" fill="#FF5C00"/>
  <path d="M18.0256 10.1406H16.0497C15.4872 10.1406 15.0312 10.5964 15.0312 11.1586V13.3269C15.0312 13.8891 15.4872 14.3448 16.0497 14.3448H18.0256C18.588 14.3448 19.044 13.8891 19.044 13.3269V11.1586C19.044 10.5964 18.588 10.1406 18.0256 10.1406Z" fill="#FF5C00"/>
  <path d="M12.9943 10H11.0185C10.456 10 10 10.4558 10 11.018V13.1862C10 13.7484 10.456 14.2042 11.0185 14.2042H12.9943C13.5568 14.2042 14.0128 13.7484 14.0128 13.1862V11.018C14.0128 10.4558 13.5568 10 12.9943 10Z" fill="#FF5C00"/>
  <path d="M7.99431 10H6.01847C5.45598 10 5 10.4558 5 11.018V13.1862C5 13.7484 5.45598 14.2042 6.01847 14.2042H7.99431C8.55679 14.2042 9.01278 13.7484 9.01278 13.1862V11.018C9.01278 10.4558 8.55679 10 7.99431 10Z" fill="#FF5C00"/>
  <path d="M17.9943 5H16.0185C15.456 5 15 5.45576 15 6.01796V8.18623C15 8.74843 15.456 9.20419 16.0185 9.20419H17.9943C18.5568 9.20419 19.0128 8.74843 19.0128 8.18623V6.01796C19.0128 5.45576 18.5568 5 17.9943 5Z" fill="#FF5C00"/>
  <path d="M12.9943 5H11.0185C10.456 5 10 5.45576 10 6.01796V8.18623C10 8.74843 10.456 9.20419 11.0185 9.20419H12.9943C13.5568 9.20419 14.0128 8.74843 14.0128 8.18623V6.01796C14.0128 5.45576 13.5568 5 12.9943 5Z" fill="#FF5C00"/>
  <path d="M18.0256 50.0425H16.0497C15.4872 50.0425 15.0312 50.4982 15.0312 51.0604V53.2287C15.0312 53.7909 15.4872 54.2467 16.0497 54.2467H18.0256C18.588 54.2467 19.044 53.7909 19.044 53.2287V51.0604C19.044 50.4982 18.588 50.0425 18.0256 50.0425Z" fill="#FF5C00"/>
  <path d="M43.0256 10.1406H41.0497C40.4872 10.1406 40.0312 10.5964 40.0312 11.1586V13.3269C40.0312 13.8891 40.4872 14.3448 41.0497 14.3448H43.0256C43.588 14.3448 44.044 13.8891 44.044 13.3269V11.1586C44.044 10.5964 43.588 10.1406 43.0256 10.1406Z" fill="#FF5C00"/>
  <path d="M42.9943 5H41.0185C40.456 5 40 5.45576 40 6.01796V8.18623C40 8.74843 40.456 9.20419 41.0185 9.20419H42.9943C43.5568 9.20419 44.0128 8.74843 44.0128 8.18623V6.01796C44.0128 5.45576 43.5568 5 42.9943 5Z" fill="#FF5C00"/>
  <path d="M47.9943 5H46.0185C45.456 5 45 5.45576 45 6.01796V8.18623C45 8.74843 45.456 9.20419 46.0185 9.20419H47.9943C48.5568 9.20419 49.0128 8.74843 49.0128 8.18623V6.01796C49.0128 5.45576 48.5568 5 47.9943 5Z" fill="#FF5C00"/>
  <path d="M47.9943 10H46.0185C45.456 10 45 10.4558 45 11.018V13.1862C45 13.7484 45.456 14.2042 46.0185 14.2042H47.9943C48.5568 14.2042 49.0128 13.7484 49.0128 13.1862V11.018C49.0128 10.4558 48.5568 10 47.9943 10Z" fill="#FF5C00"/>
  <path d="M52.9943 10H51.0185C50.456 10 50 10.4558 50 11.018V13.1862C50 13.7484 50.456 14.2042 51.0185 14.2042H52.9943C53.5568 14.2042 54.0128 13.7484 54.0128 13.1862V11.018C54.0128 10.4558 53.5568 10 52.9943 10Z" fill="#FF5C00"/>
  <path d="M43.0256 50.0425H41.0497C40.4872 50.0425 40.0312 50.4982 40.0312 51.0604V53.2287C40.0312 53.7909 40.4872 54.2467 41.0497 54.2467H43.0256C43.588 54.2467 44.044 53.7909 44.044 53.2287V51.0604C44.044 50.4982 43.588 50.0425 43.0256 50.0425Z" fill="#FF5C00"/>
  <path d="M28.0256 30.1406H26.0497C25.4872 30.1406 25.0312 30.5964 25.0312 31.1586V33.3269C25.0312 33.8891 25.4872 34.3448 26.0497 34.3448H28.0256C28.588 34.3448 29.044 33.8891 29.044 33.3269V31.1586C29.044 30.5964 28.588 30.1406 28.0256 30.1406Z" fill="#FF5C00"/>
  <path d="M27.9943 35.0918H26.0185C25.456 35.0918 25 35.5476 25 36.1098V38.278C25 38.8402 25.456 39.296 26.0185 39.296H27.9943C28.5568 39.296 29.0128 38.8402 29.0128 38.278V36.1098C29.0128 35.5476 28.5568 35.0918 27.9943 35.0918Z" fill="#FF5C00"/>
  <path d="M53.0256 30.1406H51.0497C50.4872 30.1406 50.0312 30.5964 50.0312 31.1586V33.3269C50.0312 33.8891 50.4872 34.3448 51.0497 34.3448H53.0256C53.588 34.3448 54.044 33.8891 54.044 33.3269V31.1586C54.044 30.5964 53.588 30.1406 53.0256 30.1406Z" fill="#FF5C00"/>
  <path d="M28.0256 10.1406H26.0497C25.4872 10.1406 25.0312 10.5964 25.0312 11.1586V13.3269C25.0312 13.8891 25.4872 14.3448 26.0497 14.3448H28.0256C28.588 14.3448 29.044 13.8891 29.044 13.3269V11.1586C29.044 10.5964 28.588 10.1406 28.0256 10.1406Z" fill="#FF5C00"/>
  <path d="M28.0256 50.0425H26.0497C25.4872 50.0425 25.0312 50.4982 25.0312 51.0604V53.2287C25.0312 53.7909 25.4872 54.2467 26.0497 54.2467H28.0256C28.588 54.2467 29.044 53.7909 29.044 53.2287V51.0604C29.044 50.4982 28.588 50.0425 28.0256 50.0425Z" fill="#FF5C00"/>
</svg>
