<svg width="30" height="31" viewBox="0 0 30 31" fill="none" xmlns="http://www.w3.org/2000/svg">
<g id="icon padlock">
<path id="Vector" d="M5.49715 15.5H4.50924C4.22799 15.5 4 15.7288 4 16.0111V17.0996C4 17.3819 4.22799 17.6107 4.50924 17.6107H5.49715C5.7784 17.6107 6.00639 17.3819 6.00639 17.0996V16.0111C6.00639 15.7288 5.7784 15.5 5.49715 15.5Z" fill="white"/>
<path id="Vector_2" d="M25.4972 15.5H24.5092C24.228 15.5 24 15.7288 24 16.0111V17.0996C24 17.3819 24.228 17.6107 24.5092 17.6107H25.4972C25.7784 17.6107 26.0064 17.3819 26.0064 17.0996V16.0111C26.0064 15.7288 25.7784 15.5 25.4972 15.5Z" fill="white"/>
<path id="Vector_3" d="M22.9972 28.0266H22.0092C21.728 28.0266 21.5 28.2554 21.5 28.5377V29.6263C21.5 29.9085 21.728 30.1373 22.0092 30.1373H22.9972C23.2784 30.1373 23.5064 29.9085 23.5064 29.6263V28.5377C23.5064 28.2554 23.2784 28.0266 22.9972 28.0266Z" fill="white"/>
<path id="Vector_4" d="M7.99715 28.0266H7.00924C6.72799 28.0266 6.5 28.2554 6.5 28.5377V29.6263C6.5 29.9085 6.72799 30.1373 7.00924 30.1373H7.99715C8.2784 30.1373 8.50639 29.9085 8.50639 29.6263V28.5377C8.50639 28.2554 8.2784 28.0266 7.99715 28.0266Z" fill="white"/>
<path id="Vector_5" d="M5.49715 28.0513H4.50924C4.22799 28.0513 4 28.2801 4 28.5623V29.6509C4 29.9332 4.22799 30.162 4.50924 30.162H5.49715C5.7784 30.162 6.00639 29.9332 6.00639 29.6509V28.5623C6.00639 28.2801 5.7784 28.0513 5.49715 28.0513Z" fill="white"/>
<path id="Vector_6" d="M17.9972 28.0513H17.0092C16.728 28.0513 16.5 28.2801 16.5 28.5623V29.6509C16.5 29.9332 16.728 30.162 17.0092 30.162H17.9972C18.2784 30.162 18.5064 29.9332 18.5064 29.6509V28.5623C18.5064 28.2801 18.2784 28.0513 17.9972 28.0513Z" fill="white"/>
<path id="Vector_7" d="M5.49715 23.0061H4.50924C4.22799 23.0061 4 23.2349 4 23.5172V24.6057C4 24.888 4.22799 25.1168 4.50924 25.1168H5.49715C5.7784 25.1168 6.00639 24.888 6.00639 24.6057V23.5172C6.00639 23.2349 5.7784 23.0061 5.49715 23.0061Z" fill="white"/>
<path id="Vector_8" d="M25.4972 23.0061H24.5092C24.228 23.0061 24 23.2349 24 23.5172V24.6057C24 24.888 24.228 25.1168 24.5092 25.1168H25.4972C25.7784 25.1168 26.0064 24.888 26.0064 24.6057V23.5172C26.0064 23.2349 25.7784 23.0061 25.4972 23.0061Z" fill="white"/>
<path id="Vector_9" d="M15.4972 28.0513H14.5092C14.228 28.0513 14 28.2801 14 28.5623V29.6509C14 29.9332 14.228 30.162 14.5092 30.162H15.4972C15.7784 30.162 16.0064 29.9332 16.0064 29.6509V28.5623C16.0064 28.2801 15.7784 28.0513 15.4972 28.0513Z" fill="white"/>
<path id="Vector_10" d="M5.49715 18.0347H4.50924C4.22799 18.0347 4 18.2635 4 18.5457V19.6343C4 19.9166 4.22799 20.1454 4.50924 20.1454H5.49715C5.7784 20.1454 6.00639 19.9166 6.00639 19.6343V18.5457C6.00639 18.2635 5.7784 18.0347 5.49715 18.0347Z" fill="white"/>
<path id="Vector_11" d="M25.4972 18.0347H24.5092C24.228 18.0347 24 18.2635 24 18.5457V19.6343C24 19.9166 24.228 20.1454 24.5092 20.1454H25.4972C25.7784 20.1454 26.0064 19.9166 26.0064 19.6343V18.5457C26.0064 18.2635 25.7784 18.0347 25.4972 18.0347Z" fill="white"/>
<path id="Vector_12" d="M5.49715 20.5205H4.50924C4.22799 20.5205 4 20.7493 4 21.0316V22.1202C4 22.4024 4.22799 22.6312 4.50924 22.6312H5.49715C5.7784 22.6312 6.00639 22.4024 6.00639 22.1202V21.0316C6.00639 20.7493 5.7784 20.5205 5.49715 20.5205Z" fill="white"/>
<path id="Vector_13" d="M25.4972 20.5205H24.5092C24.228 20.5205 24 20.7493 24 21.0316V22.1202C24 22.4024 24.228 22.6312 24.5092 22.6312H25.4972C25.7784 22.6312 26.0064 22.4024 26.0064 22.1202V21.0316C26.0064 20.7493 25.7784 20.5205 25.4972 20.5205Z" fill="white"/>
<path id="Vector_14" d="M12.9972 12.9897H12.0092C11.728 12.9897 11.5 13.2186 11.5 13.5008V14.5894C11.5 14.8716 11.728 15.1005 12.0092 15.1005H12.9972C13.2784 15.1005 13.5064 14.8716 13.5064 14.5894V13.5008C13.5064 13.2186 13.2784 12.9897 12.9972 12.9897Z" fill="white"/>
<path id="Vector_15" d="M15.4972 0.438477H14.5092C14.228 0.438477 14 0.66729 14 0.949545V2.03812C14 2.32038 14.228 2.54919 14.5092 2.54919H15.4972C15.7784 2.54919 16.0064 2.32038 16.0064 2.03812V0.949545C16.0064 0.66729 15.7784 0.438477 15.4972 0.438477Z" fill="white"/>
<path id="Vector_16" d="M20.4972 13.0142H19.5092C19.228 13.0142 19 13.243 19 13.5252V14.6138C19 14.8961 19.228 15.1249 19.5092 15.1249H20.4972C20.7784 15.1249 21.0064 14.8961 21.0064 14.6138V13.5252C21.0064 13.243 20.7784 13.0142 20.4972 13.0142Z" fill="white"/>
<path id="Vector_17" d="M22.9972 7.96924H22.0092C21.728 7.96924 21.5 8.19805 21.5 8.48031V9.56888C21.5 9.85114 21.728 10.0799 22.0092 10.0799H22.9972C23.2784 10.0799 23.5064 9.85114 23.5064 9.56888V8.48031C23.5064 8.19805 23.2784 7.96924 22.9972 7.96924Z" fill="white"/>
<path id="Vector_18" d="M22.9972 10.4795H22.0092C21.728 10.4795 21.5 10.7083 21.5 10.9906V12.0791C21.5 12.3614 21.728 12.5902 22.0092 12.5902H22.9972C23.2784 12.5902 23.5064 12.3614 23.5064 12.0791V10.9906C23.5064 10.7083 23.2784 10.4795 22.9972 10.4795Z" fill="white"/>
<path id="Vector_19" d="M20.4972 2.94873H19.5092C19.228 2.94873 19 3.17754 19 3.4598V4.54837C19 4.83063 19.228 5.05944 19.5092 5.05944H20.4972C20.7784 5.05944 21.0064 4.83063 21.0064 4.54837V3.4598C21.0064 3.17754 20.7784 2.94873 20.4972 2.94873Z" fill="white"/>
<path id="Vector_20" d="M22.9972 5.45898H22.0092C21.728 5.45898 21.5 5.6878 21.5 5.97005V7.05863C21.5 7.34088 21.728 7.5697 22.0092 7.5697H22.9972C23.2784 7.5697 23.5064 7.34088 23.5064 7.05863V5.97005C23.5064 5.6878 23.2784 5.45898 22.9972 5.45898Z" fill="white"/>
<path id="Vector_21" d="M7.99715 7.99365H7.00924C6.72799 7.99365 6.5 8.22247 6.5 8.50472V9.5933C6.5 9.87555 6.72799 10.1044 7.00924 10.1044H7.99715C8.2784 10.1044 8.50639 9.87555 8.50639 9.5933V8.50472C8.50639 8.22247 8.2784 7.99365 7.99715 7.99365Z" fill="white"/>
<path id="Vector_22" d="M7.99715 10.4795H7.00924C6.72799 10.4795 6.5 10.7083 6.5 10.9906V12.0791C6.5 12.3614 6.72799 12.5902 7.00924 12.5902H7.99715C8.2784 12.5902 8.50639 12.3614 8.50639 12.0791V10.9906C8.50639 10.7083 8.2784 10.4795 7.99715 10.4795Z" fill="white"/>
<path id="Vector_23" d="M10.4972 2.94873H9.50924C9.22799 2.94873 9 3.17754 9 3.4598V4.54837C9 4.83063 9.22799 5.05944 9.50924 5.05944H10.4972C10.7784 5.05944 11.0064 4.83063 11.0064 4.54837V3.4598C11.0064 3.17754 10.7784 2.94873 10.4972 2.94873Z" fill="white"/>
<path id="Vector_24" d="M7.99715 5.45898H7.00924C6.72799 5.45898 6.5 5.6878 6.5 5.97005V7.05863C6.5 7.34088 6.72799 7.5697 7.00924 7.5697H7.99715C8.2784 7.5697 8.50639 7.34088 8.50639 7.05863V5.97005C8.50639 5.6878 8.2784 5.45898 7.99715 5.45898Z" fill="white"/>
<path id="Vector_25" d="M15.4972 12.9897H14.5092C14.228 12.9897 14 13.2186 14 13.5008V14.5894C14 14.8716 14.228 15.1005 14.5092 15.1005H15.4972C15.7784 15.1005 16.0064 14.8716 16.0064 14.5894V13.5008C16.0064 13.2186 15.7784 12.9897 15.4972 12.9897Z" fill="white"/>
<path id="Vector_26" d="M17.9972 0.438477H17.0092C16.728 0.438477 16.5 0.66729 16.5 0.949545V2.03812C16.5 2.32038 16.728 2.54919 17.0092 2.54919H17.9972C18.2784 2.54919 18.5064 2.32038 18.5064 2.03812V0.949545C18.5064 0.66729 18.2784 0.438477 17.9972 0.438477Z" fill="white"/>
<path id="Vector_27" d="M22.9972 12.9897H22.0092C21.728 12.9897 21.5 13.2186 21.5 13.5008V14.5894C21.5 14.8716 21.728 15.1005 22.0092 15.1005H22.9972C23.2784 15.1005 23.5064 14.8716 23.5064 14.5894V13.5008C23.5064 13.2186 23.2784 12.9897 22.9972 12.9897Z" fill="white"/>
<path id="Vector_28" d="M10.4972 12.9897H9.50924C9.22799 12.9897 9 13.2186 9 13.5008V14.5894C9 14.8716 9.22799 15.1005 9.50924 15.1005H10.4972C10.7784 15.1005 11.0064 14.8716 11.0064 14.5894V13.5008C11.0064 13.2186 10.7784 12.9897 10.4972 12.9897Z" fill="white"/>
<path id="Vector_29" d="M12.9972 0.438477H12.0092C11.728 0.438477 11.5 0.667289 11.5 0.949545V2.03812C11.5 2.32038 11.728 2.54919 12.0092 2.54919H12.9972C13.2784 2.54919 13.5064 2.32038 13.5064 2.03812V0.949545C13.5064 0.667289 13.2784 0.438477 12.9972 0.438477Z" fill="white"/>
<path id="Vector_30" d="M7.99715 12.9897H7.00924C6.72799 12.9897 6.5 13.2186 6.5 13.5008V14.5894C6.5 14.8716 6.72799 15.1005 7.00924 15.1005H7.99715C8.2784 15.1005 8.50639 14.8716 8.50639 14.5894V13.5008C8.50639 13.2186 8.2784 12.9897 7.99715 12.9897Z" fill="white"/>
<path id="Vector_31" d="M5.49715 12.9897H4.50924C4.22799 12.9897 4 13.2186 4 13.5008V14.5894C4 14.8716 4.22799 15.1005 4.50924 15.1005H5.49715C5.7784 15.1005 6.00639 14.8716 6.00639 14.5894V13.5008C6.00639 13.2186 5.7784 12.9897 5.49715 12.9897Z" fill="white"/>
<path id="Vector_32" d="M17.9972 18.0347H17.0092C16.728 18.0347 16.5 18.2635 16.5 18.5457V19.6343C16.5 19.9166 16.728 20.1454 17.0092 20.1454H17.9972C18.2784 20.1454 18.5064 19.9166 18.5064 19.6343V18.5457C18.5064 18.2635 18.2784 18.0347 17.9972 18.0347Z" fill="white"/>
<path id="Vector_33" d="M15.4972 18.0103H14.5092C14.228 18.0103 14 18.2391 14 18.5213V19.6099C14 19.8922 14.228 20.121 14.5092 20.121H15.4972C15.7784 20.121 16.0064 19.8922 16.0064 19.6099V18.5213C16.0064 18.2391 15.7784 18.0103 15.4972 18.0103Z" fill="white"/>
<path id="Vector_34" d="M17.9972 12.9897H17.0092C16.728 12.9897 16.5 13.2186 16.5 13.5008V14.5894C16.5 14.8716 16.728 15.1005 17.0092 15.1005H17.9972C18.2784 15.1005 18.5064 14.8716 18.5064 14.5894V13.5008C18.5064 13.2186 18.2784 12.9897 17.9972 12.9897Z" fill="white"/>
<path id="Vector_35" d="M15.4972 23.0308H14.5092C14.228 23.0308 14 23.2596 14 23.5418V24.6304C14 24.9127 14.228 25.1415 14.5092 25.1415H15.4972C15.7784 25.1415 16.0064 24.9127 16.0064 24.6304V23.5418C16.0064 23.2596 15.7784 23.0308 15.4972 23.0308Z" fill="white"/>
<path id="Vector_36" d="M12.9972 23.0308H12.0092C11.728 23.0308 11.5 23.2596 11.5 23.5418V24.6304C11.5 24.9127 11.728 25.1415 12.0092 25.1415H12.9972C13.2784 25.1415 13.5064 24.9127 13.5064 24.6304V23.5418C13.5064 23.2596 13.2784 23.0308 12.9972 23.0308Z" fill="white"/>
<path id="Vector_37" d="M15.4972 20.4958H14.5092C14.228 20.4958 14 20.7247 14 21.0069V22.0955C14 22.3777 14.228 22.6066 14.5092 22.6066H15.4972C15.7784 22.6066 16.0064 22.3777 16.0064 22.0955V21.0069C16.0064 20.7247 15.7784 20.4958 15.4972 20.4958Z" fill="white"/>
<path id="Vector_38" d="M25.4972 12.9897H24.5092C24.228 12.9897 24 13.2186 24 13.5008V14.5894C24 14.8716 24.228 15.1005 24.5092 15.1005H25.4972C25.7784 15.1005 26.0064 14.8716 26.0064 14.5894V13.5008C26.0064 13.2186 25.7784 12.9897 25.4972 12.9897Z" fill="white"/>
<path id="Vector_39" d="M25.4972 25.541H24.5092C24.228 25.541 24 25.7698 24 26.0521V27.1407C24 27.4229 24.228 27.6517 24.5092 27.6517H25.4972C25.7784 27.6517 26.0064 27.4229 26.0064 27.1407V26.0521C26.0064 25.7698 25.7784 25.541 25.4972 25.541Z" fill="white"/>
<path id="Vector_40" d="M12.9972 28.0513H12.0092C11.728 28.0513 11.5 28.2801 11.5 28.5623V29.6509C11.5 29.9332 11.728 30.162 12.0092 30.162H12.9972C13.2784 30.162 13.5064 29.9332 13.5064 29.6509V28.5623C13.5064 28.2801 13.2784 28.0513 12.9972 28.0513Z" fill="white"/>
<path id="Vector_41" d="M25.5128 28.0725H24.5249C24.2436 28.0725 24.0156 28.3013 24.0156 28.5836V29.6722C24.0156 29.9544 24.2436 30.1832 24.5249 30.1832H25.5128C25.794 30.1832 26.022 29.9544 26.022 29.6722V28.5836C26.022 28.3013 25.794 28.0725 25.5128 28.0725Z" fill="white"/>
<path id="Vector_42" d="M10.5128 28.0725H9.52486C9.24362 28.0725 9.01562 28.3013 9.01562 28.5836V29.6722C9.01562 29.9544 9.24362 30.1832 9.52486 30.1832H10.5128C10.794 30.1832 11.022 29.9544 11.022 29.6722V28.5836C11.022 28.3013 10.794 28.0725 10.5128 28.0725Z" fill="white"/>
<path id="Vector_43" d="M20.4972 28.0513H19.5092C19.228 28.0513 19 28.2801 19 28.5623V29.6509C19 29.9332 19.228 30.162 19.5092 30.162H20.4972C20.7784 30.162 21.0064 29.9332 21.0064 29.6509V28.5623C21.0064 28.2801 20.7784 28.0513 20.4972 28.0513Z" fill="white"/>
<path id="Vector_44" d="M5.49715 25.541H4.50924C4.22799 25.541 4 25.7698 4 26.0521V27.1407C4 27.4229 4.22799 27.6517 4.50924 27.6517H5.49715C5.7784 27.6517 6.00639 27.4229 6.00639 27.1407V26.0521C6.00639 25.7698 5.7784 25.541 5.49715 25.541Z" fill="white"/>
</g>
</svg>
