<svg width="68" height="56" viewBox="0 0 68 56" fill="none" xmlns="http://www.w3.org/2000/svg">
<circle cx="34" cy="28" r="22" fill="#FF5C00"/>
<mask id="mask0_11302_81978" style="mask-type:alpha" maskUnits="userSpaceOnUse" x="19" y="16" width="30" height="39">
<g clip-path="url(#clip0_11302_81978)">
<path d="M31.1267 44.8986H29.8668C29.5081 44.8986 29.2173 45.1892 29.2173 45.5477V46.9303C29.2173 47.2888 29.5081 47.5795 29.8668 47.5795H31.1267C31.4854 47.5795 31.7762 47.2888 31.7762 46.9303V45.5477C31.7762 45.1892 31.4854 44.8986 31.1267 44.8986Z" fill="#FF5C00"/>
<path d="M31.1267 48.1182H29.8668C29.5081 48.1182 29.2173 48.4088 29.2173 48.7673V50.15C29.2173 50.5085 29.5081 50.7992 29.8668 50.7992H31.1267C31.4854 50.7992 31.7762 50.5085 31.7762 50.15V48.7673C31.7762 48.4088 31.4854 48.1182 31.1267 48.1182Z" fill="#FF5C00"/>
<path d="M31.1069 51.3066H29.8469C29.4882 51.3066 29.1975 51.5972 29.1975 51.9557V53.3384C29.1975 53.6969 29.4882 53.9876 29.8469 53.9876H31.1069C31.4656 53.9876 31.7563 53.6969 31.7563 53.3384V51.9557C31.7563 51.5972 31.4656 51.3066 31.1069 51.3066Z" fill="#FF5C00"/>
<path d="M34.3152 44.8672H33.0552C32.6965 44.8672 32.4058 45.1579 32.4058 45.5164V46.8991C32.4058 47.2576 32.6965 47.5482 33.0552 47.5482H34.3152C34.6739 47.5482 34.9646 47.2576 34.9646 46.8991V45.5164C34.9646 45.1579 34.6739 44.8672 34.3152 44.8672Z" fill="#FF5C00"/>
<path d="M34.3152 48.0869H33.0552C32.6965 48.0869 32.4058 48.3776 32.4058 48.7361V50.1187C32.4058 50.4772 32.6965 50.7679 33.0552 50.7679H34.3152C34.6739 50.7679 34.9646 50.4772 34.9646 50.1187V48.7361C34.9646 48.3776 34.6739 48.0869 34.3152 48.0869Z" fill="#FF5C00"/>
<path d="M34.2952 51.2753H33.0352C32.6765 51.2753 32.3857 51.566 32.3857 51.9245V53.3071C32.3857 53.6656 32.6765 53.9563 33.0352 53.9563H34.2952C34.6538 53.9563 34.9446 53.6656 34.9446 53.3071V51.9245C34.9446 51.566 34.6538 51.2753 34.2952 51.2753Z" fill="#FF5C00"/>
<path d="M27.9382 44.8986H26.6783C26.3196 44.8986 26.0288 45.1892 26.0288 45.5477V46.9303C26.0288 47.2888 26.3196 47.5795 26.6783 47.5795H27.9382C28.2969 47.5795 28.5877 47.2888 28.5877 46.9303V45.5477C28.5877 45.1892 28.2969 44.8986 27.9382 44.8986Z" fill="#FF5C00"/>
<path d="M27.9382 48.1182H26.6783C26.3196 48.1182 26.0288 48.4088 26.0288 48.7673V50.15C26.0288 50.5085 26.3196 50.7992 26.6783 50.7992H27.9382C28.2969 50.7992 28.5877 50.5085 28.5877 50.15V48.7673C28.5877 48.4088 28.2969 48.1182 27.9382 48.1182Z" fill="#FF5C00"/>
<path d="M27.9185 51.3066H26.6585C26.2998 51.3066 26.009 51.5972 26.009 51.9557V53.3384C26.009 53.6969 26.2998 53.9876 26.6585 53.9876H27.9185C28.2771 53.9876 28.5679 53.6969 28.5679 53.3384V51.9557C28.5679 51.5972 28.2771 51.3066 27.9185 51.3066Z" fill="#FF5C00"/>
<path d="M47.0688 44.8986H45.8089C45.4502 44.8986 45.1594 45.1892 45.1594 45.5477V46.9303C45.1594 47.2888 45.4502 47.5795 45.8089 47.5795H47.0688C47.4275 47.5795 47.7183 47.2888 47.7183 46.9303V45.5477C47.7183 45.1892 47.4275 44.8986 47.0688 44.8986Z" fill="#FF5C00"/>
<path d="M47.0688 48.1182H45.8089C45.4502 48.1182 45.1594 48.4088 45.1594 48.7673V50.15C45.1594 50.5085 45.4502 50.7992 45.8089 50.7992H47.0688C47.4275 50.7992 47.7183 50.5085 47.7183 50.15V48.7673C47.7183 48.4088 47.4275 48.1182 47.0688 48.1182Z" fill="#FF5C00"/>
<path d="M21.5615 44.8986H20.3016C19.9429 44.8986 19.6521 45.1892 19.6521 45.5477V46.9303C19.6521 47.2888 19.9429 47.5795 20.3016 47.5795H21.5615C21.9202 47.5795 22.211 47.2888 22.211 46.9303V45.5477C22.211 45.1892 21.9202 44.8986 21.5615 44.8986Z" fill="#FF5C00"/>
<path d="M21.5615 48.1182H20.3016C19.9429 48.1182 19.6521 48.4088 19.6521 48.7673V50.15C19.6521 50.5085 19.9429 50.7992 20.3016 50.7992H21.5615C21.9202 50.7992 22.211 50.5085 22.211 50.15V48.7673C22.211 48.4088 21.9202 48.1182 21.5615 48.1182Z" fill="#FF5C00"/>
<path d="M40.6919 44.8986H39.4319C39.0733 44.8986 38.7825 45.1892 38.7825 45.5477V46.9303C38.7825 47.2888 39.0733 47.5795 39.4319 47.5795H40.6919C41.0506 47.5795 41.3414 47.2888 41.3414 46.9303V45.5477C41.3414 45.1892 41.0506 44.8986 40.6919 44.8986Z" fill="#FF5C00"/>
<path d="M40.6919 48.1182H39.4319C39.0733 48.1182 38.7825 48.4088 38.7825 48.7673V50.15C38.7825 50.5085 39.0733 50.7992 39.4319 50.7992H40.6919C41.0506 50.7992 41.3414 50.5085 41.3414 50.15V48.7673C41.3414 48.4088 41.0506 48.1182 40.6919 48.1182Z" fill="#FF5C00"/>
<path d="M40.6721 51.3066H39.4121C39.0534 51.3066 38.7627 51.5972 38.7627 51.9557V53.3384C38.7627 53.6969 39.0534 53.9876 39.4121 53.9876H40.6721C41.0307 53.9876 41.3215 53.6969 41.3215 53.3384V51.9557C41.3215 51.5972 41.0307 51.3066 40.6721 51.3066Z" fill="#FF5C00"/>
<path d="M31.1267 38.5217H29.8668C29.5081 38.5217 29.2173 38.8124 29.2173 39.1709V40.5535C29.2173 40.912 29.5081 41.2027 29.8668 41.2027H31.1267C31.4854 41.2027 31.7762 40.912 31.7762 40.5535V39.1709C31.7762 38.8124 31.4854 38.5217 31.1267 38.5217Z" fill="#FF5C00"/>
<path d="M34.3152 38.4904H33.0552C32.6965 38.4904 32.4058 38.7811 32.4058 39.1396V40.5223C32.4058 40.8808 32.6965 41.1714 33.0552 41.1714H34.3152C34.6739 41.1714 34.9646 40.8808 34.9646 40.5223V39.1396C34.9646 38.7811 34.6739 38.4904 34.3152 38.4904Z" fill="#FF5C00"/>
<path d="M34.3152 22.5484H33.0552C32.6965 22.5484 32.4058 22.839 32.4058 23.1975V24.5802C32.4058 24.9387 32.6965 25.2293 33.0552 25.2293H34.3152C34.6739 25.2293 34.9646 24.9387 34.9646 24.5802V23.1975C34.9646 22.839 34.6739 22.5484 34.3152 22.5484Z" fill="#FF5C00"/>
<path d="M27.9382 38.5217H26.6783C26.3196 38.5217 26.0288 38.8124 26.0288 39.1709V40.5535C26.0288 40.912 26.3196 41.2027 26.6783 41.2027H27.9382C28.2969 41.2027 28.5877 40.912 28.5877 40.5535V39.1709C28.5877 38.8124 28.2969 38.5217 27.9382 38.5217Z" fill="#FF5C00"/>
<path d="M27.9382 22.5797H26.6783C26.3196 22.5797 26.0288 22.8704 26.0288 23.2289V24.6115C26.0288 24.97 26.3196 25.2607 26.6783 25.2607H27.9382C28.2969 25.2607 28.5877 24.97 28.5877 24.6115V23.2289C28.5877 22.8704 28.2969 22.5797 27.9382 22.5797Z" fill="#FF5C00"/>
<path d="M27.9382 19.3913H26.6783C26.3196 19.3913 26.0288 19.6819 26.0288 20.0404V21.4231C26.0288 21.7816 26.3196 22.0722 26.6783 22.0722H27.9382C28.2969 22.0722 28.5877 21.7816 28.5877 21.4231V20.0404C28.5877 19.6819 28.2969 19.3913 27.9382 19.3913Z" fill="#FF5C00"/>
<path d="M24.75 22.5797H23.49C23.1313 22.5797 22.8406 22.8704 22.8406 23.2289V24.6115C22.8406 24.97 23.1313 25.2607 23.49 25.2607H24.75C25.1087 25.2607 25.3995 24.97 25.3995 24.6115V23.2289C25.3995 22.8704 25.1087 22.5797 24.75 22.5797Z" fill="#FF5C00"/>
<path d="M27.9382 25.7681H26.6783C26.3196 25.7681 26.0288 26.0588 26.0288 26.4173V27.7999C26.0288 28.1584 26.3196 28.4491 26.6783 28.4491H27.9382C28.2969 28.4491 28.5877 28.1584 28.5877 27.7999V26.4173C28.5877 26.0588 28.2969 25.7681 27.9382 25.7681Z" fill="#FF5C00"/>
<path d="M27.9382 28.9565H26.6783C26.3196 28.9565 26.0288 29.2471 26.0288 29.6056V30.9883C26.0288 31.3468 26.3196 31.6374 26.6783 31.6374H27.9382C28.2969 31.6374 28.5877 31.3468 28.5877 30.9883V29.6056C28.5877 29.2471 28.2969 28.9565 27.9382 28.9565Z" fill="#FF5C00"/>
<path d="M24.75 25.7681H23.49C23.1313 25.7681 22.8406 26.0588 22.8406 26.4173V27.7999C22.8406 28.1584 23.1313 28.4491 23.49 28.4491H24.75C25.1087 28.4491 25.3995 28.1584 25.3995 27.7999V26.4173C25.3995 26.0588 25.1087 25.7681 24.75 25.7681Z" fill="#FF5C00"/>
<path d="M40.6919 38.5217H39.4319C39.0733 38.5217 38.7825 38.8124 38.7825 39.1709V40.5535C38.7825 40.912 39.0733 41.2027 39.4319 41.2027H40.6919C41.0506 41.2027 41.3414 40.912 41.3414 40.5535V39.1709C41.3414 38.8124 41.0506 38.5217 40.6919 38.5217Z" fill="#FF5C00"/>
<path d="M40.6919 22.5797H39.4319C39.0733 22.5797 38.7825 22.8704 38.7825 23.2289V24.6115C38.7825 24.97 39.0733 25.2607 39.4319 25.2607H40.6919C41.0506 25.2607 41.3414 24.97 41.3414 24.6115V23.2289C41.3414 22.8704 41.0506 22.5797 40.6919 22.5797Z" fill="#FF5C00"/>
<path d="M40.6919 19.3913H39.4319C39.0733 19.3913 38.7825 19.6819 38.7825 20.0404V21.4231C38.7825 21.7816 39.0733 22.0722 39.4319 22.0722H40.6919C41.0506 22.0722 41.3414 21.7816 41.3414 21.4231V20.0404C41.3414 19.6819 41.0506 19.3913 40.6919 19.3913Z" fill="#FF5C00"/>
<path d="M43.8804 22.5797H42.6204C42.2617 22.5797 41.9709 22.8704 41.9709 23.2289V24.6115C41.9709 24.97 42.2617 25.2607 42.6204 25.2607H43.8804C44.2391 25.2607 44.5298 24.97 44.5298 24.6115V23.2289C44.5298 22.8704 44.2391 22.5797 43.8804 22.5797Z" fill="#FF5C00"/>
<path d="M40.6919 25.7681H39.4319C39.0733 25.7681 38.7825 26.0588 38.7825 26.4173V27.7999C38.7825 28.1584 39.0733 28.4491 39.4319 28.4491H40.6919C41.0506 28.4491 41.3414 28.1584 41.3414 27.7999V26.4173C41.3414 26.0588 41.0506 25.7681 40.6919 25.7681Z" fill="#FF5C00"/>
<path d="M40.6919 28.9565H39.4319C39.0733 28.9565 38.7825 29.2471 38.7825 29.6056V30.9883C38.7825 31.3468 39.0733 31.6374 39.4319 31.6374H40.6919C41.0506 31.6374 41.3414 31.3468 41.3414 30.9883V29.6056C41.3414 29.2471 41.0506 28.9565 40.6919 28.9565Z" fill="#FF5C00"/>
<path d="M43.8804 25.7681H42.6204C42.2617 25.7681 41.9709 26.0588 41.9709 26.4173V27.7999C41.9709 28.1584 42.2617 28.4491 42.6204 28.4491H43.8804C44.2391 28.4491 44.5298 28.1584 44.5298 27.7999V26.4173C44.5298 26.0588 44.2391 25.7681 43.8804 25.7681Z" fill="#FF5C00"/>
<path d="M31.1267 35.3646H29.8668C29.5081 35.3646 29.2173 35.6552 29.2173 36.0137V37.3964C29.2173 37.7549 29.5081 38.0456 29.8668 38.0456H31.1267C31.4854 38.0456 31.7762 37.7549 31.7762 37.3964V36.0137C31.7762 35.6552 31.4854 35.3646 31.1267 35.3646Z" fill="#FF5C00"/>
<path d="M31.1267 32.1762H29.8668C29.5081 32.1762 29.2173 32.4668 29.2173 32.8253V34.208C29.2173 34.5665 29.5081 34.8571 29.8668 34.8571H31.1267C31.4854 34.8571 31.7762 34.5665 31.7762 34.208V32.8253C31.7762 32.4668 31.4854 32.1762 31.1267 32.1762Z" fill="#FF5C00"/>
<path d="M34.3152 35.3333H33.0552C32.6965 35.3333 32.4058 35.624 32.4058 35.9825V37.3651C32.4058 37.7236 32.6965 38.0143 33.0552 38.0143H34.3152C34.6739 38.0143 34.9646 37.7236 34.9646 37.3651V35.9825C34.9646 35.624 34.6739 35.3333 34.3152 35.3333Z" fill="#FF5C00"/>
<path d="M34.3152 32.1449H33.0552C32.6965 32.1449 32.4058 32.4356 32.4058 32.7941V34.1767C32.4058 34.5352 32.6965 34.8258 33.0552 34.8258H34.3152C34.6739 34.8258 34.9646 34.5352 34.9646 34.1767V32.7941C34.9646 32.4356 34.6739 32.1449 34.3152 32.1449Z" fill="#FF5C00"/>
<path d="M47.0688 41.7101H45.8089C45.4502 41.7101 45.1594 42.0008 45.1594 42.3593V43.7419C45.1594 44.1004 45.4502 44.3911 45.8089 44.3911H47.0688C47.4275 44.3911 47.7183 44.1004 47.7183 43.7419V42.3593C47.7183 42.0008 47.4275 41.7101 47.0688 41.7101Z" fill="#FF5C00"/>
<path d="M31.1267 19.4226H29.8668C29.5081 19.4226 29.2173 19.7132 29.2173 20.0717V21.4544C29.2173 21.8129 29.5081 22.1035 29.8668 22.1035H31.1267C31.4854 22.1035 31.7762 21.8129 31.7762 21.4544V20.0717C31.7762 19.7132 31.4854 19.4226 31.1267 19.4226Z" fill="#FF5C00"/>
<path d="M34.3152 19.3913H33.0552C32.6965 19.3913 32.4058 19.6819 32.4058 20.0404V21.4231C32.4058 21.7816 32.6965 22.0722 33.0552 22.0722H34.3152C34.6739 22.0722 34.9646 21.7816 34.9646 21.4231V20.0404C34.9646 19.6819 34.6739 19.3913 34.3152 19.3913Z" fill="#FF5C00"/>
<path d="M34.3152 16.2029H33.0552C32.6965 16.2029 32.4058 16.4935 32.4058 16.852V18.2347C32.4058 18.5932 32.6965 18.8838 33.0552 18.8838H34.3152C34.6739 18.8838 34.9646 18.5932 34.9646 18.2347V16.852C34.9646 16.4935 34.6739 16.2029 34.3152 16.2029Z" fill="#FF5C00"/>
<path d="M31.1267 16.2029H29.8668C29.5081 16.2029 29.2173 16.4935 29.2173 16.852V18.2347C29.2173 18.5932 29.5081 18.8838 29.8668 18.8838H31.1267C31.4854 18.8838 31.7762 18.5932 31.7762 18.2347V16.852C31.7762 16.4935 31.4854 16.2029 31.1267 16.2029Z" fill="#FF5C00"/>
<path d="M31.1267 41.7415H29.8668C29.5081 41.7415 29.2173 42.032 29.2173 42.3906V43.7732C29.2173 44.1317 29.5081 44.4224 29.8668 44.4224H31.1267C31.4854 44.4224 31.7762 44.1317 31.7762 43.7732V42.3906C31.7762 42.032 31.4854 41.7415 31.1267 41.7415Z" fill="#FF5C00"/>
<path d="M34.3152 41.7101H33.0552C32.6965 41.7101 32.4058 42.0008 32.4058 42.3593V43.7419C32.4058 44.1004 32.6965 44.3911 33.0552 44.3911H34.3152C34.6739 44.3911 34.9646 44.1004 34.9646 43.7419V42.3593C34.9646 42.0008 34.6739 41.7101 34.3152 41.7101Z" fill="#FF5C00"/>
<path d="M31.1267 25.7994H29.8668C29.5081 25.7994 29.2173 26.09 29.2173 26.4485V27.8312C29.2173 28.1897 29.5081 28.4804 29.8668 28.4804H31.1267C31.4854 28.4804 31.7762 28.1897 31.7762 27.8312V26.4485C31.7762 26.09 31.4854 25.7994 31.1267 25.7994Z" fill="#FF5C00"/>
<path d="M34.3152 25.7681H33.0552C32.6965 25.7681 32.4058 26.0588 32.4058 26.4173V27.7999C32.4058 28.1584 32.6965 28.4491 33.0552 28.4491H34.3152C34.6739 28.4491 34.9646 28.1584 34.9646 27.7999V26.4173C34.9646 26.0588 34.6739 25.7681 34.3152 25.7681Z" fill="#FF5C00"/>
<path d="M27.9382 41.7415H26.6783C26.3196 41.7415 26.0288 42.032 26.0288 42.3906V43.7732C26.0288 44.1317 26.3196 44.4224 26.6783 44.4224H27.9382C28.2969 44.4224 28.5877 44.1317 28.5877 43.7732V42.3906C28.5877 42.032 28.2969 41.7415 27.9382 41.7415Z" fill="#FF5C00"/>
<path d="M21.5615 41.7415H20.3016C19.9429 41.7415 19.6521 42.032 19.6521 42.3906V43.7732C19.6521 44.1317 19.9429 44.4224 20.3016 44.4224H21.5615C21.9202 44.4224 22.211 44.1317 22.211 43.7732V42.3906C22.211 42.032 21.9202 41.7415 21.5615 41.7415Z" fill="#FF5C00"/>
<path d="M40.6919 41.7415H39.4319C39.0733 41.7415 38.7825 42.032 38.7825 42.3906V43.7732C38.7825 44.1317 39.0733 44.4224 39.4319 44.4224H40.6919C41.0506 44.4224 41.3414 44.1317 41.3414 43.7732V42.3906C41.3414 42.032 41.0506 41.7415 40.6919 41.7415Z" fill="#FF5C00"/>
<path d="M37.5235 44.9568H36.2635C35.9048 44.9568 35.614 45.2474 35.614 45.6059V46.9886C35.614 47.3471 35.9048 47.6377 36.2635 47.6377H37.5235C37.8821 47.6377 38.1729 47.3471 38.1729 46.9886V45.6059C38.1729 45.2474 37.8821 44.9568 37.5235 44.9568Z" fill="#FF5C00"/>
<path d="M37.5235 48.1765H36.2635C35.9048 48.1765 35.614 48.4672 35.614 48.8257V50.2083C35.614 50.5668 35.9048 50.8575 36.2635 50.8575H37.5235C37.8821 50.8575 38.1729 50.5668 38.1729 50.2083V48.8257C38.1729 48.4672 37.8821 48.1765 37.5235 48.1765Z" fill="#FF5C00"/>
<path d="M37.5036 51.3649H36.2437C35.885 51.3649 35.5942 51.6556 35.5942 52.0141V53.3967C35.5942 53.7552 35.885 54.0459 36.2437 54.0459H37.5036C37.8623 54.0459 38.1531 53.7552 38.1531 53.3967V52.0141C38.1531 51.6556 37.8623 51.3649 37.5036 51.3649Z" fill="#FF5C00"/>
<path d="M24.7698 44.9568H23.5098C23.1511 44.9568 22.8604 45.2474 22.8604 45.6059V46.9886C22.8604 47.3471 23.1511 47.6377 23.5098 47.6377H24.7698C25.1285 47.6377 25.4192 47.3471 25.4192 46.9886V45.6059C25.4192 45.2474 25.1285 44.9568 24.7698 44.9568Z" fill="#FF5C00"/>
<path d="M24.7698 48.1765H23.5098C23.1511 48.1765 22.8604 48.4672 22.8604 48.8257V50.2083C22.8604 50.5668 23.1511 50.8575 23.5098 50.8575H24.7698C25.1285 50.8575 25.4192 50.5668 25.4192 50.2083V48.8257C25.4192 48.4672 25.1285 48.1765 24.7698 48.1765Z" fill="#FF5C00"/>
<path d="M24.75 51.3649H23.49C23.1313 51.3649 22.8406 51.6556 22.8406 52.0141V53.3967C22.8406 53.7552 23.1313 54.0459 23.49 54.0459H24.75C25.1087 54.0459 25.3995 53.7552 25.3995 53.3967V52.0141C25.3995 51.6556 25.1087 51.3649 24.75 51.3649Z" fill="#FF5C00"/>
<path d="M43.9002 44.9568H42.6402C42.2815 44.9568 41.9907 45.2474 41.9907 45.6059V46.9886C41.9907 47.3471 42.2815 47.6377 42.6402 47.6377H43.9002C44.2588 47.6377 44.5496 47.3471 44.5496 46.9886V45.6059C44.5496 45.2474 44.2588 44.9568 43.9002 44.9568Z" fill="#FF5C00"/>
<path d="M43.9002 48.1765H42.6402C42.2815 48.1765 41.9907 48.4672 41.9907 48.8257V50.2083C41.9907 50.5668 42.2815 50.8575 42.6402 50.8575H43.9002C44.2588 50.8575 44.5496 50.5668 44.5496 50.2083V48.8257C44.5496 48.4672 44.2588 48.1765 43.9002 48.1765Z" fill="#FF5C00"/>
<path d="M43.8804 51.3649H42.6204C42.2617 51.3649 41.9709 51.6556 41.9709 52.0141V53.3967C41.9709 53.7552 42.2617 54.0459 42.6204 54.0459H43.8804C44.2391 54.0459 44.5298 53.7552 44.5298 53.3967V52.0141C44.5298 51.6556 44.2391 51.3649 43.8804 51.3649Z" fill="#FF5C00"/>
<path d="M37.5235 38.58H36.2635C35.9048 38.58 35.614 38.8707 35.614 39.2292V40.6119C35.614 40.9704 35.9048 41.261 36.2635 41.261H37.5235C37.8821 41.261 38.1729 40.9704 38.1729 40.6119V39.2292C38.1729 38.8707 37.8821 38.58 37.5235 38.58Z" fill="#FF5C00"/>
<path d="M24.7698 38.58H23.5098C23.1511 38.58 22.8604 38.8707 22.8604 39.2292V40.6119C22.8604 40.9704 23.1511 41.261 23.5098 41.261H24.7698C25.1285 41.261 25.4192 40.9704 25.4192 40.6119V39.2292C25.4192 38.8707 25.1285 38.58 24.7698 38.58Z" fill="#FF5C00"/>
<path d="M43.9002 38.58H42.6402C42.2815 38.58 41.9907 38.8707 41.9907 39.2292V40.6119C41.9907 40.9704 42.2815 41.261 42.6402 41.261H43.9002C44.2588 41.261 44.5496 40.9704 44.5496 40.6119V39.2292C44.5496 38.8707 44.2588 38.58 43.9002 38.58Z" fill="#FF5C00"/>
<path d="M37.5235 35.423H36.2635C35.9048 35.423 35.614 35.7136 35.614 36.0721V37.4548C35.614 37.8133 35.9048 38.1039 36.2635 38.1039H37.5235C37.8821 38.1039 38.1729 37.8133 38.1729 37.4548V36.0721C38.1729 35.7136 37.8821 35.423 37.5235 35.423Z" fill="#FF5C00"/>
<path d="M37.5235 32.2346H36.2635C35.9048 32.2346 35.614 32.5252 35.614 32.8837V34.2664C35.614 34.6249 35.9048 34.9155 36.2635 34.9155H37.5235C37.8821 34.9155 38.1729 34.6249 38.1729 34.2664V32.8837C38.1729 32.5252 37.8821 32.2346 37.5235 32.2346Z" fill="#FF5C00"/>
<path d="M37.5235 19.481H36.2635C35.9048 19.481 35.614 19.7716 35.614 20.1301V21.5128C35.614 21.8713 35.9048 22.1619 36.2635 22.1619H37.5235C37.8821 22.1619 38.1729 21.8713 38.1729 21.5128V20.1301C38.1729 19.7716 37.8821 19.481 37.5235 19.481Z" fill="#FF5C00"/>
<path d="M37.5036 16.2029H36.2437C35.885 16.2029 35.5942 16.4935 35.5942 16.852V18.2347C35.5942 18.5932 35.885 18.8838 36.2437 18.8838H37.5036C37.8623 18.8838 38.1531 18.5932 38.1531 18.2347V16.852C38.1531 16.4935 37.8623 16.2029 37.5036 16.2029Z" fill="#FF5C00"/>
<path d="M37.5235 41.7998H36.2635C35.9048 41.7998 35.614 42.0905 35.614 42.449V43.8316C35.614 44.1902 35.9048 44.4807 36.2635 44.4807H37.5235C37.8821 44.4807 38.1729 44.1902 38.1729 43.8316V42.449C38.1729 42.0905 37.8821 41.7998 37.5235 41.7998Z" fill="#FF5C00"/>
<path d="M37.5235 25.8577H36.2635C35.9048 25.8577 35.614 26.1484 35.614 26.5069V27.8896C35.614 28.2481 35.9048 28.5387 36.2635 28.5387H37.5235C37.8821 28.5387 38.1729 28.2481 38.1729 27.8896V26.5069C38.1729 26.1484 37.8821 25.8577 37.5235 25.8577Z" fill="#FF5C00"/>
<path d="M24.7698 41.7998H23.5098C23.1511 41.7998 22.8604 42.0905 22.8604 42.449V43.8316C22.8604 44.1902 23.1511 44.4807 23.5098 44.4807H24.7698C25.1285 44.4807 25.4192 44.1902 25.4192 43.8316V42.449C25.4192 42.0905 25.1285 41.7998 24.7698 41.7998Z" fill="#FF5C00"/>
<path d="M43.9002 41.7998H42.6402C42.2815 41.7998 41.9907 42.0905 41.9907 42.449V43.8316C41.9907 44.1902 42.2815 44.4807 42.6402 44.4807H43.9002C44.2588 44.4807 44.5496 44.1902 44.5496 43.8316V42.449C44.5496 42.0905 44.2588 41.7998 43.9002 41.7998Z" fill="#FF5C00"/>
</g>
</mask>
<g mask="url(#mask0_11302_81978)">
<circle cx="34" cy="28" r="22" fill="white"/>
</g>
<defs>
<clipPath id="clip0_11302_81978">
<rect width="28.6957" height="38.2609" fill="white" transform="translate(19.6521 16.2029)"/>
</clipPath>
</defs>
</svg>
