<svg width="60" height="60" viewBox="0 0 60 60" fill="none" xmlns="http://www.w3.org/2000/svg">
<g id="icon speech feedback">
<path id="Vector" d="M6.47715 0H4.87608C4.42028 0 4.05078 0.424983 4.05078 0.949227V2.97108C4.05078 3.49533 4.42028 3.92031 4.87608 3.92031H6.47715C6.93295 3.92031 7.30245 3.49533 7.30245 2.97108V0.949227C7.30245 0.424983 6.93295 0 6.47715 0Z" fill="current"/>
<path id="Vector_2" d="M26.735 0H25.1339C24.6781 0 24.3086 0.424983 24.3086 0.949227V2.97108C24.3086 3.49533 24.6781 3.92031 25.1339 3.92031H26.735C27.1908 3.92031 27.5603 3.49533 27.5603 2.97108V0.949227C27.5603 0.424983 27.1908 0 26.735 0Z" fill="current"/>
<path id="Vector_3" d="M46.9928 0H45.3917C44.9359 0 44.5664 0.424983 44.5664 0.949227V2.97108C44.5664 3.49533 44.9359 3.92031 45.3917 3.92031H46.9928C47.4486 3.92031 47.8181 3.49533 47.8181 2.97108V0.949227C47.8181 0.424983 47.4486 0 46.9928 0Z" fill="current"/>
<path id="Vector_4" d="M2.42637 0H0.825296C0.369498 0 0 0.424983 0 0.949227V2.97108C0 3.49533 0.369498 3.92031 0.825296 3.92031H2.42637C2.88217 3.92031 3.25167 3.49533 3.25167 2.97108V0.949227C3.25167 0.424983 2.88217 0 2.42637 0Z" fill="current"/>
<path id="Vector_5" d="M2.42637 41.9614H0.825296C0.369498 41.9614 0 42.3864 0 42.9107V44.9325C0 45.4568 0.369498 45.8817 0.825296 45.8817H2.42637C2.88217 45.8817 3.25167 45.4568 3.25167 44.9325V42.9107C3.25167 42.3864 2.88217 41.9614 2.42637 41.9614Z" fill="current"/>
<path id="Vector_6" d="M22.6842 0H21.0831C20.6273 0 20.2578 0.424983 20.2578 0.949227V2.97108C20.2578 3.49533 20.6273 3.92031 21.0831 3.92031H22.6842C23.14 3.92031 23.5095 3.49533 23.5095 2.97108V0.949227C23.5095 0.424983 23.14 0 22.6842 0Z" fill="current"/>
<path id="Vector_7" d="M42.942 0H41.3409C40.8851 0 40.5156 0.424983 40.5156 0.949227V2.97108C40.5156 3.49533 40.8851 3.92031 41.3409 3.92031H42.942C43.3978 3.92031 43.7673 3.49533 43.7673 2.97108V0.949227C43.7673 0.424983 43.3978 0 42.942 0Z" fill="current"/>
<path id="Vector_8" d="M2.42637 18.6494H0.825296C0.369498 18.6494 0 19.0744 0 19.5986V21.6205C0 22.1447 0.369498 22.5697 0.825296 22.5697H2.42637C2.88217 22.5697 3.25167 22.1447 3.25167 21.6205V19.5986C3.25167 19.0744 2.88217 18.6494 2.42637 18.6494Z" fill="current"/>
<path id="Vector_9" d="M14.5826 0H12.9815C12.5257 0 12.1562 0.424983 12.1562 0.949227V2.97108C12.1562 3.49533 12.5257 3.92031 12.9815 3.92031H14.5826C15.0384 3.92031 15.4079 3.49533 15.4079 2.97108V0.949227C15.4079 0.424983 15.0384 0 14.5826 0Z" fill="current"/>
<path id="Vector_10" d="M34.8404 0H33.2394C32.7836 0 32.4141 0.424983 32.4141 0.949227V2.97108C32.4141 3.49533 32.7836 3.92031 33.2394 3.92031H34.8404C35.2962 3.92031 35.6657 3.49533 35.6657 2.97108V0.949227C35.6657 0.424983 35.2962 0 34.8404 0Z" fill="current"/>
<path id="Vector_11" d="M55.0982 0H53.4972C53.0414 0 52.6719 0.424983 52.6719 0.949227V2.97108C52.6719 3.49533 53.0414 3.92031 53.4972 3.92031H55.0982C55.554 3.92031 55.9235 3.49533 55.9235 2.97108V0.949227C55.9235 0.424983 55.554 0 55.0982 0Z" fill="current"/>
<path id="Vector_12" d="M26.735 51.2861H25.1339C24.6781 51.2861 24.3086 51.7111 24.3086 52.2354V54.2572C24.3086 54.7815 24.6781 55.2064 25.1339 55.2064H26.735C27.1908 55.2064 27.5603 54.7815 27.5603 54.2572V52.2354C27.5603 51.7111 27.1908 51.2861 26.735 51.2861Z" fill="current"/>
<path id="Vector_13" d="M2.42637 9.32471H0.825296C0.369498 9.32471 0 9.74969 0 10.2739V12.2958C0 12.82 0.369498 13.245 0.825296 13.245H2.42637C2.88217 13.245 3.25167 12.82 3.25167 12.2958V10.2739C3.25167 9.74969 2.88217 9.32471 2.42637 9.32471Z" fill="current"/>
<path id="Vector_14" d="M2.42637 27.9741H0.825296C0.369498 27.9741 0 28.3991 0 28.9233V30.9452C0 31.4694 0.369498 31.8944 0.825296 31.8944H2.42637C2.88217 31.8944 3.25167 31.4694 3.25167 30.9452V28.9233C3.25167 28.3991 2.88217 27.9741 2.42637 27.9741Z" fill="current"/>
<path id="Vector_15" d="M34.8404 51.2861H33.2394C32.7836 51.2861 32.4141 51.7111 32.4141 52.2354V54.2572C32.4141 54.7815 32.7836 55.2064 33.2394 55.2064H34.8404C35.2962 55.2064 35.6657 54.7815 35.6657 54.2572V52.2354C35.6657 51.7111 35.2962 51.2861 34.8404 51.2861Z" fill="current"/>
<path id="Vector_16" d="M6.47715 46.6694H4.87608C4.42028 46.6694 4.05078 47.0944 4.05078 47.6187V49.6405C4.05078 50.1648 4.42028 50.5897 4.87608 50.5897H6.47715C6.93295 50.5897 7.30245 50.1648 7.30245 49.6405V47.6187C7.30245 47.0944 6.93295 46.6694 6.47715 46.6694Z" fill="current"/>
<path id="Vector_17" d="M46.9928 46.6694H45.3917C44.9359 46.6694 44.5664 47.0944 44.5664 47.6187V49.6405C44.5664 50.1648 44.9359 50.5897 45.3917 50.5897H46.9928C47.4486 50.5897 47.8181 50.1648 47.8181 49.6405V47.6187C47.8181 47.0944 47.4486 46.6694 46.9928 46.6694Z" fill="current"/>
<path id="Vector_18" d="M2.42637 4.70801H0.825296C0.369498 4.70801 0 5.13299 0 5.65723V7.67909C0 8.20333 0.369498 8.62832 0.825296 8.62832H2.42637C2.88217 8.62832 3.25167 8.20333 3.25167 7.67909V5.65723C3.25167 5.13299 2.88217 4.70801 2.42637 4.70801Z" fill="current"/>
<path id="Vector_19" d="M2.42637 46.6694H0.825296C0.369498 46.6694 0 47.0944 0 47.6187V49.6405C0 50.1648 0.369498 50.5897 0.825296 50.5897H2.42637C2.88217 50.5897 3.25167 50.1648 3.25167 49.6405V47.6187C3.25167 47.0944 2.88217 46.6694 2.42637 46.6694Z" fill="current"/>
<path id="Vector_20" d="M22.6842 46.6694H21.0831C20.6273 46.6694 20.2578 47.0944 20.2578 47.6187V49.6405C20.2578 50.1648 20.6273 50.5897 21.0831 50.5897H22.6842C23.14 50.5897 23.5095 50.1648 23.5095 49.6405V47.6187C23.5095 47.0944 23.14 46.6694 22.6842 46.6694Z" fill="current"/>
<path id="Vector_21" d="M42.942 46.6694H41.3409C40.8851 46.6694 40.5156 47.0944 40.5156 47.6187V49.6405C40.5156 50.1648 40.8851 50.5897 41.3409 50.5897H42.942C43.3978 50.5897 43.7673 50.1648 43.7673 49.6405V47.6187C43.7673 47.0944 43.3978 46.6694 42.942 46.6694Z" fill="current"/>
<path id="Vector_22" d="M2.42637 23.3574H0.825296C0.369498 23.3574 0 23.7824 0 24.3066V26.3285C0 26.8527 0.369498 27.2777 0.825296 27.2777H2.42637C2.88217 27.2777 3.25167 26.8527 3.25167 26.3285V24.3066C3.25167 23.7824 2.88217 23.3574 2.42637 23.3574Z" fill="current"/>
<path id="Vector_23" d="M14.5826 46.6694H12.9815C12.5257 46.6694 12.1562 47.0944 12.1562 47.6187V49.6405C12.1562 50.1648 12.5257 50.5897 12.9815 50.5897H14.5826C15.0384 50.5897 15.4079 50.1648 15.4079 49.6405V47.6187C15.4079 47.0944 15.0384 46.6694 14.5826 46.6694Z" fill="current"/>
<path id="Vector_24" d="M55.0982 46.6694H53.4972C53.0414 46.6694 52.6719 47.0944 52.6719 47.6187V49.6405C52.6719 50.1648 53.0414 50.5897 53.4972 50.5897H55.0982C55.554 50.5897 55.9235 50.1648 55.9235 49.6405V47.6187C55.9235 47.0944 55.554 46.6694 55.0982 46.6694Z" fill="current"/>
<path id="Vector_25" d="M2.42637 14.0327H0.825296C0.369498 14.0327 0 14.4577 0 14.9819V17.0038C0 17.528 0.369498 17.953 0.825296 17.953H2.42637C2.88217 17.953 3.25167 17.528 3.25167 17.0038V14.9819C3.25167 14.4577 2.88217 14.0327 2.42637 14.0327Z" fill="current"/>
<path id="Vector_26" d="M2.42637 32.6826H0.825296C0.369498 32.6826 0 33.1076 0 33.6318V35.6537C0 36.1779 0.369498 36.6029 0.825296 36.6029H2.42637C2.88217 36.6029 3.25167 36.1779 3.25167 35.6537V33.6318C3.25167 33.1076 2.88217 32.6826 2.42637 32.6826Z" fill="current"/>
<path id="Vector_27" d="M2.42637 37.2988H0.825296C0.369498 37.2988 0 37.7238 0 38.2481V40.2699C0 40.7942 0.369498 41.2191 0.825296 41.2191H2.42637C2.88217 41.2191 3.25167 40.7942 3.25167 40.2699V38.2481C3.25167 37.7238 2.88217 37.2988 2.42637 37.2988Z" fill="current"/>
<path id="Vector_28" d="M10.5553 0.0854492H8.9542C8.4984 0.0854492 8.12891 0.510433 8.12891 1.03468V3.05653C8.12891 3.58077 8.4984 4.00576 8.9542 4.00576H10.5553C11.0111 4.00576 11.3806 3.58077 11.3806 3.05653V1.03468C11.3806 0.510433 11.0111 0.0854492 10.5553 0.0854492Z" fill="current"/>
<path id="Vector_29" d="M30.8131 0.0854492H29.212C28.7562 0.0854492 28.3867 0.510433 28.3867 1.03468V3.05653C28.3867 3.58077 28.7562 4.00576 29.212 4.00576H30.8131C31.2689 4.00576 31.6384 3.58077 31.6384 3.05653V1.03468C31.6384 0.510433 31.2689 0.0854492 30.8131 0.0854492Z" fill="current"/>
<path id="Vector_30" d="M51.0709 0.0854492H49.4698C49.014 0.0854492 48.6445 0.510433 48.6445 1.03468V3.05653C48.6445 3.58077 49.014 4.00576 49.4698 4.00576H51.0709C51.5267 4.00576 51.8962 3.58077 51.8962 3.05653V1.03468C51.8962 0.510433 51.5267 0.0854492 51.0709 0.0854492Z" fill="current"/>
<path id="Vector_31" d="M18.6568 0.0854492H17.0558C16.6 0.0854492 16.2305 0.510433 16.2305 1.03468V3.05653C16.2305 3.58077 16.6 4.00576 17.0558 4.00576H18.6568C19.1126 4.00576 19.4821 3.58077 19.4821 3.05653V1.03468C19.4821 0.510433 19.1126 0.0854492 18.6568 0.0854492Z" fill="current"/>
<path id="Vector_32" d="M38.9147 0.0854492H37.3136C36.8578 0.0854492 36.4883 0.510433 36.4883 1.03468V3.05653C36.4883 3.58077 36.8578 4.00576 37.3136 4.00576H38.9147C39.3705 4.00576 39.7399 3.58077 39.7399 3.05653V1.03468C39.7399 0.510433 39.3705 0.0854492 38.9147 0.0854492Z" fill="current"/>
<path id="Vector_33" d="M59.1764 0.0854492H57.5753C57.1195 0.0854492 56.75 0.510433 56.75 1.03468V3.05653C56.75 3.58077 57.1195 4.00576 57.5753 4.00576H59.1764C59.6322 4.00576 60.0017 3.58077 60.0017 3.05653V1.03468C60.0017 0.510433 59.6322 0.0854492 59.1764 0.0854492Z" fill="current"/>
<path id="Vector_34" d="M59.1764 42.0469H57.5753C57.1195 42.0469 56.75 42.4719 56.75 42.9961V45.018C56.75 45.5422 57.1195 45.9672 57.5753 45.9672H59.1764C59.6322 45.9672 60.0017 45.5422 60.0017 45.018V42.9961C60.0017 42.4719 59.6322 42.0469 59.1764 42.0469Z" fill="current"/>
<path id="Vector_35" d="M59.1764 18.7349H57.5753C57.1195 18.7349 56.75 19.1598 56.75 19.6841V21.7059C56.75 22.2302 57.1195 22.6552 57.5753 22.6552H59.1764C59.6322 22.6552 60.0017 22.2302 60.0017 21.7059V19.6841C60.0017 19.1598 59.6322 18.7349 59.1764 18.7349Z" fill="current"/>
<path id="Vector_36" d="M59.1764 9.41016H57.5753C57.1195 9.41016 56.75 9.83514 56.75 10.3594V12.3812C56.75 12.9055 57.1195 13.3305 57.5753 13.3305H59.1764C59.6322 13.3305 60.0017 12.9055 60.0017 12.3812V10.3594C60.0017 9.83514 59.6322 9.41016 59.1764 9.41016Z" fill="current"/>
<path id="Vector_37" d="M59.1764 28.0596H57.5753C57.1195 28.0596 56.75 28.4846 56.75 29.0088V31.0307C56.75 31.5549 57.1195 31.9799 57.5753 31.9799H59.1764C59.6322 31.9799 60.0017 31.5549 60.0017 31.0307V29.0088C60.0017 28.4846 59.6322 28.0596 59.1764 28.0596Z" fill="current"/>
<path id="Vector_38" d="M10.5553 46.7549H8.9542C8.4984 46.7549 8.12891 47.1799 8.12891 47.7041V49.726C8.12891 50.2502 8.4984 50.6752 8.9542 50.6752H10.5553C11.0111 50.6752 11.3806 50.2502 11.3806 49.726V47.7041C11.3806 47.1799 11.0111 46.7549 10.5553 46.7549Z" fill="current"/>
<path id="Vector_39" d="M51.0709 46.7549H49.4698C49.014 46.7549 48.6445 47.1799 48.6445 47.7041V49.726C48.6445 50.2502 49.014 50.6752 49.4698 50.6752H51.0709C51.5267 50.6752 51.8962 50.2502 51.8962 49.726V47.7041C51.8962 47.1799 51.5267 46.7549 51.0709 46.7549Z" fill="current"/>
<path id="Vector_40" d="M18.6568 46.7549H17.0558C16.6 46.7549 16.2305 47.1799 16.2305 47.7041V49.726C16.2305 50.2502 16.6 50.6752 17.0558 50.6752H18.6568C19.1126 50.6752 19.4821 50.2502 19.4821 49.726V47.7041C19.4821 47.1799 19.1126 46.7549 18.6568 46.7549Z" fill="current"/>
<path id="Vector_41" d="M38.9147 46.7549H37.3136C36.8578 46.7549 36.4883 47.1799 36.4883 47.7041V49.726C36.4883 50.2502 36.8578 50.6752 37.3136 50.6752H38.9147C39.3705 50.6752 39.7399 50.2502 39.7399 49.726V47.7041C39.7399 47.1799 39.3705 46.7549 38.9147 46.7549Z" fill="current"/>
<path id="Vector_42" d="M59.1764 4.79346H57.5753C57.1195 4.79346 56.75 5.21844 56.75 5.74268V7.76454C56.75 8.28878 57.1195 8.71377 57.5753 8.71377H59.1764C59.6322 8.71377 60.0017 8.28878 60.0017 7.76454V5.74268C60.0017 5.21844 59.6322 4.79346 59.1764 4.79346Z" fill="current"/>
<path id="Vector_43" d="M59.1764 46.7549H57.5753C57.1195 46.7549 56.75 47.1799 56.75 47.7041V49.726C56.75 50.2502 57.1195 50.6752 57.5753 50.6752H59.1764C59.6322 50.6752 60.0017 50.2502 60.0017 49.726V47.7041C60.0017 47.1799 59.6322 46.7549 59.1764 46.7549Z" fill="current"/>
<path id="Vector_44" d="M59.1764 23.4429H57.5753C57.1195 23.4429 56.75 23.8679 56.75 24.3921V26.414C56.75 26.9382 57.1195 27.3632 57.5753 27.3632H59.1764C59.6322 27.3632 60.0017 26.9382 60.0017 26.414V24.3921C60.0017 23.8679 59.6322 23.4429 59.1764 23.4429Z" fill="current"/>
<path id="Vector_45" d="M30.8131 56.0796H29.212C28.7562 56.0796 28.3867 56.5046 28.3867 57.0288V59.0507C28.3867 59.5749 28.7562 59.9999 29.212 59.9999H30.8131C31.2689 59.9999 31.6384 59.5749 31.6384 59.0507V57.0288C31.6384 56.5046 31.2689 56.0796 30.8131 56.0796Z" fill="current"/>
<path id="Vector_46" d="M59.1764 14.1182H57.5753C57.1195 14.1182 56.75 14.5431 56.75 15.0674V17.0892C56.75 17.6135 57.1195 18.0385 57.5753 18.0385H59.1764C59.6322 18.0385 60.0017 17.6135 60.0017 17.0892V15.0674C60.0017 14.5431 59.6322 14.1182 59.1764 14.1182Z" fill="current"/>
<path id="Vector_47" d="M59.1764 32.7676H57.5753C57.1195 32.7676 56.75 33.1926 56.75 33.7168V35.7387C56.75 36.2629 57.1195 36.6879 57.5753 36.6879H59.1764C59.6322 36.6879 60.0017 36.2629 60.0017 35.7387V33.7168C60.0017 33.1926 59.6322 32.7676 59.1764 32.7676Z" fill="current"/>
<path id="Vector_48" d="M59.1764 37.3843H57.5753C57.1195 37.3843 56.75 37.8093 56.75 38.3335V40.3554C56.75 40.8796 57.1195 41.3046 57.5753 41.3046H59.1764C59.6322 41.3046 60.0017 40.8796 60.0017 40.3554V38.3335C60.0017 37.8093 59.6322 37.3843 59.1764 37.3843Z" fill="current"/>
<path id="Vector_49" d="M18.2427 13H16.5257C16.0369 13 15.6406 13.4558 15.6406 14.018V16.1862C15.6406 16.7484 16.0369 17.2042 16.5257 17.2042H18.2427C18.7315 17.2042 19.1278 16.7484 19.1278 16.1862V14.018C19.1278 13.4558 18.7315 13 18.2427 13Z" fill="current"/>
<path id="Vector_50" d="M13.899 13H12.1819C11.6931 13 11.2969 13.4558 11.2969 14.018V16.1862C11.2969 16.7484 11.6931 17.2042 12.1819 17.2042H13.899C14.3878 17.2042 14.784 16.7484 14.784 16.1862V14.018C14.784 13.4558 14.3878 13 13.899 13Z" fill="current"/>
<path id="Vector_51" d="M18.2427 23H16.5257C16.0369 23 15.6406 23.4558 15.6406 24.018V26.1862C15.6406 26.7484 16.0369 27.2042 16.5257 27.2042H18.2427C18.7315 27.2042 19.1278 26.7484 19.1278 26.1862V24.018C19.1278 23.4558 18.7315 23 18.2427 23Z" fill="current"/>
<path id="Vector_52" d="M13.899 23H12.1819C11.6931 23 11.2969 23.4558 11.2969 24.018V26.1862C11.2969 26.7484 11.6931 27.2042 12.1819 27.2042H13.899C14.3878 27.2042 14.784 26.7484 14.784 26.1862V24.018C14.784 23.4558 14.3878 23 13.899 23Z" fill="current"/>
<path id="Vector_53" d="M18.2427 33H16.5257C16.0369 33 15.6406 33.4558 15.6406 34.018V36.1862C15.6406 36.7484 16.0369 37.2042 16.5257 37.2042H18.2427C18.7315 37.2042 19.1278 36.7484 19.1278 36.1862V34.018C19.1278 33.4558 18.7315 33 18.2427 33Z" fill="current"/>
<path id="Vector_54" d="M13.899 33H12.1819C11.6931 33 11.2969 33.4558 11.2969 34.018V36.1862C11.2969 36.7484 11.6931 37.2042 12.1819 37.2042H13.899C14.3878 37.2042 14.784 36.7484 14.784 36.1862V34.018C14.784 33.4558 14.3878 33 13.899 33Z" fill="current"/>
<path id="Vector_55" d="M39.9693 13H38.2522C37.7634 13 37.3672 13.4558 37.3672 14.018V16.1862C37.3672 16.7484 37.7634 17.2042 38.2522 17.2042H39.9693C40.4581 17.2042 40.8543 16.7484 40.8543 16.1862V14.018C40.8543 13.4558 40.4581 13 39.9693 13Z" fill="current"/>
<path id="Vector_56" d="M39.9693 23H38.2522C37.7634 23 37.3672 23.4558 37.3672 24.018V26.1862C37.3672 26.7484 37.7634 27.2042 38.2522 27.2042H39.9693C40.4581 27.2042 40.8543 26.7484 40.8543 26.1862V24.018C40.8543 23.4558 40.4581 23 39.9693 23Z" fill="current"/>
<path id="Vector_57" d="M35.6255 13H33.9085C33.4197 13 33.0234 13.4558 33.0234 14.018V16.1862C33.0234 16.7484 33.4197 17.2042 33.9085 17.2042H35.6255C36.1143 17.2042 36.5106 16.7484 36.5106 16.1862V14.018C36.5106 13.4558 36.1143 13 35.6255 13Z" fill="current"/>
<path id="Vector_58" d="M35.6255 23H33.9085C33.4197 23 33.0234 23.4558 33.0234 24.018V26.1862C33.0234 26.7484 33.4197 27.2042 33.9085 27.2042H35.6255C36.1143 27.2042 36.5106 26.7484 36.5106 26.1862V24.018C36.5106 23.4558 36.1143 23 35.6255 23Z" fill="current"/>
<path id="Vector_59" d="M35.6255 33H33.9085C33.4197 33 33.0234 33.4558 33.0234 34.018V36.1862C33.0234 36.7484 33.4197 37.2042 33.9085 37.2042H35.6255C36.1143 37.2042 36.5106 36.7484 36.5106 36.1862V34.018C36.5106 33.4558 36.1143 33 35.6255 33Z" fill="current"/>
<path id="Vector_60" d="M26.9341 13H25.2171C24.7283 13 24.332 13.4558 24.332 14.018V16.1862C24.332 16.7484 24.7283 17.2042 25.2171 17.2042H26.9341C27.4229 17.2042 27.8192 16.7484 27.8192 16.1862V14.018C27.8192 13.4558 27.4229 13 26.9341 13Z" fill="current"/>
<path id="Vector_61" d="M26.9341 23H25.2171C24.7283 23 24.332 23.4558 24.332 24.018V26.1862C24.332 26.7484 24.7283 27.2042 25.2171 27.2042H26.9341C27.4229 27.2042 27.8192 26.7484 27.8192 26.1862V24.018C27.8192 23.4558 27.4229 23 26.9341 23Z" fill="current"/>
<path id="Vector_62" d="M26.9341 33H25.2171C24.7283 33 24.332 33.4558 24.332 34.018V36.1862C24.332 36.7484 24.7283 37.2042 25.2171 37.2042H26.9341C27.4229 37.2042 27.8192 36.7484 27.8192 36.1862V34.018C27.8192 33.4558 27.4229 33 26.9341 33Z" fill="current"/>
<path id="Vector_63" d="M48.6607 13H46.9437C46.4548 13 46.0586 13.4558 46.0586 14.018V16.1862C46.0586 16.7484 46.4548 17.2042 46.9437 17.2042H48.6607C49.1495 17.2042 49.5457 16.7484 49.5457 16.1862V14.018C49.5457 13.4558 49.1495 13 48.6607 13Z" fill="current"/>
<path id="Vector_64" d="M48.6607 23H46.9437C46.4548 23 46.0586 23.4558 46.0586 24.018V26.1862C46.0586 26.7484 46.4548 27.2042 46.9437 27.2042H48.6607C49.1495 27.2042 49.5457 26.7484 49.5457 26.1862V24.018C49.5457 23.4558 49.1495 23 48.6607 23Z" fill="current"/>
<path id="Vector_65" d="M22.6177 13.0918H20.9007C20.4119 13.0918 20.0156 13.5476 20.0156 14.1098V16.278C20.0156 16.8402 20.4119 17.296 20.9007 17.296H22.6177C23.1065 17.296 23.5028 16.8402 23.5028 16.278V14.1098C23.5028 13.5476 23.1065 13.0918 22.6177 13.0918Z" fill="current"/>
<path id="Vector_66" d="M22.6177 23.0918H20.9007C20.4119 23.0918 20.0156 23.5476 20.0156 24.1098V26.278C20.0156 26.8402 20.4119 27.296 20.9007 27.296H22.6177C23.1065 27.296 23.5028 26.8402 23.5028 26.278V24.1098C23.5028 23.5476 23.1065 23.0918 22.6177 23.0918Z" fill="current"/>
<path id="Vector_67" d="M22.6177 33.0918H20.9007C20.4119 33.0918 20.0156 33.5476 20.0156 34.1098V36.278C20.0156 36.8402 20.4119 37.296 20.9007 37.296H22.6177C23.1065 37.296 23.5028 36.8402 23.5028 36.278V34.1098C23.5028 33.5476 23.1065 33.0918 22.6177 33.0918Z" fill="current"/>
<path id="Vector_68" d="M44.3404 13.0918H42.6233C42.1345 13.0918 41.7383 13.5476 41.7383 14.1098V16.278C41.7383 16.8402 42.1345 17.296 42.6233 17.296H44.3404C44.8292 17.296 45.2254 16.8402 45.2254 16.278V14.1098C45.2254 13.5476 44.8292 13.0918 44.3404 13.0918Z" fill="current"/>
<path id="Vector_69" d="M44.3404 23.0918H42.6233C42.1345 23.0918 41.7383 23.5476 41.7383 24.1098V26.278C41.7383 26.8402 42.1345 27.296 42.6233 27.296H44.3404C44.8292 27.296 45.2254 26.8402 45.2254 26.278V24.1098C45.2254 23.5476 44.8292 23.0918 44.3404 23.0918Z" fill="current"/>
<path id="Vector_70" d="M31.3052 13.0918H29.5882C29.0994 13.0918 28.7031 13.5476 28.7031 14.1098V16.278C28.7031 16.8402 29.0994 17.296 29.5882 17.296H31.3052C31.794 17.296 32.1903 16.8402 32.1903 16.278V14.1098C32.1903 13.5476 31.794 13.0918 31.3052 13.0918Z" fill="current"/>
<path id="Vector_71" d="M31.3052 23.0918H29.5882C29.0994 23.0918 28.7031 23.5476 28.7031 24.1098V26.278C28.7031 26.8402 29.0994 27.296 29.5882 27.296H31.3052C31.794 27.296 32.1903 26.8402 32.1903 26.278V24.1098C32.1903 23.5476 31.794 23.0918 31.3052 23.0918Z" fill="current"/>
<path id="Vector_72" d="M31.3052 33.0918H29.5882C29.0994 33.0918 28.7031 33.5476 28.7031 34.1098V36.278C28.7031 36.8402 29.0994 37.296 29.5882 37.296H31.3052C31.794 37.296 32.1903 36.8402 32.1903 36.278V34.1098C32.1903 33.5476 31.794 33.0918 31.3052 33.0918Z" fill="current"/>
</g>
</svg>
