<svg width="80" height="79" viewBox="0 0 80 79" fill="none" xmlns="http://www.w3.org/2000/svg">
<g id="Frame 427320300">
<path id="Vector" d="M4.49241 73.3333H1.85796C1.10798 73.3333 0.5 73.9409 0.5 74.6905V77.5816C0.5 78.3312 1.10798 78.9388 1.85796 78.9388H4.49241C5.24239 78.9388 5.85037 78.3312 5.85037 77.5816V74.6905C5.85037 73.9409 5.24239 73.3333 4.49241 73.3333Z" fill="current"/>
<path id="Vector_2" d="M17.8244 40H15.19C14.44 40 13.832 40.6077 13.832 41.3573V44.2483C13.832 44.9979 14.44 45.6056 15.19 45.6056H17.8244C18.5744 45.6056 19.1824 44.9979 19.1824 44.2483V41.3573C19.1824 40.6077 18.5744 40 17.8244 40Z" fill="current"/>
<path id="Vector_3" d="M37.8244 6.66675H35.19C34.44 6.66675 33.832 7.27443 33.832 8.02403V10.9151C33.832 11.6647 34.44 12.2723 35.19 12.2723H37.8244C38.5744 12.2723 39.1824 11.6647 39.1824 10.9151V8.02403C39.1824 7.27443 38.5744 6.66675 37.8244 6.66675Z" fill="current"/>
<path id="Vector_4" d="M71.1604 26.6667H68.5259C67.7759 26.6667 67.168 27.2744 67.168 28.024V30.9151C67.168 31.6647 67.7759 32.2723 68.5259 32.2723H71.1604C71.9104 32.2723 72.5183 31.6647 72.5183 30.9151V28.024C72.5183 27.2744 71.9104 26.6667 71.1604 26.6667Z" fill="current"/>
<path id="Vector_5" d="M31.1604 40H28.5259C27.7759 40 27.168 40.6077 27.168 41.3573V44.2483C27.168 44.9979 27.7759 45.6056 28.5259 45.6056H31.1604C31.9104 45.6056 32.5183 44.9979 32.5183 44.2483V41.3573C32.5183 40.6077 31.9104 40 31.1604 40Z" fill="current"/>
<path id="Vector_6" d="M17.8244 59.9346H15.19C14.44 59.9346 13.832 60.5422 13.832 61.2919V64.1829C13.832 64.9325 14.44 65.5402 15.19 65.5402H17.8244C18.5744 65.5402 19.1824 64.9325 19.1824 64.1829V61.2919C19.1824 60.5422 18.5744 59.9346 17.8244 59.9346Z" fill="current"/>
<path id="Vector_7" d="M11.1604 73.2678H8.52593C7.77595 73.2678 7.16797 73.8755 7.16797 74.6251V77.5161C7.16797 78.2657 7.77595 78.8734 8.52593 78.8734H11.1604C11.9104 78.8734 12.5183 78.2657 12.5183 77.5161V74.6251C12.5183 73.8755 11.9104 73.2678 11.1604 73.2678Z" fill="current"/>
<path id="Vector_8" d="M77.8244 0H75.19C74.44 0 73.832 0.607677 73.832 1.35729V4.2483C73.832 4.99791 74.44 5.60559 75.19 5.60559H77.8244C78.5744 5.60559 79.1824 4.99791 79.1824 4.2483V1.35729C79.1824 0.607677 78.5744 0 77.8244 0Z" fill="current"/>
<path id="Vector_9" d="M31.1604 59.9346H28.5259C27.7759 59.9346 27.168 60.5422 27.168 61.2919V64.1829C27.168 64.9325 27.7759 65.5402 28.5259 65.5402H31.1604C31.9104 65.5402 32.5183 64.9325 32.5183 64.1829V61.2919C32.5183 60.5422 31.9104 59.9346 31.1604 59.9346Z" fill="current"/>
<path id="Vector_10" d="M64.4924 59.9346H61.858C61.108 59.9346 60.5 60.5422 60.5 61.2919V64.1829C60.5 64.9325 61.108 65.5402 61.858 65.5402H64.4924C65.2424 65.5402 65.8504 64.9325 65.8504 64.1829V61.2919C65.8504 60.5422 65.2424 59.9346 64.4924 59.9346Z" fill="current"/>
<path id="Vector_11" d="M24.4924 13.3333H21.858C21.108 13.3333 20.5 13.9409 20.5 14.6905V17.5816C20.5 18.3312 21.108 18.9388 21.858 18.9388H24.4924C25.2424 18.9388 25.8504 18.3312 25.8504 17.5816V14.6905C25.8504 13.9409 25.2424 13.3333 24.4924 13.3333Z" fill="current"/>
<path id="Vector_12" d="M17.8244 46.7322H15.19C14.44 46.7322 13.832 47.3399 13.832 48.0895V50.9805C13.832 51.7301 14.44 52.3378 15.19 52.3378H17.8244C18.5744 52.3378 19.1824 51.7301 19.1824 50.9805V48.0895C19.1824 47.3399 18.5744 46.7322 17.8244 46.7322Z" fill="current"/>
<path id="Vector_13" d="M17.8244 53.3333H15.19C14.44 53.3333 13.832 53.9409 13.832 54.6905V57.5816C13.832 58.3312 14.44 58.9388 15.19 58.9388H17.8244C18.5744 58.9388 19.1824 58.3312 19.1824 57.5816V54.6905C19.1824 53.9409 18.5744 53.3333 17.8244 53.3333Z" fill="current"/>
<path id="Vector_14" d="M11.1604 66.6667H8.52593C7.77595 66.6667 7.16797 67.2744 7.16797 68.024V70.9151C7.16797 71.6647 7.77595 72.2723 8.52593 72.2723H11.1604C11.9104 72.2723 12.5183 71.6647 12.5183 70.9151V68.024C12.5183 67.2744 11.9104 66.6667 11.1604 66.6667Z" fill="current"/>
<path id="Vector_15" d="M4.49241 66.6667H1.85796C1.10798 66.6667 0.5 67.2744 0.5 68.024V70.9151C0.5 71.6647 1.10798 72.2723 1.85796 72.2723H4.49241C5.24239 72.2723 5.85037 71.6647 5.85037 70.9151V68.024C5.85037 67.2744 5.24239 66.6667 4.49241 66.6667Z" fill="current"/>
<path id="Vector_16" d="M51.1604 53.3333H48.5259C47.7759 53.3333 47.168 53.9409 47.168 54.6905V57.5816C47.168 58.3312 47.7759 58.9388 48.5259 58.9388H51.1604C51.9104 58.9388 52.5183 58.3312 52.5183 57.5816V54.6905C52.5183 53.9409 51.9104 53.3333 51.1604 53.3333Z" fill="current"/>
<path id="Vector_17" d="M44.4924 26.6667H41.858C41.108 26.6667 40.5 27.2744 40.5 28.024V30.9151C40.5 31.6647 41.108 32.2723 41.858 32.2723H44.4924C45.2424 32.2723 45.8504 31.6647 45.8504 30.9151V28.024C45.8504 27.2744 45.2424 26.6667 44.4924 26.6667Z" fill="current"/>
<path id="Vector_18" d="M44.4924 20H41.858C41.108 20 40.5 20.6077 40.5 21.3573V24.2483C40.5 24.9979 41.108 25.6056 41.858 25.6056H44.4924C45.2424 25.6056 45.8504 24.9979 45.8504 24.2483V21.3573C45.8504 20.6077 45.2424 20 44.4924 20Z" fill="current"/>
<path id="Vector_19" d="M44.4924 46.7322H41.858C41.108 46.7322 40.5 47.3399 40.5 48.0895V50.9805C40.5 51.7301 41.108 52.3378 41.858 52.3378H44.4924C45.2424 52.3378 45.8504 51.7301 45.8504 50.9805V48.0895C45.8504 47.3399 45.2424 46.7322 44.4924 46.7322Z" fill="current"/>
<path id="Vector_20" d="M77.8244 53.3333H75.19C74.44 53.3333 73.832 53.9409 73.832 54.6905V57.5816C73.832 58.3312 74.44 58.9388 75.19 58.9388H77.8244C78.5744 58.9388 79.1824 58.3312 79.1824 57.5816V54.6905C79.1824 53.9409 78.5744 53.3333 77.8244 53.3333Z" fill="current"/>
<path id="Vector_21" d="M44.4924 53.3333H41.858C41.108 53.3333 40.5 53.9409 40.5 54.6905V57.5816C40.5 58.3312 41.108 58.9388 41.858 58.9388H44.4924C45.2424 58.9388 45.8504 58.3312 45.8504 57.5816V54.6905C45.8504 53.9409 45.2424 53.3333 44.4924 53.3333Z" fill="current"/>
<path id="Vector_22" d="M57.8244 20H55.19C54.44 20 53.832 20.6077 53.832 21.3573V24.2483C53.832 24.9979 54.44 25.6056 55.19 25.6056H57.8244C58.5744 25.6056 59.1824 24.9979 59.1824 24.2483V21.3573C59.1824 20.6077 58.5744 20 57.8244 20Z" fill="current"/>
<path id="Vector_23" d="M31.1604 46.7322H28.5259C27.7759 46.7322 27.168 47.3399 27.168 48.0895V50.9805C27.168 51.7301 27.7759 52.3378 28.5259 52.3378H31.1604C31.9104 52.3378 32.5183 51.7301 32.5183 50.9805V48.0895C32.5183 47.3399 31.9104 46.7322 31.1604 46.7322Z" fill="current"/>
<path id="Vector_24" d="M31.1604 53.3333H28.5259C27.7759 53.3333 27.168 53.9409 27.168 54.6905V57.5816C27.168 58.3312 27.7759 58.9388 28.5259 58.9388H31.1604C31.9104 58.9388 32.5183 58.3312 32.5183 57.5816V54.6905C32.5183 53.9409 31.9104 53.3333 31.1604 53.3333Z" fill="current"/>
<path id="Vector_25" d="M17.8244 66.6667H15.19C14.44 66.6667 13.832 67.2744 13.832 68.024V70.9151C13.832 71.6647 14.44 72.2723 15.19 72.2723H17.8244C18.5744 72.2723 19.1824 71.6647 19.1824 70.9151V68.024C19.1824 67.2744 18.5744 66.6667 17.8244 66.6667Z" fill="current"/>
<path id="Vector_26" d="M44.4924 0H41.858C41.108 0 40.5 0.607677 40.5 1.35729V4.2483C40.5 4.99791 41.108 5.60559 41.858 5.60559H44.4924C45.2424 5.60559 45.8504 4.99791 45.8504 4.2483V1.35729C45.8504 0.607677 45.2424 0 44.4924 0Z" fill="current"/>
<path id="Vector_27" d="M31.1604 33.3987H28.5259C27.7759 33.3987 27.168 34.0064 27.168 34.756V37.647C27.168 38.3966 27.7759 39.0043 28.5259 39.0043H31.1604C31.9104 39.0043 32.5183 38.3966 32.5183 37.647V34.756C32.5183 34.0064 31.9104 33.3987 31.1604 33.3987Z" fill="current"/>
<path id="Vector_28" d="M64.4924 13.3333H61.858C61.108 13.3333 60.5 13.9409 60.5 14.6905V17.5816C60.5 18.3312 61.108 18.9388 61.858 18.9388H64.4924C65.2424 18.9388 65.8504 18.3312 65.8504 17.5816V14.6905C65.8504 13.9409 65.2424 13.3333 64.4924 13.3333Z" fill="current"/>
<path id="Vector_29" d="M64.4924 66.6667H61.858C61.108 66.6667 60.5 67.2744 60.5 68.024V70.9151C60.5 71.6647 61.108 72.2723 61.858 72.2723H64.4924C65.2424 72.2723 65.8504 71.6647 65.8504 70.9151V68.024C65.8504 67.2744 65.2424 66.6667 64.4924 66.6667Z" fill="current"/>
<path id="Vector_30" d="M24.5354 40.1218H21.9009C21.1509 40.1218 20.543 40.7295 20.543 41.4791V44.3701C20.543 45.1197 21.1509 45.7274 21.9009 45.7274H24.5354C25.2854 45.7274 25.8933 45.1197 25.8933 44.3701V41.4791C25.8933 40.7295 25.2854 40.1218 24.5354 40.1218Z" fill="current"/>
<path id="Vector_31" d="M57.8674 40.1218H55.233C54.483 40.1218 53.875 40.7295 53.875 41.4791V44.3701C53.875 45.1197 54.483 45.7274 55.233 45.7274H57.8674C58.6174 45.7274 59.2254 45.1197 59.2254 44.3701V41.4791C59.2254 40.7295 58.6174 40.1218 57.8674 40.1218Z" fill="current"/>
<path id="Vector_32" d="M37.8674 40.1218H35.233C34.483 40.1218 33.875 40.7295 33.875 41.4791V44.3701C33.875 45.1197 34.483 45.7274 35.233 45.7274H37.8674C38.6174 45.7274 39.2254 45.1197 39.2254 44.3701V41.4791C39.2254 40.7295 38.6174 40.1218 37.8674 40.1218Z" fill="current"/>
<path id="Vector_33" d="M64.4924 40H61.858C61.108 40 60.5 40.6077 60.5 41.3573V44.2483C60.5 44.9979 61.108 45.6056 61.858 45.6056H64.4924C65.2424 45.6056 65.8504 44.9979 65.8504 44.2483V41.3573C65.8504 40.6077 65.2424 40 64.4924 40Z" fill="current"/>
<path id="Vector_34" d="M24.5354 26.7886H21.9009C21.1509 26.7886 20.543 27.3963 20.543 28.1459V31.0369C20.543 31.7865 21.1509 32.3942 21.9009 32.3942H24.5354C25.2854 32.3942 25.8933 31.7865 25.8933 31.0369V28.1459C25.8933 27.3963 25.2854 26.7886 24.5354 26.7886Z" fill="current"/>
<path id="Vector_35" d="M24.5354 60.0564H21.9009C21.1509 60.0564 20.543 60.6641 20.543 61.4137V64.3047C20.543 65.0543 21.1509 65.662 21.9009 65.662H24.5354C25.2854 65.662 25.8933 65.0543 25.8933 64.3047V61.4137C25.8933 60.6641 25.2854 60.0564 24.5354 60.0564Z" fill="current"/>
<path id="Vector_36" d="M24.4924 66.6667H21.858C21.108 66.6667 20.5 67.2744 20.5 68.024V70.9151C20.5 71.6647 21.108 72.2723 21.858 72.2723H24.4924C25.2424 72.2723 25.8504 71.6647 25.8504 70.9151V68.024C25.8504 67.2744 25.2424 66.6667 24.4924 66.6667Z" fill="current"/>
<path id="Vector_37" d="M11.1994 60.1218H8.56499C7.81501 60.1218 7.20703 60.7295 7.20703 61.4791V64.3701C7.20703 65.1197 7.81501 65.7274 8.56499 65.7274H11.1994C11.9494 65.7274 12.5574 65.1197 12.5574 64.3701V61.4791C12.5574 60.7295 11.9494 60.1218 11.1994 60.1218Z" fill="current"/>
<path id="Vector_38" d="M37.8674 0.121826H35.233C34.483 0.121826 33.875 0.729504 33.875 1.47911V4.37013C33.875 5.11974 34.483 5.72742 35.233 5.72742H37.8674C38.6174 5.72742 39.2254 5.11974 39.2254 4.37013V1.47911C39.2254 0.729504 38.6174 0.121826 37.8674 0.121826Z" fill="current"/>
<path id="Vector_39" d="M51.1604 26.6667H48.5259C47.7759 26.6667 47.168 27.2744 47.168 28.024V30.9151C47.168 31.6647 47.7759 32.2723 48.5259 32.2723H51.1604C51.9104 32.2723 52.5183 31.6647 52.5183 30.9151V28.024C52.5183 27.2744 51.9104 26.6667 51.1604 26.6667Z" fill="current"/>
<path id="Vector_40" d="M24.5354 46.8542H21.9009C21.1509 46.8542 20.543 47.4619 20.543 48.2115V51.1026C20.543 51.8522 21.1509 52.4598 21.9009 52.4598H24.5354C25.2854 52.4598 25.8933 51.8522 25.8933 51.1026V48.2115C25.8933 47.4619 25.2854 46.8542 24.5354 46.8542Z" fill="current"/>
<path id="Vector_41" d="M24.5354 53.4553H21.9009C21.1509 53.4553 20.543 54.063 20.543 54.8126V57.7036C20.543 58.4532 21.1509 59.0609 21.9009 59.0609H24.5354C25.2854 59.0609 25.8933 58.4532 25.8933 57.7036V54.8126C25.8933 54.063 25.2854 53.4553 24.5354 53.4553Z" fill="current"/>
<path id="Vector_42" d="M11.1994 53.5208H8.56499C7.81501 53.5208 7.20703 54.1284 7.20703 54.878V57.7691C7.20703 58.5187 7.81501 59.1263 8.56499 59.1263H11.1994C11.9494 59.1263 12.5574 58.5187 12.5574 57.7691V54.878C12.5574 54.1284 11.9494 53.5208 11.1994 53.5208Z" fill="current"/>
<path id="Vector_43" d="M37.8674 46.8542H35.233C34.483 46.8542 33.875 47.4619 33.875 48.2115V51.1026C33.875 51.8522 34.483 52.4598 35.233 52.4598H37.8674C38.6174 52.4598 39.2254 51.8522 39.2254 51.1026V48.2115C39.2254 47.4619 38.6174 46.8542 37.8674 46.8542Z" fill="current"/>
<path id="Vector_44" d="M71.1994 46.8542H68.565C67.815 46.8542 67.207 47.4619 67.207 48.2115V51.1026C67.207 51.8522 67.815 52.4598 68.565 52.4598H71.1994C71.9494 52.4598 72.5574 51.8522 72.5574 51.1026V48.2115C72.5574 47.4619 71.9494 46.8542 71.1994 46.8542Z" fill="current"/>
<path id="Vector_45" d="M37.8674 53.4553H35.233C34.483 53.4553 33.875 54.063 33.875 54.8126V57.7036C33.875 58.4532 34.483 59.0609 35.233 59.0609H37.8674C38.6174 59.0609 39.2254 58.4532 39.2254 57.7036V54.8126C39.2254 54.063 38.6174 53.4553 37.8674 53.4553Z" fill="current"/>
<path id="Vector_46" d="M37.8244 60.1221H35.19C34.44 60.1221 33.832 60.7297 33.832 61.4794V64.3704C33.832 65.12 34.44 65.7277 35.19 65.7277H37.8244C38.5744 65.7277 39.1824 65.12 39.1824 64.3704V61.4794C39.1824 60.7297 38.5744 60.1221 37.8244 60.1221Z" fill="current"/>
<path id="Vector_47" d="M24.5354 33.5208H21.9009C21.1509 33.5208 20.543 34.1284 20.543 34.878V37.7691C20.543 38.5187 21.1509 39.1263 21.9009 39.1263H24.5354C25.2854 39.1263 25.8933 38.5187 25.8933 37.7691V34.878C25.8933 34.1284 25.2854 33.5208 24.5354 33.5208Z" fill="current"/>
<path id="Vector_48" d="M24.4924 6.66675H21.858C21.108 6.66675 20.5 7.27443 20.5 8.02403V10.9151C20.5 11.6647 21.108 12.2723 21.858 12.2723H24.4924C25.2424 12.2723 25.8504 11.6647 25.8504 10.9151V8.02403C25.8504 7.27443 25.2424 6.66675 24.4924 6.66675Z" fill="current"/>
<path id="Vector_49" d="M71.1994 33.5208H68.565C67.815 33.5208 67.207 34.1284 67.207 34.878V37.7691C67.207 38.5187 67.815 39.1263 68.565 39.1263H71.1994C71.9494 39.1263 72.5574 38.5187 72.5574 37.7691V34.878C72.5574 34.1284 71.9494 33.5208 71.1994 33.5208Z" fill="current"/>
</g>
</svg>
