<svg width="21" height="20" viewBox="0 0 21 20" fill="none" xmlns="http://www.w3.org/2000/svg">
<g id="ICON THUMB UP">
<path id="Vector" d="M17.0574 6.21649H16.44C16.2643 6.21649 16.1218 6.35815 16.1218 6.5329V7.20685C16.1218 7.3816 16.2643 7.52326 16.44 7.52326H17.0574C17.2331 7.52326 17.3756 7.3816 17.3756 7.20685V6.5329C17.3756 6.35815 17.2331 6.21649 17.0574 6.21649Z" fill="current"/>
<path id="Vector_2" d="M7.68431 13.9871H7.06699C6.89125 13.9871 6.74878 14.1288 6.74878 14.3035V14.9775C6.74878 15.1522 6.89125 15.2939 7.06699 15.2939H7.68431C7.86006 15.2939 8.00252 15.1522 8.00252 14.9775V14.3035C8.00252 14.1288 7.86006 13.9871 7.68431 13.9871Z" fill="current"/>
<path id="Vector_3" d="M15.4951 6.21649H14.8778C14.702 6.21649 14.5596 6.35815 14.5596 6.5329V7.20685C14.5596 7.3816 14.702 7.52326 14.8778 7.52326H15.4951C15.6708 7.52326 15.8133 7.3816 15.8133 7.20685V6.5329C15.8133 6.35815 15.6708 6.21649 15.4951 6.21649Z" fill="current"/>
<path id="Vector_4" d="M1.43553 13.9871H0.818209C0.642467 13.9871 0.5 14.1288 0.5 14.3035V14.9775C0.5 15.1522 0.642467 15.2939 0.818209 15.2939H1.43553C1.61128 15.2939 1.75374 15.1522 1.75374 14.9775V14.3035C1.75374 14.1288 1.61128 13.9871 1.43553 13.9871Z" fill="current"/>
<path id="Vector_5" d="M12.3708 0H11.7535C11.5778 0 11.4353 0.141661 11.4353 0.316409V0.990361C11.4353 1.16511 11.5778 1.30677 11.7535 1.30677H12.3708C12.5466 1.30677 12.689 1.16511 12.689 0.990361V0.316409C12.689 0.141661 12.5466 0 12.3708 0Z" fill="current"/>
<path id="Vector_6" d="M20.1819 13.9871H19.5645C19.3888 13.9871 19.2463 14.1288 19.2463 14.3035V14.9775C19.2463 15.1522 19.3888 15.2939 19.5645 15.2939H20.1819C20.3576 15.2939 20.5001 15.1522 20.5001 14.9775V14.3035C20.5001 14.1288 20.3576 13.9871 20.1819 13.9871Z" fill="current"/>
<path id="Vector_7" d="M20.1819 6.21649H19.5645C19.3888 6.21649 19.2463 6.35815 19.2463 6.5329V7.20685C19.2463 7.3816 19.3888 7.52326 19.5645 7.52326H20.1819C20.3576 7.52326 20.5001 7.3816 20.5001 7.20685V6.5329C20.5001 6.35815 20.3576 6.21649 20.1819 6.21649Z" fill="current"/>
<path id="Vector_8" d="M17.0574 9.32477H16.44C16.2643 9.32477 16.1218 9.46643 16.1218 9.64118V10.3151C16.1218 10.4899 16.2643 10.6315 16.44 10.6315H17.0574C17.2331 10.6315 17.3756 10.4899 17.3756 10.3151V9.64118C17.3756 9.46643 17.2331 9.32477 17.0574 9.32477Z" fill="current"/>
<path id="Vector_9" d="M7.68431 17.0954H7.06699C6.89125 17.0954 6.74878 17.2371 6.74878 17.4118V18.0858C6.74878 18.2605 6.89125 18.4022 7.06699 18.4022H7.68431C7.86006 18.4022 8.00252 18.2605 8.00252 18.0858V17.4118C8.00252 17.2371 7.86006 17.0954 7.68431 17.0954Z" fill="current"/>
<path id="Vector_10" d="M7.68431 9.32477H7.06699C6.89125 9.32477 6.74878 9.46643 6.74878 9.64118V10.3151C6.74878 10.4899 6.89125 10.6315 7.06699 10.6315H7.68431C7.86006 10.6315 8.00252 10.4899 8.00252 10.3151V9.64118C8.00252 9.46643 7.86006 9.32477 7.68431 9.32477Z" fill="current"/>
<path id="Vector_11" d="M15.4951 9.32477H14.8778C14.702 9.32477 14.5596 9.46643 14.5596 9.64118V10.3151C14.5596 10.4899 14.702 10.6315 14.8778 10.6315H15.4951C15.6708 10.6315 15.8133 10.4899 15.8133 10.3151V9.64118C15.8133 9.46643 15.6708 9.32477 15.4951 9.32477Z" fill="current"/>
<path id="Vector_12" d="M1.43553 17.0954H0.818209C0.642467 17.0954 0.5 17.2371 0.5 17.4118V18.0858C0.5 18.2605 0.642467 18.4022 0.818209 18.4022H1.43553C1.61128 18.4022 1.75374 18.2605 1.75374 18.0858V17.4118C1.75374 17.2371 1.61128 17.0954 1.43553 17.0954Z" fill="current"/>
<path id="Vector_13" d="M20.1819 17.0954H19.5645C19.3888 17.0954 19.2463 17.2371 19.2463 17.4118V18.0858C19.2463 18.2605 19.3888 18.4022 19.5645 18.4022H20.1819C20.3576 18.4022 20.5001 18.2605 20.5001 18.0858V17.4118C20.5001 17.2371 20.3576 17.0954 20.1819 17.0954Z" fill="current"/>
<path id="Vector_14" d="M1.43553 9.32477H0.818209C0.642467 9.32477 0.5 9.46643 0.5 9.64118V10.3151C0.5 10.4899 0.642467 10.6315 0.818209 10.6315H1.43553C1.61128 10.6315 1.75374 10.4899 1.75374 10.3151V9.64118C1.75374 9.46643 1.61128 9.32477 1.43553 9.32477Z" fill="current"/>
<path id="Vector_15" d="M20.1819 9.32477H19.5645C19.3888 9.32477 19.2463 9.46643 19.2463 9.64118V10.3151C19.2463 10.4899 19.3888 10.6315 19.5645 10.6315H20.1819C20.3576 10.6315 20.5001 10.4899 20.5001 10.3151V9.64118C20.5001 9.46643 20.3576 9.32477 20.1819 9.32477Z" fill="current"/>
<path id="Vector_16" d="M17.0574 15.5565H16.44C16.2643 15.5565 16.1218 15.6982 16.1218 15.8729V16.5469C16.1218 16.7216 16.2643 16.8633 16.44 16.8633H17.0574C17.2331 16.8633 17.3756 16.7216 17.3756 16.5469V15.8729C17.3756 15.6982 17.2331 15.5565 17.0574 15.5565Z" fill="current"/>
<path id="Vector_17" d="M9.24657 7.78589H8.62924C8.4535 7.78589 8.31104 7.92755 8.31104 8.1023V8.77625C8.31104 8.951 8.4535 9.09266 8.62924 9.09266H9.24657C9.42231 9.09266 9.56478 8.951 9.56478 8.77625V8.1023C9.56478 7.92755 9.42231 7.78589 9.24657 7.78589Z" fill="current"/>
<path id="Vector_18" d="M7.68431 15.5565H7.06699C6.89125 15.5565 6.74878 15.6982 6.74878 15.8729V16.5469C6.74878 16.7216 6.89125 16.8633 7.06699 16.8633H7.68431C7.86006 16.8633 8.00252 16.7216 8.00252 16.5469V15.8729C8.00252 15.6982 7.86006 15.5565 7.68431 15.5565Z" fill="current"/>
<path id="Vector_19" d="M15.4951 15.5565H14.8778C14.702 15.5565 14.5596 15.6982 14.5596 15.8729V16.5469C14.5596 16.7216 14.702 16.8633 14.8778 16.8633H15.4951C15.6708 16.8633 15.8133 16.7216 15.8133 16.5469V15.8729C15.8133 15.6982 15.6708 15.5565 15.4951 15.5565Z" fill="current"/>
<path id="Vector_20" d="M7.68431 7.78589H7.06699C6.89125 7.78589 6.74878 7.92755 6.74878 8.1023V8.77625C6.74878 8.951 6.89125 9.09266 7.06699 9.09266H7.68431C7.86006 9.09266 8.00252 8.951 8.00252 8.77625V8.1023C8.00252 7.92755 7.86006 7.78589 7.68431 7.78589Z" fill="current"/>
<path id="Vector_21" d="M1.43553 15.5565H0.818209C0.642467 15.5565 0.5 15.6982 0.5 15.8729V16.5469C0.5 16.7216 0.642467 16.8633 0.818209 16.8633H1.43553C1.61128 16.8633 1.75374 16.7216 1.75374 16.5469V15.8729C1.75374 15.6982 1.61128 15.5565 1.43553 15.5565Z" fill="current"/>
<path id="Vector_22" d="M20.1819 15.5565H19.5645C19.3888 15.5565 19.2463 15.6982 19.2463 15.8729V16.5469C19.2463 16.7216 19.3888 16.8633 19.5645 16.8633H20.1819C20.3576 16.8633 20.5001 16.7216 20.5001 16.5469V15.8729C20.5001 15.6982 20.3576 15.5565 20.1819 15.5565Z" fill="current"/>
<path id="Vector_23" d="M1.43553 7.78589H0.818209C0.642467 7.78589 0.5 7.92755 0.5 8.1023V8.77625C0.5 8.951 0.642467 9.09266 0.818209 9.09266H1.43553C1.61128 9.09266 1.75374 8.951 1.75374 8.77625V8.1023C1.75374 7.92755 1.61128 7.78589 1.43553 7.78589Z" fill="current"/>
<path id="Vector_24" d="M20.1819 7.78589H19.5645C19.3888 7.78589 19.2463 7.92755 19.2463 8.1023V8.77625C19.2463 8.951 19.3888 9.09266 19.5645 9.09266H20.1819C20.3576 9.09266 20.5001 8.951 20.5001 8.77625V8.1023C20.5001 7.92755 20.3576 7.78589 20.1819 7.78589Z" fill="current"/>
<path id="Vector_25" d="M9.24657 18.6648H8.62924C8.4535 18.6648 8.31104 18.8065 8.31104 18.9812V19.6552C8.31104 19.8299 8.4535 19.9716 8.62924 19.9716H9.24657C9.42231 19.9716 9.56478 19.8299 9.56478 19.6552V18.9812C9.56478 18.8065 9.42231 18.6648 9.24657 18.6648Z" fill="current"/>
<path id="Vector_26" d="M17.0574 18.6648H16.44C16.2643 18.6648 16.1218 18.8065 16.1218 18.9812V19.6552C16.1218 19.8299 16.2643 19.9716 16.44 19.9716H17.0574C17.2331 19.9716 17.3756 19.8299 17.3756 19.6552V18.9812C17.3756 18.8065 17.2331 18.6648 17.0574 18.6648Z" fill="current"/>
<path id="Vector_27" d="M17.0574 12.433H16.44C16.2643 12.433 16.1218 12.5746 16.1218 12.7494V13.4233C16.1218 13.5981 16.2643 13.7398 16.44 13.7398H17.0574C17.2331 13.7398 17.3756 13.5981 17.3756 13.4233V12.7494C17.3756 12.5746 17.2331 12.433 17.0574 12.433Z" fill="current"/>
<path id="Vector_28" d="M7.68431 18.6648H7.06699C6.89125 18.6648 6.74878 18.8065 6.74878 18.9812V19.6552C6.74878 19.8299 6.89125 19.9716 7.06699 19.9716H7.68431C7.86006 19.9716 8.00252 19.8299 8.00252 19.6552V18.9812C8.00252 18.8065 7.86006 18.6648 7.68431 18.6648Z" fill="current"/>
<path id="Vector_29" d="M15.4951 18.6648H14.8778C14.702 18.6648 14.5596 18.8065 14.5596 18.9812V19.6552C14.5596 19.8299 14.702 19.9716 14.8778 19.9716H15.4951C15.6708 19.9716 15.8133 19.8299 15.8133 19.6552V18.9812C15.8133 18.8065 15.6708 18.6648 15.4951 18.6648Z" fill="current"/>
<path id="Vector_30" d="M7.68431 10.8942H7.06699C6.89125 10.8942 6.74878 11.0358 6.74878 11.2106V11.8845C6.74878 12.0593 6.89125 12.2009 7.06699 12.2009H7.68431C7.86006 12.2009 8.00252 12.0593 8.00252 11.8845V11.2106C8.00252 11.0358 7.86006 10.8942 7.68431 10.8942Z" fill="current"/>
<path id="Vector_31" d="M7.68431 12.433H7.06699C6.89125 12.433 6.74878 12.5746 6.74878 12.7494V13.4233C6.74878 13.5981 6.89125 13.7398 7.06699 13.7398H7.68431C7.86006 13.7398 8.00252 13.5981 8.00252 13.4233V12.7494C8.00252 12.5746 7.86006 12.433 7.68431 12.433Z" fill="current"/>
<path id="Vector_32" d="M15.4951 12.433H14.8778C14.702 12.433 14.5596 12.5746 14.5596 12.7494V13.4233C14.5596 13.5981 14.702 13.7398 14.8778 13.7398H15.4951C15.6708 13.7398 15.8133 13.5981 15.8133 13.4233V12.7494C15.8133 12.5746 15.6708 12.433 15.4951 12.433Z" fill="current"/>
<path id="Vector_33" d="M1.43553 18.6648H0.818209C0.642467 18.6648 0.5 18.8065 0.5 18.9812V19.6552C0.5 19.8299 0.642467 19.9716 0.818209 19.9716H1.43553C1.61128 19.9716 1.75374 19.8299 1.75374 19.6552V18.9812C1.75374 18.8065 1.61128 18.6648 1.43553 18.6648Z" fill="current"/>
<path id="Vector_34" d="M12.3708 18.6648H11.7535C11.5778 18.6648 11.4353 18.8065 11.4353 18.9812V19.6552C11.4353 19.8299 11.5778 19.9716 11.7535 19.9716H12.3708C12.5466 19.9716 12.689 19.8299 12.689 19.6552V18.9812C12.689 18.8065 12.5466 18.6648 12.3708 18.6648Z" fill="current"/>
<path id="Vector_35" d="M20.1819 18.6648H19.5645C19.3888 18.6648 19.2463 18.8065 19.2463 18.9812V19.6552C19.2463 19.8299 19.3888 19.9716 19.5645 19.9716H20.1819C20.3576 19.9716 20.5001 19.8299 20.5001 19.6552V18.9812C20.5001 18.8065 20.3576 18.6648 20.1819 18.6648Z" fill="current"/>
<path id="Vector_36" d="M1.43553 10.8942H0.818209C0.642467 10.8942 0.5 11.0358 0.5 11.2106V11.8845C0.5 12.0593 0.642467 12.2009 0.818209 12.2009H1.43553C1.61128 12.2009 1.75374 12.0593 1.75374 11.8845V11.2106C1.75374 11.0358 1.61128 10.8942 1.43553 10.8942Z" fill="current"/>
<path id="Vector_37" d="M1.43553 12.433H0.818209C0.642467 12.433 0.5 12.5746 0.5 12.7494V13.4233C0.5 13.5981 0.642467 13.7398 0.818209 13.7398H1.43553C1.61128 13.7398 1.75374 13.5981 1.75374 13.4233V12.7494C1.75374 12.5746 1.61128 12.433 1.43553 12.433Z" fill="current"/>
<path id="Vector_38" d="M20.1819 10.8942H19.5645C19.3888 10.8942 19.2463 11.0358 19.2463 11.2106V11.8845C19.2463 12.0593 19.3888 12.2009 19.5645 12.2009H20.1819C20.3576 12.2009 20.5001 12.0593 20.5001 11.8845V11.2106C20.5001 11.0358 20.3576 10.8942 20.1819 10.8942Z" fill="current"/>
<path id="Vector_39" d="M20.1819 12.433H19.5645C19.3888 12.433 19.2463 12.5746 19.2463 12.7494V13.4233C19.2463 13.5981 19.3888 13.7398 19.5645 13.7398H20.1819C20.3576 13.7398 20.5001 13.5981 20.5001 13.4233V12.7494C20.5001 12.5746 20.3576 12.433 20.1819 12.433Z" fill="current"/>
<path id="Vector_40" d="M10.8183 6.24493H10.201C10.0253 6.24493 9.88281 6.3866 9.88281 6.56134V7.23529C9.88281 7.41004 10.0253 7.5517 10.201 7.5517H10.8183C10.9941 7.5517 11.1366 7.41004 11.1366 7.23529V6.56134C11.1366 6.3866 10.9941 6.24493 10.8183 6.24493Z" fill="current"/>
<path id="Vector_41" d="M18.6294 6.24493H18.0121C17.8363 6.24493 17.6938 6.3866 17.6938 6.56134V7.23529C17.6938 7.41004 17.8363 7.5517 18.0121 7.5517H18.6294C18.8051 7.5517 18.9476 7.41004 18.9476 7.23529V6.56134C18.9476 6.3866 18.8051 6.24493 18.6294 6.24493Z" fill="current"/>
<path id="Vector_42" d="M13.9429 14.0156H13.3255C13.1498 14.0156 13.0073 14.1572 13.0073 14.332V15.0059C13.0073 15.1807 13.1498 15.3223 13.3255 15.3223H13.9429C14.1186 15.3223 14.2611 15.1807 14.2611 15.0059V14.332C14.2611 14.1572 14.1186 14.0156 13.9429 14.0156Z" fill="current"/>
<path id="Vector_43" d="M13.9429 6.24493H13.3255C13.1498 6.24493 13.0073 6.3866 13.0073 6.56134V7.23529C13.0073 7.41004 13.1498 7.5517 13.3255 7.5517H13.9429C14.1186 7.5517 14.2611 7.41004 14.2611 7.23529V6.56134C14.2611 6.3866 14.1186 6.24493 13.9429 6.24493Z" fill="current"/>
<path id="Vector_44" d="M10.8183 3.13666H10.201C10.0253 3.13666 9.88281 3.27832 9.88281 3.45307V4.12702C9.88281 4.30177 10.0253 4.44343 10.201 4.44343H10.8183C10.9941 4.44343 11.1366 4.30177 11.1366 4.12702V3.45307C11.1366 3.27832 10.9941 3.13666 10.8183 3.13666Z" fill="current"/>
<path id="Vector_45" d="M18.6294 9.35315H18.0121C17.8363 9.35315 17.6938 9.49481 17.6938 9.66956V10.3435C17.6938 10.5183 17.8363 10.6599 18.0121 10.6599H18.6294C18.8051 10.6599 18.9476 10.5183 18.9476 10.3435V9.66956C18.9476 9.49481 18.8051 9.35315 18.6294 9.35315Z" fill="current"/>
<path id="Vector_46" d="M13.9429 3.13666H13.3255C13.1498 3.13666 13.0073 3.27832 13.0073 3.45307V4.12702C13.0073 4.30177 13.1498 4.44343 13.3255 4.44343H13.9429C14.1186 4.44343 14.2611 4.30177 14.2611 4.12702V3.45307C14.2611 3.27832 14.1186 3.13666 13.9429 3.13666Z" fill="current"/>
<path id="Vector_47" d="M13.9429 17.1238H13.3255C13.1498 17.1238 13.0073 17.2655 13.0073 17.4402V18.1142C13.0073 18.2889 13.1498 18.4306 13.3255 18.4306H13.9429C14.1186 18.4306 14.2611 18.2889 14.2611 18.1142V17.4402C14.2611 17.2655 14.1186 17.1238 13.9429 17.1238Z" fill="current"/>
<path id="Vector_48" d="M13.9429 9.35315H13.3255C13.1498 9.35315 13.0073 9.49481 13.0073 9.66956V10.3435C13.0073 10.5183 13.1498 10.6599 13.3255 10.6599H13.9429C14.1186 10.6599 14.2611 10.5183 14.2611 10.3435V9.66956C14.2611 9.49481 14.1186 9.35315 13.9429 9.35315Z" fill="current"/>
<path id="Vector_49" d="M10.8183 1.59784H10.201C10.0253 1.59784 9.88281 1.7395 9.88281 1.91425V2.5882C9.88281 2.76295 10.0253 2.90461 10.201 2.90461H10.8183C10.9941 2.90461 11.1366 2.76295 11.1366 2.5882V1.91425C11.1366 1.7395 10.9941 1.59784 10.8183 1.59784Z" fill="current"/>
<path id="Vector_50" d="M18.6294 15.585H18.0121C17.8363 15.585 17.6938 15.7266 17.6938 15.9014V16.5753C17.6938 16.7501 17.8363 16.8917 18.0121 16.8917H18.6294C18.8051 16.8917 18.9476 16.7501 18.9476 16.5753V15.9014C18.9476 15.7266 18.8051 15.585 18.6294 15.585Z" fill="current"/>
<path id="Vector_51" d="M13.9429 1.59784H13.3255C13.1498 1.59784 13.0073 1.7395 13.0073 1.91425V2.5882C13.0073 2.76295 13.1498 2.90461 13.3255 2.90461H13.9429C14.1186 2.90461 14.2611 2.76295 14.2611 2.5882V1.91425C14.2611 1.7395 14.1186 1.59784 13.9429 1.59784Z" fill="current"/>
<path id="Vector_52" d="M13.9429 15.585H13.3255C13.1498 15.585 13.0073 15.7266 13.0073 15.9014V16.5753C13.0073 16.7501 13.1498 16.8917 13.3255 16.8917H13.9429C14.1186 16.8917 14.2611 16.7501 14.2611 16.5753V15.9014C14.2611 15.7266 14.1186 15.585 13.9429 15.585Z" fill="current"/>
<path id="Vector_53" d="M6.13182 7.81433H5.5145C5.33876 7.81433 5.19629 7.95599 5.19629 8.13074V8.80469C5.19629 8.97944 5.33876 9.1211 5.5145 9.1211H6.13182C6.30757 9.1211 6.45003 8.97944 6.45003 8.80469V8.13074C6.45003 7.95599 6.30757 7.81433 6.13182 7.81433Z" fill="current"/>
<path id="Vector_54" d="M4.5598 7.77063H3.94248C3.76673 7.77063 3.62427 7.91229 3.62427 8.08704V8.76099C3.62427 8.93574 3.76673 9.0774 3.94248 9.0774H4.5598C4.73554 9.0774 4.87801 8.93574 4.87801 8.76099V8.08704C4.87801 7.91229 4.73554 7.77063 4.5598 7.77063Z" fill="current"/>
<path id="Vector_55" d="M2.99779 7.77063H2.38046C2.20472 7.77063 2.06226 7.91229 2.06226 8.08704V8.76099C2.06226 8.93574 2.20472 9.0774 2.38046 9.0774H2.99779C3.17353 9.0774 3.316 8.93574 3.316 8.76099V8.08704C3.316 7.91229 3.17353 7.77063 2.99779 7.77063Z" fill="current"/>
<path id="Vector_56" d="M13.9429 7.81433H13.3255C13.1498 7.81433 13.0073 7.95599 13.0073 8.13074V8.80469C13.0073 8.97944 13.1498 9.1211 13.3255 9.1211H13.9429C14.1186 9.1211 14.2611 8.97944 14.2611 8.80469V8.13074C14.2611 7.95599 14.1186 7.81433 13.9429 7.81433Z" fill="current"/>
<path id="Vector_57" d="M10.8183 4.70612H10.201C10.0253 4.70612 9.88281 4.84778 9.88281 5.02252V5.69648C9.88281 5.87122 10.0253 6.01289 10.201 6.01289H10.8183C10.9941 6.01289 11.1366 5.87122 11.1366 5.69648V5.02252C11.1366 4.84778 10.9941 4.70612 10.8183 4.70612Z" fill="current"/>
<path id="Vector_58" d="M10.8183 18.6932H10.201C10.0253 18.6932 9.88281 18.8349 9.88281 19.0096V19.6836C9.88281 19.8583 10.0253 20 10.201 20H10.8183C10.9941 20 11.1366 19.8583 11.1366 19.6836V19.0096C11.1366 18.8349 10.9941 18.6932 10.8183 18.6932Z" fill="current"/>
<path id="Vector_59" d="M18.6294 18.6932H18.0121C17.8363 18.6932 17.6938 18.8349 17.6938 19.0096V19.6836C17.6938 19.8583 17.8363 20 18.0121 20H18.6294C18.8051 20 18.9476 19.8583 18.9476 19.6836V19.0096C18.9476 18.8349 18.8051 18.6932 18.6294 18.6932Z" fill="current"/>
<path id="Vector_60" d="M18.6294 12.4615H18.0121C17.8363 12.4615 17.6938 12.6031 17.6938 12.7779V13.4518C17.6938 13.6266 17.8363 13.7683 18.0121 13.7683H18.6294C18.8051 13.7683 18.9476 13.6266 18.9476 13.4518V12.7779C18.9476 12.6031 18.8051 12.4615 18.6294 12.4615Z" fill="current"/>
<path id="Vector_61" d="M6.13182 18.6932H5.5145C5.33876 18.6932 5.19629 18.8349 5.19629 19.0096V19.6836C5.19629 19.8583 5.33876 20 5.5145 20H6.13182C6.30757 20 6.45003 19.8583 6.45003 19.6836V19.0096C6.45003 18.8349 6.30757 18.6932 6.13182 18.6932Z" fill="current"/>
<path id="Vector_62" d="M4.5598 18.6495H3.94248C3.76673 18.6495 3.62427 18.7912 3.62427 18.9659V19.6399C3.62427 19.8146 3.76673 19.9563 3.94248 19.9563H4.5598C4.73554 19.9563 4.87801 19.8146 4.87801 19.6399V18.9659C4.87801 18.7912 4.73554 18.6495 4.5598 18.6495Z" fill="current"/>
<path id="Vector_63" d="M2.99779 18.6495H2.38046C2.20472 18.6495 2.06226 18.7912 2.06226 18.9659V19.6399C2.06226 19.8146 2.20472 19.9563 2.38046 19.9563H2.99779C3.17353 19.9563 3.316 19.8146 3.316 19.6399V18.9659C3.316 18.7912 3.17353 18.6495 2.99779 18.6495Z" fill="current"/>
<path id="Vector_64" d="M13.9429 4.70612H13.3255C13.1498 4.70612 13.0073 4.84778 13.0073 5.02252V5.69648C13.0073 5.87122 13.1498 6.01289 13.3255 6.01289H13.9429C14.1186 6.01289 14.2611 5.87122 14.2611 5.69648V5.02252C14.2611 4.84778 14.1186 4.70612 13.9429 4.70612Z" fill="current"/>
<path id="Vector_65" d="M13.9429 18.6932H13.3255C13.1498 18.6932 13.0073 18.8349 13.0073 19.0096V19.6836C13.0073 19.8583 13.1498 20 13.3255 20H13.9429C14.1186 20 14.2611 19.8583 14.2611 19.6836V19.0096C14.2611 18.8349 14.1186 18.6932 13.9429 18.6932Z" fill="current"/>
<path id="Vector_66" d="M13.9429 10.9226H13.3255C13.1498 10.9226 13.0073 11.0643 13.0073 11.239V11.913C13.0073 12.0877 13.1498 12.2294 13.3255 12.2294H13.9429C14.1186 12.2294 14.2611 12.0877 14.2611 11.913V11.239C14.2611 11.0643 14.1186 10.9226 13.9429 10.9226Z" fill="current"/>
<path id="Vector_67" d="M13.9429 12.4615H13.3255C13.1498 12.4615 13.0073 12.6031 13.0073 12.7779V13.4518C13.0073 13.6266 13.1498 13.7683 13.3255 13.7683H13.9429C14.1186 13.7683 14.2611 13.6266 14.2611 13.4518V12.7779C14.2611 12.6031 14.1186 12.4615 13.9429 12.4615Z" fill="current"/>
</g>
</svg>
