<svg width="31" height="31" viewBox="0 0 31 31" fill="none" xmlns="http://www.w3.org/2000/svg">
<g id="ICON WORLD">
<path id="Vector" d="M1.9033 14.0557H0.977313C0.7137 14.0557 0.5 14.2692 0.5 14.5326V15.5484C0.5 15.8118 0.7137 16.0254 0.977313 16.0254H1.9033C2.16691 16.0254 2.38061 15.8118 2.38061 15.5484V14.5326C2.38061 14.2692 2.16691 14.0557 1.9033 14.0557Z" fill="black"/>
<path id="Vector_2" d="M8.9326 14.0322H8.00661C7.743 14.0322 7.5293 14.2458 7.5293 14.5091V15.525C7.5293 15.7884 7.743 16.0019 8.00661 16.0019H8.9326C9.19621 16.0019 9.40991 15.7884 9.40991 15.525V14.5091C9.40991 14.2458 9.19621 14.0322 8.9326 14.0322Z" fill="black"/>
<path id="Vector_3" d="M22.9931 14.0322H22.0672C21.8035 14.0322 21.5898 14.2458 21.5898 14.5091V15.525C21.5898 15.7884 21.8035 16.0019 22.0672 16.0019H22.9931C23.2568 16.0019 23.4705 15.7884 23.4705 15.525V14.5091C23.4705 14.2458 23.2568 14.0322 22.9931 14.0322Z" fill="black"/>
<path id="Vector_4" d="M27.6787 23.3594H26.7527C26.4891 23.3594 26.2754 23.5729 26.2754 23.8363V24.8521C26.2754 25.1155 26.4891 25.3291 26.7527 25.3291H27.6787C27.9423 25.3291 28.156 25.1155 28.156 24.8521V23.8363C28.156 23.5729 27.9423 23.3594 27.6787 23.3594Z" fill="black"/>
<path id="Vector_5" d="M20.6494 23.3594H19.7234C19.4598 23.3594 19.2461 23.5729 19.2461 23.8363V24.8521C19.2461 25.1155 19.4598 25.3291 19.7234 25.3291H20.6494C20.913 25.3291 21.1267 25.1155 21.1267 24.8521V23.8363C21.1267 23.5729 20.913 23.3594 20.6494 23.3594Z" fill="black"/>
<path id="Vector_6" d="M20.6494 4.68555H19.7234C19.4598 4.68555 19.2461 4.89907 19.2461 5.16247V6.17832C19.2461 6.44171 19.4598 6.65524 19.7234 6.65524H20.6494C20.913 6.65524 21.1267 6.44171 21.1267 6.17832V5.16247C21.1267 4.89907 20.913 4.68555 20.6494 4.68555Z" fill="black"/>
<path id="Vector_7" d="M27.665 4.64258H26.739C26.4754 4.64258 26.2617 4.8561 26.2617 5.1195V6.13535C26.2617 6.39875 26.4754 6.61227 26.739 6.61227H27.665C27.9286 6.61227 28.1423 6.39875 28.1423 6.13535V5.1195C28.1423 4.8561 27.9286 4.64258 27.665 4.64258Z" fill="black"/>
<path id="Vector_8" d="M30.0224 14.0557H29.0965C28.8328 14.0557 28.6191 14.2692 28.6191 14.5326V15.5484C28.6191 15.8118 28.8328 16.0254 29.0965 16.0254H30.0224C30.2861 16.0254 30.4998 15.8118 30.4998 15.5484V14.5326C30.4998 14.2692 30.2861 14.0557 30.0224 14.0557Z" fill="black"/>
<path id="Vector_9" d="M4.23143 23.3594H3.30544C3.04183 23.3594 2.82812 23.5729 2.82812 23.8363V24.8521C2.82812 25.1155 3.04183 25.3291 3.30544 25.3291H4.23143C4.49504 25.3291 4.70874 25.1155 4.70874 24.8521V23.8363C4.70874 23.5729 4.49504 23.3594 4.23143 23.3594Z" fill="black"/>
<path id="Vector_10" d="M11.2627 23.3594H10.3367C10.0731 23.3594 9.85938 23.5729 9.85938 23.8363V24.8521C9.85938 25.1155 10.0731 25.3291 10.3367 25.3291H11.2627C11.5263 25.3291 11.74 25.1155 11.74 24.8521V23.8363C11.74 23.5729 11.5263 23.3594 11.2627 23.3594Z" fill="black"/>
<path id="Vector_11" d="M11.2627 4.61914H10.3367C10.0731 4.61914 9.85938 4.83267 9.85938 5.09606V6.11191C9.85938 6.37531 10.0731 6.58883 10.3367 6.58883H11.2627C11.5263 6.58883 11.74 6.37531 11.74 6.11191V5.09606C11.74 4.83267 11.5263 4.61914 11.2627 4.61914Z" fill="black"/>
<path id="Vector_12" d="M4.23143 4.61914H3.30544C3.04183 4.61914 2.82812 4.83267 2.82812 5.09606V6.11191C2.82812 6.37531 3.04183 6.58883 3.30544 6.58883H4.23143C4.49504 6.58883 4.70874 6.37531 4.70874 6.11191V5.09606C4.70874 4.83267 4.49504 4.61914 4.23143 4.61914Z" fill="black"/>
<path id="Vector_13" d="M13.6201 28.1104H12.6941C12.4305 28.1104 12.2168 28.3239 12.2168 28.5873V29.6031C12.2168 29.8665 12.4305 30.08 12.6941 30.08H13.6201C13.8837 30.08 14.0974 29.8665 14.0974 29.6031V28.5873C14.0974 28.3239 13.8837 28.1104 13.6201 28.1104Z" fill="black"/>
<path id="Vector_14" d="M11.2763 28.1104H10.3504C10.0867 28.1104 9.87305 28.3239 9.87305 28.5873V29.6031C9.87305 29.8665 10.0867 30.08 10.3504 30.08H11.2763C11.54 30.08 11.7537 29.8665 11.7537 29.6031V28.5873C11.7537 28.3239 11.54 28.1104 11.2763 28.1104Z" fill="black"/>
<path id="Vector_15" d="M18.3056 28.1104H17.3797C17.116 28.1104 16.9023 28.3239 16.9023 28.5873V29.6031C16.9023 29.8665 17.116 30.08 17.3797 30.08H18.3056C18.5693 30.08 18.783 29.8665 18.783 29.6031V28.5873C18.783 28.3239 18.5693 28.1104 18.3056 28.1104Z" fill="black"/>
<path id="Vector_16" d="M20.6494 28.1104H19.7234C19.4598 28.1104 19.2461 28.3239 19.2461 28.5873V29.6031C19.2461 29.8665 19.4598 30.08 19.7234 30.08H20.6494C20.913 30.08 21.1267 29.8665 21.1267 29.6031V28.5873C21.1267 28.3239 20.913 28.1104 20.6494 28.1104Z" fill="black"/>
<path id="Vector_17" d="M13.6201 0H12.6941C12.4305 0 12.2168 0.213526 12.2168 0.476923V1.49277C12.2168 1.75617 12.4305 1.96969 12.6941 1.96969H13.6201C13.8837 1.96969 14.0974 1.75617 14.0974 1.49277V0.476923C14.0974 0.213526 13.8837 0 13.6201 0Z" fill="black"/>
<path id="Vector_18" d="M22.9931 18.7402H22.0672C21.8035 18.7402 21.5898 18.9538 21.5898 19.2172V20.233C21.5898 20.4964 21.8035 20.7099 22.0672 20.7099H22.9931C23.2568 20.7099 23.4705 20.4964 23.4705 20.233V19.2172C23.4705 18.9538 23.2568 18.7402 22.9931 18.7402Z" fill="black"/>
<path id="Vector_19" d="M22.9931 9.37012H22.0672C21.8035 9.37012 21.5898 9.58364 21.5898 9.84704V10.8629C21.5898 11.1263 21.8035 11.3398 22.0672 11.3398H22.9931C23.2568 11.3398 23.4705 11.1263 23.4705 10.8629V9.84704C23.4705 9.58364 23.2568 9.37012 22.9931 9.37012Z" fill="black"/>
<path id="Vector_20" d="M11.2763 0H10.3504C10.0867 0 9.87305 0.213526 9.87305 0.476923V1.49277C9.87305 1.75617 10.0867 1.96969 10.3504 1.96969H11.2763C11.54 1.96969 11.7537 1.75617 11.7537 1.49277V0.476923C11.7537 0.213526 11.54 0 11.2763 0Z" fill="black"/>
<path id="Vector_21" d="M18.3056 0H17.3797C17.116 0 16.9023 0.213526 16.9023 0.476923V1.49277C16.9023 1.75617 17.116 1.96969 17.3797 1.96969H18.3056C18.5693 1.96969 18.783 1.75617 18.783 1.49277V0.476923C18.783 0.213526 18.5693 0 18.3056 0Z" fill="black"/>
<path id="Vector_22" d="M1.9033 16.4209H0.977313C0.7137 16.4209 0.5 16.6344 0.5 16.8978V17.9137C0.5 18.1771 0.7137 18.3906 0.977313 18.3906H1.9033C2.16691 18.3906 2.38061 18.1771 2.38061 17.9137V16.8978C2.38061 16.6344 2.16691 16.4209 1.9033 16.4209Z" fill="black"/>
<path id="Vector_23" d="M8.9326 16.3975H8.00661C7.743 16.3975 7.5293 16.611 7.5293 16.8744V17.8902C7.5293 18.1536 7.743 18.3672 8.00661 18.3672H8.9326C9.19621 18.3672 9.40991 18.1536 9.40991 17.8902V16.8744C9.40991 16.611 9.19621 16.3975 8.9326 16.3975Z" fill="black"/>
<path id="Vector_24" d="M22.9931 16.3975H22.0672C21.8035 16.3975 21.5898 16.611 21.5898 16.8744V17.8902C21.5898 18.1536 21.8035 18.3672 22.0672 18.3672H22.9931C23.2568 18.3672 23.4705 18.1536 23.4705 17.8902V16.8744C23.4705 16.611 23.2568 16.3975 22.9931 16.3975Z" fill="black"/>
<path id="Vector_25" d="M25.3369 25.7246H24.4109C24.1473 25.7246 23.9336 25.9381 23.9336 26.2015V27.2174C23.9336 27.4808 24.1473 27.6943 24.4109 27.6943H25.3369C25.6005 27.6943 25.8142 27.4808 25.8142 27.2174V26.2015C25.8142 25.9381 25.6005 25.7246 25.3369 25.7246Z" fill="black"/>
<path id="Vector_26" d="M18.3056 25.7246H17.3797C17.116 25.7246 16.9023 25.9381 16.9023 26.2015V27.2174C16.9023 27.4808 17.116 27.6943 17.3797 27.6943H18.3056C18.5693 27.6943 18.783 27.4808 18.783 27.2174V26.2015C18.783 25.9381 18.5693 25.7246 18.3056 25.7246Z" fill="black"/>
<path id="Vector_27" d="M30.0224 16.4209H29.0965C28.8328 16.4209 28.6191 16.6344 28.6191 16.8978V17.9137C28.6191 18.1771 28.8328 18.3906 29.0965 18.3906H30.0224C30.2861 18.3906 30.4998 18.1771 30.4998 17.9137V16.8978C30.4998 16.6344 30.2861 16.4209 30.0224 16.4209Z" fill="black"/>
<path id="Vector_28" d="M1.9033 11.7354H0.977313C0.7137 11.7354 0.5 11.9489 0.5 12.2123V13.2281C0.5 13.4915 0.7137 13.705 0.977313 13.705H1.9033C2.16691 13.705 2.38061 13.4915 2.38061 13.2281V12.2123C2.38061 11.9489 2.16691 11.7354 1.9033 11.7354Z" fill="black"/>
<path id="Vector_29" d="M8.9326 11.7129H8.00661C7.743 11.7129 7.5293 11.9264 7.5293 12.1898V13.2057C7.5293 13.4691 7.743 13.6826 8.00661 13.6826H8.9326C9.19621 13.6826 9.40991 13.4691 9.40991 13.2057V12.1898C9.40991 11.9264 9.19621 11.7129 8.9326 11.7129Z" fill="black"/>
<path id="Vector_30" d="M22.9931 11.7129H22.0672C21.8035 11.7129 21.5898 11.9264 21.5898 12.1898V13.2057C21.5898 13.4691 21.8035 13.6826 22.0672 13.6826H22.9931C23.2568 13.6826 23.4705 13.4691 23.4705 13.2057V12.1898C23.4705 11.9264 23.2568 11.7129 22.9931 11.7129Z" fill="black"/>
<path id="Vector_31" d="M18.3056 2.36523H17.3797C17.116 2.36523 16.9023 2.57876 16.9023 2.84216V3.858C16.9023 4.1214 17.116 4.33493 17.3797 4.33493H18.3056C18.5693 4.33493 18.783 4.1214 18.783 3.858V2.84216C18.783 2.57876 18.5693 2.36523 18.3056 2.36523Z" fill="black"/>
<path id="Vector_32" d="M25.3213 2.32227H24.3953C24.1317 2.32227 23.918 2.53579 23.918 2.79919V3.81504C23.918 4.07843 24.1317 4.29196 24.3953 4.29196H25.3213C25.5849 4.29196 25.7986 4.07843 25.7986 3.81504V2.79919C25.7986 2.53579 25.5849 2.32227 25.3213 2.32227Z" fill="black"/>
<path id="Vector_33" d="M30.0224 11.7354H29.0965C28.8328 11.7354 28.6191 11.9489 28.6191 12.2123V13.2281C28.6191 13.4915 28.8328 13.705 29.0965 13.705H30.0224C30.2861 13.705 30.4998 13.4915 30.4998 13.2281V12.2123C30.4998 11.9489 30.2861 11.7354 30.0224 11.7354Z" fill="black"/>
<path id="Vector_34" d="M15.9775 14.0977H15.0515C14.7879 14.0977 14.5742 14.3112 14.5742 14.5746V15.5904C14.5742 15.8538 14.7879 16.0674 15.0515 16.0674H15.9775C16.2411 16.0674 16.4548 15.8538 16.4548 15.5904V14.5746C16.4548 14.3112 16.2411 14.0977 15.9775 14.0977Z" fill="black"/>
<path id="Vector_35" d="M15.9775 23.4678H15.0515C14.7879 23.4678 14.5742 23.6813 14.5742 23.9447V24.9605C14.5742 25.2239 14.7879 25.4375 15.0515 25.4375H15.9775C16.2411 25.4375 16.4548 25.2239 16.4548 24.9605V23.9447C16.4548 23.6813 16.2411 23.4678 15.9775 23.4678Z" fill="black"/>
<path id="Vector_36" d="M15.9775 4.72754H15.0515C14.7879 4.72754 14.5742 4.94106 14.5742 5.20446V6.22031C14.5742 6.48371 14.7879 6.69723 15.0515 6.69723H15.9775C16.2411 6.69723 16.4548 6.48371 16.4548 6.22031V5.20446C16.4548 4.94106 16.2411 4.72754 15.9775 4.72754Z" fill="black"/>
<path id="Vector_37" d="M1.9033 18.7402H0.977313C0.7137 18.7402 0.5 18.9538 0.5 19.2172V20.233C0.5 20.4964 0.7137 20.7099 0.977313 20.7099H1.9033C2.16691 20.7099 2.38061 20.4964 2.38061 20.233V19.2172C2.38061 18.9538 2.16691 18.7402 1.9033 18.7402Z" fill="black"/>
<path id="Vector_38" d="M1.9033 21.083H0.977313C0.7137 21.083 0.5 21.2965 0.5 21.5599V22.5758C0.5 22.8392 0.7137 23.0527 0.977313 23.0527H1.9033C2.16691 23.0527 2.38061 22.8392 2.38061 22.5758V21.5599C2.38061 21.2965 2.16691 21.083 1.9033 21.083Z" fill="black"/>
<path id="Vector_39" d="M1.9033 7.02734H0.977313C0.7137 7.02734 0.5 7.24087 0.5 7.50427V8.52011C0.5 8.78351 0.7137 8.99704 0.977313 8.99704H1.9033C2.16691 8.99704 2.38061 8.78351 2.38061 8.52011V7.50427C2.38061 7.24087 2.16691 7.02734 1.9033 7.02734Z" fill="black"/>
<path id="Vector_40" d="M30.0224 7.02734H29.0965C28.8328 7.02734 28.6191 7.24087 28.6191 7.50427V8.52011C28.6191 8.78351 28.8328 8.99704 29.0965 8.99704H30.0224C30.2861 8.99704 30.4998 8.78351 30.4998 8.52011V7.50427C30.4998 7.24087 30.2861 7.02734 30.0224 7.02734Z" fill="black"/>
<path id="Vector_41" d="M30.0224 21.083H29.0965C28.8328 21.083 28.6191 21.2965 28.6191 21.5599V22.5758C28.6191 22.8392 28.8328 23.0527 29.0965 23.0527H30.0224C30.2861 23.0527 30.4998 22.8392 30.4998 22.5758V21.5599C30.4998 21.2965 30.2861 21.083 30.0224 21.083Z" fill="black"/>
<path id="Vector_42" d="M4.24705 18.7402H3.32106C3.05745 18.7402 2.84375 18.9538 2.84375 19.2172V20.233C2.84375 20.4964 3.05745 20.7099 3.32106 20.7099H4.24705C4.51066 20.7099 4.72436 20.4964 4.72436 20.233V19.2172C4.72436 18.9538 4.51066 18.7402 4.24705 18.7402Z" fill="black"/>
<path id="Vector_43" d="M4.24705 9.37012H3.32106C3.05745 9.37012 2.84375 9.58364 2.84375 9.84704V10.8629C2.84375 11.1263 3.05745 11.3398 3.32106 11.3398H4.24705C4.51066 11.3398 4.72436 11.1263 4.72436 10.8629V9.84704C4.72436 9.58364 4.51066 9.37012 4.24705 9.37012Z" fill="black"/>
<path id="Vector_44" d="M11.2763 18.7402H10.3504C10.0867 18.7402 9.87305 18.9538 9.87305 19.2172V20.233C9.87305 20.4964 10.0867 20.7099 10.3504 20.7099H11.2763C11.54 20.7099 11.7537 20.4964 11.7537 20.233V19.2172C11.7537 18.9538 11.54 18.7402 11.2763 18.7402Z" fill="black"/>
<path id="Vector_45" d="M11.2763 9.37012H10.3504C10.0867 9.37012 9.87305 9.58364 9.87305 9.84704V10.8629C9.87305 11.1263 10.0867 11.3398 10.3504 11.3398H11.2763C11.54 11.3398 11.7537 11.1263 11.7537 10.8629V9.84704C11.7537 9.58364 11.54 9.37012 11.2763 9.37012Z" fill="black"/>
<path id="Vector_46" d="M18.3056 18.7402H17.3797C17.116 18.7402 16.9023 18.9538 16.9023 19.2172V20.233C16.9023 20.4964 17.116 20.7099 17.3797 20.7099H18.3056C18.5693 20.7099 18.783 20.4964 18.783 20.233V19.2172C18.783 18.9538 18.5693 18.7402 18.3056 18.7402Z" fill="black"/>
<path id="Vector_47" d="M18.3056 9.37012H17.3797C17.116 9.37012 16.9023 9.58364 16.9023 9.84704V10.8629C16.9023 11.1263 17.116 11.3398 17.3797 11.3398H18.3056C18.5693 11.3398 18.783 11.1263 18.783 10.8629V9.84704C18.783 9.58364 18.5693 9.37012 18.3056 9.37012Z" fill="black"/>
<path id="Vector_48" d="M25.3369 18.7402H24.4109C24.1473 18.7402 23.9336 18.9538 23.9336 19.2172V20.233C23.9336 20.4964 24.1473 20.7099 24.4109 20.7099H25.3369C25.6005 20.7099 25.8142 20.4964 25.8142 20.233V19.2172C25.8142 18.9538 25.6005 18.7402 25.3369 18.7402Z" fill="black"/>
<path id="Vector_49" d="M25.3369 9.37012H24.4109C24.1473 9.37012 23.9336 9.58364 23.9336 9.84704V10.8629C23.9336 11.1263 24.1473 11.3398 24.4109 11.3398H25.3369C25.6005 11.3398 25.8142 11.1263 25.8142 10.8629V9.84704C25.8142 9.58364 25.6005 9.37012 25.3369 9.37012Z" fill="black"/>
<path id="Vector_50" d="M6.5908 18.7402H5.66481C5.4012 18.7402 5.1875 18.9538 5.1875 19.2172V20.233C5.1875 20.4964 5.4012 20.7099 5.66481 20.7099H6.5908C6.85441 20.7099 7.06811 20.4964 7.06811 20.233V19.2172C7.06811 18.9538 6.85441 18.7402 6.5908 18.7402Z" fill="black"/>
<path id="Vector_51" d="M6.5908 9.37012H5.66481C5.4012 9.37012 5.1875 9.58364 5.1875 9.84704V10.8629C5.1875 11.1263 5.4012 11.3398 5.66481 11.3398H6.5908C6.85441 11.3398 7.06811 11.1263 7.06811 10.8629V9.84704C7.06811 9.58364 6.85441 9.37012 6.5908 9.37012Z" fill="black"/>
<path id="Vector_52" d="M13.6201 18.7402H12.6941C12.4305 18.7402 12.2168 18.9538 12.2168 19.2172V20.233C12.2168 20.4964 12.4305 20.7099 12.6941 20.7099H13.6201C13.8837 20.7099 14.0974 20.4964 14.0974 20.233V19.2172C14.0974 18.9538 13.8837 18.7402 13.6201 18.7402Z" fill="black"/>
<path id="Vector_53" d="M13.6201 9.37012H12.6941C12.4305 9.37012 12.2168 9.58364 12.2168 9.84704V10.8629C12.2168 11.1263 12.4305 11.3398 12.6941 11.3398H13.6201C13.8837 11.3398 14.0974 11.1263 14.0974 10.8629V9.84704C14.0974 9.58364 13.8837 9.37012 13.6201 9.37012Z" fill="black"/>
<path id="Vector_54" d="M20.6494 18.7402H19.7234C19.4598 18.7402 19.2461 18.9538 19.2461 19.2172V20.233C19.2461 20.4964 19.4598 20.7099 19.7234 20.7099H20.6494C20.913 20.7099 21.1267 20.4964 21.1267 20.233V19.2172C21.1267 18.9538 20.913 18.7402 20.6494 18.7402Z" fill="black"/>
<path id="Vector_55" d="M20.6494 9.37012H19.7234C19.4598 9.37012 19.2461 9.58364 19.2461 9.84704V10.8629C19.2461 11.1263 19.4598 11.3398 19.7234 11.3398H20.6494C20.913 11.3398 21.1267 11.1263 21.1267 10.8629V9.84704C21.1267 9.58364 20.913 9.37012 20.6494 9.37012Z" fill="black"/>
<path id="Vector_56" d="M27.6787 18.7402H26.7527C26.4891 18.7402 26.2754 18.9538 26.2754 19.2172V20.233C26.2754 20.4964 26.4891 20.7099 26.7527 20.7099H27.6787C27.9423 20.7099 28.156 20.4964 28.156 20.233V19.2172C28.156 18.9538 27.9423 18.7402 27.6787 18.7402Z" fill="black"/>
<path id="Vector_57" d="M27.6787 9.37012H26.7527C26.4891 9.37012 26.2754 9.58364 26.2754 9.84704V10.8629C26.2754 11.1263 26.4891 11.3398 26.7527 11.3398H27.6787C27.9423 11.3398 28.156 11.1263 28.156 10.8629V9.84704C28.156 9.58364 27.9423 9.37012 27.6787 9.37012Z" fill="black"/>
<path id="Vector_58" d="M15.9775 18.7832H15.0515C14.7879 18.7832 14.5742 18.9967 14.5742 19.2601V20.276C14.5742 20.5394 14.7879 20.7529 15.0515 20.7529H15.9775C16.2411 20.7529 16.4548 20.5394 16.4548 20.276V19.2601C16.4548 18.9967 16.2411 18.7832 15.9775 18.7832Z" fill="black"/>
<path id="Vector_59" d="M15.9775 28.1533H15.0515C14.7879 28.1533 14.5742 28.3668 14.5742 28.6302V29.6461C14.5742 29.9095 14.7879 30.123 15.0515 30.123H15.9775C16.2411 30.123 16.4548 29.9095 16.4548 29.6461V28.6302C16.4548 28.3668 16.2411 28.1533 15.9775 28.1533Z" fill="black"/>
<path id="Vector_60" d="M1.9033 9.37012H0.977313C0.7137 9.37012 0.5 9.58364 0.5 9.84704V10.8629C0.5 11.1263 0.7137 11.3398 0.977313 11.3398H1.9033C2.16691 11.3398 2.38061 11.1263 2.38061 10.8629V9.84704C2.38061 9.58364 2.16691 9.37012 1.9033 9.37012Z" fill="black"/>
<path id="Vector_61" d="M15.9775 9.41309H15.0515C14.7879 9.41309 14.5742 9.62661 14.5742 9.89001V10.9059C14.5742 11.1693 14.7879 11.3828 15.0515 11.3828H15.9775C16.2411 11.3828 16.4548 11.1693 16.4548 10.9059V9.89001C16.4548 9.62661 16.2411 9.41309 15.9775 9.41309Z" fill="black"/>
<path id="Vector_62" d="M30.0224 9.37012H29.0965C28.8328 9.37012 28.6191 9.58364 28.6191 9.84704V10.8629C28.6191 11.1263 28.8328 11.3398 29.0965 11.3398H30.0224C30.2861 11.3398 30.4998 11.1263 30.4998 10.8629V9.84704C30.4998 9.58364 30.2861 9.37012 30.0224 9.37012Z" fill="black"/>
<path id="Vector_63" d="M30.0224 18.7402H29.0965C28.8328 18.7402 28.6191 18.9538 28.6191 19.2172V20.233C28.6191 20.4964 28.8328 20.7099 29.0965 20.7099H30.0224C30.2861 20.7099 30.4998 20.4964 30.4998 20.233V19.2172C30.4998 18.9538 30.2861 18.7402 30.0224 18.7402Z" fill="black"/>
<path id="Vector_64" d="M15.9775 0.0429688H15.0515C14.7879 0.0429688 14.5742 0.256495 14.5742 0.519892V1.53574C14.5742 1.79914 14.7879 2.01266 15.0515 2.01266H15.9775C16.2411 2.01266 16.4548 1.79914 16.4548 1.53574V0.519892C16.4548 0.256495 16.2411 0.0429688 15.9775 0.0429688Z" fill="black"/>
<path id="Vector_65" d="M8.94822 18.7832H8.02223C7.75862 18.7832 7.54492 18.9967 7.54492 19.2601V20.276C7.54492 20.5394 7.75862 20.7529 8.02223 20.7529H8.94822C9.21184 20.7529 9.42554 20.5394 9.42554 20.276V19.2601C9.42554 18.9967 9.21184 18.7832 8.94822 18.7832Z" fill="black"/>
<path id="Vector_66" d="M8.94822 9.41309H8.02223C7.75862 9.41309 7.54492 9.62661 7.54492 9.89001V10.9059C7.54492 11.1693 7.75862 11.3828 8.02223 11.3828H8.94822C9.21184 11.3828 9.42554 11.1693 9.42554 10.9059V9.89001C9.42554 9.62661 9.21184 9.41309 8.94822 9.41309Z" fill="black"/>
<path id="Vector_67" d="M20.665 0.0429688H19.739C19.4754 0.0429688 19.2617 0.256495 19.2617 0.519892V1.53574C19.2617 1.79914 19.4754 2.01266 19.739 2.01266H20.665C20.9286 2.01266 21.1423 1.79914 21.1423 1.53574V0.519892C21.1423 0.256495 20.9286 0.0429688 20.665 0.0429688Z" fill="black"/>
<path id="Vector_68" d="M15.9775 16.4639H15.0515C14.7879 16.4639 14.5742 16.6774 14.5742 16.9408V17.9566C14.5742 18.22 14.7879 18.4336 15.0515 18.4336H15.9775C16.2411 18.4336 16.4548 18.22 16.4548 17.9566V16.9408C16.4548 16.6774 16.2411 16.4639 15.9775 16.4639Z" fill="black"/>
<path id="Vector_69" d="M15.9775 25.834H15.0515C14.7879 25.834 14.5742 26.0475 14.5742 26.3109V27.3268C14.5742 27.5902 14.7879 27.8037 15.0515 27.8037H15.9775C16.2411 27.8037 16.4548 27.5902 16.4548 27.3268V26.3109C16.4548 26.0475 16.2411 25.834 15.9775 25.834Z" fill="black"/>
<path id="Vector_70" d="M8.9326 7.02734H8.00661C7.743 7.02734 7.5293 7.24087 7.5293 7.50427V8.52011C7.5293 8.78351 7.743 8.99704 8.00661 8.99704H8.9326C9.19621 8.99704 9.40991 8.78351 9.40991 8.52011V7.50427C9.40991 7.24087 9.19621 7.02734 8.9326 7.02734Z" fill="black"/>
<path id="Vector_71" d="M15.9775 7.09375H15.0515C14.7879 7.09375 14.5742 7.30728 14.5742 7.57067V8.58652C14.5742 8.84992 14.7879 9.06344 15.0515 9.06344H15.9775C16.2411 9.06344 16.4548 8.84992 16.4548 8.58652V7.57067C16.4548 7.30728 16.2411 7.09375 15.9775 7.09375Z" fill="black"/>
<path id="Vector_72" d="M23.0068 7.09375H22.0808C21.8172 7.09375 21.6035 7.30728 21.6035 7.57067V8.58652C21.6035 8.84992 21.8172 9.06344 22.0808 9.06344H23.0068C23.2704 9.06344 23.4841 8.84992 23.4841 8.58652V7.57067C23.4841 7.30728 23.2704 7.09375 23.0068 7.09375Z" fill="black"/>
<path id="Vector_73" d="M6.5908 25.7676H5.66481C5.4012 25.7676 5.1875 25.9811 5.1875 26.2445V27.2603C5.1875 27.5237 5.4012 27.7373 5.66481 27.7373H6.5908C6.85441 27.7373 7.06811 27.5237 7.06811 27.2603V26.2445C7.06811 25.9811 6.85441 25.7676 6.5908 25.7676Z" fill="black"/>
<path id="Vector_74" d="M13.6201 25.7676H12.6941C12.4305 25.7676 12.2168 25.9811 12.2168 26.2445V27.2603C12.2168 27.5237 12.4305 27.7373 12.6941 27.7373H13.6201C13.8837 27.7373 14.0974 27.5237 14.0974 27.2603V26.2445C14.0974 25.9811 13.8837 25.7676 13.6201 25.7676Z" fill="black"/>
<path id="Vector_75" d="M8.9326 21.083H8.00661C7.743 21.083 7.5293 21.2965 7.5293 21.5599V22.5758C7.5293 22.8392 7.743 23.0527 8.00661 23.0527H8.9326C9.19621 23.0527 9.40991 22.8392 9.40991 22.5758V21.5599C9.40991 21.2965 9.19621 21.083 8.9326 21.083Z" fill="black"/>
<path id="Vector_76" d="M15.9775 21.1484H15.0515C14.7879 21.1484 14.5742 21.362 14.5742 21.6254V22.6412C14.5742 22.9046 14.7879 23.1181 15.0515 23.1181H15.9775C16.2411 23.1181 16.4548 22.9046 16.4548 22.6412V21.6254C16.4548 21.362 16.2411 21.1484 15.9775 21.1484Z" fill="black"/>
<path id="Vector_77" d="M23.0068 21.083H22.0808C21.8172 21.083 21.6035 21.2965 21.6035 21.5599V22.5758C21.6035 22.8392 21.8172 23.0527 22.0808 23.0527H23.0068C23.2704 23.0527 23.4841 22.8392 23.4841 22.5758V21.5599C23.4841 21.2965 23.2704 21.083 23.0068 21.083Z" fill="black"/>
<path id="Vector_78" d="M15.9775 11.7783H15.0515C14.7879 11.7783 14.5742 11.9918 14.5742 12.2552V13.2711C14.5742 13.5345 14.7879 13.748 15.0515 13.748H15.9775C16.2411 13.748 16.4548 13.5345 16.4548 13.2711V12.2552C16.4548 11.9918 16.2411 11.7783 15.9775 11.7783Z" fill="black"/>
<path id="Vector_79" d="M15.9775 2.4082H15.0515C14.7879 2.4082 14.5742 2.62173 14.5742 2.88513V3.90097C14.5742 4.16437 14.7879 4.3779 15.0515 4.3779H15.9775C16.2411 4.3779 16.4548 4.16437 16.4548 3.90097V2.88513C16.4548 2.62173 16.2411 2.4082 15.9775 2.4082Z" fill="black"/>
<path id="Vector_80" d="M13.6201 2.34277H12.6941C12.4305 2.34277 12.2168 2.5563 12.2168 2.8197V3.83554C12.2168 4.09894 12.4305 4.31247 12.6941 4.31247H13.6201C13.8837 4.31247 14.0974 4.09894 14.0974 3.83554V2.8197C14.0974 2.5563 13.8837 2.34277 13.6201 2.34277Z" fill="black"/>
<path id="Vector_81" d="M6.5908 2.34277H5.66481C5.4012 2.34277 5.1875 2.5563 5.1875 2.8197V3.83554C5.1875 4.09894 5.4012 4.31247 5.66481 4.31247H6.5908C6.85441 4.31247 7.06811 4.09894 7.06811 3.83554V2.8197C7.06811 2.5563 6.85441 2.34277 6.5908 2.34277Z" fill="black"/>
</g>
</svg>
