<svg width="361" height="584" viewBox="0 0 361 584" fill="none" xmlns="http://www.w3.org/2000/svg">
<path d="M307.892 362.345C307.892 365.652 311.149 368.351 315.192 368.351C319.235 368.351 322.493 365.671 322.493 362.345C322.493 359.018 319.235 356.338 315.192 356.338C311.149 356.338 307.892 359.018 307.892 362.345Z" fill="url(#paint0_linear_13796_107071)"/>
<path d="M307.892 221.618C307.892 224.926 311.149 227.625 315.192 227.625C319.235 227.625 322.493 224.945 322.493 221.618C322.493 218.292 319.235 215.612 315.192 215.612C311.149 215.612 307.892 218.292 307.892 221.618Z" fill="url(#paint1_linear_13796_107071)"/>
<path d="M345.895 147.91C345.895 151.218 349.153 153.917 353.196 153.917C357.239 153.917 360.496 151.237 360.496 147.91C360.496 144.584 357.239 141.904 353.196 141.904C349.153 141.904 345.895 144.584 345.895 147.91Z" fill="url(#paint2_linear_13796_107071)"/>
<path d="M345.895 436.053C345.895 439.36 349.153 442.06 353.196 442.06C357.239 442.06 360.496 439.379 360.496 436.053C360.496 432.726 357.239 430.046 353.196 430.046C349.153 430.046 345.895 432.726 345.895 436.053Z" fill="url(#paint3_linear_13796_107071)"/>
<path d="M296.965 291.981C296.965 295.289 300.223 297.988 304.266 297.988C308.309 297.988 311.567 295.308 311.567 291.981C311.567 288.655 308.309 285.975 304.266 285.975C300.223 285.975 296.965 288.655 296.965 291.981Z" fill="url(#paint4_linear_13796_107071)"/>
<path d="M58.7195 436.869H-86.416C-87.0629 436.869 -87.5712 436.451 -87.5712 435.919C-87.5712 435.387 -87.0629 434.968 -86.416 434.968H58.2574L147.344 361.679C147.806 361.298 148.522 361.298 148.984 361.679C149.446 362.059 149.446 362.648 148.984 363.028L59.5743 436.584C59.3664 436.755 59.066 436.869 58.7657 436.869H58.7195Z" fill="url(#paint5_linear_13796_107071)"/>
<path d="M23.6691 362.345C23.6691 365.652 26.9267 368.351 30.9697 368.351C35.0128 368.351 38.2704 365.671 38.2704 362.345C38.2704 359.018 35.0128 356.338 30.9697 356.338C26.9267 356.338 23.6691 359.018 23.6691 362.345Z" fill="url(#paint6_linear_13796_107071)"/>
<path d="M129.048 506.586H-16.6648C-17.3117 506.586 -17.8199 506.168 -17.8199 505.635C-17.8199 505.103 -17.3117 504.685 -16.6648 504.685H129.048C129.695 504.685 130.203 505.103 130.203 505.635C130.203 506.168 129.695 506.586 129.048 506.586Z" fill="url(#paint7_linear_13796_107071)"/>
<path d="M148.135 222.568C147.834 222.568 147.534 222.473 147.326 222.283L58.2392 148.993H-86.4342C-87.0811 148.993 -87.5894 148.575 -87.5894 148.043C-87.5894 147.511 -87.0811 147.093 -86.4342 147.093H58.7013C59.0016 147.093 59.302 147.188 59.5099 147.378L148.92 220.934C149.382 221.314 149.382 221.903 148.92 222.283C148.689 222.473 148.389 222.568 148.111 222.568H148.135Z" fill="url(#paint8_linear_13796_107071)"/>
<path d="M23.6691 221.618C23.6691 218.311 26.9267 215.612 30.9697 215.612C35.0128 215.612 38.2704 218.292 38.2704 221.618C38.2704 224.945 35.0128 227.625 30.9697 227.625C26.9267 227.625 23.6691 224.945 23.6691 221.618Z" fill="url(#paint9_linear_13796_107071)"/>
<path d="M129.048 79.2964H-16.6648C-17.3117 79.2964 -17.8199 78.8783 -17.8199 78.346C-17.8199 77.8138 -17.3117 77.3956 -16.6648 77.3956H129.048C129.695 77.3956 130.203 77.8138 130.203 78.346C130.203 78.8783 129.695 79.2964 129.048 79.2964Z" fill="url(#paint10_linear_13796_107071)"/>
<path d="M304.237 292.931H-152.563C-153.21 292.931 -153.718 292.513 -153.718 291.981C-153.718 291.448 -153.21 291.03 -152.563 291.03H304.261C304.907 291.03 305.416 291.448 305.416 291.981C305.416 292.513 304.907 292.931 304.261 292.931H304.237Z" fill="url(#paint11_linear_13796_107071)"/>
<path d="M315.191 363.294H30.7886C30.1417 363.294 29.6334 362.876 29.6334 362.344C29.6334 361.811 30.1417 361.393 30.7886 361.393H315.191C315.838 361.393 316.346 361.811 316.346 362.344C316.346 362.876 315.838 363.294 315.191 363.294Z" fill="url(#paint12_linear_13796_107071)"/>
<path d="M34.9691 583.981H-433.845C-434.492 583.981 -435 583.563 -435 583.031C-435 582.498 -434.492 582.08 -433.845 582.08H34.507L212.819 435.387C213.027 435.216 213.327 435.102 213.628 435.102H353.195C353.842 435.102 354.35 435.52 354.35 436.052C354.35 436.584 353.842 437.002 353.195 437.002H214.113L35.8008 583.696C35.5929 583.867 35.2925 583.981 34.9922 583.981H34.9691Z" fill="url(#paint13_linear_13796_107071)"/>
<path d="M315.191 222.569H30.7886C30.1417 222.569 29.6334 222.151 29.6334 221.618C29.6334 221.086 30.1417 220.668 30.7886 220.668H315.191C315.838 220.668 316.346 221.086 316.346 221.618C316.346 222.151 315.838 222.569 315.191 222.569Z" fill="url(#paint14_linear_13796_107071)"/>
<path d="M353.172 148.86H213.605C213.304 148.86 213.004 148.765 212.796 148.575L34.5071 1.90067H-433.845C-434.492 1.90067 -435 1.48252 -435 0.950335C-435 0.418147 -434.492 0 -433.845 0H34.9691C35.2695 0 35.5699 0.0950335 35.7778 0.2851L214.09 146.979H353.172C353.819 146.979 354.327 147.397 354.327 147.929C354.327 148.461 353.819 148.879 353.172 148.879V148.86Z" fill="url(#paint15_linear_13796_107071)"/>
<defs>
<linearGradient id="paint0_linear_13796_107071" x1="322.534" y1="362.824" x2="307.85" y2="362.824" gradientUnits="userSpaceOnUse">
<stop stop-color="#FF5C00"/>
<stop offset="1" stop-color="#FF5C00" stop-opacity="0"/>
</linearGradient>
<linearGradient id="paint1_linear_13796_107071" x1="322.534" y1="222.098" x2="307.85" y2="222.098" gradientUnits="userSpaceOnUse">
<stop stop-color="#FF5C00"/>
<stop offset="1" stop-color="#FF5C00" stop-opacity="0"/>
</linearGradient>
<linearGradient id="paint2_linear_13796_107071" x1="360.537" y1="148.39" x2="345.853" y2="148.39" gradientUnits="userSpaceOnUse">
<stop stop-color="#FF5C00"/>
<stop offset="1" stop-color="#FF5C00" stop-opacity="0"/>
</linearGradient>
<linearGradient id="paint3_linear_13796_107071" x1="360.537" y1="436.533" x2="345.853" y2="436.533" gradientUnits="userSpaceOnUse">
<stop stop-color="#FF5C00"/>
<stop offset="1" stop-color="#FF5C00" stop-opacity="0"/>
</linearGradient>
<linearGradient id="paint4_linear_13796_107071" x1="311.608" y1="292.461" x2="296.923" y2="292.461" gradientUnits="userSpaceOnUse">
<stop stop-color="#FF5C00"/>
<stop offset="1" stop-color="#FF5C00" stop-opacity="0"/>
</linearGradient>
<linearGradient id="paint5_linear_13796_107071" x1="149.995" y1="402.145" x2="-88.252" y2="402.145" gradientUnits="userSpaceOnUse">
<stop stop-color="#FF5C00"/>
<stop offset="1" stop-color="#FF5C00" stop-opacity="0"/>
</linearGradient>
<linearGradient id="paint6_linear_13796_107071" x1="38.3113" y1="362.824" x2="23.6271" y2="362.824" gradientUnits="userSpaceOnUse">
<stop stop-color="#FF5C00"/>
<stop offset="1" stop-color="#FF5C00" stop-opacity="0"/>
</linearGradient>
<linearGradient id="paint7_linear_13796_107071" x1="130.618" y1="505.711" x2="-18.2454" y2="505.711" gradientUnits="userSpaceOnUse">
<stop stop-color="#FF5C00"/>
<stop offset="1" stop-color="#FF5C00" stop-opacity="0"/>
</linearGradient>
<linearGradient id="paint8_linear_13796_107071" x1="149.93" y1="187.844" x2="-88.2701" y2="187.844" gradientUnits="userSpaceOnUse">
<stop stop-color="#FF5C00"/>
<stop offset="1" stop-color="#FF5C00" stop-opacity="0"/>
</linearGradient>
<linearGradient id="paint9_linear_13796_107071" x1="38.3113" y1="222.098" x2="23.6271" y2="222.098" gradientUnits="userSpaceOnUse">
<stop stop-color="#FF5C00"/>
<stop offset="1" stop-color="#FF5C00" stop-opacity="0"/>
</linearGradient>
<linearGradient id="paint10_linear_13796_107071" x1="130.618" y1="78.4219" x2="-18.2454" y2="78.4218" gradientUnits="userSpaceOnUse">
<stop stop-color="#FF5C00"/>
<stop offset="1" stop-color="#FF5C00" stop-opacity="0"/>
</linearGradient>
<linearGradient id="paint11_linear_13796_107071" x1="306.702" y1="292.057" x2="-155.038" y2="292.055" gradientUnits="userSpaceOnUse">
<stop stop-color="#FF5C00"/>
<stop offset="1" stop-color="#FF5C00" stop-opacity="0"/>
</linearGradient>
<linearGradient id="paint12_linear_13796_107071" x1="317.15" y1="362.42" x2="28.8094" y2="362.419" gradientUnits="userSpaceOnUse">
<stop stop-color="#FF5C00"/>
<stop offset="1" stop-color="#FF5C00" stop-opacity="0"/>
</linearGradient>
<linearGradient id="paint13_linear_13796_107071" x1="356.561" y1="515.486" x2="-437.269" y2="515.486" gradientUnits="userSpaceOnUse">
<stop stop-color="#FF5C00"/>
<stop offset="1" stop-color="#FF5C00" stop-opacity="0"/>
</linearGradient>
<linearGradient id="paint14_linear_13796_107071" x1="317.15" y1="221.694" x2="28.8094" y2="221.694" gradientUnits="userSpaceOnUse">
<stop stop-color="#FF5C00"/>
<stop offset="1" stop-color="#FF5C00" stop-opacity="0"/>
</linearGradient>
<linearGradient id="paint15_linear_13796_107071" x1="356.538" y1="80.3848" x2="-437.269" y2="80.3847" gradientUnits="userSpaceOnUse">
<stop stop-color="#FF5C00"/>
<stop offset="1" stop-color="#FF5C00" stop-opacity="0"/>
</linearGradient>
</defs>
</svg>
