<svg width="360" height="584" viewBox="0 0 360 584" fill="none" xmlns="http://www.w3.org/2000/svg">
<path d="M52.6047 221.655C52.6047 218.348 49.3472 215.649 45.3041 215.649C41.261 215.649 38.0034 218.329 38.0034 221.655C38.0034 224.982 41.261 227.662 45.3041 227.662C49.3472 227.662 52.6047 224.982 52.6047 221.655Z" fill="url(#paint0_linear_13796_107133)"/>
<path d="M52.6047 362.381C52.6047 359.074 49.3472 356.375 45.3041 356.375C41.261 356.375 38.0034 359.055 38.0034 362.381C38.0034 365.708 41.261 368.388 45.3041 368.388C49.3472 368.388 52.6047 365.708 52.6047 362.381Z" fill="url(#paint1_linear_13796_107133)"/>
<path d="M14.6013 436.09C14.6013 432.782 11.3437 430.083 7.30064 430.083C3.25755 430.083 -3.82847e-05 432.763 -3.85755e-05 436.09C-3.88663e-05 439.416 3.25755 442.096 7.30064 442.096C11.3437 442.096 14.6013 439.416 14.6013 436.09Z" fill="url(#paint2_linear_13796_107133)"/>
<path d="M14.6013 147.947C14.6013 144.64 11.3437 141.94 7.30064 141.94C3.25755 141.94 -3.82847e-05 144.62 -3.85755e-05 147.947C-3.88663e-05 151.274 3.25755 153.954 7.30064 153.954C11.3437 153.954 14.6013 151.274 14.6013 147.947Z" fill="url(#paint3_linear_13796_107133)"/>
<path d="M63.531 292.019C63.531 288.711 60.2734 286.012 56.2303 286.012C52.1872 286.012 48.9296 288.692 48.9296 292.019C48.9296 295.345 52.1872 298.025 56.2303 298.025C60.2734 298.025 63.531 295.345 63.531 292.019Z" fill="url(#paint4_linear_13796_107133)"/>
<path d="M301.777 147.131L446.912 147.131C447.559 147.131 448.068 147.549 448.068 148.081C448.068 148.613 447.559 149.032 446.912 149.032L302.239 149.032L213.152 222.321C212.69 222.702 211.974 222.702 211.512 222.321C211.05 221.941 211.05 221.352 211.512 220.972L300.922 147.416C301.13 147.245 301.43 147.131 301.731 147.131L301.777 147.131Z" fill="url(#paint5_linear_13796_107133)"/>
<path d="M336.827 221.655C336.827 218.348 333.57 215.649 329.527 215.649C325.484 215.649 322.226 218.329 322.226 221.655C322.226 224.982 325.484 227.662 329.527 227.662C333.57 227.662 336.827 224.982 336.827 221.655Z" fill="url(#paint6_linear_13796_107133)"/>
<path d="M231.448 77.4142L377.161 77.4142C377.808 77.4142 378.316 77.8324 378.316 78.3646C378.316 78.8969 377.808 79.3151 377.161 79.3151L231.448 79.3151C230.801 79.3151 230.293 78.8969 230.293 78.3646C230.293 77.8324 230.801 77.4142 231.448 77.4142Z" fill="url(#paint7_linear_13796_107133)"/>
<path d="M212.362 361.432C212.662 361.432 212.963 361.527 213.17 361.717L302.257 435.007L446.931 435.007C447.577 435.007 448.086 435.425 448.086 435.957C448.086 436.489 447.577 436.907 446.931 436.907L301.795 436.907C301.495 436.907 301.194 436.812 300.986 436.622L211.576 363.066C211.114 362.686 211.114 362.097 211.576 361.717C211.807 361.527 212.108 361.432 212.385 361.432L212.362 361.432Z" fill="url(#paint8_linear_13796_107133)"/>
<path d="M336.827 362.382C336.827 365.689 333.57 368.388 329.527 368.388C325.484 368.388 322.226 365.708 322.226 362.382C322.226 359.055 325.484 356.375 329.527 356.375C333.57 356.375 336.827 359.055 336.827 362.382Z" fill="url(#paint9_linear_13796_107133)"/>
<path d="M231.448 504.703L377.161 504.703C377.808 504.703 378.316 505.122 378.316 505.654C378.316 506.186 377.808 506.604 377.161 506.604L231.448 506.604C230.801 506.604 230.293 506.186 230.293 505.654C230.293 505.122 230.801 504.703 231.448 504.703Z" fill="url(#paint10_linear_13796_107133)"/>
<path d="M56.2589 291.069L513.059 291.069C513.706 291.069 514.214 291.487 514.214 292.019C514.214 292.552 513.706 292.97 513.059 292.97L56.2358 292.97C55.5889 292.97 55.0806 292.551 55.0806 292.019C55.0806 291.487 55.5889 291.069 56.2358 291.069L56.2589 291.069Z" fill="url(#paint11_linear_13796_107133)"/>
<path d="M45.3052 220.706L329.708 220.706C330.355 220.706 330.863 221.124 330.863 221.656C330.863 222.189 330.355 222.607 329.708 222.607L45.3052 222.607C44.6583 222.607 44.15 222.189 44.15 221.656C44.15 221.124 44.6583 220.706 45.3052 220.706Z" fill="url(#paint12_linear_13796_107133)"/>
<path d="M325.527 0.0190324L794.341 0.0190734C794.988 0.0190734 795.496 0.437225 795.496 0.969406C795.496 1.5016 794.988 1.91974 794.341 1.91974L325.989 1.9197L147.677 148.613C147.469 148.784 147.169 148.898 146.869 148.898L7.30115 148.898C6.6543 148.898 6.146 148.48 6.146 147.948C6.146 147.416 6.6543 146.998 7.30115 146.998L146.384 146.998L324.696 0.304128C324.903 0.133061 325.204 0.0190324 325.504 0.0190324L325.527 0.0190324Z" fill="url(#paint13_linear_13796_107133)"/>
<path d="M45.3049 361.431L329.708 361.431C330.355 361.431 330.863 361.849 330.863 362.382C330.863 362.914 330.355 363.332 329.708 363.332L45.3049 363.332C44.658 363.332 44.1497 362.914 44.1497 362.382C44.1497 361.849 44.658 361.431 45.3049 361.431Z" fill="url(#paint14_linear_13796_107133)"/>
<path d="M7.32423 435.14L146.892 435.14C147.192 435.14 147.492 435.235 147.7 435.425L325.989 582.099L794.341 582.099C794.988 582.099 795.496 582.517 795.496 583.05C795.496 583.582 794.988 584 794.341 584L325.527 584C325.227 584 324.926 583.905 324.719 583.715L146.407 437.021L7.32423 437.021C6.67732 437.021 6.16908 436.603 6.16908 436.071C6.16908 435.539 6.67732 435.121 7.32423 435.121L7.32423 435.14Z" fill="url(#paint15_linear_13796_107133)"/>
<defs>
<linearGradient id="paint0_linear_13796_107133" x1="37.9625" y1="221.176" x2="52.6467" y2="221.176" gradientUnits="userSpaceOnUse">
<stop stop-color="#FF5C00"/>
<stop offset="1" stop-color="#FF5C00" stop-opacity="0"/>
</linearGradient>
<linearGradient id="paint1_linear_13796_107133" x1="37.9625" y1="361.902" x2="52.6467" y2="361.902" gradientUnits="userSpaceOnUse">
<stop stop-color="#FF5C00"/>
<stop offset="1" stop-color="#FF5C00" stop-opacity="0"/>
</linearGradient>
<linearGradient id="paint2_linear_13796_107133" x1="-0.0409397" y1="435.61" x2="14.6433" y2="435.61" gradientUnits="userSpaceOnUse">
<stop stop-color="#FF5C00"/>
<stop offset="1" stop-color="#FF5C00" stop-opacity="0"/>
</linearGradient>
<linearGradient id="paint3_linear_13796_107133" x1="-0.0409397" y1="147.467" x2="14.6433" y2="147.467" gradientUnits="userSpaceOnUse">
<stop stop-color="#FF5C00"/>
<stop offset="1" stop-color="#FF5C00" stop-opacity="0"/>
</linearGradient>
<linearGradient id="paint4_linear_13796_107133" x1="48.8887" y1="291.539" x2="63.573" y2="291.539" gradientUnits="userSpaceOnUse">
<stop stop-color="#FF5C00"/>
<stop offset="1" stop-color="#FF5C00" stop-opacity="0"/>
</linearGradient>
<linearGradient id="paint5_linear_13796_107133" x1="210.502" y1="181.855" x2="448.748" y2="181.855" gradientUnits="userSpaceOnUse">
<stop stop-color="#FF5C00"/>
<stop offset="1" stop-color="#FF5C00" stop-opacity="0"/>
</linearGradient>
<linearGradient id="paint6_linear_13796_107133" x1="322.185" y1="221.176" x2="336.869" y2="221.176" gradientUnits="userSpaceOnUse">
<stop stop-color="#FF5C00"/>
<stop offset="1" stop-color="#FF5C00" stop-opacity="0"/>
</linearGradient>
<linearGradient id="paint7_linear_13796_107133" x1="229.878" y1="78.2887" x2="378.742" y2="78.2889" gradientUnits="userSpaceOnUse">
<stop stop-color="#FF5C00"/>
<stop offset="1" stop-color="#FF5C00" stop-opacity="0"/>
</linearGradient>
<linearGradient id="paint8_linear_13796_107133" x1="210.566" y1="396.156" x2="448.766" y2="396.156" gradientUnits="userSpaceOnUse">
<stop stop-color="#FF5C00"/>
<stop offset="1" stop-color="#FF5C00" stop-opacity="0"/>
</linearGradient>
<linearGradient id="paint9_linear_13796_107133" x1="322.185" y1="361.902" x2="336.869" y2="361.902" gradientUnits="userSpaceOnUse">
<stop stop-color="#FF5C00"/>
<stop offset="1" stop-color="#FF5C00" stop-opacity="0"/>
</linearGradient>
<linearGradient id="paint10_linear_13796_107133" x1="229.878" y1="505.578" x2="378.742" y2="505.578" gradientUnits="userSpaceOnUse">
<stop stop-color="#FF5C00"/>
<stop offset="1" stop-color="#FF5C00" stop-opacity="0"/>
</linearGradient>
<linearGradient id="paint11_linear_13796_107133" x1="53.7945" y1="291.943" x2="515.534" y2="291.945" gradientUnits="userSpaceOnUse">
<stop stop-color="#FF5C00"/>
<stop offset="1" stop-color="#FF5C00" stop-opacity="0"/>
</linearGradient>
<linearGradient id="paint12_linear_13796_107133" x1="43.3469" y1="221.58" x2="331.687" y2="221.581" gradientUnits="userSpaceOnUse">
<stop stop-color="#FF5C00"/>
<stop offset="1" stop-color="#FF5C00" stop-opacity="0"/>
</linearGradient>
<linearGradient id="paint13_linear_13796_107133" x1="3.93493" y1="68.5137" x2="797.765" y2="68.5138" gradientUnits="userSpaceOnUse">
<stop stop-color="#FF5C00"/>
<stop offset="1" stop-color="#FF5C00" stop-opacity="0"/>
</linearGradient>
<linearGradient id="paint14_linear_13796_107133" x1="43.3466" y1="362.306" x2="331.687" y2="362.306" gradientUnits="userSpaceOnUse">
<stop stop-color="#FF5C00"/>
<stop offset="1" stop-color="#FF5C00" stop-opacity="0"/>
</linearGradient>
<linearGradient id="paint15_linear_13796_107133" x1="3.95801" y1="503.615" x2="797.765" y2="503.615" gradientUnits="userSpaceOnUse">
<stop stop-color="#FF5C00"/>
<stop offset="1" stop-color="#FF5C00" stop-opacity="0"/>
</linearGradient>
</defs>
</svg>
