<svg width="31" height="31" viewBox="0 0 31 31" fill="none" xmlns="http://www.w3.org/2000/svg">
<g id="icon luggage">
<path id="Vector" d="M16.9972 14.0576H16.0092C15.728 14.0576 15.5 14.2864 15.5 14.5687V15.6573C15.5 15.9395 15.728 16.1683 16.0092 16.1683H16.9972C17.2784 16.1683 17.5064 15.9395 17.5064 15.6573V14.5687C17.5064 14.2864 17.2784 14.0576 16.9972 14.0576Z" fill="current"/>
<path id="Vector_2" d="M1.99715 14.0576H1.00924C0.727992 14.0576 0.5 14.2864 0.5 14.5687V15.6573C0.5 15.9395 0.727992 16.1683 1.00924 16.1683H1.99715C2.2784 16.1683 2.50639 15.9395 2.50639 15.6573V14.5687C2.50639 14.2864 2.2784 14.0576 1.99715 14.0576Z" fill="current"/>
<path id="Vector_3" d="M29.4972 14.0576H28.5092C28.228 14.0576 28 14.2864 28 14.5687V15.6573C28 15.9395 28.228 16.1683 28.5092 16.1683H29.4972C29.7784 16.1683 30.0064 15.9395 30.0064 15.6573V14.5687C30.0064 14.2864 29.7784 14.0576 29.4972 14.0576Z" fill="current"/>
<path id="Vector_4" d="M14.4972 14.0576H13.5092C13.228 14.0576 13 14.2864 13 14.5687V15.6573C13 15.9395 13.228 16.1683 13.5092 16.1683H14.4972C14.7784 16.1683 15.0064 15.9395 15.0064 15.6573V14.5687C15.0064 14.2864 14.7784 14.0576 14.4972 14.0576Z" fill="current"/>
<path id="Vector_5" d="M11.9972 1.50586H11.0092C10.728 1.50586 10.5 1.73467 10.5 2.01693V3.1055C10.5 3.38776 10.728 3.61657 11.0092 3.61657H11.9972C12.2784 3.61657 12.5064 3.38776 12.5064 3.1055V2.01693C12.5064 1.73467 12.2784 1.50586 11.9972 1.50586Z" fill="current"/>
<path id="Vector_6" d="M14.4972 1.53027H13.5092C13.228 1.53027 13 1.75909 13 2.04134V3.12992C13 3.41217 13.228 3.64099 13.5092 3.64099H14.4972C14.7784 3.64099 15.0064 3.41217 15.0064 3.12992V2.04134C15.0064 1.75909 14.7784 1.53027 14.4972 1.53027Z" fill="current"/>
<path id="Vector_7" d="M16.9972 1.53027H16.0092C15.728 1.53027 15.5 1.75909 15.5 2.04134V3.12992C15.5 3.41217 15.728 3.64099 16.0092 3.64099H16.9972C17.2784 3.64099 17.5064 3.41217 17.5064 3.12992V2.04134C17.5064 1.75909 17.2784 1.53027 16.9972 1.53027Z" fill="current"/>
<path id="Vector_8" d="M21.9972 26.584H21.0092C20.728 26.584 20.5 26.8128 20.5 27.0951V28.1836C20.5 28.4659 20.728 28.6947 21.0092 28.6947H21.9972C22.2784 28.6947 22.5064 28.4659 22.5064 28.1836V27.0951C22.5064 26.8128 22.2784 26.584 21.9972 26.584Z" fill="current"/>
<path id="Vector_9" d="M6.99715 26.584H6.00924C5.72799 26.584 5.5 26.8128 5.5 27.0951V28.1836C5.5 28.4659 5.72799 28.6947 6.00924 28.6947H6.99715C7.2784 28.6947 7.50639 28.4659 7.50639 28.1836V27.0951C7.50639 26.8128 7.2784 26.584 6.99715 26.584Z" fill="current"/>
<path id="Vector_10" d="M16.9972 26.6084H16.0092C15.728 26.6084 15.5 26.8372 15.5 27.1195V28.208C15.5 28.4903 15.728 28.7191 16.0092 28.7191H16.9972C17.2784 28.7191 17.5064 28.4903 17.5064 28.208V27.1195C17.5064 26.8372 17.2784 26.6084 16.9972 26.6084Z" fill="current"/>
<path id="Vector_11" d="M1.99715 21.5635H1.00924C0.727992 21.5635 0.5 21.7923 0.5 22.0745V23.1631C0.5 23.4454 0.727992 23.6742 1.00924 23.6742H1.99715C2.2784 23.6742 2.50639 23.4454 2.50639 23.1631V22.0745C2.50639 21.7923 2.2784 21.5635 1.99715 21.5635Z" fill="current"/>
<path id="Vector_12" d="M29.4972 21.5635H28.5092C28.228 21.5635 28 21.7923 28 22.0745V23.1631C28 23.4454 28.228 23.6742 28.5092 23.6742H29.4972C29.7784 23.6742 30.0064 23.4454 30.0064 23.1631V22.0745C30.0064 21.7923 29.7784 21.5635 29.4972 21.5635Z" fill="current"/>
<path id="Vector_13" d="M14.4972 26.6084H13.5092C13.228 26.6084 13 26.8372 13 27.1195V28.208C13 28.4903 13.228 28.7191 13.5092 28.7191H14.4972C14.7784 28.7191 15.0064 28.4903 15.0064 28.208V27.1195C15.0064 26.8372 14.7784 26.6084 14.4972 26.6084Z" fill="current"/>
<path id="Vector_14" d="M9.49715 1.53027H8.50924C8.22799 1.53027 8 1.75909 8 2.04134V3.12992C8 3.41217 8.22799 3.64099 8.50924 3.64099H9.49715C9.7784 3.64099 10.0064 3.41217 10.0064 3.12992V2.04134C10.0064 1.75909 9.7784 1.53027 9.49715 1.53027Z" fill="current"/>
<path id="Vector_15" d="M9.49715 4.04102H8.50924C8.22799 4.04102 8 4.26983 8 4.55208V5.64066C8 5.92291 8.22799 6.15173 8.50924 6.15173H9.49715C9.7784 6.15173 10.0064 5.92291 10.0064 5.64066V4.55208C10.0064 4.26983 9.7784 4.04102 9.49715 4.04102Z" fill="current"/>
<path id="Vector_16" d="M1.99715 16.5918H1.00924C0.727992 16.5918 0.5 16.8206 0.5 17.1029V18.1914C0.5 18.4737 0.727992 18.7025 1.00924 18.7025H1.99715C2.2784 18.7025 2.50639 18.4737 2.50639 18.1914V17.1029C2.50639 16.8206 2.2784 16.5918 1.99715 16.5918Z" fill="current"/>
<path id="Vector_17" d="M29.4972 16.5918H28.5092C28.228 16.5918 28 16.8206 28 17.1029V18.1914C28 18.4737 28.228 18.7025 28.5092 18.7025H29.4972C29.7784 18.7025 30.0064 18.4737 30.0064 18.1914V17.1029C30.0064 16.8206 29.7784 16.5918 29.4972 16.5918Z" fill="current"/>
<path id="Vector_18" d="M16.9972 19.0781H16.0092C15.728 19.0781 15.5 19.3069 15.5 19.5892V20.6778C15.5 20.96 15.728 21.1888 16.0092 21.1888H16.9972C17.2784 21.1888 17.5064 20.96 17.5064 20.6778V19.5892C17.5064 19.3069 17.2784 19.0781 16.9972 19.0781Z" fill="current"/>
<path id="Vector_19" d="M1.99715 19.0781H1.00924C0.727992 19.0781 0.5 19.3069 0.5 19.5892V20.6778C0.5 20.96 0.727992 21.1888 1.00924 21.1888H1.99715C2.2784 21.1888 2.50639 20.96 2.50639 20.6778V19.5892C2.50639 19.3069 2.2784 19.0781 1.99715 19.0781Z" fill="current"/>
<path id="Vector_20" d="M29.4972 19.0781H28.5092C28.228 19.0781 28 19.3069 28 19.5892V20.6778C28 20.96 28.228 21.1888 28.5092 21.1888H29.4972C29.7784 21.1888 30.0064 20.96 30.0064 20.6778V19.5892C30.0064 19.3069 29.7784 19.0781 29.4972 19.0781Z" fill="current"/>
<path id="Vector_21" d="M14.4972 19.0781H13.5092C13.228 19.0781 13 19.3069 13 19.5892V20.6778C13 20.96 13.228 21.1888 13.5092 21.1888H14.4972C14.7784 21.1888 15.0064 20.96 15.0064 20.6778V19.5892C15.0064 19.3069 14.7784 19.0781 14.4972 19.0781Z" fill="current"/>
<path id="Vector_22" d="M1.99715 11.5713H1.00924C0.727992 11.5713 0.5 11.8001 0.5 12.0824V13.1709C0.5 13.4532 0.727992 13.682 1.00924 13.682H1.99715C2.2784 13.682 2.50639 13.4532 2.50639 13.1709V12.0824C2.50639 11.8001 2.2784 11.5713 1.99715 11.5713Z" fill="current"/>
<path id="Vector_23" d="M19.4972 16.5674H18.5092C18.228 16.5674 18 16.7962 18 17.0785V18.167C18 18.4493 18.228 18.6781 18.5092 18.6781H19.4972C19.7784 18.6781 20.0064 18.4493 20.0064 18.167V17.0785C20.0064 16.7962 19.7784 16.5674 19.4972 16.5674Z" fill="current"/>
<path id="Vector_24" d="M19.4972 14.0576H18.5092C18.228 14.0576 18 14.2864 18 14.5687V15.6573C18 15.9395 18.228 16.1683 18.5092 16.1683H19.4972C19.7784 16.1683 20.0064 15.9395 20.0064 15.6573V14.5687C20.0064 14.2864 19.7784 14.0576 19.4972 14.0576Z" fill="current"/>
<path id="Vector_25" d="M4.49715 16.5674H3.50924C3.22799 16.5674 3 16.7962 3 17.0785V18.167C3 18.4493 3.22799 18.6781 3.50924 18.6781H4.49715C4.7784 18.6781 5.00639 18.4493 5.00639 18.167V17.0785C5.00639 16.7962 4.7784 16.5674 4.49715 16.5674Z" fill="current"/>
<path id="Vector_26" d="M4.49715 6.55078H3.50924C3.22799 6.55078 3 6.77959 3 7.06185V8.15042C3 8.43268 3.22799 8.66149 3.50924 8.66149H4.49715C4.7784 8.66149 5.00639 8.43268 5.00639 8.15042V7.06185C5.00639 6.77959 4.7784 6.55078 4.49715 6.55078Z" fill="current"/>
<path id="Vector_27" d="M11.9972 6.55078H11.0092C10.728 6.55078 10.5 6.77959 10.5 7.06185V8.15042C10.5 8.43268 10.728 8.66149 11.0092 8.66149H11.9972C12.2784 8.66149 12.5064 8.43268 12.5064 8.15042V7.06185C12.5064 6.77959 12.2784 6.55078 11.9972 6.55078Z" fill="current"/>
<path id="Vector_28" d="M19.4972 6.55078H18.5092C18.228 6.55078 18 6.77959 18 7.06185V8.15042C18 8.43268 18.228 8.66149 18.5092 8.66149H19.4972C19.7784 8.66149 20.0064 8.43268 20.0064 8.15042V7.06185C20.0064 6.77959 19.7784 6.55078 19.4972 6.55078Z" fill="current"/>
<path id="Vector_29" d="M21.9972 16.5674H21.0092C20.728 16.5674 20.5 16.7962 20.5 17.0785V18.167C20.5 18.4493 20.728 18.6781 21.0092 18.6781H21.9972C22.2784 18.6781 22.5064 18.4493 22.5064 18.167V17.0785C22.5064 16.7962 22.2784 16.5674 21.9972 16.5674Z" fill="current"/>
<path id="Vector_30" d="M6.99715 16.5674H6.00924C5.72799 16.5674 5.5 16.7962 5.5 17.0785V18.167C5.5 18.4493 5.72799 18.6781 6.00924 18.6781H6.99715C7.2784 18.6781 7.50639 18.4493 7.50639 18.167V17.0785C7.50639 16.7962 7.2784 16.5674 6.99715 16.5674Z" fill="current"/>
<path id="Vector_31" d="M6.99715 6.55078H6.00924C5.72799 6.55078 5.5 6.77959 5.5 7.06185V8.15042C5.5 8.43268 5.72799 8.66149 6.00924 8.66149H6.99715C7.2784 8.66149 7.50639 8.43268 7.50639 8.15042V7.06185C7.50639 6.77959 7.2784 6.55078 6.99715 6.55078Z" fill="current"/>
<path id="Vector_32" d="M14.4972 6.55078H13.5092C13.228 6.55078 13 6.77959 13 7.06185V8.15042C13 8.43268 13.228 8.66149 13.5092 8.66149H14.4972C14.7784 8.66149 15.0064 8.43268 15.0064 8.15042V7.06185C15.0064 6.77959 14.7784 6.55078 14.4972 6.55078Z" fill="current"/>
<path id="Vector_33" d="M21.9972 6.55078H21.0092C20.728 6.55078 20.5 6.77959 20.5 7.06185V8.15042C20.5 8.43268 20.728 8.66149 21.0092 8.66149H21.9972C22.2784 8.66149 22.5064 8.43268 22.5064 8.15042V7.06185C22.5064 6.77959 22.2784 6.55078 21.9972 6.55078Z" fill="current"/>
<path id="Vector_34" d="M24.4972 16.5674H23.5092C23.228 16.5674 23 16.7962 23 17.0785V18.167C23 18.4493 23.228 18.6781 23.5092 18.6781H24.4972C24.7784 18.6781 25.0064 18.4493 25.0064 18.167V17.0785C25.0064 16.7962 24.7784 16.5674 24.4972 16.5674Z" fill="current"/>
<path id="Vector_35" d="M9.49715 16.5674H8.50924C8.22799 16.5674 8 16.7962 8 17.0785V18.167C8 18.4493 8.22799 18.6781 8.50924 18.6781H9.49715C9.7784 18.6781 10.0064 18.4493 10.0064 18.167V17.0785C10.0064 16.7962 9.7784 16.5674 9.49715 16.5674Z" fill="current"/>
<path id="Vector_36" d="M9.49715 6.55078H8.50924C8.22799 6.55078 8 6.77959 8 7.06185V8.15042C8 8.43268 8.22799 8.66149 8.50924 8.66149H9.49715C9.7784 8.66149 10.0064 8.43268 10.0064 8.15042V7.06185C10.0064 6.77959 9.7784 6.55078 9.49715 6.55078Z" fill="current"/>
<path id="Vector_37" d="M16.9972 6.55078H16.0092C15.728 6.55078 15.5 6.77959 15.5 7.06185V8.15042C15.5 8.43268 15.728 8.66149 16.0092 8.66149H16.9972C17.2784 8.66149 17.5064 8.43268 17.5064 8.15042V7.06185C17.5064 6.77959 17.2784 6.55078 16.9972 6.55078Z" fill="current"/>
<path id="Vector_38" d="M24.4972 6.55078H23.5092C23.228 6.55078 23 6.77959 23 7.06185V8.15042C23 8.43268 23.228 8.66149 23.5092 8.66149H24.4972C24.7784 8.66149 25.0064 8.43268 25.0064 8.15042V7.06185C25.0064 6.77959 24.7784 6.55078 24.4972 6.55078Z" fill="current"/>
<path id="Vector_39" d="M26.9972 6.55078H26.0092C25.728 6.55078 25.5 6.77959 25.5 7.06185V8.15042C25.5 8.43268 25.728 8.66149 26.0092 8.66149H26.9972C27.2784 8.66149 27.5064 8.43268 27.5064 8.15042V7.06185C27.5064 6.77959 27.2784 6.55078 26.9972 6.55078Z" fill="current"/>
<path id="Vector_40" d="M11.9972 16.5674H11.0092C10.728 16.5674 10.5 16.7962 10.5 17.0785V18.167C10.5 18.4493 10.728 18.6781 11.0092 18.6781H11.9972C12.2784 18.6781 12.5064 18.4493 12.5064 18.167V17.0785C12.5064 16.7962 12.2784 16.5674 11.9972 16.5674Z" fill="current"/>
<path id="Vector_41" d="M11.9972 16.5674H11.0092C10.728 16.5674 10.5 16.7962 10.5 17.0785V18.167C10.5 18.4493 10.728 18.6781 11.0092 18.6781H11.9972C12.2784 18.6781 12.5064 18.4493 12.5064 18.167V17.0785C12.5064 16.7962 12.2784 16.5674 11.9972 16.5674Z" fill="current"/>
<path id="Vector_42" d="M26.9972 16.5674H26.0092C25.728 16.5674 25.5 16.7962 25.5 17.0785V18.167C25.5 18.4493 25.728 18.6781 26.0092 18.6781H26.9972C27.2784 18.6781 27.5064 18.4493 27.5064 18.167V17.0785C27.5064 16.7962 27.2784 16.5674 26.9972 16.5674Z" fill="current"/>
<path id="Vector_43" d="M11.9972 14.0576H11.0092C10.728 14.0576 10.5 14.2864 10.5 14.5687V15.6573C10.5 15.9395 10.728 16.1683 11.0092 16.1683H11.9972C12.2784 16.1683 12.5064 15.9395 12.5064 15.6573V14.5687C12.5064 14.2864 12.2784 14.0576 11.9972 14.0576Z" fill="current"/>
<path id="Vector_44" d="M1.99715 9.03711H1.00924C0.727992 9.03711 0.5 9.26592 0.5 9.54818V10.6368C0.5 10.919 0.727992 11.1478 1.00924 11.1478H1.99715C2.2784 11.1478 2.50639 10.919 2.50639 10.6368V9.54818C2.50639 9.26592 2.2784 9.03711 1.99715 9.03711Z" fill="current"/>
<path id="Vector_45" d="M29.4972 11.5713H28.5092C28.228 11.5713 28 11.8001 28 12.0824V13.1709C28 13.4532 28.228 13.682 28.5092 13.682H29.4972C29.7784 13.682 30.0064 13.4532 30.0064 13.1709V12.0824C30.0064 11.8001 29.7784 11.5713 29.4972 11.5713Z" fill="current"/>
<path id="Vector_46" d="M29.4972 9.03711H28.5092C28.228 9.03711 28 9.26592 28 9.54818V10.6368C28 10.919 28.228 11.1478 28.5092 11.1478H29.4972C29.7784 11.1478 30.0064 10.919 30.0064 10.6368V9.54818C30.0064 9.26592 29.7784 9.03711 29.4972 9.03711Z" fill="current"/>
<path id="Vector_47" d="M29.4972 24.0986H28.5092C28.228 24.0986 28 24.3274 28 24.6097V25.6983C28 25.9805 28.228 26.2093 28.5092 26.2093H29.4972C29.7784 26.2093 30.0064 25.9805 30.0064 25.6983V24.6097C30.0064 24.3274 29.7784 24.0986 29.4972 24.0986Z" fill="current"/>
<path id="Vector_48" d="M26.9972 26.6084H26.0092C25.728 26.6084 25.5 26.8372 25.5 27.1195V28.208C25.5 28.4903 25.728 28.7191 26.0092 28.7191H26.9972C27.2784 28.7191 27.5064 28.4903 27.5064 28.208V27.1195C27.5064 26.8372 27.2784 26.6084 26.9972 26.6084Z" fill="current"/>
<path id="Vector_49" d="M11.9972 26.6084H11.0092C10.728 26.6084 10.5 26.8372 10.5 27.1195V28.208C10.5 28.4903 10.728 28.7191 11.0092 28.7191H11.9972C12.2784 28.7191 12.5064 28.4903 12.5064 28.208V27.1195C12.5064 26.8372 12.2784 26.6084 11.9972 26.6084Z" fill="current"/>
<path id="Vector_50" d="M19.5128 1.55176H18.5249C18.2436 1.55176 18.0156 1.78057 18.0156 2.06283V3.1514C18.0156 3.43366 18.2436 3.66247 18.5249 3.66247H19.5128C19.794 3.66247 20.022 3.43366 20.022 3.1514V2.06283C20.022 1.78057 19.794 1.55176 19.5128 1.55176Z" fill="current"/>
<path id="Vector_51" d="M21.9972 1.53027H21.0092C20.728 1.53027 20.5 1.75909 20.5 2.04134V3.12992C20.5 3.41217 20.728 3.64099 21.0092 3.64099H21.9972C22.2784 3.64099 22.5064 3.41217 22.5064 3.12992V2.04134C22.5064 1.75909 22.2784 1.53027 21.9972 1.53027Z" fill="current"/>
<path id="Vector_52" d="M21.9972 4.04102H21.0092C20.728 4.04102 20.5 4.26983 20.5 4.55208V5.64066C20.5 5.92291 20.728 6.15173 21.0092 6.15173H21.9972C22.2784 6.15173 22.5064 5.92291 22.5064 5.64066V4.55208C22.5064 4.26983 22.2784 4.04102 21.9972 4.04102Z" fill="current"/>
<path id="Vector_53" d="M24.5128 26.6299H23.5249C23.2436 26.6299 23.0156 26.8587 23.0156 27.141V28.2295C23.0156 28.5118 23.2436 28.7406 23.5249 28.7406H24.5128C24.794 28.7406 25.022 28.5118 25.022 28.2295V27.141C25.022 26.8587 24.794 26.6299 24.5128 26.6299Z" fill="current"/>
<path id="Vector_54" d="M9.51278 26.6299H8.52486C8.24362 26.6299 8.01562 26.8587 8.01562 27.141V28.2295C8.01562 28.5118 8.24362 28.7406 8.52486 28.7406H9.51278C9.79402 28.7406 10.022 28.5118 10.022 28.2295V27.141C10.022 26.8587 9.79402 26.6299 9.51278 26.6299Z" fill="current"/>
<path id="Vector_55" d="M19.4972 26.6084H18.5092C18.228 26.6084 18 26.8372 18 27.1195V28.208C18 28.4903 18.228 28.7191 18.5092 28.7191H19.4972C19.7784 28.7191 20.0064 28.4903 20.0064 28.208V27.1195C20.0064 26.8372 19.7784 26.6084 19.4972 26.6084Z" fill="current"/>
<path id="Vector_56" d="M4.49715 26.6084H3.50924C3.22799 26.6084 3 26.8372 3 27.1195V28.208C3 28.4903 3.22799 28.7191 3.50924 28.7191H4.49715C4.7784 28.7191 5.00639 28.4903 5.00639 28.208V27.1195C5.00639 26.8372 4.7784 26.6084 4.49715 26.6084Z" fill="current"/>
<path id="Vector_57" d="M1.99715 24.0986H1.00924C0.727992 24.0986 0.5 24.3274 0.5 24.6097V25.6983C0.5 25.9805 0.727992 26.2093 1.00924 26.2093H1.99715C2.2784 26.2093 2.50639 25.9805 2.50639 25.6983V24.6097C2.50639 24.3274 2.2784 24.0986 1.99715 24.0986Z" fill="current"/>
</g>
</svg>
