<svg width="215" height="52" viewBox="0 0 215 52" fill="none" xmlns="http://www.w3.org/2000/svg">
<g clip-path="url(#clip0_15463_38106)">
<rect x="84.1724" y="10.1084" width="13.3417" height="32.5208" fill="white"/>
<path d="M90.4688 27.3678H88.8879V34.1792H90.9199C91.529 34.1792 91.9847 34.0088 92.2823 33.6818C92.5799 33.3548 92.7333 32.7837 92.7333 31.9778V30.0435C92.7333 29.035 92.5613 28.3395 92.2033 27.9527C91.8452 27.5658 91.264 27.3632 90.4688 27.3632V27.3678Z" fill="#FF5C00"/>
<path d="M91.8452 23.6513C92.1893 23.2966 92.3614 22.6933 92.3614 21.8552V20.6163C92.3614 19.1011 91.7662 18.3413 90.5804 18.3228H88.8786V24.1901H90.2689C90.971 24.1901 91.5058 24.0059 91.8499 23.6467L91.8452 23.6513Z" fill="#FF5C00"/>
<path d="M90.5758 0.5C84.7495 0.5 80.0205 5.17907 80.0205 10.9542V41.0458C80.0205 46.8163 84.7448 51.5 90.5758 51.5C96.4021 51.5 101.131 46.8209 101.131 41.0458V10.9542C101.131 5.18367 96.4068 0.5 90.5758 0.5ZM96.2394 32.0883C96.2394 33.8061 95.7837 35.1094 94.8816 36.0075C94.3143 36.5694 93.5843 36.9516 92.6915 37.1634V37.951C92.6915 38.5128 92.2265 38.9734 91.6592 38.9734C91.0919 38.9734 90.6223 38.5128 90.6223 37.951V37.3523H88.8786V37.951C88.8786 38.5128 88.4136 38.9734 87.8463 38.9734C87.279 38.9734 86.814 38.5128 86.814 37.951V37.3523H86.4932C85.7445 37.3523 85.3679 36.9792 85.3679 36.2378V16.2642C85.3679 15.5228 85.7445 15.1497 86.4932 15.1497H86.814V14.0444C86.814 13.4826 87.279 13.022 87.8463 13.022C88.4136 13.022 88.8786 13.4826 88.8786 14.0444V15.1497H90.6223V14.0444C90.6223 13.4826 91.0873 13.022 91.6592 13.022C92.2312 13.022 92.6915 13.4826 92.6915 14.0444V15.2418C92.6915 15.2879 92.6822 15.3293 92.6776 15.3708C93.5006 15.5734 94.1609 15.9142 94.6491 16.4024C95.4768 17.2406 95.8999 18.5255 95.8999 20.2571V21.1413C95.8999 23.4164 95.1327 24.8717 93.6168 25.4934V25.5533C95.3699 26.1428 96.244 27.6902 96.244 30.1817V32.0883H96.2394Z" fill="#FF5C00"/>
</g>
<path d="M119.848 39.6337C117.48 39.6337 115.688 38.9676 114.475 37.6355C113.261 36.2737 112.654 34.3347 112.654 31.8184V30.0422H117.272V32.1736C117.272 34.1867 118.116 35.1932 119.803 35.1932C120.632 35.1932 121.254 34.9564 121.669 34.4827C122.113 33.9795 122.335 33.1802 122.335 32.0848C122.335 30.7823 122.039 29.6425 121.447 28.6656C120.854 27.6591 119.759 26.4602 118.16 25.0688C116.147 23.2926 114.741 21.694 113.942 20.2731C113.142 18.8225 112.743 17.1943 112.743 15.3885C112.743 12.9314 113.364 11.0368 114.608 9.70463C115.851 8.34287 117.657 7.66199 120.026 7.66199C122.364 7.66199 124.126 8.34287 125.31 9.70463C126.524 11.0368 127.131 12.961 127.131 15.4773V16.765H122.512V15.1665C122.512 14.1007 122.305 13.331 121.891 12.8574C121.476 12.3541 120.869 12.1025 120.07 12.1025C118.442 12.1025 117.628 13.0942 117.628 15.0777C117.628 16.2026 117.924 17.2535 118.516 18.2304C119.137 19.2073 120.248 20.3915 121.846 21.7828C123.889 23.559 125.295 25.1724 126.065 26.623C126.835 28.0736 127.219 29.7758 127.219 31.7296C127.219 34.2755 126.583 36.2293 125.31 37.5911C124.067 38.9528 122.246 39.6337 119.848 39.6337Z" fill="white"/>
<path d="M136.903 39.6337C134.565 39.6337 132.773 38.9676 131.53 37.6355C130.316 36.3033 129.709 34.4235 129.709 31.996V15.2997C129.709 12.8722 130.316 10.9924 131.53 9.66022C132.773 8.32807 134.565 7.66199 136.903 7.66199C139.242 7.66199 141.018 8.32807 142.232 9.66022C143.476 10.9924 144.097 12.8722 144.097 15.2997V18.5857H139.479V14.9888C139.479 13.0646 138.665 12.1025 137.037 12.1025C135.408 12.1025 134.594 13.0646 134.594 14.9888V32.3513C134.594 34.2459 135.408 35.1932 137.037 35.1932C138.665 35.1932 139.479 34.2459 139.479 32.3513V27.5999H144.097V31.996C144.097 34.4235 143.476 36.3033 142.232 37.6355C141.018 38.9676 139.242 39.6337 136.903 39.6337Z" fill="white"/>
<path d="M147.02 8.10604H151.905V20.7615H157.145V8.10604H162.029V39.1897H157.145V25.202H151.905V39.1897H147.02V8.10604Z" fill="white"/>
<path d="M172.728 39.6337C170.33 39.6337 168.494 38.9528 167.221 37.5911C165.948 36.2293 165.312 34.3051 165.312 31.8184V15.4773C165.312 12.9906 165.948 11.0664 167.221 9.70463C168.494 8.34287 170.33 7.66199 172.728 7.66199C175.126 7.66199 176.961 8.34287 178.234 9.70463C179.507 11.0664 180.144 12.9906 180.144 15.4773V31.8184C180.144 34.3051 179.507 36.2293 178.234 37.5911C176.961 38.9528 175.126 39.6337 172.728 39.6337ZM172.728 35.1932C174.415 35.1932 175.259 34.1719 175.259 32.1292V15.1665C175.259 13.1238 174.415 12.1025 172.728 12.1025C171.04 12.1025 170.197 13.1238 170.197 15.1665V32.1292C170.197 34.1719 171.04 35.1932 172.728 35.1932Z" fill="white"/>
<path d="M190.508 39.6337C188.11 39.6337 186.275 38.9528 185.002 37.5911C183.729 36.2293 183.092 34.3051 183.092 31.8184V15.4773C183.092 12.9906 183.729 11.0664 185.002 9.70463C186.275 8.34287 188.11 7.66199 190.508 7.66199C192.906 7.66199 194.742 8.34287 196.014 9.70463C197.288 11.0664 197.924 12.9906 197.924 15.4773V31.8184C197.924 34.3051 197.288 36.2293 196.014 37.5911C194.742 38.9528 192.906 39.6337 190.508 39.6337ZM190.508 35.1932C192.195 35.1932 193.039 34.1719 193.039 32.1292V15.1665C193.039 13.1238 192.195 12.1025 190.508 12.1025C188.821 12.1025 187.977 13.1238 187.977 15.1665V32.1292C187.977 34.1719 188.821 35.1932 190.508 35.1932Z" fill="white"/>
<path d="M201.227 8.10604H206.112V34.7491H214.15V39.1897H201.227V8.10604Z" fill="white"/>
<path d="M1.8208 8.10604H9.01473C11.4423 8.10604 13.263 8.75731 14.4768 10.0599C15.6906 11.3624 16.2975 13.2718 16.2975 15.7881V18.8521C16.2975 21.3684 15.6906 23.2778 14.4768 24.5804C13.263 25.8829 11.4423 26.5342 9.01473 26.5342H6.70557V39.1897H1.8208V8.10604ZM9.01473 22.0937C9.81405 22.0937 10.4061 21.8716 10.791 21.4276C11.2055 20.9835 11.4127 20.2287 11.4127 19.1629V15.4773C11.4127 14.4116 11.2055 13.6567 10.791 13.2126C10.4061 12.7686 9.81405 12.5466 9.01473 12.5466H6.70557V22.0937H9.01473Z" fill="white"/>
<path d="M18.9504 8.10604H23.8352V34.7491H31.8729V39.1897H18.9504V8.10604Z" fill="white"/>
<path d="M38.1634 8.10604H44.78L49.8424 39.1897H44.9576L44.0695 33.0173V33.1062H38.5186L37.6305 39.1897H33.101L38.1634 8.10604ZM43.4922 28.8877L41.3163 13.5235H41.2275L39.0959 28.8877H43.4922Z" fill="white"/>
<path d="M52.2123 8.10604H58.3405L63.092 26.7118H63.1808V8.10604H67.5327V39.1897H62.5147L56.653 16.4986H56.5642V39.1897H52.2123V8.10604Z" fill="white"/>
<defs>
<clipPath id="clip0_15463_38106">
<rect width="21.1043" height="51" fill="white" transform="translate(80.0205 0.5)"/>
</clipPath>
</defs>
</svg>
